<?xml version="1.0" encoding="utf-8" standalone="no"?>
<!DOCTYPE svg PUBLIC "-//W3C//DTD SVG 1.1//EN"
  "http://www.w3.org/Graphics/SVG/1.1/DTD/svg11.dtd">
<!-- Created with matplotlib (https://matplotlib.org/) -->
<svg height="299.82pt" version="1.1" viewBox="0 0 703.851825 299.82" width="703.851825pt" xmlns="http://www.w3.org/2000/svg" xmlns:xlink="http://www.w3.org/1999/xlink">
 <defs>
  <style type="text/css">
*{stroke-linecap:butt;stroke-linejoin:round;}
  </style>
 </defs>
 <g id="figure_1">
  <g id="patch_1">
   <path d="M 0 299.82 
L 703.851825 299.82 
L 703.851825 0 
L 0 0 
z
" style="fill:#ffffff;"/>
  </g>
  <g id="axes_1">
   <g id="patch_2">
    <path d="M 48.8975 223.32 
L 272.52 223.32 
L 272.52 75.24 
L 48.8975 75.24 
z
" style="fill:#ffffff;"/>
   </g>
   <g id="matplotlib.axis_1">
    <g id="xtick_1">
     <g id="line2d_1">
      <path clip-path="url(#p5b573e609c)" d="M 48.8975 223.32 
L 48.8975 75.24 
" style="fill:none;stroke:#cccccc;stroke-linecap:round;stroke-width:0.8;"/>
     </g>
     <g id="text_1">
      <!-- 0.0M -->
      <defs>
       <path d="M 31.78125 66.40625 
Q 24.171875 66.40625 20.328125 58.90625 
Q 16.5 51.421875 16.5 36.375 
Q 16.5 21.390625 20.328125 13.890625 
Q 24.171875 6.390625 31.78125 6.390625 
Q 39.453125 6.390625 43.28125 13.890625 
Q 47.125 21.390625 47.125 36.375 
Q 47.125 51.421875 43.28125 58.90625 
Q 39.453125 66.40625 31.78125 66.40625 
z
M 31.78125 74.21875 
Q 44.046875 74.21875 50.515625 64.515625 
Q 56.984375 54.828125 56.984375 36.375 
Q 56.984375 17.96875 50.515625 8.265625 
Q 44.046875 -1.421875 31.78125 -1.421875 
Q 19.53125 -1.421875 13.0625 8.265625 
Q 6.59375 17.96875 6.59375 36.375 
Q 6.59375 54.828125 13.0625 64.515625 
Q 19.53125 74.21875 31.78125 74.21875 
z
" id="DejaVuSans-48"/>
       <path d="M 10.6875 12.40625 
L 21 12.40625 
L 21 0 
L 10.6875 0 
z
" id="DejaVuSans-46"/>
       <path d="M 9.8125 72.90625 
L 24.515625 72.90625 
L 43.109375 23.296875 
L 61.8125 72.90625 
L 76.515625 72.90625 
L 76.515625 0 
L 66.890625 0 
L 66.890625 64.015625 
L 48.09375 14.015625 
L 38.1875 14.015625 
L 19.390625 64.015625 
L 19.390625 0 
L 9.8125 0 
z
" id="DejaVuSans-77"/>
      </defs>
      <g style="fill:#262626;" transform="translate(34.17875 239.438125)scale(0.12 -0.12)">
       <use xlink:href="#DejaVuSans-48"/>
       <use x="63.623047" xlink:href="#DejaVuSans-46"/>
       <use x="95.410156" xlink:href="#DejaVuSans-48"/>
       <use x="159.033203" xlink:href="#DejaVuSans-77"/>
      </g>
     </g>
    </g>
    <g id="xtick_2">
     <g id="line2d_2">
      <path clip-path="url(#p5b573e609c)" d="M 88.115135 223.32 
L 88.115135 75.24 
" style="fill:none;stroke:#cccccc;stroke-linecap:round;stroke-width:0.8;"/>
     </g>
     <g id="text_2">
      <!-- 0.2M -->
      <defs>
       <path d="M 19.1875 8.296875 
L 53.609375 8.296875 
L 53.609375 0 
L 7.328125 0 
L 7.328125 8.296875 
Q 12.9375 14.109375 22.625 23.890625 
Q 32.328125 33.6875 34.8125 36.53125 
Q 39.546875 41.84375 41.421875 45.53125 
Q 43.3125 49.21875 43.3125 52.78125 
Q 43.3125 58.59375 39.234375 62.25 
Q 35.15625 65.921875 28.609375 65.921875 
Q 23.96875 65.921875 18.8125 64.3125 
Q 13.671875 62.703125 7.8125 59.421875 
L 7.8125 69.390625 
Q 13.765625 71.78125 18.9375 73 
Q 24.125 74.21875 28.421875 74.21875 
Q 39.75 74.21875 46.484375 68.546875 
Q 53.21875 62.890625 53.21875 53.421875 
Q 53.21875 48.921875 51.53125 44.890625 
Q 49.859375 40.875 45.40625 35.40625 
Q 44.1875 33.984375 37.640625 27.21875 
Q 31.109375 20.453125 19.1875 8.296875 
z
" id="DejaVuSans-50"/>
      </defs>
      <g style="fill:#262626;" transform="translate(73.396385 239.438125)scale(0.12 -0.12)">
       <use xlink:href="#DejaVuSans-48"/>
       <use x="63.623047" xlink:href="#DejaVuSans-46"/>
       <use x="95.410156" xlink:href="#DejaVuSans-50"/>
       <use x="159.033203" xlink:href="#DejaVuSans-77"/>
      </g>
     </g>
    </g>
    <g id="xtick_3">
     <g id="line2d_3">
      <path clip-path="url(#p5b573e609c)" d="M 127.33277 223.32 
L 127.33277 75.24 
" style="fill:none;stroke:#cccccc;stroke-linecap:round;stroke-width:0.8;"/>
     </g>
     <g id="text_3">
      <!-- 0.5M -->
      <defs>
       <path d="M 10.796875 72.90625 
L 49.515625 72.90625 
L 49.515625 64.59375 
L 19.828125 64.59375 
L 19.828125 46.734375 
Q 21.96875 47.46875 24.109375 47.828125 
Q 26.265625 48.1875 28.421875 48.1875 
Q 40.625 48.1875 47.75 41.5 
Q 54.890625 34.8125 54.890625 23.390625 
Q 54.890625 11.625 47.5625 5.09375 
Q 40.234375 -1.421875 26.90625 -1.421875 
Q 22.3125 -1.421875 17.546875 -0.640625 
Q 12.796875 0.140625 7.71875 1.703125 
L 7.71875 11.625 
Q 12.109375 9.234375 16.796875 8.0625 
Q 21.484375 6.890625 26.703125 6.890625 
Q 35.15625 6.890625 40.078125 11.328125 
Q 45.015625 15.765625 45.015625 23.390625 
Q 45.015625 31 40.078125 35.4375 
Q 35.15625 39.890625 26.703125 39.890625 
Q 22.75 39.890625 18.8125 39.015625 
Q 14.890625 38.140625 10.796875 36.28125 
z
" id="DejaVuSans-53"/>
      </defs>
      <g style="fill:#262626;" transform="translate(112.61402 239.438125)scale(0.12 -0.12)">
       <use xlink:href="#DejaVuSans-48"/>
       <use x="63.623047" xlink:href="#DejaVuSans-46"/>
       <use x="95.410156" xlink:href="#DejaVuSans-53"/>
       <use x="159.033203" xlink:href="#DejaVuSans-77"/>
      </g>
     </g>
    </g>
    <g id="xtick_4">
     <g id="line2d_4">
      <path clip-path="url(#p5b573e609c)" d="M 166.550405 223.32 
L 166.550405 75.24 
" style="fill:none;stroke:#cccccc;stroke-linecap:round;stroke-width:0.8;"/>
     </g>
     <g id="text_4">
      <!-- 0.8M -->
      <defs>
       <path d="M 31.78125 34.625 
Q 24.75 34.625 20.71875 30.859375 
Q 16.703125 27.09375 16.703125 20.515625 
Q 16.703125 13.921875 20.71875 10.15625 
Q 24.75 6.390625 31.78125 6.390625 
Q 38.8125 6.390625 42.859375 10.171875 
Q 46.921875 13.96875 46.921875 20.515625 
Q 46.921875 27.09375 42.890625 30.859375 
Q 38.875 34.625 31.78125 34.625 
z
M 21.921875 38.8125 
Q 15.578125 40.375 12.03125 44.71875 
Q 8.5 49.078125 8.5 55.328125 
Q 8.5 64.0625 14.71875 69.140625 
Q 20.953125 74.21875 31.78125 74.21875 
Q 42.671875 74.21875 48.875 69.140625 
Q 55.078125 64.0625 55.078125 55.328125 
Q 55.078125 49.078125 51.53125 44.71875 
Q 48 40.375 41.703125 38.8125 
Q 48.828125 37.15625 52.796875 32.3125 
Q 56.78125 27.484375 56.78125 20.515625 
Q 56.78125 9.90625 50.3125 4.234375 
Q 43.84375 -1.421875 31.78125 -1.421875 
Q 19.734375 -1.421875 13.25 4.234375 
Q 6.78125 9.90625 6.78125 20.515625 
Q 6.78125 27.484375 10.78125 32.3125 
Q 14.796875 37.15625 21.921875 38.8125 
z
M 18.3125 54.390625 
Q 18.3125 48.734375 21.84375 45.5625 
Q 25.390625 42.390625 31.78125 42.390625 
Q 38.140625 42.390625 41.71875 45.5625 
Q 45.3125 48.734375 45.3125 54.390625 
Q 45.3125 60.0625 41.71875 63.234375 
Q 38.140625 66.40625 31.78125 66.40625 
Q 25.390625 66.40625 21.84375 63.234375 
Q 18.3125 60.0625 18.3125 54.390625 
z
" id="DejaVuSans-56"/>
      </defs>
      <g style="fill:#262626;" transform="translate(151.831655 239.438125)scale(0.12 -0.12)">
       <use xlink:href="#DejaVuSans-48"/>
       <use x="63.623047" xlink:href="#DejaVuSans-46"/>
       <use x="95.410156" xlink:href="#DejaVuSans-56"/>
       <use x="159.033203" xlink:href="#DejaVuSans-77"/>
      </g>
     </g>
    </g>
    <g id="xtick_5">
     <g id="line2d_5">
      <path clip-path="url(#p5b573e609c)" d="M 205.76804 223.32 
L 205.76804 75.24 
" style="fill:none;stroke:#cccccc;stroke-linecap:round;stroke-width:0.8;"/>
     </g>
     <g id="text_5">
      <!-- 1.0M -->
      <defs>
       <path d="M 12.40625 8.296875 
L 28.515625 8.296875 
L 28.515625 63.921875 
L 10.984375 60.40625 
L 10.984375 69.390625 
L 28.421875 72.90625 
L 38.28125 72.90625 
L 38.28125 8.296875 
L 54.390625 8.296875 
L 54.390625 0 
L 12.40625 0 
z
" id="DejaVuSans-49"/>
      </defs>
      <g style="fill:#262626;" transform="translate(191.04929 239.438125)scale(0.12 -0.12)">
       <use xlink:href="#DejaVuSans-49"/>
       <use x="63.623047" xlink:href="#DejaVuSans-46"/>
       <use x="95.410156" xlink:href="#DejaVuSans-48"/>
       <use x="159.033203" xlink:href="#DejaVuSans-77"/>
      </g>
     </g>
    </g>
    <g id="xtick_6">
     <g id="line2d_6">
      <path clip-path="url(#p5b573e609c)" d="M 244.985675 223.32 
L 244.985675 75.24 
" style="fill:none;stroke:#cccccc;stroke-linecap:round;stroke-width:0.8;"/>
     </g>
     <g id="text_6">
      <!-- 1.2M -->
      <g style="fill:#262626;" transform="translate(230.266925 239.438125)scale(0.12 -0.12)">
       <use xlink:href="#DejaVuSans-49"/>
       <use x="63.623047" xlink:href="#DejaVuSans-46"/>
       <use x="95.410156" xlink:href="#DejaVuSans-50"/>
       <use x="159.033203" xlink:href="#DejaVuSans-77"/>
      </g>
     </g>
    </g>
    <g id="text_7">
     <!-- steps -->
     <defs>
      <path d="M 44.28125 53.078125 
L 44.28125 44.578125 
Q 40.484375 46.53125 36.375 47.5 
Q 32.28125 48.484375 27.875 48.484375 
Q 21.1875 48.484375 17.84375 46.4375 
Q 14.5 44.390625 14.5 40.28125 
Q 14.5 37.15625 16.890625 35.375 
Q 19.28125 33.59375 26.515625 31.984375 
L 29.59375 31.296875 
Q 39.15625 29.25 43.1875 25.515625 
Q 47.21875 21.78125 47.21875 15.09375 
Q 47.21875 7.46875 41.1875 3.015625 
Q 35.15625 -1.421875 24.609375 -1.421875 
Q 20.21875 -1.421875 15.453125 -0.5625 
Q 10.6875 0.296875 5.421875 2 
L 5.421875 11.28125 
Q 10.40625 8.6875 15.234375 7.390625 
Q 20.0625 6.109375 24.8125 6.109375 
Q 31.15625 6.109375 34.5625 8.28125 
Q 37.984375 10.453125 37.984375 14.40625 
Q 37.984375 18.0625 35.515625 20.015625 
Q 33.0625 21.96875 24.703125 23.78125 
L 21.578125 24.515625 
Q 13.234375 26.265625 9.515625 29.90625 
Q 5.8125 33.546875 5.8125 39.890625 
Q 5.8125 47.609375 11.28125 51.796875 
Q 16.75 56 26.8125 56 
Q 31.78125 56 36.171875 55.265625 
Q 40.578125 54.546875 44.28125 53.078125 
z
" id="DejaVuSans-115"/>
      <path d="M 18.3125 70.21875 
L 18.3125 54.6875 
L 36.8125 54.6875 
L 36.8125 47.703125 
L 18.3125 47.703125 
L 18.3125 18.015625 
Q 18.3125 11.328125 20.140625 9.421875 
Q 21.96875 7.515625 27.59375 7.515625 
L 36.8125 7.515625 
L 36.8125 0 
L 27.59375 0 
Q 17.1875 0 13.234375 3.875 
Q 9.28125 7.765625 9.28125 18.015625 
L 9.28125 47.703125 
L 2.6875 47.703125 
L 2.6875 54.6875 
L 9.28125 54.6875 
L 9.28125 70.21875 
z
" id="DejaVuSans-116"/>
      <path d="M 56.203125 29.59375 
L 56.203125 25.203125 
L 14.890625 25.203125 
Q 15.484375 15.921875 20.484375 11.0625 
Q 25.484375 6.203125 34.421875 6.203125 
Q 39.59375 6.203125 44.453125 7.46875 
Q 49.3125 8.734375 54.109375 11.28125 
L 54.109375 2.78125 
Q 49.265625 0.734375 44.1875 -0.34375 
Q 39.109375 -1.421875 33.890625 -1.421875 
Q 20.796875 -1.421875 13.15625 6.1875 
Q 5.515625 13.8125 5.515625 26.8125 
Q 5.515625 40.234375 12.765625 48.109375 
Q 20.015625 56 32.328125 56 
Q 43.359375 56 49.78125 48.890625 
Q 56.203125 41.796875 56.203125 29.59375 
z
M 47.21875 32.234375 
Q 47.125 39.59375 43.09375 43.984375 
Q 39.0625 48.390625 32.421875 48.390625 
Q 24.90625 48.390625 20.390625 44.140625 
Q 15.875 39.890625 15.1875 32.171875 
z
" id="DejaVuSans-101"/>
      <path d="M 18.109375 8.203125 
L 18.109375 -20.796875 
L 9.078125 -20.796875 
L 9.078125 54.6875 
L 18.109375 54.6875 
L 18.109375 46.390625 
Q 20.953125 51.265625 25.265625 53.625 
Q 29.59375 56 35.59375 56 
Q 45.5625 56 51.78125 48.09375 
Q 58.015625 40.1875 58.015625 27.296875 
Q 58.015625 14.40625 51.78125 6.484375 
Q 45.5625 -1.421875 35.59375 -1.421875 
Q 29.59375 -1.421875 25.265625 0.953125 
Q 20.953125 3.328125 18.109375 8.203125 
z
M 48.6875 27.296875 
Q 48.6875 37.203125 44.609375 42.84375 
Q 40.53125 48.484375 33.40625 48.484375 
Q 26.265625 48.484375 22.1875 42.84375 
Q 18.109375 37.203125 18.109375 27.296875 
Q 18.109375 17.390625 22.1875 11.75 
Q 26.265625 6.109375 33.40625 6.109375 
Q 40.53125 6.109375 44.609375 11.75 
Q 48.6875 17.390625 48.6875 27.296875 
z
" id="DejaVuSans-112"/>
     </defs>
     <g style="fill:#262626;" transform="translate(144.604375 255.051875)scale(0.12 -0.12)">
      <use xlink:href="#DejaVuSans-115"/>
      <use x="52.099609" xlink:href="#DejaVuSans-116"/>
      <use x="91.308594" xlink:href="#DejaVuSans-101"/>
      <use x="152.832031" xlink:href="#DejaVuSans-112"/>
      <use x="216.308594" xlink:href="#DejaVuSans-115"/>
     </g>
    </g>
   </g>
   <g id="matplotlib.axis_2">
    <g id="ytick_1">
     <g id="line2d_7">
      <path clip-path="url(#p5b573e609c)" d="M 48.8975 223.32 
L 272.52 223.32 
" style="fill:none;stroke:#cccccc;stroke-linecap:round;stroke-width:0.8;"/>
     </g>
     <g id="text_8">
      <!-- 0.0 -->
      <g style="fill:#262626;" transform="translate(22.81375 227.879062)scale(0.12 -0.12)">
       <use xlink:href="#DejaVuSans-48"/>
       <use x="63.623047" xlink:href="#DejaVuSans-46"/>
       <use x="95.410156" xlink:href="#DejaVuSans-48"/>
      </g>
     </g>
    </g>
    <g id="ytick_2">
     <g id="line2d_8">
      <path clip-path="url(#p5b573e609c)" d="M 48.8975 193.704 
L 272.52 193.704 
" style="fill:none;stroke:#cccccc;stroke-linecap:round;stroke-width:0.8;"/>
     </g>
     <g id="text_9">
      <!-- 0.2 -->
      <g style="fill:#262626;" transform="translate(22.81375 198.263062)scale(0.12 -0.12)">
       <use xlink:href="#DejaVuSans-48"/>
       <use x="63.623047" xlink:href="#DejaVuSans-46"/>
       <use x="95.410156" xlink:href="#DejaVuSans-50"/>
      </g>
     </g>
    </g>
    <g id="ytick_3">
     <g id="line2d_9">
      <path clip-path="url(#p5b573e609c)" d="M 48.8975 164.088 
L 272.52 164.088 
" style="fill:none;stroke:#cccccc;stroke-linecap:round;stroke-width:0.8;"/>
     </g>
     <g id="text_10">
      <!-- 0.4 -->
      <defs>
       <path d="M 37.796875 64.3125 
L 12.890625 25.390625 
L 37.796875 25.390625 
z
M 35.203125 72.90625 
L 47.609375 72.90625 
L 47.609375 25.390625 
L 58.015625 25.390625 
L 58.015625 17.1875 
L 47.609375 17.1875 
L 47.609375 0 
L 37.796875 0 
L 37.796875 17.1875 
L 4.890625 17.1875 
L 4.890625 26.703125 
z
" id="DejaVuSans-52"/>
      </defs>
      <g style="fill:#262626;" transform="translate(22.81375 168.647062)scale(0.12 -0.12)">
       <use xlink:href="#DejaVuSans-48"/>
       <use x="63.623047" xlink:href="#DejaVuSans-46"/>
       <use x="95.410156" xlink:href="#DejaVuSans-52"/>
      </g>
     </g>
    </g>
    <g id="ytick_4">
     <g id="line2d_10">
      <path clip-path="url(#p5b573e609c)" d="M 48.8975 134.472 
L 272.52 134.472 
" style="fill:none;stroke:#cccccc;stroke-linecap:round;stroke-width:0.8;"/>
     </g>
     <g id="text_11">
      <!-- 0.6 -->
      <defs>
       <path d="M 33.015625 40.375 
Q 26.375 40.375 22.484375 35.828125 
Q 18.609375 31.296875 18.609375 23.390625 
Q 18.609375 15.53125 22.484375 10.953125 
Q 26.375 6.390625 33.015625 6.390625 
Q 39.65625 6.390625 43.53125 10.953125 
Q 47.40625 15.53125 47.40625 23.390625 
Q 47.40625 31.296875 43.53125 35.828125 
Q 39.65625 40.375 33.015625 40.375 
z
M 52.59375 71.296875 
L 52.59375 62.3125 
Q 48.875 64.0625 45.09375 64.984375 
Q 41.3125 65.921875 37.59375 65.921875 
Q 27.828125 65.921875 22.671875 59.328125 
Q 17.53125 52.734375 16.796875 39.40625 
Q 19.671875 43.65625 24.015625 45.921875 
Q 28.375 48.1875 33.59375 48.1875 
Q 44.578125 48.1875 50.953125 41.515625 
Q 57.328125 34.859375 57.328125 23.390625 
Q 57.328125 12.15625 50.6875 5.359375 
Q 44.046875 -1.421875 33.015625 -1.421875 
Q 20.359375 -1.421875 13.671875 8.265625 
Q 6.984375 17.96875 6.984375 36.375 
Q 6.984375 53.65625 15.1875 63.9375 
Q 23.390625 74.21875 37.203125 74.21875 
Q 40.921875 74.21875 44.703125 73.484375 
Q 48.484375 72.75 52.59375 71.296875 
z
" id="DejaVuSans-54"/>
      </defs>
      <g style="fill:#262626;" transform="translate(22.81375 139.031062)scale(0.12 -0.12)">
       <use xlink:href="#DejaVuSans-48"/>
       <use x="63.623047" xlink:href="#DejaVuSans-46"/>
       <use x="95.410156" xlink:href="#DejaVuSans-54"/>
      </g>
     </g>
    </g>
    <g id="ytick_5">
     <g id="line2d_11">
      <path clip-path="url(#p5b573e609c)" d="M 48.8975 104.856 
L 272.52 104.856 
" style="fill:none;stroke:#cccccc;stroke-linecap:round;stroke-width:0.8;"/>
     </g>
     <g id="text_12">
      <!-- 0.8 -->
      <g style="fill:#262626;" transform="translate(22.81375 109.415062)scale(0.12 -0.12)">
       <use xlink:href="#DejaVuSans-48"/>
       <use x="63.623047" xlink:href="#DejaVuSans-46"/>
       <use x="95.410156" xlink:href="#DejaVuSans-56"/>
      </g>
     </g>
    </g>
    <g id="ytick_6">
     <g id="line2d_12">
      <path clip-path="url(#p5b573e609c)" d="M 48.8975 75.24 
L 272.52 75.24 
" style="fill:none;stroke:#cccccc;stroke-linecap:round;stroke-width:0.8;"/>
     </g>
     <g id="text_13">
      <!-- 1.0 -->
      <g style="fill:#262626;" transform="translate(22.81375 79.799062)scale(0.12 -0.12)">
       <use xlink:href="#DejaVuSans-49"/>
       <use x="63.623047" xlink:href="#DejaVuSans-46"/>
       <use x="95.410156" xlink:href="#DejaVuSans-48"/>
      </g>
     </g>
    </g>
    <g id="text_14">
     <!-- spl -->
     <defs>
      <path d="M 9.421875 75.984375 
L 18.40625 75.984375 
L 18.40625 0 
L 9.421875 0 
z
" id="DejaVuSans-108"/>
     </defs>
     <g style="fill:#262626;" transform="translate(16.318125 157.881562)rotate(-90)scale(0.12 -0.12)">
      <use xlink:href="#DejaVuSans-115"/>
      <use x="52.099609" xlink:href="#DejaVuSans-112"/>
      <use x="115.576172" xlink:href="#DejaVuSans-108"/>
     </g>
    </g>
   </g>
   <g id="line2d_13">
    <path clip-path="url(#p5b573e609c)" d="M 50.392006 223.32 
L 51.483511 214.128504 
L 52.398223 211.810653 
L 52.936916 209.985432 
L 53.503219 209.293748 
L 53.98638 206.006851 
L 54.398793 208.480158 
L 54.894974 207.827487 
L 55.334996 204.296392 
L 55.769685 205.388237 
" style="fill:none;stroke:#1f77b4;stroke-dasharray:6,2.25;stroke-dashoffset:0;stroke-width:1.5;"/>
   </g>
   <g id="line2d_14">
    <path clip-path="url(#p5b573e609c)" d="M 55.769685 205.388237 
L 56.077935 216.161688 
L 56.767538 212.980801 
L 57.542635 194.711083 
L 58.324321 198.044197 
L 59.063652 196.532908 
L 59.910439 195.348417 
L 60.628436 196.759144 
L 61.271762 195.044668 
L 62.00419 193.393249 
L 62.794191 194.239535 
L 63.495716 192.420614 
L 64.176691 191.727439 
L 65.108972 192.315606 
L 65.750573 191.593104 
L 66.458216 190.491493 
L 67.216214 191.278862 
L 67.85154 189.863918 
L 68.591812 189.789726 
L 69.277807 188.766404 
L 69.846933 188.181314 
L 70.533399 188.773765 
L 71.198843 188.383093 
L 71.831345 187.304024 
L 72.530517 187.165796 
L 73.188433 187.171664 
L 73.789874 186.939639 
L 74.34096 186.891323 
L 74.974874 187.081111 
L 75.621181 189.105205 
L 76.287567 189.482826 
L 76.980935 190.045818 
L 77.612025 191.116561 
L 78.269626 191.457822 
L 78.93711 190.35103 
L 79.636282 191.810882 
L 80.22988 191.612264 
L 80.886697 190.882528 
L 81.517317 189.820216 
L 82.146525 190.551375 
L 82.775889 190.040436 
L 83.790685 192.943519 
L 85.35939 194.96475 
L 85.373352 200.69602 
L 86.01809 199.926763 
L 86.737655 197.572167 
L 86.928096 195.964242 
L 87.395256 195.765309 
L 88.048779 195.064915 
L 88.646769 194.689681 
L 89.29637 195.262634 
L 89.977502 194.620989 
L 90.608278 195.04151 
L 91.298666 194.830223 
L 91.947953 194.055977 
L 92.560219 193.591062 
L 93.106285 194.973468 
L 93.710237 194.173355 
L 94.356073 193.325511 
L 94.91563 193.178431 
L 95.634724 191.240271 
L 96.296404 191.301236 
" style="fill:none;stroke:#1f77b4;stroke-dasharray:1.5,1.5;stroke-dashoffset:0;stroke-width:1.5;"/>
   </g>
   <g id="line2d_15">
    <path clip-path="url(#p5b573e609c)" d="M 96.296404 191.301236 
L 97.370967 192.249152 
L 98.782175 191.169563 
L 99.54786 190.096112 
L 102.219051 189.534365 
L 103.320596 188.458817 
L 104.497596 187.853266 
L 105.767306 188.099688 
L 107.107294 186.727603 
L 108.39379 186.418536 
L 109.51259 187.363661 
L 110.755789 187.058369 
L 111.978909 186.193848 
L 113.01096 185.867751 
L 114.109368 184.311212 
L 115.328879 183.868772 
L 116.671848 184.575587 
L 117.680683 183.890837 
L 118.789914 183.420841 
L 119.915147 184.981603 
L 121.145482 186.397826 
L 122.255184 185.13037 
L 123.546386 184.693456 
L 124.408076 184.248375 
L 125.584918 184.074149 
L 126.630617 183.503915 
L 127.846835 183.771606 
L 128.862415 182.136664 
L 129.877681 180.062722 
L 131.165431 179.464128 
L 132.114027 180.729049 
L 133.376678 180.437661 
L 134.078988 181.094073 
L 136.628604 179.546717 
L 137.650773 179.187746 
L 138.839224 180.177744 
L 140.07709 179.527439 
L 141.36735 178.202994 
L 142.538545 178.81032 
L 143.61954 179.953328 
L 144.786657 179.200169 
L 146.065622 177.752612 
L 147.002453 177.705021 
L 148.054898 177.374164 
L 149.254173 178.23785 
L 150.561375 179.738259 
L 151.595152 179.051594 
L 152.586103 178.5449 
L 153.674785 179.876999 
L 154.901826 179.071435 
L 155.985645 179.45758 
L 157.153075 180.104717 
L 158.032962 180.838515 
L 159.114898 178.591635 
L 160.106791 177.688861 
L 161.231396 177.592037 
L 163.239809 175.50086 
L 165.481489 177.350659 
L 166.839517 176.960016 
L 167.611948 176.17833 
L 168.774672 175.167524 
L 171.124279 175.921325 
L 172.315084 175.264459 
L 173.384313 175.184603 
L 174.588765 175.771444 
L 176.760167 174.501851 
L 177.991601 173.464266 
L 178.967336 174.287237 
L 179.907618 174.023904 
L 180.851665 173.624923 
L 182.034625 174.840751 
L 183.318297 174.804598 
L 184.281953 174.008274 
L 185.255491 174.707776 
L 186.343232 174.820177 
L 187.487759 175.41782 
L 188.455964 176.35746 
L 189.644102 175.916286 
L 190.448847 175.745467 
L 191.522156 175.992281 
L 192.446437 175.475482 
L 193.553002 174.448299 
L 194.636977 175.29478 
L 195.527061 175.109625 
L 196.746729 175.52667 
L 197.692188 175.005373 
L 198.913111 175.29173 
L 199.552986 175.708442 
L 200.65359 175.353037 
L 201.876082 175.613987 
L 202.825306 175.49932 
L 205.080476 174.115329 
L 206.148451 173.972375 
L 207.294547 174.008963 
L 208.210985 173.403666 
L 209.333707 173.650961 
L 210.339404 174.009939 
L 211.158896 172.434226 
L 212.087413 171.74998 
L 213.217665 171.842302 
L 214.441726 171.688115 
L 215.384675 171.929603 
L 216.308799 171.904963 
L 217.332222 172.443961 
L 219.287614 172.263516 
L 220.419905 171.446732 
L 221.255555 169.879112 
L 222.27286 171.227065 
L 223.127648 170.774865 
L 224.188877 170.696403 
L 225.139355 170.947293 
L 226.016419 170.01919 
L 228.153466 169.69405 
L 229.141907 170.896395 
L 229.833393 171.956706 
L 230.993607 171.322567 
L 232.251395 170.873706 
L 233.220698 169.20735 
L 234.357696 169.367767 
L 235.406219 167.811351 
L 236.475448 167.590598 
L 238.477116 166.697734 
L 239.579289 167.881982 
L 240.484589 166.55329 
L 241.327925 166.963409 
L 242.277776 166.939817 
L 243.34324 167.084756 
L 245.454247 166.685536 
L 246.257895 165.814821 
L 247.327438 163.936914 
L 248.40561 162.375385 
L 249.41868 162.408099 
L 250.568384 162.139711 
L 251.354933 162.517009 
L 252.247212 162.087617 
L 255.889589 163.043662 
L 255.889589 163.043662 
" style="fill:none;stroke:#1f77b4;stroke-dasharray:4.5,1.5,2.25,1.5;stroke-dashoffset:0;stroke-width:1.5;"/>
   </g>
   <g id="line2d_16">
    <path clip-path="url(#p5b573e609c)" d="M 49.804839 223.32 
L 50.581348 211.577512 
L 51.186398 208.944854 
L 51.809174 208.946333 
L 52.348338 206.463045 
L 52.824754 204.552807 
L 53.217087 206.087333 
L 53.577262 205.981712 
L 54.002067 204.093876 
L 54.384047 204.056817 
L 54.743751 205.563327 
L 55.066591 204.770787 
L 55.380175 204.916413 
L 55.759017 203.994133 
L 56.11229 203.569203 
L 56.458817 203.544256 
L 56.801579 202.0095 
L 57.180421 201.346299 
L 57.570872 200.011906 
L 57.906261 199.877724 
L 58.229885 199.198167 
L 58.567471 198.589937 
L 58.930626 198.741909 
L 59.239504 198.401169 
L 59.540852 197.665532 
L 59.863378 197.290025 
L 60.264026 196.09577 
L 60.574316 196.058628 
L 60.817465 195.430733 
L 61.161482 195.572781 
L 61.526049 195.027608 
L 61.814848 194.986933 
L 62.064429 194.63469 
L 62.361071 194.088173 
L 62.695676 195.342343 
L 62.943061 194.827504 
L 63.234369 195.204844 
L 63.480499 194.28141 
" style="fill:none;stroke:#ff7f0e;stroke-dasharray:6,2.25;stroke-dashoffset:0;stroke-width:1.5;"/>
   </g>
   <g id="line2d_17">
    <path clip-path="url(#p5b573e609c)" d="M 63.480499 194.28141 
L 64.114413 194.274276 
L 64.836174 196.77898 
L 65.487815 191.416861 
L 66.168005 195.407092 
L 66.800664 194.596418 
L 67.374026 191.961417 
L 68.088728 194.070021 
L 68.778017 193.582892 
L 69.512015 191.936964 
L 70.216991 192.495643 
L 70.889181 194.085627 
L 71.556508 192.555705 
L 72.264936 191.002302 
L 72.991403 191.930596 
L 73.698262 192.589104 
L 74.353981 191.738928 
L 74.95605 192.130396 
L 75.532863 190.712873 
L 76.287881 189.791035 
L 77.003681 189.707078 
L 77.654223 189.170284 
L 78.389789 188.152074 
L 79.033899 188.243839 
L 79.736366 186.801258 
L 80.378907 185.333891 
L 81.026312 186.354487 
L 81.614263 186.172121 
L 82.279865 184.858004 
L 82.913935 184.372055 
L 83.441962 184.613723 
L 84.073366 185.633426 
L 84.647669 184.782943 
L 85.263699 183.360311 
L 85.940596 183.689815 
L 86.570274 183.93894 
L 87.151636 185.164828 
L 87.732057 185.344832 
L 88.433739 186.426698 
L 89.028749 186.623877 
L 89.657486 185.698738 
L 90.230064 185.963708 
L 90.756678 187.227323 
L 91.489263 187.388207 
L 92.05086 186.720469 
L 92.67693 187.884276 
L 93.314609 188.55574 
L 93.891422 187.903979 
L 94.54667 188.230408 
L 95.193761 187.580532 
L 95.87756 186.92088 
L 96.428489 187.514035 
L 97.171271 186.703001 
L 97.711847 186.322756 
L 98.235952 185.544908 
L 98.887435 185.319503 
L 99.478523 183.983074 
L 99.928898 183.944899 
L 100.63513 184.797415 
L 101.197197 185.248433 
" style="fill:none;stroke:#ff7f0e;stroke-dasharray:1.5,1.5;stroke-dashoffset:0;stroke-width:1.5;"/>
   </g>
   <g id="line2d_18">
    <path clip-path="url(#p5b573e609c)" d="M 101.197197 185.248433 
L 101.524742 189.782 
L 102.629739 181.508094 
L 103.69787 174.58425 
L 104.819808 177.776128 
L 105.854056 180.011976 
L 106.935992 176.797919 
L 107.995809 179.105644 
L 109.226145 181.799739 
L 110.35373 180.275876 
L 111.668148 180.601573 
L 112.889072 182.294758 
L 114.111093 179.984759 
L 115.257346 180.853666 
L 116.446111 181.098019 
L 117.575109 180.938539 
L 118.7736 179.807444 
L 119.573482 180.343986 
L 120.680204 180.466832 
L 121.705039 178.848977 
L 122.951062 179.709157 
L 124.09104 178.986217 
L 125.292355 178.764456 
L 126.526299 177.598778 
L 127.740477 178.742022 
L 128.96642 177.584499 
L 130.098711 176.674916 
L 131.336263 177.101654 
L 132.578678 176.147377 
L 133.579355 174.731328 
L 134.717294 175.794511 
L 135.653497 175.067107 
L 136.790652 174.473992 
L 137.971887 173.90576 
L 139.119081 173.790381 
L 140.368241 174.568097 
L 141.522181 173.218092 
L 142.6551 173.128421 
L 143.738762 173.257193 
L 144.837326 174.9021 
L 145.990168 175.443467 
L 147.013277 175.401938 
L 148.07184 175.106478 
L 149.028436 174.989977 
L 150.191004 174.257641 
L 151.282823 173.103389 
L 152.559122 174.571701 
L 153.750083 175.435029 
L 155.027793 175.757665 
L 156.354134 175.727847 
L 157.400303 175.957707 
L 158.535889 176.07803 
L 159.647944 177.199747 
L 160.543518 175.508277 
L 161.703576 175.810147 
L 162.694841 176.85926 
L 163.893802 176.396546 
L 165.073783 175.761767 
L 166.266312 174.395252 
L 167.495236 175.06091 
L 168.644156 175.700788 
L 169.887198 176.142997 
L 170.943251 176.688891 
L 172.026442 176.512451 
L 173.19701 175.50057 
L 174.074857 174.723173 
L 175.169971 173.323701 
L 176.085938 172.836966 
L 177.28035 172.616855 
L 178.371541 173.057544 
L 179.588072 172.154897 
L 180.806486 172.433154 
L 181.986623 172.476242 
L 183.153897 172.468637 
L 184.205086 173.051916 
L 185.274316 174.558227 
L 186.256168 174.535273 
L 187.268454 175.025647 
L 188.404981 173.598944 
L 189.331302 174.438271 
L 190.507046 174.234496 
L 191.673536 174.769432 
L 192.91344 173.919604 
L 194.192406 174.238363 
L 195.388073 175.848993 
L 196.590329 175.37082 
L 197.620184 176.207545 
L 198.696944 175.178179 
L 199.856531 174.39678 
L 200.811245 174.72582 
L 201.947929 174.562395 
L 202.83613 174.547271 
L 204.055641 173.057961 
L 205.129106 171.364807 
L 206.253711 171.734455 
L 207.393689 171.967866 
L 208.557041 172.507694 
L 209.769023 171.46112 
" style="fill:none;stroke:#ff7f0e;stroke-dasharray:4.5,1.5,2.25,1.5;stroke-dashoffset:0;stroke-width:1.5;"/>
   </g>
   <g id="line2d_19"/>
   <g id="line2d_20"/>
   <g id="line2d_21"/>
   <g id="line2d_22"/>
   <g id="line2d_23"/>
   <g id="line2d_24"/>
   <g id="line2d_25"/>
   <g id="line2d_26"/>
   <g id="line2d_27">
    <path clip-path="url(#p5b573e609c)" d="M 256.04646 220.133252 
L 256.191408 214.768414 
L 256.279569 206.006847 
L 256.411654 201.411179 
L 256.560525 197.550817 
L 256.707355 198.259535 
L 256.824695 199.626424 
L 256.901404 199.733946 
L 257.044313 199.039934 
L 257.188321 199.778225 
L 257.329661 197.416395 
L 257.451549 197.451515 
L 257.556496 194.734064 
L 257.692502 192.51745 
L 257.773605 191.462379 
L 257.856118 190.070337 
L 257.951496 188.868322 
L 258.039814 186.687529 
L 258.125779 183.764345 
L 258.224921 182.04789 
L 258.303043 180.465299 
L 258.392773 178.85193 
L 258.465874 178.032138 
L 258.587292 175.46779 
L 258.698043 171.97593 
L 258.787773 170.114131 
L 258.872012 167.503899 
L 258.966134 163.981955 
L 259.061512 162.800804 
L 259.204107 160.875333 
L 259.289445 160.072631 
L 259.348898 159.844209 
L 259.381841 157.999329 
L 259.454159 156.837719 
L 259.545614 155.797531 
L 259.634089 155.666646 
L 259.712838 154.039694 
L 259.76288 153.74503 
L 259.818569 154.053713 
L 259.897318 153.145807 
L 260.047757 152.525353 
L 260.18643 153.996059 
L 260.331222 153.978671 
L 260.436639 153.28272 
L 260.495779 154.15769 
L 260.598215 154.008238 
L 260.727947 154.055528 
L 260.821285 153.668076 
L 260.934546 153.36595 
L 261.053297 153.066783 
L 261.154008 153.128947 
L 261.236208 153.133848 
L 261.351508 153.220694 
L 261.467906 153.551657 
L 261.599363 153.433899 
L 261.685171 153.10571 
L 261.795922 152.300808 
L 261.914516 151.838007 
" style="fill:none;stroke:#1f77b4;stroke-linecap:round;stroke-width:3;"/>
   </g>
   <g id="line2d_28">
    <path clip-path="url(#p5b573e609c)" d="M 209.905344 209.836831 
L 210.047782 209.794561 
L 210.184887 204.192569 
L 210.335169 200.53802 
L 210.455645 201.638716 
L 210.607496 201.013052 
L 210.713541 201.497223 
L 210.860685 202.58285 
L 210.988064 201.395636 
L 211.113874 203.048704 
L 211.235292 202.214364 
L 211.34369 201.704057 
L 211.452244 201.472176 
L 211.555308 201.147885 
L 211.681902 199.318058 
L 211.811164 199.236243 
L 211.940111 198.405341 
L 212.077687 196.985531 
L 212.219184 195.741754 
L 212.353151 194.766164 
L 212.455902 193.77536 
L 212.5723 193.602259 
L 212.718346 192.467293 
L 212.826116 190.301175 
L 212.941573 189.496847 
L 213.049186 187.733399 
L 213.166055 187.469664 
L 213.278688 185.020809 
L 213.375791 184.45508 
L 213.486698 183.520888 
L 213.588507 181.86348 
L 213.659099 181.281446 
L 213.748672 180.540101 
L 213.842167 178.707049 
L 213.98586 177.688404 
L 214.133946 176.950255 
L 214.216146 175.506972 
L 214.272149 175.056385 
L 214.347604 174.120147 
L 214.445334 171.565207 
L 214.573811 171.001312 
L 214.657423 170.499195 
L 214.766291 167.558349 
L 214.866688 166.368532 
L 214.971635 164.732296 
L 215.07611 164.353939 
L 215.172272 163.805576 
L 215.218078 163.175919 
L 215.334633 162.539375 
L 215.440991 161.844615 
L 215.547663 161.29736 
L 215.680376 160.967029 
L 215.815441 160.974765 
L 215.925721 160.686846 
L 216.043531 160.462923 
L 216.11428 159.434094 
L 216.174988 160.473499 
L 216.265032 162.21183 
L 216.394764 162.459292 
L 216.551635 164.15652 
L 216.655326 165.966825 
L 216.749605 167.367986 
L 216.889377 167.77548 
L 217.037149 167.758971 
L 217.142095 168.816213 
L 217.288926 168.855486 
L 217.423521 168.013789 
L 217.526899 167.895842 
L 217.626668 169.189325 
L 217.74087 169.395619 
L 217.868406 170.388216 
L 217.969744 170.975058 
L 218.071083 171.277053 
L 218.191089 171.116631 
L 218.328821 169.608227 
L 218.411962 169.07758 
L 218.53087 169.151872 
L 218.608207 168.131044 
L 218.682878 167.584317 
L 218.762725 167.591654 
L 218.846494 166.743656 
L 218.938734 166.210534 
L 219.084623 165.475954 
L 219.191766 164.709884 
L 219.276162 165.569099 
L 219.394286 166.118086 
L 219.512095 165.298622 
L 219.614689 165.148218 
" style="fill:none;stroke:#ff7f0e;stroke-linecap:round;stroke-width:3;"/>
   </g>
   <g id="line2d_29"/>
   <g id="line2d_30"/>
   <g id="line2d_31"/>
   <g id="line2d_32"/>
   <g id="line2d_33"/>
   <g id="line2d_34"/>
   <g id="line2d_35"/>
   <g id="line2d_36"/>
   <g id="line2d_37">
    <path clip-path="url(#p5b573e609c)" d="M 50.466205 223.32 
L 52.032558 223.32 
L 53.574438 220.779968 
L 55.133731 219.707824 
L 56.663219 219.574923 
L 58.108311 219.018428 
L 59.65678 217.540482 
L 61.17309 216.603302 
L 62.687205 216.84014 
L 64.174181 216.298326 
L 65.700217 215.401014 
L 67.036597 215.599638 
L 68.406705 215.027074 
L 69.704181 214.623278 
L 71.249983 214.256865 
L 72.627307 214.463901 
L 74.006355 214.176122 
L 75.312303 213.350242 
L 76.745315 212.103538 
L 78.073852 210.881839 
L 79.398623 210.364676 
L 80.699708 209.331724 
L 82.017263 207.833527 
L 83.192537 206.901832 
L 84.466483 205.881328 
L 85.642228 204.989203 
L 86.948489 203.350969 
L 88.112154 201.870207 
L 89.395355 200.669713 
L 90.526078 199.811578 
L 91.74559 199.463203 
L 92.96118 198.699841 
L 94.234655 198.752953 
L 95.422322 197.767472 
L 96.802312 197.058863 
L 97.869188 196.852807 
L 99.026736 195.675222 
L 100.083259 195.851221 
L 101.273122 195.478374 
L 102.170422 195.030455 
L 103.405307 195.23459 
L 104.547167 194.805093 
L 105.761031 195.266175 
L 106.973641 195.346723 
L 108.165543 195.689443 
L 109.342072 195.322775 
L 110.574133 195.57672 
L 111.56932 194.779032 
L 112.668512 193.702461 
L 113.672483 194.58845 
L 114.947527 192.712399 
L 115.880122 191.487581 
L 117.105909 191.586276 
L 118.077879 190.14063 
L 119.199032 190.496201 
L 120.305911 189.741182 
L 121.535776 187.867547 
L 122.595437 186.993933 
L 123.856676 187.575975 
L 124.838215 186.737955 
L 125.797792 184.984436 
L 126.810548 184.420749 
L 128.041511 182.897261 
L 129.000618 182.33393 
L 130.20805 182.808084 
L 131.330145 182.754516 
L 132.369569 182.971023 
L 133.477075 182.425696 
L 134.664115 182.32235 
L 135.775386 182.182914 
L 136.936855 181.480972 
L 137.869137 181.679454 
L 138.837028 179.954564 
L 139.804292 179.414571 
L 140.994312 179.828537 
L 141.873728 179.495092 
L 143.047276 179.631545 
L 144.061444 178.80722 
L 145.213188 179.529205 
L 146.360696 180.54095 
L 147.54099 181.121097 
L 148.612886 181.086284 
L 149.816868 180.840675 
L 150.7366 180.16445 
L 151.72159 178.179313 
L 152.779838 178.425553 
L 153.893776 178.067504 
L 154.776487 178.257046 
L 155.840069 178.541746 
L 156.925613 178.63034 
L 158.021981 179.153431 
L 159.086975 180.184544 
" style="fill:none;stroke:#001c7f;stroke-linecap:round;stroke-width:1.5;"/>
   </g>
   <g id="line2d_38">
    <path clip-path="url(#p5b573e609c)" d="M 50.448322 223.32 
L 51.978751 223.32 
L 53.532868 223.32 
L 55.088082 223.32 
L 56.656788 223.32 
L 58.185177 222.209534 
L 59.707763 222.368172 
L 61.157717 220.848544 
L 62.5832 220.853544 
L 64.045547 219.168265 
L 65.386319 217.829184 
L 66.773369 216.639119 
L 68.243402 216.716214 
L 69.697592 216.041259 
L 71.094054 216.02033 
L 72.502751 215.258559 
L 73.908625 215.540136 
L 75.326421 214.025594 
L 76.794416 212.288279 
L 78.165621 211.283746 
L 79.218536 209.677563 
L 80.441969 208.430936 
L 81.692698 206.871934 
L 82.949388 205.573882 
L 84.281846 203.616713 
L 85.564263 203.225479 
L 86.826444 200.909832 
L 88.194355 200.630636 
L 89.368217 200.265206 
L 90.738167 199.886094 
L 92.098862 198.962137 
L 93.375161 198.626887 
L 94.36172 197.431326 
L 95.471422 196.09666 
L 96.548809 194.777417 
L 97.809891 195.496583 
L 99.178587 195.032681 
L 100.383352 194.435966 
L 101.552038 193.040932 
L 102.765432 192.857242 
L 103.901802 193.072066 
L 105.148452 192.288344 
L 106.437143 191.871746 
L 107.711403 190.916601 
L 108.704707 191.384827 
L 109.936455 190.763232 
L 110.919719 190.426189 
L 112.177664 190.051405 
L 113.332859 189.305927 
L 114.506407 188.627225 
L 115.668661 188.11781 
L 116.866211 187.724073 
L 117.945951 186.279911 
L 119.250643 184.856772 
L 120.503097 183.980178 
L 121.781122 183.630625 
L 122.897412 183.673708 
L 123.981388 182.545789 
L 124.951946 181.447559 
L 126.176791 180.452835 
L 127.390812 180.137171 
L 128.567027 179.804158 
L 129.701045 180.39344 
L 130.803217 180.099721 
L 132.032298 178.890316 
L 133.220121 176.754914 
L 134.530618 176.054688 
L 135.690205 175.430857 
L 136.694176 175.507366 
L 137.76168 175.376736 
L 138.721728 176.568067 
L 139.896532 177.499692 
L 141.145378 177.639176 
L 142.31673 177.604461 
L 143.484475 178.82597 
L 144.63512 178.565718 
L 145.743097 178.473826 
L 146.923234 179.620752 
L 148.199532 179.100226 
L 149.434731 179.92632 
L 150.347874 178.559813 
L 151.319531 178.018614 
L 152.227654 179.586656 
L 153.360102 180.732903 
L 154.577575 180.840402 
L 155.761163 182.093425 
L 156.944124 181.397702 
L 158.076729 181.076921 
L 159.185804 181.44592 
L 160.27025 178.994556 
L 161.516743 179.030412 
L 162.643074 178.692033 
" style="fill:none;stroke:#b1400d;stroke-linecap:round;stroke-width:1.5;"/>
   </g>
   <g id="line2d_39"/>
   <g id="line2d_40"/>
   <g id="line2d_41"/>
   <g id="line2d_42">
    <path clip-path="url(#p5b573e609c)" d="M 48.8975 219.32184 
L 272.52 219.32184 
" style="fill:none;stroke:#008000;stroke-dasharray:5.55,2.4;stroke-dashoffset:0;stroke-width:1.5;"/>
   </g>
   <g id="line2d_43">
    <path clip-path="url(#p5b573e609c)" d="M 48.8975 189.2616 
L 272.52 189.2616 
" style="fill:none;stroke:#800080;stroke-dasharray:5.55,2.4;stroke-dashoffset:0;stroke-width:1.5;"/>
   </g>
   <g id="line2d_44">
    <path clip-path="url(#p5b573e609c)" d="M 48.8975 147.7992 
L 272.52 147.7992 
" style="fill:none;stroke:#ff0000;stroke-dasharray:5.55,2.4;stroke-dashoffset:0;stroke-width:1.5;"/>
   </g>
   <g id="patch_3">
    <path d="M 48.8975 223.32 
L 48.8975 75.24 
" style="fill:none;stroke:#cccccc;stroke-linecap:square;stroke-linejoin:miter;stroke-width:0.8;"/>
   </g>
   <g id="patch_4">
    <path d="M 272.52 223.32 
L 272.52 75.24 
" style="fill:none;stroke:#cccccc;stroke-linecap:square;stroke-linejoin:miter;stroke-width:0.8;"/>
   </g>
   <g id="patch_5">
    <path d="M 48.8975 223.32 
L 272.52 223.32 
" style="fill:none;stroke:#cccccc;stroke-linecap:square;stroke-linejoin:miter;stroke-width:0.8;"/>
   </g>
   <g id="patch_6">
    <path d="M 48.8975 75.24 
L 272.52 75.24 
" style="fill:none;stroke:#cccccc;stroke-linecap:square;stroke-linejoin:miter;stroke-width:0.8;"/>
   </g>
  </g>
  <g id="axes_2">
   <g id="patch_7">
    <path d="M 332.355 223.32 
L 555.9775 223.32 
L 555.9775 75.24 
L 332.355 75.24 
z
" style="fill:#ffffff;"/>
   </g>
   <g id="matplotlib.axis_3">
    <g id="xtick_7">
     <g id="line2d_45">
      <path clip-path="url(#pcab03b17bd)" d="M 332.355 223.32 
L 332.355 75.24 
" style="fill:none;stroke:#cccccc;stroke-linecap:round;stroke-width:0.8;"/>
     </g>
     <g id="text_15">
      <!-- 0.0M -->
      <g style="fill:#262626;" transform="translate(317.63625 239.438125)scale(0.12 -0.12)">
       <use xlink:href="#DejaVuSans-48"/>
       <use x="63.623047" xlink:href="#DejaVuSans-46"/>
       <use x="95.410156" xlink:href="#DejaVuSans-48"/>
       <use x="159.033203" xlink:href="#DejaVuSans-77"/>
      </g>
     </g>
    </g>
    <g id="xtick_8">
     <g id="line2d_46">
      <path clip-path="url(#pcab03b17bd)" d="M 371.572635 223.32 
L 371.572635 75.24 
" style="fill:none;stroke:#cccccc;stroke-linecap:round;stroke-width:0.8;"/>
     </g>
     <g id="text_16">
      <!-- 0.2M -->
      <g style="fill:#262626;" transform="translate(356.853885 239.438125)scale(0.12 -0.12)">
       <use xlink:href="#DejaVuSans-48"/>
       <use x="63.623047" xlink:href="#DejaVuSans-46"/>
       <use x="95.410156" xlink:href="#DejaVuSans-50"/>
       <use x="159.033203" xlink:href="#DejaVuSans-77"/>
      </g>
     </g>
    </g>
    <g id="xtick_9">
     <g id="line2d_47">
      <path clip-path="url(#pcab03b17bd)" d="M 410.79027 223.32 
L 410.79027 75.24 
" style="fill:none;stroke:#cccccc;stroke-linecap:round;stroke-width:0.8;"/>
     </g>
     <g id="text_17">
      <!-- 0.5M -->
      <g style="fill:#262626;" transform="translate(396.07152 239.438125)scale(0.12 -0.12)">
       <use xlink:href="#DejaVuSans-48"/>
       <use x="63.623047" xlink:href="#DejaVuSans-46"/>
       <use x="95.410156" xlink:href="#DejaVuSans-53"/>
       <use x="159.033203" xlink:href="#DejaVuSans-77"/>
      </g>
     </g>
    </g>
    <g id="xtick_10">
     <g id="line2d_48">
      <path clip-path="url(#pcab03b17bd)" d="M 450.007905 223.32 
L 450.007905 75.24 
" style="fill:none;stroke:#cccccc;stroke-linecap:round;stroke-width:0.8;"/>
     </g>
     <g id="text_18">
      <!-- 0.8M -->
      <g style="fill:#262626;" transform="translate(435.289155 239.438125)scale(0.12 -0.12)">
       <use xlink:href="#DejaVuSans-48"/>
       <use x="63.623047" xlink:href="#DejaVuSans-46"/>
       <use x="95.410156" xlink:href="#DejaVuSans-56"/>
       <use x="159.033203" xlink:href="#DejaVuSans-77"/>
      </g>
     </g>
    </g>
    <g id="xtick_11">
     <g id="line2d_49">
      <path clip-path="url(#pcab03b17bd)" d="M 489.22554 223.32 
L 489.22554 75.24 
" style="fill:none;stroke:#cccccc;stroke-linecap:round;stroke-width:0.8;"/>
     </g>
     <g id="text_19">
      <!-- 1.0M -->
      <g style="fill:#262626;" transform="translate(474.50679 239.438125)scale(0.12 -0.12)">
       <use xlink:href="#DejaVuSans-49"/>
       <use x="63.623047" xlink:href="#DejaVuSans-46"/>
       <use x="95.410156" xlink:href="#DejaVuSans-48"/>
       <use x="159.033203" xlink:href="#DejaVuSans-77"/>
      </g>
     </g>
    </g>
    <g id="xtick_12">
     <g id="line2d_50">
      <path clip-path="url(#pcab03b17bd)" d="M 528.443175 223.32 
L 528.443175 75.24 
" style="fill:none;stroke:#cccccc;stroke-linecap:round;stroke-width:0.8;"/>
     </g>
     <g id="text_20">
      <!-- 1.2M -->
      <g style="fill:#262626;" transform="translate(513.724425 239.438125)scale(0.12 -0.12)">
       <use xlink:href="#DejaVuSans-49"/>
       <use x="63.623047" xlink:href="#DejaVuSans-46"/>
       <use x="95.410156" xlink:href="#DejaVuSans-50"/>
       <use x="159.033203" xlink:href="#DejaVuSans-77"/>
      </g>
     </g>
    </g>
    <g id="text_21">
     <!-- steps -->
     <g style="fill:#262626;" transform="translate(428.061875 255.051875)scale(0.12 -0.12)">
      <use xlink:href="#DejaVuSans-115"/>
      <use x="52.099609" xlink:href="#DejaVuSans-116"/>
      <use x="91.308594" xlink:href="#DejaVuSans-101"/>
      <use x="152.832031" xlink:href="#DejaVuSans-112"/>
      <use x="216.308594" xlink:href="#DejaVuSans-115"/>
     </g>
    </g>
   </g>
   <g id="matplotlib.axis_4">
    <g id="ytick_7">
     <g id="line2d_51">
      <path clip-path="url(#pcab03b17bd)" d="M 332.355 223.32 
L 555.9775 223.32 
" style="fill:none;stroke:#cccccc;stroke-linecap:round;stroke-width:0.8;"/>
     </g>
     <g id="text_22">
      <!-- 0 -->
      <g style="fill:#262626;" transform="translate(317.72 227.879062)scale(0.12 -0.12)">
       <use xlink:href="#DejaVuSans-48"/>
      </g>
     </g>
    </g>
    <g id="ytick_8">
     <g id="line2d_52">
      <path clip-path="url(#pcab03b17bd)" d="M 332.355 197.211272 
L 555.9775 197.211272 
" style="fill:none;stroke:#cccccc;stroke-linecap:round;stroke-width:0.8;"/>
     </g>
     <g id="text_23">
      <!-- 25 -->
      <g style="fill:#262626;" transform="translate(310.085 201.770335)scale(0.12 -0.12)">
       <use xlink:href="#DejaVuSans-50"/>
       <use x="63.623047" xlink:href="#DejaVuSans-53"/>
      </g>
     </g>
    </g>
    <g id="ytick_9">
     <g id="line2d_53">
      <path clip-path="url(#pcab03b17bd)" d="M 332.355 171.102545 
L 555.9775 171.102545 
" style="fill:none;stroke:#cccccc;stroke-linecap:round;stroke-width:0.8;"/>
     </g>
     <g id="text_24">
      <!-- 50 -->
      <g style="fill:#262626;" transform="translate(310.085 175.661607)scale(0.12 -0.12)">
       <use xlink:href="#DejaVuSans-53"/>
       <use x="63.623047" xlink:href="#DejaVuSans-48"/>
      </g>
     </g>
    </g>
    <g id="ytick_10">
     <g id="line2d_54">
      <path clip-path="url(#pcab03b17bd)" d="M 332.355 144.993817 
L 555.9775 144.993817 
" style="fill:none;stroke:#cccccc;stroke-linecap:round;stroke-width:0.8;"/>
     </g>
     <g id="text_25">
      <!-- 75 -->
      <defs>
       <path d="M 8.203125 72.90625 
L 55.078125 72.90625 
L 55.078125 68.703125 
L 28.609375 0 
L 18.3125 0 
L 43.21875 64.59375 
L 8.203125 64.59375 
z
" id="DejaVuSans-55"/>
      </defs>
      <g style="fill:#262626;" transform="translate(310.085 149.55288)scale(0.12 -0.12)">
       <use xlink:href="#DejaVuSans-55"/>
       <use x="63.623047" xlink:href="#DejaVuSans-53"/>
      </g>
     </g>
    </g>
    <g id="ytick_11">
     <g id="line2d_55">
      <path clip-path="url(#pcab03b17bd)" d="M 332.355 118.88509 
L 555.9775 118.88509 
" style="fill:none;stroke:#cccccc;stroke-linecap:round;stroke-width:0.8;"/>
     </g>
     <g id="text_26">
      <!-- 100 -->
      <g style="fill:#262626;" transform="translate(302.45 123.444152)scale(0.12 -0.12)">
       <use xlink:href="#DejaVuSans-49"/>
       <use x="63.623047" xlink:href="#DejaVuSans-48"/>
       <use x="127.246094" xlink:href="#DejaVuSans-48"/>
      </g>
     </g>
    </g>
    <g id="ytick_12">
     <g id="line2d_56">
      <path clip-path="url(#pcab03b17bd)" d="M 332.355 92.776362 
L 555.9775 92.776362 
" style="fill:none;stroke:#cccccc;stroke-linecap:round;stroke-width:0.8;"/>
     </g>
     <g id="text_27">
      <!-- 125 -->
      <g style="fill:#262626;" transform="translate(302.45 97.335425)scale(0.12 -0.12)">
       <use xlink:href="#DejaVuSans-49"/>
       <use x="63.623047" xlink:href="#DejaVuSans-50"/>
       <use x="127.246094" xlink:href="#DejaVuSans-53"/>
      </g>
     </g>
    </g>
    <g id="text_28">
     <!-- collisions -->
     <defs>
      <path d="M 48.78125 52.59375 
L 48.78125 44.1875 
Q 44.96875 46.296875 41.140625 47.34375 
Q 37.3125 48.390625 33.40625 48.390625 
Q 24.65625 48.390625 19.8125 42.84375 
Q 14.984375 37.3125 14.984375 27.296875 
Q 14.984375 17.28125 19.8125 11.734375 
Q 24.65625 6.203125 33.40625 6.203125 
Q 37.3125 6.203125 41.140625 7.25 
Q 44.96875 8.296875 48.78125 10.40625 
L 48.78125 2.09375 
Q 45.015625 0.34375 40.984375 -0.53125 
Q 36.96875 -1.421875 32.421875 -1.421875 
Q 20.0625 -1.421875 12.78125 6.34375 
Q 5.515625 14.109375 5.515625 27.296875 
Q 5.515625 40.671875 12.859375 48.328125 
Q 20.21875 56 33.015625 56 
Q 37.15625 56 41.109375 55.140625 
Q 45.0625 54.296875 48.78125 52.59375 
z
" id="DejaVuSans-99"/>
      <path d="M 30.609375 48.390625 
Q 23.390625 48.390625 19.1875 42.75 
Q 14.984375 37.109375 14.984375 27.296875 
Q 14.984375 17.484375 19.15625 11.84375 
Q 23.34375 6.203125 30.609375 6.203125 
Q 37.796875 6.203125 41.984375 11.859375 
Q 46.1875 17.53125 46.1875 27.296875 
Q 46.1875 37.015625 41.984375 42.703125 
Q 37.796875 48.390625 30.609375 48.390625 
z
M 30.609375 56 
Q 42.328125 56 49.015625 48.375 
Q 55.71875 40.765625 55.71875 27.296875 
Q 55.71875 13.875 49.015625 6.21875 
Q 42.328125 -1.421875 30.609375 -1.421875 
Q 18.84375 -1.421875 12.171875 6.21875 
Q 5.515625 13.875 5.515625 27.296875 
Q 5.515625 40.765625 12.171875 48.375 
Q 18.84375 56 30.609375 56 
z
" id="DejaVuSans-111"/>
      <path d="M 9.421875 54.6875 
L 18.40625 54.6875 
L 18.40625 0 
L 9.421875 0 
z
M 9.421875 75.984375 
L 18.40625 75.984375 
L 18.40625 64.59375 
L 9.421875 64.59375 
z
" id="DejaVuSans-105"/>
      <path d="M 54.890625 33.015625 
L 54.890625 0 
L 45.90625 0 
L 45.90625 32.71875 
Q 45.90625 40.484375 42.875 44.328125 
Q 39.84375 48.1875 33.796875 48.1875 
Q 26.515625 48.1875 22.3125 43.546875 
Q 18.109375 38.921875 18.109375 30.90625 
L 18.109375 0 
L 9.078125 0 
L 9.078125 54.6875 
L 18.109375 54.6875 
L 18.109375 46.1875 
Q 21.34375 51.125 25.703125 53.5625 
Q 30.078125 56 35.796875 56 
Q 45.21875 56 50.046875 50.171875 
Q 54.890625 44.34375 54.890625 33.015625 
z
" id="DejaVuSans-110"/>
     </defs>
     <g style="fill:#262626;" transform="translate(295.954375 176.642812)rotate(-90)scale(0.12 -0.12)">
      <use xlink:href="#DejaVuSans-99"/>
      <use x="54.980469" xlink:href="#DejaVuSans-111"/>
      <use x="116.162109" xlink:href="#DejaVuSans-108"/>
      <use x="143.945312" xlink:href="#DejaVuSans-108"/>
      <use x="171.728516" xlink:href="#DejaVuSans-105"/>
      <use x="199.511719" xlink:href="#DejaVuSans-115"/>
      <use x="251.611328" xlink:href="#DejaVuSans-105"/>
      <use x="279.394531" xlink:href="#DejaVuSans-111"/>
      <use x="340.576172" xlink:href="#DejaVuSans-110"/>
      <use x="403.955078" xlink:href="#DejaVuSans-115"/>
     </g>
    </g>
   </g>
   <g id="line2d_57">
    <path clip-path="url(#pcab03b17bd)" d="M 333.849506 80.453043 
L 334.941011 102.436591 
L 335.855723 101.688141 
L 336.394416 101.992743 
L 336.960719 103.386949 
L 337.44388 106.909887 
L 337.856293 104.681942 
L 338.352474 107.514739 
L 338.792496 110.158973 
L 339.227185 108.525147 
" style="fill:none;stroke:#1f77b4;stroke-dasharray:6,2.25;stroke-dashoffset:0;stroke-width:1.5;"/>
   </g>
   <g id="line2d_58">
    <path clip-path="url(#pcab03b17bd)" d="M 339.227185 108.525147 
L 339.535435 91.940883 
L 340.225038 109.43373 
L 341.000135 124.733445 
L 341.781821 123.114703 
L 342.521152 130.122286 
L 343.367939 133.471165 
L 344.085936 133.893878 
L 344.729262 136.169067 
L 345.46169 138.054698 
L 346.251691 138.351757 
L 346.953216 140.427163 
L 347.634191 139.902615 
L 348.566472 140.784287 
L 349.208073 141.636981 
L 349.915716 142.905119 
L 350.673714 142.859429 
L 351.30904 143.986327 
L 352.049312 143.740598 
L 352.735307 146.04977 
L 353.304433 147.807758 
L 353.990899 148.724464 
L 354.656343 149.687586 
L 355.288845 149.948674 
L 355.988017 150.401225 
L 356.645933 151.341139 
L 357.247374 152.019966 
L 357.79846 152.826435 
L 358.432374 153.534272 
L 359.078681 153.725736 
L 359.745067 156.046512 
L 360.438435 156.24958 
L 361.069525 157.195296 
L 361.727126 158.146814 
L 362.39461 158.616771 
L 363.093782 159.400033 
L 363.68738 160.920141 
L 364.344197 162.242983 
L 364.974817 161.836847 
L 365.604025 161.303069 
L 366.233389 162.695535 
L 367.248185 157.763886 
L 368.81689 153.099127 
L 368.830852 167.516946 
L 369.47559 165.880799 
L 370.195155 165.97574 
L 370.385596 148.77088 
L 370.852756 167.16883 
L 371.506279 167.101884 
L 372.104269 166.522328 
L 372.75387 165.76244 
L 373.435002 165.156282 
L 374.065778 165.659643 
L 374.756166 165.886601 
L 375.405453 164.778431 
L 376.017719 165.439852 
L 376.563785 165.79377 
L 377.167737 166.327549 
L 377.813573 167.122414 
L 378.37313 168.218981 
L 379.092224 167.464729 
L 379.753904 167.992705 
" style="fill:none;stroke:#1f77b4;stroke-dasharray:1.5,1.5;stroke-dashoffset:0;stroke-width:1.5;"/>
   </g>
   <g id="line2d_59">
    <path clip-path="url(#pcab03b17bd)" d="M 379.753904 167.992705 
L 380.828467 156.145145 
L 382.239675 156.841378 
L 383.00536 158.071389 
L 384.279149 158.477525 
L 385.676551 158.071389 
L 386.778096 158.303466 
L 387.955096 157.624639 
L 389.224806 157.903133 
L 390.564794 158.442713 
L 392.97009 157.53761 
L 394.213289 157.781292 
L 395.436409 159.278192 
L 396.46846 158.518138 
L 397.566868 160.241314 
L 400.129348 159.748149 
L 401.138183 160.67646 
L 402.247414 160.885329 
L 403.372647 159.022907 
L 404.602982 157.555016 
L 405.712684 159.173757 
L 407.003886 159.243381 
L 407.865576 159.823574 
L 409.042418 160.43858 
L 410.088117 161.390098 
L 411.304335 161.262455 
L 413.335181 164.650788 
L 414.622931 165.207774 
L 415.571527 163.913942 
L 416.834178 164.26786 
L 417.536488 162.968226 
L 418.747214 163.826913 
L 420.086104 164.581165 
L 421.108273 164.923479 
L 422.296724 164.639184 
L 423.53459 165.741553 
L 424.82485 166.054857 
L 425.996045 165.329615 
L 427.07704 164.819044 
L 428.244157 165.364427 
L 429.523122 166.797506 
L 430.459953 165.700939 
L 431.512398 165.625514 
L 434.018875 162.811573 
L 435.052652 162.71294 
L 436.043603 162.962424 
L 437.132285 162.335814 
L 438.359326 163.594835 
L 440.610575 162.550486 
L 441.490462 161.274059 
L 442.572398 163.049453 
L 443.564291 163.078463 
L 444.688896 163.536816 
L 445.73334 164.859658 
L 446.697309 164.824846 
L 448.023806 163.258323 
L 448.938989 162.388032 
L 451.069448 162.875395 
L 452.232172 164.436116 
L 453.545649 164.209841 
L 454.581779 163.890734 
L 455.772584 164.830648 
L 456.841813 164.175029 
L 458.046265 163.780497 
L 459.165536 165.25419 
L 460.217667 165.567495 
L 461.449101 166.228916 
L 462.424836 165.376031 
L 463.365118 165.590702 
L 464.309165 165.497871 
L 465.492125 163.792101 
L 466.775797 163.90814 
L 467.739453 165.22518 
L 468.712991 163.884932 
L 469.800732 163.635449 
L 470.945259 163.797903 
L 471.913464 162.364824 
L 473.101602 162.654921 
L 473.906347 163.345352 
L 474.979656 163.229313 
L 475.903937 163.971961 
L 477.010502 163.931348 
L 478.094477 162.759356 
L 478.984561 162.97983 
L 480.204229 162.939216 
L 481.149688 163.217709 
L 483.010486 162.933414 
L 484.11109 163.409173 
L 485.333582 163.095868 
L 486.282806 161.802036 
L 487.404116 163.287332 
L 488.537976 164.006773 
L 489.605951 164.29687 
L 490.752047 165.40504 
L 491.668485 166.049056 
L 492.791207 165.811176 
L 493.796904 165.265794 
L 494.616396 166.919346 
L 495.544913 167.859261 
L 496.675165 168.520682 
L 497.899226 168.851392 
L 498.842175 168.375633 
L 500.789722 167.824449 
L 501.85503 167.905676 
L 502.745114 167.801241 
L 503.877405 168.538088 
L 504.713055 170.510747 
L 505.73036 169.100876 
L 506.585148 169.478002 
L 507.646377 169.124083 
L 508.596855 168.160962 
L 509.473919 168.833986 
L 510.718216 168.381435 
L 511.610966 169.170499 
L 513.290893 167.743222 
L 514.451107 167.934686 
L 515.708895 168.265396 
L 516.678198 169.367765 
L 517.815196 169.170499 
L 518.863719 170.058196 
L 519.932948 170.383104 
L 520.999354 171.119951 
L 521.934616 171.340424 
L 523.036789 170.539757 
L 523.942089 172.123686 
L 524.785425 171.885807 
L 525.735276 172.216517 
L 526.80074 172.796711 
L 528.016958 172.52402 
L 529.715395 173.168035 
L 530.784938 174.264602 
L 531.86311 175.593246 
L 534.812433 175.129091 
L 535.704712 175.54683 
L 536.594796 175.517821 
L 537.626063 175.726691 
L 538.499047 175.390178 
L 539.347089 174.902815 
L 539.347089 174.902815 
" style="fill:none;stroke:#1f77b4;stroke-dasharray:4.5,1.5,2.25,1.5;stroke-dashoffset:0;stroke-width:1.5;"/>
   </g>
   <g id="line2d_60">
    <path clip-path="url(#pcab03b17bd)" d="M 333.262339 160.241314 
L 334.038848 131.678366 
L 334.643898 119.720569 
L 335.266674 121.861485 
L 335.805838 126.550612 
L 336.282254 129.972596 
L 336.674587 132.83461 
L 337.034762 134.093423 
L 337.459567 136.163265 
L 337.841547 136.32572 
L 338.201251 135.44277 
L 338.524091 136.430155 
L 338.837675 136.695259 
L 339.216517 136.497291 
L 339.56979 136.687761 
L 339.916317 136.058105 
L 340.259079 137.06905 
L 340.637921 136.343125 
L 341.028372 134.028152 
L 341.363761 135.995009 
L 341.687385 137.938659 
L 342.024971 137.729789 
L 342.388126 137.526721 
L 342.697004 136.784073 
L 342.998352 135.496042 
L 343.320878 135.635289 
L 343.721526 135.652695 
L 344.031816 134.556128 
L 344.274965 136.801479 
L 344.618982 136.227087 
L 344.983549 136.006613 
L 345.272348 136.668034 
L 345.521929 136.876904 
L 345.818571 137.474504 
L 346.153176 136.911716 
L 346.400561 138.774138 
L 346.691869 139.789478 
L 346.937999 141.042696 
" style="fill:none;stroke:#ff7f0e;stroke-dasharray:6,2.25;stroke-dashoffset:0;stroke-width:1.5;"/>
   </g>
   <g id="line2d_61">
    <path clip-path="url(#pcab03b17bd)" d="M 346.937999 141.042696 
L 347.571913 154.079654 
L 348.293674 148.283517 
L 348.945315 153.209364 
L 349.625505 145.359339 
L 350.258164 145.119139 
L 350.831526 148.370546 
L 351.546228 143.71076 
L 352.235517 144.184447 
L 352.969515 144.49485 
L 353.674491 144.273216 
L 354.346681 143.569705 
L 355.014008 143.879845 
L 355.722436 145.684694 
L 356.448903 144.829705 
L 357.155762 147.221762 
L 357.811481 147.09557 
L 358.41355 146.492765 
L 358.990363 147.320395 
L 359.745381 147.720729 
L 360.461181 148.765078 
L 361.111723 149.484518 
L 361.847289 151.503593 
L 362.491399 153.302195 
L 363.193866 154.688858 
L 363.836407 157.653649 
L 364.483812 158.309268 
L 365.071763 159.84098 
L 365.737365 161.239248 
L 366.371435 161.970292 
L 366.899462 163.600637 
L 367.530866 163.751488 
L 368.105169 165.770562 
L 368.721199 165.132349 
L 369.398096 166.310143 
L 370.027774 167.49954 
L 370.609136 166.559626 
L 371.189557 166.565428 
L 371.891239 166.21151 
L 372.486249 165.497871 
L 373.114986 165.480465 
L 373.687564 165.753157 
L 374.214178 164.62758 
L 374.946763 164.424512 
L 375.50836 164.801639 
L 376.13443 164.569561 
L 376.772109 164.279464 
L 377.348922 166.21151 
L 378.00417 165.167161 
L 378.651261 164.975697 
L 379.33506 165.497871 
L 379.885989 164.639184 
L 380.628771 164.720411 
L 381.169347 165.468862 
L 381.693452 165.393436 
L 382.344935 165.637118 
L 382.936023 165.277398 
L 383.386398 164.795837 
L 384.09263 165.619712 
L 384.654697 163.304738 
" style="fill:none;stroke:#ff7f0e;stroke-dasharray:1.5,1.5;stroke-dashoffset:0;stroke-width:1.5;"/>
   </g>
   <g id="line2d_62">
    <path clip-path="url(#pcab03b17bd)" d="M 384.654697 163.304738 
L 384.982242 157.108267 
L 386.087239 157.317137 
L 387.15537 160.171691 
L 388.277308 152.069282 
L 389.311556 151.82386 
L 390.393492 154.010031 
L 391.453309 153.587318 
L 392.683645 153.492208 
L 393.81123 154.369751 
L 395.125648 155.332873 
L 396.346572 156.272788 
L 397.568593 157.639144 
L 398.714846 156.393289 
L 399.903611 155.981862 
L 401.032609 156.300637 
L 402.2311 157.069104 
L 403.030982 157.249561 
L 404.137704 156.45845 
L 405.162539 156.945813 
L 406.408562 156.6093 
L 407.54854 157.032842 
L 408.749855 158.483326 
L 409.983799 159.138946 
L 411.197977 157.868321 
L 412.42392 158.16422 
L 413.556211 158.465921 
L 414.793763 158.16422 
L 416.036178 158.326674 
L 417.036855 158.082993 
L 418.174794 157.879925 
L 419.110997 158.866254 
L 420.248152 160.073058 
L 421.429387 160.995566 
L 422.576581 161.233446 
L 423.825741 161.558354 
L 424.979681 163.316342 
L 426.1126 163.618043 
L 427.196262 164.163425 
L 428.294826 163.583231 
L 429.447668 162.312607 
L 430.470777 163.124878 
L 431.52934 164.151821 
L 432.485936 164.331681 
L 433.648504 164.906073 
L 434.740323 165.706741 
L 436.016622 165.155557 
L 437.207583 165.085934 
L 438.485293 164.679798 
L 439.811634 164.89447 
L 440.857803 164.877064 
L 441.993389 163.873328 
L 443.105444 163.217709 
L 444.001018 162.689733 
L 445.161076 162.080529 
L 446.152341 161.291465 
L 447.351302 161.378494 
L 448.531283 161.627978 
L 449.723812 163.426579 
L 450.952736 163.043651 
L 452.101656 163.217709 
L 453.344698 163.008839 
L 454.400751 163.090066 
L 455.483942 163.734082 
L 456.65451 163.269927 
L 457.532357 163.496202 
L 458.627471 164.360691 
L 459.543438 165.01631 
L 460.73785 165.161359 
L 461.829041 164.940885 
L 463.045572 165.358625 
L 464.263986 165.132349 
L 465.444123 165.399238 
L 466.611397 165.573297 
L 467.662586 164.436116 
L 468.731816 163.449787 
L 469.713668 163.513608 
L 470.725954 162.910206 
L 471.862481 163.200303 
L 472.788802 162.388032 
L 473.964546 162.237181 
L 475.131036 161.198634 
L 476.37094 162.161756 
L 477.649906 161.529345 
L 478.845573 159.86999 
L 480.047829 159.45225 
L 481.077684 158.616771 
L 482.154444 159.394231 
L 483.314031 159.492864 
L 484.268745 159.701734 
L 485.405429 159.858386 
L 486.29363 159.417439 
L 487.513141 161.100001 
L 488.586606 161.802036 
L 489.711211 161.430712 
L 490.851189 160.931745 
L 492.014541 160.270324 
L 493.226523 160.873726 
" style="fill:none;stroke:#ff7f0e;stroke-dasharray:4.5,1.5,2.25,1.5;stroke-dashoffset:0;stroke-width:1.5;"/>
   </g>
   <g id="line2d_63"/>
   <g id="line2d_64"/>
   <g id="line2d_65"/>
   <g id="line2d_66"/>
   <g id="line2d_67"/>
   <g id="line2d_68"/>
   <g id="line2d_69"/>
   <g id="line2d_70"/>
   <g id="line2d_71">
    <path clip-path="url(#pcab03b17bd)" d="M 539.50396 84.108264 
L 539.648908 102.906548 
L 539.737069 111.992386 
L 539.869154 119.146177 
L 540.018025 124.42014 
L 540.164855 128.371261 
L 540.282195 129.403177 
L 540.358904 132.905476 
L 540.501813 134.341456 
L 540.645821 139.740741 
L 540.787161 142.696249 
L 540.909049 143.71449 
L 541.013996 145.620427 
L 541.150002 147.343603 
L 541.231105 147.778748 
L 541.313618 148.694729 
L 541.408996 149.994406 
L 541.497314 150.702926 
L 541.583279 154.392959 
L 541.682421 156.150947 
L 541.760543 157.305533 
L 541.850273 158.715404 
L 541.923374 160.339947 
L 542.044792 161.390098 
L 542.155543 164.186633 
L 542.245273 164.801639 
L 542.329512 166.194104 
L 542.423634 165.996838 
L 542.519012 166.310143 
L 542.661607 166.24052 
L 542.746945 166.820713 
L 542.806398 166.588636 
L 542.839341 167.34869 
L 542.911659 167.957894 
L 543.003114 168.358227 
L 543.091589 168.671532 
L 543.170338 170.742825 
L 543.22038 171.427453 
L 543.276069 171.485473 
L 543.354818 172.616851 
L 543.505257 172.7619 
L 543.64393 170.145225 
L 543.788722 169.309746 
L 543.894139 169.849326 
L 543.953279 169.077668 
L 544.055715 169.338755 
L 544.185447 169.141489 
L 544.278785 169.785505 
L 544.392046 170.000176 
L 544.510797 170.963298 
L 544.611508 171.636323 
L 544.693708 172.204913 
L 544.809008 172.727088 
L 544.925406 172.616851 
L 545.056863 172.55303 
L 545.142671 172.993977 
L 545.253422 174.374839 
L 545.372016 174.955033 
" style="fill:none;stroke:#1f77b4;stroke-linecap:round;stroke-width:3;"/>
   </g>
   <g id="line2d_72">
    <path clip-path="url(#pcab03b17bd)" d="M 493.362844 85.361483 
L 493.505282 86.092528 
L 493.642387 99.912748 
L 493.792669 102.149395 
L 493.913145 106.97951 
L 494.064996 111.905356 
L 494.171041 114.97624 
L 494.318185 117.566599 
L 494.445564 121.055015 
L 494.571374 123.511556 
L 494.692792 126.299968 
L 494.80119 128.867326 
L 494.909744 131.128075 
L 495.012808 132.640659 
L 495.139402 133.805357 
L 495.268664 134.628652 
L 495.397611 136.104563 
L 495.535187 137.132189 
L 495.676684 140.868638 
L 495.810651 144.848769 
L 495.913402 146.148403 
L 496.0298 147.622096 
L 496.175846 150.186553 
L 496.283616 152.008362 
L 496.399073 152.62917 
L 496.506686 154.404563 
L 496.623555 154.062249 
L 496.736188 155.089192 
L 496.833291 155.924671 
L 496.944198 156.214768 
L 497.046007 156.63831 
L 497.116599 157.38676 
L 497.206172 158.506534 
L 497.299667 159.962821 
L 497.44336 161.337881 
L 497.591446 162.492467 
L 497.673646 163.826913 
L 497.729649 164.772629 
L 497.805104 166.513211 
L 497.902834 169.576635 
L 498.031311 169.994374 
L 498.114923 170.737023 
L 498.223791 173.469736 
L 498.324188 174.380641 
L 498.429135 176.50415 
L 498.53361 177.420857 
L 498.629772 177.896616 
L 498.675578 178.343365 
L 498.792133 179.294883 
L 498.898491 180.199986 
L 499.005163 181.099287 
L 499.137876 181.197919 
L 499.272941 181.261741 
L 499.383221 181.650471 
L 499.501031 182.161041 
L 499.57178 182.654206 
L 499.632488 182.062408 
L 499.722532 181.412591 
L 499.852264 181.470611 
L 500.009135 181.267543 
L 500.112826 180.356638 
L 500.207105 180.037532 
L 500.346877 179.753237 
L 500.494649 179.706821 
L 500.599595 179.439932 
L 500.746426 179.277478 
L 500.881021 179.857671 
L 500.984399 180.014324 
L 501.084168 179.103419 
L 501.19837 180.078145 
L 501.325906 180.066541 
L 501.427244 179.857671 
L 501.528583 179.672009 
L 501.648589 179.817058 
L 501.786321 180.472677 
L 501.869462 180.733764 
L 501.98837 180.838199 
L 502.065707 181.331364 
L 502.140378 181.575046 
L 502.220225 181.488016 
L 502.303994 182.369911 
L 502.396234 182.944303 
L 502.542123 183.298222 
L 502.649266 184.470213 
L 502.733662 184.197522 
L 502.851786 183.98285 
L 502.969595 184.713895 
L 503.072189 184.081483 
" style="fill:none;stroke:#ff7f0e;stroke-linecap:round;stroke-width:3;"/>
   </g>
   <g id="line2d_73"/>
   <g id="line2d_74"/>
   <g id="line2d_75"/>
   <g id="line2d_76"/>
   <g id="line2d_77"/>
   <g id="line2d_78"/>
   <g id="line2d_79"/>
   <g id="line2d_80"/>
   <g id="line2d_81">
    <path clip-path="url(#pcab03b17bd)" d="M 333.923705 147.082515 
L 335.490058 135.69911 
L 337.031938 129.328581 
L 338.591231 131.652257 
L 340.120719 132.002114 
L 341.565811 134.498109 
L 343.11428 136.534589 
L 344.63059 139.941778 
L 346.144705 141.385011 
L 347.631681 142.205405 
L 349.157717 144.091879 
L 350.494097 144.776244 
L 351.864205 146.014066 
L 353.161681 147.380901 
L 354.707483 147.945844 
L 356.084807 148.655566 
L 357.463855 149.189643 
L 358.769803 149.188619 
L 360.202815 150.047306 
L 361.531352 151.874917 
L 362.856123 154.120268 
L 364.157208 155.83184 
L 365.474763 157.119871 
L 366.650037 157.862519 
L 367.923983 158.790829 
L 369.099728 158.877858 
L 370.405989 159.057718 
L 371.569654 160.113671 
L 372.852855 160.235512 
L 373.983578 160.270324 
L 375.20309 159.579893 
L 376.41868 159.144748 
L 377.692155 159.022907 
L 378.879822 158.117804 
L 380.259812 158.471723 
L 381.326688 158.581959 
L 382.484236 158.964887 
L 383.540759 159.017105 
L 384.730622 158.419505 
L 385.627922 157.932142 
L 386.862807 157.682659 
L 388.004667 158.001766 
L 389.218531 157.334542 
L 390.431141 156.96902 
L 391.623043 156.748547 
L 392.799572 156.063918 
L 394.031633 156.174155 
L 395.02682 156.684725 
L 396.126012 157.032842 
L 397.129983 156.121937 
L 398.405027 156.974822 
L 399.337622 158.286061 
L 400.563409 158.605167 
L 401.535379 159.411637 
L 402.656532 158.471723 
L 403.763411 158.407901 
L 404.993276 159.104134 
L 406.052937 158.976491 
L 407.314176 159.051917 
L 408.295715 158.204833 
L 409.255292 159.672724 
L 410.268048 160.061454 
L 411.499011 160.885329 
L 412.458118 162.097935 
L 413.66555 162.132746 
L 414.787645 161.326277 
L 415.827069 161.744016 
L 416.934575 162.242983 
L 418.121615 162.010906 
L 419.232886 161.720809 
L 420.394355 161.465523 
L 421.326637 161.303069 
L 422.294528 162.271993 
L 423.261792 162.614307 
L 424.451812 162.817375 
L 425.331228 163.229313 
L 426.504776 163.298936 
L 427.518944 164.673996 
L 428.670688 163.560024 
L 429.818196 163.148086 
L 430.99849 162.039915 
L 432.070386 161.558354 
L 433.274368 160.972359 
L 434.1941 161.500335 
L 435.17909 162.463457 
L 436.237338 162.393834 
L 437.351276 162.434447 
L 438.233987 162.631713 
L 439.297569 161.523543 
L 440.383113 161.958688 
L 441.479481 161.639582 
L 442.544475 160.954953 
" style="fill:none;stroke:#001c7f;stroke-linecap:round;stroke-width:1.5;"/>
   </g>
   <g id="line2d_82">
    <path clip-path="url(#pcab03b17bd)" d="M 333.905822 101.966634 
L 335.436251 126.87436 
L 336.990368 135.455429 
L 338.545582 142.748467 
L 340.114288 143.406407 
L 341.642677 141.007885 
L 343.165263 143.188585 
L 344.615217 142.722358 
L 346.0407 142.939931 
L 347.503047 142.257623 
L 348.843819 144.500125 
L 350.230869 146.212225 
L 351.700902 145.363356 
L 353.155092 146.470825 
L 354.551554 146.685663 
L 355.960251 147.552473 
L 357.366125 148.219013 
L 358.783921 149.171214 
L 360.251916 151.79369 
L 361.623121 151.410762 
L 362.676036 150.853776 
L 363.899469 149.815229 
L 365.150198 149.745606 
L 366.406888 150.569481 
L 367.739346 150.65651 
L 369.021763 151.532603 
L 370.283944 152.896059 
L 371.651855 152.62917 
L 372.825717 153.041107 
L 374.195667 152.147609 
L 375.556362 152.913465 
L 376.832661 152.57115 
L 377.81922 152.884455 
L 378.928922 152.356478 
L 380.006309 152.39129 
L 381.267391 150.737737 
L 382.636087 151.631236 
L 383.840852 152.774218 
L 385.009538 153.690924 
L 386.222932 153.470451 
L 387.359302 154.30593 
L 388.605952 154.984757 
L 389.894643 154.45678 
L 391.168903 155.106598 
L 392.162207 154.54381 
L 393.393955 155.930473 
L 394.377219 155.396695 
L 395.635164 154.833907 
L 396.790359 154.955747 
L 397.963907 155.924671 
L 399.126161 156.098729 
L 400.323711 156.597696 
L 401.403451 157.282325 
L 402.708143 158.535544 
L 403.960597 158.506534 
L 405.238622 158.170022 
L 406.354912 158.34408 
L 407.438888 158.88366 
L 408.409446 159.005501 
L 409.634291 159.086728 
L 410.848312 159.266588 
L 412.024527 159.545081 
L 413.158545 158.541346 
L 414.260717 157.653649 
L 415.489798 158.593563 
L 416.677621 159.899 
L 417.988118 160.090464 
L 419.147705 159.231777 
L 420.151676 158.895264 
L 421.21918 159.202767 
L 422.179228 158.053983 
L 423.354032 157.369354 
L 424.602878 156.557083 
L 425.77423 156.406232 
L 426.941975 155.901463 
L 428.09262 155.454714 
L 429.200597 155.895661 
L 430.380734 155.367685 
L 431.657032 155.826038 
L 432.892231 154.549612 
L 433.805374 155.559149 
L 434.777031 156.046512 
L 435.685154 154.207297 
L 436.817602 153.516866 
L 438.035075 152.983088 
L 439.218663 152.710397 
L 440.401624 153.023701 
L 441.534229 152.408696 
L 442.643304 152.327469 
L 443.72775 153.3196 
L 444.974243 153.023701 
L 446.100574 153.412431 
" style="fill:none;stroke:#b1400d;stroke-linecap:round;stroke-width:1.5;"/>
   </g>
   <g id="line2d_83"/>
   <g id="line2d_84"/>
   <g id="line2d_85"/>
   <g id="line2d_86">
    <path clip-path="url(#pcab03b17bd)" d="M 332.355 145.933731 
L 555.9775 145.933731 
" style="fill:none;stroke:#008000;stroke-dasharray:5.55,2.4;stroke-dashoffset:0;stroke-width:1.5;"/>
   </g>
   <g id="patch_8">
    <path d="M 332.355 223.32 
L 332.355 75.24 
" style="fill:none;stroke:#cccccc;stroke-linecap:square;stroke-linejoin:miter;stroke-width:0.8;"/>
   </g>
   <g id="patch_9">
    <path d="M 555.9775 223.32 
L 555.9775 75.24 
" style="fill:none;stroke:#cccccc;stroke-linecap:square;stroke-linejoin:miter;stroke-width:0.8;"/>
   </g>
   <g id="patch_10">
    <path d="M 332.355 223.32 
L 555.9775 223.32 
" style="fill:none;stroke:#cccccc;stroke-linecap:square;stroke-linejoin:miter;stroke-width:0.8;"/>
   </g>
   <g id="patch_11">
    <path d="M 332.355 75.24 
L 555.9775 75.24 
" style="fill:none;stroke:#cccccc;stroke-linecap:square;stroke-linejoin:miter;stroke-width:0.8;"/>
   </g>
   <g id="legend_1">
    <g id="patch_12">
     <path d="M 568.84995 292.62 
L 694.251825 292.62 
Q 696.651825 292.62 696.651825 290.22 
L 696.651825 9.6 
Q 696.651825 7.2 694.251825 7.2 
L 568.84995 7.2 
Q 566.44995 7.2 566.44995 9.6 
L 566.44995 290.22 
Q 566.44995 292.62 568.84995 292.62 
z
" style="fill:#ffffff;opacity:0.8;stroke:#cccccc;stroke-linejoin:miter;"/>
    </g>
    <g id="line2d_87">
     <path d="M 571.24995 16.918125 
L 595.24995 16.918125 
" style="fill:none;stroke:#008000;stroke-dasharray:5.55,2.4;stroke-dashoffset:0;stroke-width:1.5;"/>
    </g>
    <g id="line2d_88"/>
    <g id="text_29">
     <!-- Random -->
     <defs>
      <path d="M 44.390625 34.1875 
Q 47.5625 33.109375 50.5625 29.59375 
Q 53.5625 26.078125 56.59375 19.921875 
L 66.609375 0 
L 56 0 
L 46.6875 18.703125 
Q 43.0625 26.03125 39.671875 28.421875 
Q 36.28125 30.8125 30.421875 30.8125 
L 19.671875 30.8125 
L 19.671875 0 
L 9.8125 0 
L 9.8125 72.90625 
L 32.078125 72.90625 
Q 44.578125 72.90625 50.734375 67.671875 
Q 56.890625 62.453125 56.890625 51.90625 
Q 56.890625 45.015625 53.6875 40.46875 
Q 50.484375 35.9375 44.390625 34.1875 
z
M 19.671875 64.796875 
L 19.671875 38.921875 
L 32.078125 38.921875 
Q 39.203125 38.921875 42.84375 42.21875 
Q 46.484375 45.515625 46.484375 51.90625 
Q 46.484375 58.296875 42.84375 61.546875 
Q 39.203125 64.796875 32.078125 64.796875 
z
" id="DejaVuSans-82"/>
      <path d="M 34.28125 27.484375 
Q 23.390625 27.484375 19.1875 25 
Q 14.984375 22.515625 14.984375 16.5 
Q 14.984375 11.71875 18.140625 8.90625 
Q 21.296875 6.109375 26.703125 6.109375 
Q 34.1875 6.109375 38.703125 11.40625 
Q 43.21875 16.703125 43.21875 25.484375 
L 43.21875 27.484375 
z
M 52.203125 31.203125 
L 52.203125 0 
L 43.21875 0 
L 43.21875 8.296875 
Q 40.140625 3.328125 35.546875 0.953125 
Q 30.953125 -1.421875 24.3125 -1.421875 
Q 15.921875 -1.421875 10.953125 3.296875 
Q 6 8.015625 6 15.921875 
Q 6 25.140625 12.171875 29.828125 
Q 18.359375 34.515625 30.609375 34.515625 
L 43.21875 34.515625 
L 43.21875 35.40625 
Q 43.21875 41.609375 39.140625 45 
Q 35.0625 48.390625 27.6875 48.390625 
Q 23 48.390625 18.546875 47.265625 
Q 14.109375 46.140625 10.015625 43.890625 
L 10.015625 52.203125 
Q 14.9375 54.109375 19.578125 55.046875 
Q 24.21875 56 28.609375 56 
Q 40.484375 56 46.34375 49.84375 
Q 52.203125 43.703125 52.203125 31.203125 
z
" id="DejaVuSans-97"/>
      <path d="M 45.40625 46.390625 
L 45.40625 75.984375 
L 54.390625 75.984375 
L 54.390625 0 
L 45.40625 0 
L 45.40625 8.203125 
Q 42.578125 3.328125 38.25 0.953125 
Q 33.9375 -1.421875 27.875 -1.421875 
Q 17.96875 -1.421875 11.734375 6.484375 
Q 5.515625 14.40625 5.515625 27.296875 
Q 5.515625 40.1875 11.734375 48.09375 
Q 17.96875 56 27.875 56 
Q 33.9375 56 38.25 53.625 
Q 42.578125 51.265625 45.40625 46.390625 
z
M 14.796875 27.296875 
Q 14.796875 17.390625 18.875 11.75 
Q 22.953125 6.109375 30.078125 6.109375 
Q 37.203125 6.109375 41.296875 11.75 
Q 45.40625 17.390625 45.40625 27.296875 
Q 45.40625 37.203125 41.296875 42.84375 
Q 37.203125 48.484375 30.078125 48.484375 
Q 22.953125 48.484375 18.875 42.84375 
Q 14.796875 37.203125 14.796875 27.296875 
z
" id="DejaVuSans-100"/>
      <path d="M 52 44.1875 
Q 55.375 50.25 60.0625 53.125 
Q 64.75 56 71.09375 56 
Q 79.640625 56 84.28125 50.015625 
Q 88.921875 44.046875 88.921875 33.015625 
L 88.921875 0 
L 79.890625 0 
L 79.890625 32.71875 
Q 79.890625 40.578125 77.09375 44.375 
Q 74.3125 48.1875 68.609375 48.1875 
Q 61.625 48.1875 57.5625 43.546875 
Q 53.515625 38.921875 53.515625 30.90625 
L 53.515625 0 
L 44.484375 0 
L 44.484375 32.71875 
Q 44.484375 40.625 41.703125 44.40625 
Q 38.921875 48.1875 33.109375 48.1875 
Q 26.21875 48.1875 22.15625 43.53125 
Q 18.109375 38.875 18.109375 30.90625 
L 18.109375 0 
L 9.078125 0 
L 9.078125 54.6875 
L 18.109375 54.6875 
L 18.109375 46.1875 
Q 21.1875 51.21875 25.484375 53.609375 
Q 29.78125 56 35.6875 56 
Q 41.65625 56 45.828125 52.96875 
Q 50 49.953125 52 44.1875 
z
" id="DejaVuSans-109"/>
     </defs>
     <g style="fill:#262626;" transform="translate(604.84995 21.118125)scale(0.12 -0.12)">
      <use xlink:href="#DejaVuSans-82"/>
      <use x="69.451172" xlink:href="#DejaVuSans-97"/>
      <use x="130.730469" xlink:href="#DejaVuSans-110"/>
      <use x="194.109375" xlink:href="#DejaVuSans-100"/>
      <use x="257.585938" xlink:href="#DejaVuSans-111"/>
      <use x="318.767578" xlink:href="#DejaVuSans-109"/>
     </g>
    </g>
    <g id="line2d_89">
     <path d="M 571.24995 34.531875 
L 595.24995 34.531875 
" style="fill:none;stroke:#800080;stroke-dasharray:5.55,2.4;stroke-dashoffset:0;stroke-width:1.5;"/>
    </g>
    <g id="line2d_90"/>
    <g id="text_30">
     <!-- Goal follower -->
     <defs>
      <path d="M 59.515625 10.40625 
L 59.515625 29.984375 
L 43.40625 29.984375 
L 43.40625 38.09375 
L 69.28125 38.09375 
L 69.28125 6.78125 
Q 63.578125 2.734375 56.6875 0.65625 
Q 49.8125 -1.421875 42 -1.421875 
Q 24.90625 -1.421875 15.25 8.5625 
Q 5.609375 18.5625 5.609375 36.375 
Q 5.609375 54.25 15.25 64.234375 
Q 24.90625 74.21875 42 74.21875 
Q 49.125 74.21875 55.546875 72.453125 
Q 61.96875 70.703125 67.390625 67.28125 
L 67.390625 56.78125 
Q 61.921875 61.421875 55.765625 63.765625 
Q 49.609375 66.109375 42.828125 66.109375 
Q 29.4375 66.109375 22.71875 58.640625 
Q 16.015625 51.171875 16.015625 36.375 
Q 16.015625 21.625 22.71875 14.15625 
Q 29.4375 6.6875 42.828125 6.6875 
Q 48.046875 6.6875 52.140625 7.59375 
Q 56.25 8.5 59.515625 10.40625 
z
" id="DejaVuSans-71"/>
      <path id="DejaVuSans-32"/>
      <path d="M 37.109375 75.984375 
L 37.109375 68.5 
L 28.515625 68.5 
Q 23.6875 68.5 21.796875 66.546875 
Q 19.921875 64.59375 19.921875 59.515625 
L 19.921875 54.6875 
L 34.71875 54.6875 
L 34.71875 47.703125 
L 19.921875 47.703125 
L 19.921875 0 
L 10.890625 0 
L 10.890625 47.703125 
L 2.296875 47.703125 
L 2.296875 54.6875 
L 10.890625 54.6875 
L 10.890625 58.5 
Q 10.890625 67.625 15.140625 71.796875 
Q 19.390625 75.984375 28.609375 75.984375 
z
" id="DejaVuSans-102"/>
      <path d="M 4.203125 54.6875 
L 13.1875 54.6875 
L 24.421875 12.015625 
L 35.59375 54.6875 
L 46.1875 54.6875 
L 57.421875 12.015625 
L 68.609375 54.6875 
L 77.59375 54.6875 
L 63.28125 0 
L 52.6875 0 
L 40.921875 44.828125 
L 29.109375 0 
L 18.5 0 
z
" id="DejaVuSans-119"/>
      <path d="M 41.109375 46.296875 
Q 39.59375 47.171875 37.8125 47.578125 
Q 36.03125 48 33.890625 48 
Q 26.265625 48 22.1875 43.046875 
Q 18.109375 38.09375 18.109375 28.8125 
L 18.109375 0 
L 9.078125 0 
L 9.078125 54.6875 
L 18.109375 54.6875 
L 18.109375 46.1875 
Q 20.953125 51.171875 25.484375 53.578125 
Q 30.03125 56 36.53125 56 
Q 37.453125 56 38.578125 55.875 
Q 39.703125 55.765625 41.0625 55.515625 
z
" id="DejaVuSans-114"/>
     </defs>
     <g style="fill:#262626;" transform="translate(604.84995 38.731875)scale(0.12 -0.12)">
      <use xlink:href="#DejaVuSans-71"/>
      <use x="77.490234" xlink:href="#DejaVuSans-111"/>
      <use x="138.671875" xlink:href="#DejaVuSans-97"/>
      <use x="199.951172" xlink:href="#DejaVuSans-108"/>
      <use x="227.734375" xlink:href="#DejaVuSans-32"/>
      <use x="259.521484" xlink:href="#DejaVuSans-102"/>
      <use x="294.726562" xlink:href="#DejaVuSans-111"/>
      <use x="355.908203" xlink:href="#DejaVuSans-108"/>
      <use x="383.691406" xlink:href="#DejaVuSans-108"/>
      <use x="411.474609" xlink:href="#DejaVuSans-111"/>
      <use x="472.65625" xlink:href="#DejaVuSans-119"/>
      <use x="554.443359" xlink:href="#DejaVuSans-101"/>
      <use x="615.966797" xlink:href="#DejaVuSans-114"/>
     </g>
    </g>
    <g id="line2d_91">
     <path d="M 571.24995 52.145625 
L 595.24995 52.145625 
" style="fill:none;stroke:#ff0000;stroke-dasharray:5.55,2.4;stroke-dashoffset:0;stroke-width:1.5;"/>
    </g>
    <g id="line2d_92"/>
    <g id="text_31">
     <!-- RGBD SLAM -->
     <defs>
      <path d="M 19.671875 34.8125 
L 19.671875 8.109375 
L 35.5 8.109375 
Q 43.453125 8.109375 47.28125 11.40625 
Q 51.125 14.703125 51.125 21.484375 
Q 51.125 28.328125 47.28125 31.5625 
Q 43.453125 34.8125 35.5 34.8125 
z
M 19.671875 64.796875 
L 19.671875 42.828125 
L 34.28125 42.828125 
Q 41.5 42.828125 45.03125 45.53125 
Q 48.578125 48.25 48.578125 53.8125 
Q 48.578125 59.328125 45.03125 62.0625 
Q 41.5 64.796875 34.28125 64.796875 
z
M 9.8125 72.90625 
L 35.015625 72.90625 
Q 46.296875 72.90625 52.390625 68.21875 
Q 58.5 63.53125 58.5 54.890625 
Q 58.5 48.1875 55.375 44.234375 
Q 52.25 40.28125 46.1875 39.3125 
Q 53.46875 37.75 57.5 32.78125 
Q 61.53125 27.828125 61.53125 20.40625 
Q 61.53125 10.640625 54.890625 5.3125 
Q 48.25 0 35.984375 0 
L 9.8125 0 
z
" id="DejaVuSans-66"/>
      <path d="M 19.671875 64.796875 
L 19.671875 8.109375 
L 31.59375 8.109375 
Q 46.6875 8.109375 53.6875 14.9375 
Q 60.6875 21.78125 60.6875 36.53125 
Q 60.6875 51.171875 53.6875 57.984375 
Q 46.6875 64.796875 31.59375 64.796875 
z
M 9.8125 72.90625 
L 30.078125 72.90625 
Q 51.265625 72.90625 61.171875 64.09375 
Q 71.09375 55.28125 71.09375 36.53125 
Q 71.09375 17.671875 61.125 8.828125 
Q 51.171875 0 30.078125 0 
L 9.8125 0 
z
" id="DejaVuSans-68"/>
      <path d="M 53.515625 70.515625 
L 53.515625 60.890625 
Q 47.90625 63.578125 42.921875 64.890625 
Q 37.9375 66.21875 33.296875 66.21875 
Q 25.25 66.21875 20.875 63.09375 
Q 16.5 59.96875 16.5 54.203125 
Q 16.5 49.359375 19.40625 46.890625 
Q 22.3125 44.4375 30.421875 42.921875 
L 36.375 41.703125 
Q 47.40625 39.59375 52.65625 34.296875 
Q 57.90625 29 57.90625 20.125 
Q 57.90625 9.515625 50.796875 4.046875 
Q 43.703125 -1.421875 29.984375 -1.421875 
Q 24.8125 -1.421875 18.96875 -0.25 
Q 13.140625 0.921875 6.890625 3.21875 
L 6.890625 13.375 
Q 12.890625 10.015625 18.65625 8.296875 
Q 24.421875 6.59375 29.984375 6.59375 
Q 38.421875 6.59375 43.015625 9.90625 
Q 47.609375 13.234375 47.609375 19.390625 
Q 47.609375 24.75 44.3125 27.78125 
Q 41.015625 30.8125 33.5 32.328125 
L 27.484375 33.5 
Q 16.453125 35.6875 11.515625 40.375 
Q 6.59375 45.0625 6.59375 53.421875 
Q 6.59375 63.09375 13.40625 68.65625 
Q 20.21875 74.21875 32.171875 74.21875 
Q 37.3125 74.21875 42.625 73.28125 
Q 47.953125 72.359375 53.515625 70.515625 
z
" id="DejaVuSans-83"/>
      <path d="M 9.8125 72.90625 
L 19.671875 72.90625 
L 19.671875 8.296875 
L 55.171875 8.296875 
L 55.171875 0 
L 9.8125 0 
z
" id="DejaVuSans-76"/>
      <path d="M 34.1875 63.1875 
L 20.796875 26.90625 
L 47.609375 26.90625 
z
M 28.609375 72.90625 
L 39.796875 72.90625 
L 67.578125 0 
L 57.328125 0 
L 50.6875 18.703125 
L 17.828125 18.703125 
L 11.1875 0 
L 0.78125 0 
z
" id="DejaVuSans-65"/>
     </defs>
     <g style="fill:#262626;" transform="translate(604.84995 56.345625)scale(0.12 -0.12)">
      <use xlink:href="#DejaVuSans-82"/>
      <use x="69.482422" xlink:href="#DejaVuSans-71"/>
      <use x="146.972656" xlink:href="#DejaVuSans-66"/>
      <use x="215.576172" xlink:href="#DejaVuSans-68"/>
      <use x="292.578125" xlink:href="#DejaVuSans-32"/>
      <use x="324.365234" xlink:href="#DejaVuSans-83"/>
      <use x="387.841797" xlink:href="#DejaVuSans-76"/>
      <use x="443.585938" xlink:href="#DejaVuSans-65"/>
      <use x="511.994141" xlink:href="#DejaVuSans-77"/>
     </g>
    </g>
    <g id="line2d_93">
     <path d="M 571.24995 69.759375 
L 595.24995 69.759375 
" style="fill:none;"/>
    </g>
    <g id="line2d_94"/>
    <g id="line2d_95">
     <path d="M 571.24995 87.373125 
L 595.24995 87.373125 
" style="fill:none;"/>
    </g>
    <g id="line2d_96"/>
    <g id="text_32">
     <!-- Dreamer -->
     <g style="fill:#262626;" transform="translate(604.84995 91.573125)scale(0.12 -0.12)">
      <use xlink:href="#DejaVuSans-68"/>
      <use x="77.001953" xlink:href="#DejaVuSans-114"/>
      <use x="118.083984" xlink:href="#DejaVuSans-101"/>
      <use x="179.607422" xlink:href="#DejaVuSans-97"/>
      <use x="240.886719" xlink:href="#DejaVuSans-109"/>
      <use x="338.298828" xlink:href="#DejaVuSans-101"/>
      <use x="399.822266" xlink:href="#DejaVuSans-114"/>
     </g>
    </g>
    <g id="line2d_97">
     <path d="M 571.24995 104.986875 
L 595.24995 104.986875 
" style="fill:none;stroke:#001c7f;stroke-linecap:round;stroke-width:1.5;"/>
    </g>
    <g id="line2d_98"/>
    <g id="text_33">
     <!-- Dense reward -->
     <g style="fill:#262626;" transform="translate(604.84995 109.186875)scale(0.12 -0.12)">
      <use xlink:href="#DejaVuSans-68"/>
      <use x="77.001953" xlink:href="#DejaVuSans-101"/>
      <use x="138.525391" xlink:href="#DejaVuSans-110"/>
      <use x="201.904297" xlink:href="#DejaVuSans-115"/>
      <use x="254.003906" xlink:href="#DejaVuSans-101"/>
      <use x="315.527344" xlink:href="#DejaVuSans-32"/>
      <use x="347.314453" xlink:href="#DejaVuSans-114"/>
      <use x="388.396484" xlink:href="#DejaVuSans-101"/>
      <use x="449.919922" xlink:href="#DejaVuSans-119"/>
      <use x="531.707031" xlink:href="#DejaVuSans-97"/>
      <use x="592.986328" xlink:href="#DejaVuSans-114"/>
      <use x="634.083984" xlink:href="#DejaVuSans-100"/>
     </g>
    </g>
    <g id="line2d_99">
     <path d="M 571.24995 122.600625 
L 595.24995 122.600625 
" style="fill:none;stroke:#b1400d;stroke-linecap:round;stroke-width:1.5;"/>
    </g>
    <g id="line2d_100"/>
    <g id="text_34">
     <!-- Sparse reward -->
     <g style="fill:#262626;" transform="translate(604.84995 126.800625)scale(0.12 -0.12)">
      <use xlink:href="#DejaVuSans-83"/>
      <use x="63.476562" xlink:href="#DejaVuSans-112"/>
      <use x="126.953125" xlink:href="#DejaVuSans-97"/>
      <use x="188.232422" xlink:href="#DejaVuSans-114"/>
      <use x="229.345703" xlink:href="#DejaVuSans-115"/>
      <use x="281.445312" xlink:href="#DejaVuSans-101"/>
      <use x="342.96875" xlink:href="#DejaVuSans-32"/>
      <use x="374.755859" xlink:href="#DejaVuSans-114"/>
      <use x="415.837891" xlink:href="#DejaVuSans-101"/>
      <use x="477.361328" xlink:href="#DejaVuSans-119"/>
      <use x="559.148438" xlink:href="#DejaVuSans-97"/>
      <use x="620.427734" xlink:href="#DejaVuSans-114"/>
      <use x="661.525391" xlink:href="#DejaVuSans-100"/>
     </g>
    </g>
    <g id="line2d_101">
     <path d="M 571.24995 140.214375 
L 595.24995 140.214375 
" style="fill:none;"/>
    </g>
    <g id="line2d_102"/>
    <g id="line2d_103">
     <path d="M 571.24995 157.828125 
L 595.24995 157.828125 
" style="fill:none;"/>
    </g>
    <g id="line2d_104"/>
    <g id="text_35">
     <!-- MerCur-Re -->
     <defs>
      <path d="M 64.40625 67.28125 
L 64.40625 56.890625 
Q 59.421875 61.53125 53.78125 63.8125 
Q 48.140625 66.109375 41.796875 66.109375 
Q 29.296875 66.109375 22.65625 58.46875 
Q 16.015625 50.828125 16.015625 36.375 
Q 16.015625 21.96875 22.65625 14.328125 
Q 29.296875 6.6875 41.796875 6.6875 
Q 48.140625 6.6875 53.78125 8.984375 
Q 59.421875 11.28125 64.40625 15.921875 
L 64.40625 5.609375 
Q 59.234375 2.09375 53.4375 0.328125 
Q 47.65625 -1.421875 41.21875 -1.421875 
Q 24.65625 -1.421875 15.125 8.703125 
Q 5.609375 18.84375 5.609375 36.375 
Q 5.609375 53.953125 15.125 64.078125 
Q 24.65625 74.21875 41.21875 74.21875 
Q 47.75 74.21875 53.53125 72.484375 
Q 59.328125 70.75 64.40625 67.28125 
z
" id="DejaVuSans-67"/>
      <path d="M 8.5 21.578125 
L 8.5 54.6875 
L 17.484375 54.6875 
L 17.484375 21.921875 
Q 17.484375 14.15625 20.5 10.265625 
Q 23.53125 6.390625 29.59375 6.390625 
Q 36.859375 6.390625 41.078125 11.03125 
Q 45.3125 15.671875 45.3125 23.6875 
L 45.3125 54.6875 
L 54.296875 54.6875 
L 54.296875 0 
L 45.3125 0 
L 45.3125 8.40625 
Q 42.046875 3.421875 37.71875 1 
Q 33.40625 -1.421875 27.6875 -1.421875 
Q 18.265625 -1.421875 13.375 4.4375 
Q 8.5 10.296875 8.5 21.578125 
z
M 31.109375 56 
z
" id="DejaVuSans-117"/>
      <path d="M 4.890625 31.390625 
L 31.203125 31.390625 
L 31.203125 23.390625 
L 4.890625 23.390625 
z
" id="DejaVuSans-45"/>
     </defs>
     <g style="fill:#262626;" transform="translate(604.84995 162.028125)scale(0.12 -0.12)">
      <use xlink:href="#DejaVuSans-77"/>
      <use x="86.279297" xlink:href="#DejaVuSans-101"/>
      <use x="147.802734" xlink:href="#DejaVuSans-114"/>
      <use x="188.916016" xlink:href="#DejaVuSans-67"/>
      <use x="258.740234" xlink:href="#DejaVuSans-117"/>
      <use x="322.119141" xlink:href="#DejaVuSans-114"/>
      <use x="363.138672" xlink:href="#DejaVuSans-45"/>
      <use x="399.222656" xlink:href="#DejaVuSans-82"/>
      <use x="468.642578" xlink:href="#DejaVuSans-101"/>
     </g>
    </g>
    <g id="line2d_105">
     <path d="M 571.24995 175.441875 
L 595.24995 175.441875 
" style="fill:none;stroke:#1f77b4;stroke-linecap:round;stroke-width:1.5;"/>
    </g>
    <g id="line2d_106"/>
    <g id="text_36">
     <!-- Dense reward -->
     <g style="fill:#262626;" transform="translate(604.84995 179.641875)scale(0.12 -0.12)">
      <use xlink:href="#DejaVuSans-68"/>
      <use x="77.001953" xlink:href="#DejaVuSans-101"/>
      <use x="138.525391" xlink:href="#DejaVuSans-110"/>
      <use x="201.904297" xlink:href="#DejaVuSans-115"/>
      <use x="254.003906" xlink:href="#DejaVuSans-101"/>
      <use x="315.527344" xlink:href="#DejaVuSans-32"/>
      <use x="347.314453" xlink:href="#DejaVuSans-114"/>
      <use x="388.396484" xlink:href="#DejaVuSans-101"/>
      <use x="449.919922" xlink:href="#DejaVuSans-119"/>
      <use x="531.707031" xlink:href="#DejaVuSans-97"/>
      <use x="592.986328" xlink:href="#DejaVuSans-114"/>
      <use x="634.083984" xlink:href="#DejaVuSans-100"/>
     </g>
    </g>
    <g id="line2d_107">
     <path d="M 571.24995 193.055625 
L 595.24995 193.055625 
" style="fill:none;stroke:#ff7f0e;stroke-linecap:round;stroke-width:1.5;"/>
    </g>
    <g id="line2d_108"/>
    <g id="text_37">
     <!-- Sparse reward -->
     <g style="fill:#262626;" transform="translate(604.84995 197.255625)scale(0.12 -0.12)">
      <use xlink:href="#DejaVuSans-83"/>
      <use x="63.476562" xlink:href="#DejaVuSans-112"/>
      <use x="126.953125" xlink:href="#DejaVuSans-97"/>
      <use x="188.232422" xlink:href="#DejaVuSans-114"/>
      <use x="229.345703" xlink:href="#DejaVuSans-115"/>
      <use x="281.445312" xlink:href="#DejaVuSans-101"/>
      <use x="342.96875" xlink:href="#DejaVuSans-32"/>
      <use x="374.755859" xlink:href="#DejaVuSans-114"/>
      <use x="415.837891" xlink:href="#DejaVuSans-101"/>
      <use x="477.361328" xlink:href="#DejaVuSans-119"/>
      <use x="559.148438" xlink:href="#DejaVuSans-97"/>
      <use x="620.427734" xlink:href="#DejaVuSans-114"/>
      <use x="661.525391" xlink:href="#DejaVuSans-100"/>
     </g>
    </g>
    <g id="line2d_109">
     <path d="M 571.24995 210.669375 
L 595.24995 210.669375 
" style="fill:none;"/>
    </g>
    <g id="line2d_110"/>
    <g id="line2d_111">
     <path d="M 571.24995 228.283125 
L 595.24995 228.283125 
" style="fill:none;stroke:#333333;stroke-dasharray:6,2.25;stroke-dashoffset:0;stroke-width:1.5;"/>
    </g>
    <g id="line2d_112"/>
    <g id="text_38">
     <!-- $d&lt;2\mathrm{m}$ -->
     <defs>
      <path d="M 41.796875 8.203125 
Q 38.1875 3.46875 33.25 1.015625 
Q 28.328125 -1.421875 22.3125 -1.421875 
Q 14.109375 -1.421875 9.34375 4.171875 
Q 4.59375 9.765625 4.59375 19.484375 
Q 4.59375 27.59375 7.46875 34.9375 
Q 10.359375 42.28125 15.828125 48.09375 
Q 19.4375 51.953125 23.96875 53.96875 
Q 28.515625 56 33.5 56 
Q 38.765625 56 42.796875 53.453125 
Q 46.828125 50.921875 49.03125 46.1875 
L 54.890625 75.984375 
L 63.921875 75.984375 
L 49.125 0 
L 40.09375 0 
z
M 13.921875 21.09375 
Q 13.921875 14.015625 17.109375 10.0625 
Q 20.3125 6.109375 25.984375 6.109375 
Q 30.171875 6.109375 33.765625 8.125 
Q 37.359375 10.15625 40.09375 14.109375 
Q 42.96875 18.21875 44.625 23.578125 
Q 46.296875 28.953125 46.296875 34.1875 
Q 46.296875 40.96875 43.09375 44.765625 
Q 39.890625 48.578125 34.28125 48.578125 
Q 30.03125 48.578125 26.359375 46.578125 
Q 22.703125 44.578125 20.125 40.828125 
Q 17.28125 36.765625 15.59375 31.390625 
Q 13.921875 26.03125 13.921875 21.09375 
z
" id="DejaVuSans-Oblique-100"/>
      <path d="M 73.1875 49.21875 
L 22.796875 31.296875 
L 73.1875 13.484375 
L 73.1875 4.59375 
L 10.59375 27.296875 
L 10.59375 35.40625 
L 73.1875 58.109375 
z
" id="DejaVuSans-60"/>
     </defs>
     <g style="fill:#262626;" transform="translate(604.84995 232.483125)scale(0.12 -0.12)">
      <use transform="translate(0 0.015625)" xlink:href="#DejaVuSans-Oblique-100"/>
      <use transform="translate(82.958984 0.015625)" xlink:href="#DejaVuSans-60"/>
      <use transform="translate(186.230469 0.015625)" xlink:href="#DejaVuSans-50"/>
      <use transform="translate(249.853516 0.015625)" xlink:href="#DejaVuSans-109"/>
     </g>
    </g>
    <g id="line2d_113">
     <path d="M 571.24995 245.896875 
L 595.24995 245.896875 
" style="fill:none;stroke:#333333;stroke-dasharray:1.5,1.5;stroke-dashoffset:0;stroke-width:1.5;"/>
    </g>
    <g id="line2d_114"/>
    <g id="text_39">
     <!-- $d&lt;4\mathrm{m}$ -->
     <g style="fill:#262626;" transform="translate(604.84995 250.096875)scale(0.12 -0.12)">
      <use transform="translate(0 0.015625)" xlink:href="#DejaVuSans-Oblique-100"/>
      <use transform="translate(82.958984 0.015625)" xlink:href="#DejaVuSans-60"/>
      <use transform="translate(186.230469 0.015625)" xlink:href="#DejaVuSans-52"/>
      <use transform="translate(249.853516 0.015625)" xlink:href="#DejaVuSans-109"/>
     </g>
    </g>
    <g id="line2d_115">
     <path d="M 571.24995 263.510625 
L 595.24995 263.510625 
" style="fill:none;stroke:#333333;stroke-dasharray:4.5,1.5,2.25,1.5;stroke-dashoffset:0;stroke-width:1.5;"/>
    </g>
    <g id="line2d_116"/>
    <g id="text_40">
     <!-- Full -->
     <defs>
      <path d="M 9.8125 72.90625 
L 51.703125 72.90625 
L 51.703125 64.59375 
L 19.671875 64.59375 
L 19.671875 43.109375 
L 48.578125 43.109375 
L 48.578125 34.8125 
L 19.671875 34.8125 
L 19.671875 0 
L 9.8125 0 
z
" id="DejaVuSans-70"/>
     </defs>
     <g style="fill:#262626;" transform="translate(604.84995 267.710625)scale(0.12 -0.12)">
      <use xlink:href="#DejaVuSans-70"/>
      <use x="57.441406" xlink:href="#DejaVuSans-117"/>
      <use x="120.820312" xlink:href="#DejaVuSans-108"/>
      <use x="148.603516" xlink:href="#DejaVuSans-108"/>
     </g>
    </g>
    <g id="line2d_117">
     <path d="M 571.24995 281.124375 
L 595.24995 281.124375 
" style="fill:none;stroke:#333333;stroke-linecap:round;stroke-width:1.5;"/>
    </g>
    <g id="line2d_118"/>
    <g id="text_41">
     <!-- Retrain -->
     <g style="fill:#262626;" transform="translate(604.84995 285.324375)scale(0.12 -0.12)">
      <use xlink:href="#DejaVuSans-82"/>
      <use x="69.419922" xlink:href="#DejaVuSans-101"/>
      <use x="130.943359" xlink:href="#DejaVuSans-116"/>
      <use x="170.152344" xlink:href="#DejaVuSans-114"/>
      <use x="211.265625" xlink:href="#DejaVuSans-97"/>
      <use x="272.544922" xlink:href="#DejaVuSans-105"/>
      <use x="300.328125" xlink:href="#DejaVuSans-110"/>
     </g>
    </g>
   </g>
  </g>
 </g>
 <defs>
  <clipPath id="p5b573e609c">
   <rect height="148.08" width="223.6225" x="48.8975" y="75.24"/>
  </clipPath>
  <clipPath id="pcab03b17bd">
   <rect height="148.08" width="223.6225" x="332.355" y="75.24"/>
  </clipPath>
 </defs>
</svg>
