<?xml version="1.0" encoding="utf-8" standalone="no"?>
<!DOCTYPE svg PUBLIC "-//W3C//DTD SVG 1.1//EN"
  "http://www.w3.org/Graphics/SVG/1.1/DTD/svg11.dtd">
<!-- Created with matplotlib (https://matplotlib.org/) -->
<svg height="417.7075pt" version="1.1" viewBox="0 0 776.365575 417.7075" width="776.365575pt" xmlns="http://www.w3.org/2000/svg" xmlns:xlink="http://www.w3.org/1999/xlink">
 <defs>
  <style type="text/css">
*{stroke-linecap:butt;stroke-linejoin:round;}
  </style>
 </defs>
 <g id="figure_1">
  <g id="patch_1">
   <path d="M 0 417.7075 
L 776.365575 417.7075 
L 776.365575 0 
L 0 0 
z
" style="fill:#ffffff;"/>
  </g>
  <g id="axes_1">
   <g id="patch_2">
    <path d="M 52.71875 178.76 
L 304.71625 178.76 
L 304.71625 7.2 
L 52.71875 7.2 
z
" style="fill:#ffffff;"/>
   </g>
   <g id="matplotlib.axis_1">
    <g id="xtick_1">
     <g id="line2d_1">
      <path clip-path="url(#p71d0b558b0)" d="M 52.71875 178.76 
L 52.71875 7.2 
" style="fill:none;stroke:#cccccc;stroke-linecap:round;stroke-width:0.8;"/>
     </g>
    </g>
    <g id="xtick_2">
     <g id="line2d_2">
      <path clip-path="url(#p71d0b558b0)" d="M 98.199252 178.76 
L 98.199252 7.2 
" style="fill:none;stroke:#cccccc;stroke-linecap:round;stroke-width:0.8;"/>
     </g>
    </g>
    <g id="xtick_3">
     <g id="line2d_3">
      <path clip-path="url(#p71d0b558b0)" d="M 143.679754 178.76 
L 143.679754 7.2 
" style="fill:none;stroke:#cccccc;stroke-linecap:round;stroke-width:0.8;"/>
     </g>
    </g>
    <g id="xtick_4">
     <g id="line2d_4">
      <path clip-path="url(#p71d0b558b0)" d="M 189.160255 178.76 
L 189.160255 7.2 
" style="fill:none;stroke:#cccccc;stroke-linecap:round;stroke-width:0.8;"/>
     </g>
    </g>
    <g id="xtick_5">
     <g id="line2d_5">
      <path clip-path="url(#p71d0b558b0)" d="M 234.640757 178.76 
L 234.640757 7.2 
" style="fill:none;stroke:#cccccc;stroke-linecap:round;stroke-width:0.8;"/>
     </g>
    </g>
    <g id="xtick_6">
     <g id="line2d_6">
      <path clip-path="url(#p71d0b558b0)" d="M 280.121259 178.76 
L 280.121259 7.2 
" style="fill:none;stroke:#cccccc;stroke-linecap:round;stroke-width:0.8;"/>
     </g>
    </g>
   </g>
   <g id="matplotlib.axis_2">
    <g id="ytick_1">
     <g id="line2d_7">
      <path clip-path="url(#p71d0b558b0)" d="M 52.71875 178.76 
L 304.71625 178.76 
" style="fill:none;stroke:#cccccc;stroke-linecap:round;stroke-width:0.8;"/>
     </g>
     <g id="text_1">
      <!-- 0 -->
      <defs>
       <path d="M 31.78125 66.40625 
Q 24.171875 66.40625 20.328125 58.90625 
Q 16.5 51.421875 16.5 36.375 
Q 16.5 21.390625 20.328125 13.890625 
Q 24.171875 6.390625 31.78125 6.390625 
Q 39.453125 6.390625 43.28125 13.890625 
Q 47.125 21.390625 47.125 36.375 
Q 47.125 51.421875 43.28125 58.90625 
Q 39.453125 66.40625 31.78125 66.40625 
z
M 31.78125 74.21875 
Q 44.046875 74.21875 50.515625 64.515625 
Q 56.984375 54.828125 56.984375 36.375 
Q 56.984375 17.96875 50.515625 8.265625 
Q 44.046875 -1.421875 31.78125 -1.421875 
Q 19.53125 -1.421875 13.0625 8.265625 
Q 6.59375 17.96875 6.59375 36.375 
Q 6.59375 54.828125 13.0625 64.515625 
Q 19.53125 74.21875 31.78125 74.21875 
z
" id="DejaVuSans-48"/>
      </defs>
      <g style="fill:#262626;" transform="translate(38.08375 183.319062)scale(0.12 -0.12)">
       <use xlink:href="#DejaVuSans-48"/>
      </g>
     </g>
    </g>
    <g id="ytick_2">
     <g id="line2d_8">
      <path clip-path="url(#p71d0b558b0)" d="M 52.71875 148.472056 
L 304.71625 148.472056 
" style="fill:none;stroke:#cccccc;stroke-linecap:round;stroke-width:0.8;"/>
     </g>
     <g id="text_2">
      <!-- 25 -->
      <defs>
       <path d="M 19.1875 8.296875 
L 53.609375 8.296875 
L 53.609375 0 
L 7.328125 0 
L 7.328125 8.296875 
Q 12.9375 14.109375 22.625 23.890625 
Q 32.328125 33.6875 34.8125 36.53125 
Q 39.546875 41.84375 41.421875 45.53125 
Q 43.3125 49.21875 43.3125 52.78125 
Q 43.3125 58.59375 39.234375 62.25 
Q 35.15625 65.921875 28.609375 65.921875 
Q 23.96875 65.921875 18.8125 64.3125 
Q 13.671875 62.703125 7.8125 59.421875 
L 7.8125 69.390625 
Q 13.765625 71.78125 18.9375 73 
Q 24.125 74.21875 28.421875 74.21875 
Q 39.75 74.21875 46.484375 68.546875 
Q 53.21875 62.890625 53.21875 53.421875 
Q 53.21875 48.921875 51.53125 44.890625 
Q 49.859375 40.875 45.40625 35.40625 
Q 44.1875 33.984375 37.640625 27.21875 
Q 31.109375 20.453125 19.1875 8.296875 
z
" id="DejaVuSans-50"/>
       <path d="M 10.796875 72.90625 
L 49.515625 72.90625 
L 49.515625 64.59375 
L 19.828125 64.59375 
L 19.828125 46.734375 
Q 21.96875 47.46875 24.109375 47.828125 
Q 26.265625 48.1875 28.421875 48.1875 
Q 40.625 48.1875 47.75 41.5 
Q 54.890625 34.8125 54.890625 23.390625 
Q 54.890625 11.625 47.5625 5.09375 
Q 40.234375 -1.421875 26.90625 -1.421875 
Q 22.3125 -1.421875 17.546875 -0.640625 
Q 12.796875 0.140625 7.71875 1.703125 
L 7.71875 11.625 
Q 12.109375 9.234375 16.796875 8.0625 
Q 21.484375 6.890625 26.703125 6.890625 
Q 35.15625 6.890625 40.078125 11.328125 
Q 45.015625 15.765625 45.015625 23.390625 
Q 45.015625 31 40.078125 35.4375 
Q 35.15625 39.890625 26.703125 39.890625 
Q 22.75 39.890625 18.8125 39.015625 
Q 14.890625 38.140625 10.796875 36.28125 
z
" id="DejaVuSans-53"/>
      </defs>
      <g style="fill:#262626;" transform="translate(30.44875 153.031119)scale(0.12 -0.12)">
       <use xlink:href="#DejaVuSans-50"/>
       <use x="63.623047" xlink:href="#DejaVuSans-53"/>
      </g>
     </g>
    </g>
    <g id="ytick_3">
     <g id="line2d_9">
      <path clip-path="url(#p71d0b558b0)" d="M 52.71875 118.184112 
L 304.71625 118.184112 
" style="fill:none;stroke:#cccccc;stroke-linecap:round;stroke-width:0.8;"/>
     </g>
     <g id="text_3">
      <!-- 50 -->
      <g style="fill:#262626;" transform="translate(30.44875 122.743175)scale(0.12 -0.12)">
       <use xlink:href="#DejaVuSans-53"/>
       <use x="63.623047" xlink:href="#DejaVuSans-48"/>
      </g>
     </g>
    </g>
    <g id="ytick_4">
     <g id="line2d_10">
      <path clip-path="url(#p71d0b558b0)" d="M 52.71875 87.896169 
L 304.71625 87.896169 
" style="fill:none;stroke:#cccccc;stroke-linecap:round;stroke-width:0.8;"/>
     </g>
     <g id="text_4">
      <!-- 75 -->
      <defs>
       <path d="M 8.203125 72.90625 
L 55.078125 72.90625 
L 55.078125 68.703125 
L 28.609375 0 
L 18.3125 0 
L 43.21875 64.59375 
L 8.203125 64.59375 
z
" id="DejaVuSans-55"/>
      </defs>
      <g style="fill:#262626;" transform="translate(30.44875 92.455231)scale(0.12 -0.12)">
       <use xlink:href="#DejaVuSans-55"/>
       <use x="63.623047" xlink:href="#DejaVuSans-53"/>
      </g>
     </g>
    </g>
    <g id="ytick_5">
     <g id="line2d_11">
      <path clip-path="url(#p71d0b558b0)" d="M 52.71875 57.608225 
L 304.71625 57.608225 
" style="fill:none;stroke:#cccccc;stroke-linecap:round;stroke-width:0.8;"/>
     </g>
     <g id="text_5">
      <!-- 100 -->
      <defs>
       <path d="M 12.40625 8.296875 
L 28.515625 8.296875 
L 28.515625 63.921875 
L 10.984375 60.40625 
L 10.984375 69.390625 
L 28.421875 72.90625 
L 38.28125 72.90625 
L 38.28125 8.296875 
L 54.390625 8.296875 
L 54.390625 0 
L 12.40625 0 
z
" id="DejaVuSans-49"/>
      </defs>
      <g style="fill:#262626;" transform="translate(22.81375 62.167287)scale(0.12 -0.12)">
       <use xlink:href="#DejaVuSans-49"/>
       <use x="63.623047" xlink:href="#DejaVuSans-48"/>
       <use x="127.246094" xlink:href="#DejaVuSans-48"/>
      </g>
     </g>
    </g>
    <g id="ytick_6">
     <g id="line2d_12">
      <path clip-path="url(#p71d0b558b0)" d="M 52.71875 27.320281 
L 304.71625 27.320281 
" style="fill:none;stroke:#cccccc;stroke-linecap:round;stroke-width:0.8;"/>
     </g>
     <g id="text_6">
      <!-- 125 -->
      <g style="fill:#262626;" transform="translate(22.81375 31.879344)scale(0.12 -0.12)">
       <use xlink:href="#DejaVuSans-49"/>
       <use x="63.623047" xlink:href="#DejaVuSans-50"/>
       <use x="127.246094" xlink:href="#DejaVuSans-53"/>
      </g>
     </g>
    </g>
    <g id="text_7">
     <!-- collisions -->
     <defs>
      <path d="M 48.78125 52.59375 
L 48.78125 44.1875 
Q 44.96875 46.296875 41.140625 47.34375 
Q 37.3125 48.390625 33.40625 48.390625 
Q 24.65625 48.390625 19.8125 42.84375 
Q 14.984375 37.3125 14.984375 27.296875 
Q 14.984375 17.28125 19.8125 11.734375 
Q 24.65625 6.203125 33.40625 6.203125 
Q 37.3125 6.203125 41.140625 7.25 
Q 44.96875 8.296875 48.78125 10.40625 
L 48.78125 2.09375 
Q 45.015625 0.34375 40.984375 -0.53125 
Q 36.96875 -1.421875 32.421875 -1.421875 
Q 20.0625 -1.421875 12.78125 6.34375 
Q 5.515625 14.109375 5.515625 27.296875 
Q 5.515625 40.671875 12.859375 48.328125 
Q 20.21875 56 33.015625 56 
Q 37.15625 56 41.109375 55.140625 
Q 45.0625 54.296875 48.78125 52.59375 
z
" id="DejaVuSans-99"/>
      <path d="M 30.609375 48.390625 
Q 23.390625 48.390625 19.1875 42.75 
Q 14.984375 37.109375 14.984375 27.296875 
Q 14.984375 17.484375 19.15625 11.84375 
Q 23.34375 6.203125 30.609375 6.203125 
Q 37.796875 6.203125 41.984375 11.859375 
Q 46.1875 17.53125 46.1875 27.296875 
Q 46.1875 37.015625 41.984375 42.703125 
Q 37.796875 48.390625 30.609375 48.390625 
z
M 30.609375 56 
Q 42.328125 56 49.015625 48.375 
Q 55.71875 40.765625 55.71875 27.296875 
Q 55.71875 13.875 49.015625 6.21875 
Q 42.328125 -1.421875 30.609375 -1.421875 
Q 18.84375 -1.421875 12.171875 6.21875 
Q 5.515625 13.875 5.515625 27.296875 
Q 5.515625 40.765625 12.171875 48.375 
Q 18.84375 56 30.609375 56 
z
" id="DejaVuSans-111"/>
      <path d="M 9.421875 75.984375 
L 18.40625 75.984375 
L 18.40625 0 
L 9.421875 0 
z
" id="DejaVuSans-108"/>
      <path d="M 9.421875 54.6875 
L 18.40625 54.6875 
L 18.40625 0 
L 9.421875 0 
z
M 9.421875 75.984375 
L 18.40625 75.984375 
L 18.40625 64.59375 
L 9.421875 64.59375 
z
" id="DejaVuSans-105"/>
      <path d="M 44.28125 53.078125 
L 44.28125 44.578125 
Q 40.484375 46.53125 36.375 47.5 
Q 32.28125 48.484375 27.875 48.484375 
Q 21.1875 48.484375 17.84375 46.4375 
Q 14.5 44.390625 14.5 40.28125 
Q 14.5 37.15625 16.890625 35.375 
Q 19.28125 33.59375 26.515625 31.984375 
L 29.59375 31.296875 
Q 39.15625 29.25 43.1875 25.515625 
Q 47.21875 21.78125 47.21875 15.09375 
Q 47.21875 7.46875 41.1875 3.015625 
Q 35.15625 -1.421875 24.609375 -1.421875 
Q 20.21875 -1.421875 15.453125 -0.5625 
Q 10.6875 0.296875 5.421875 2 
L 5.421875 11.28125 
Q 10.40625 8.6875 15.234375 7.390625 
Q 20.0625 6.109375 24.8125 6.109375 
Q 31.15625 6.109375 34.5625 8.28125 
Q 37.984375 10.453125 37.984375 14.40625 
Q 37.984375 18.0625 35.515625 20.015625 
Q 33.0625 21.96875 24.703125 23.78125 
L 21.578125 24.515625 
Q 13.234375 26.265625 9.515625 29.90625 
Q 5.8125 33.546875 5.8125 39.890625 
Q 5.8125 47.609375 11.28125 51.796875 
Q 16.75 56 26.8125 56 
Q 31.78125 56 36.171875 55.265625 
Q 40.578125 54.546875 44.28125 53.078125 
z
" id="DejaVuSans-115"/>
      <path d="M 54.890625 33.015625 
L 54.890625 0 
L 45.90625 0 
L 45.90625 32.71875 
Q 45.90625 40.484375 42.875 44.328125 
Q 39.84375 48.1875 33.796875 48.1875 
Q 26.515625 48.1875 22.3125 43.546875 
Q 18.109375 38.921875 18.109375 30.90625 
L 18.109375 0 
L 9.078125 0 
L 9.078125 54.6875 
L 18.109375 54.6875 
L 18.109375 46.1875 
Q 21.34375 51.125 25.703125 53.5625 
Q 30.078125 56 35.796875 56 
Q 45.21875 56 50.046875 50.171875 
Q 54.890625 44.34375 54.890625 33.015625 
z
" id="DejaVuSans-110"/>
     </defs>
     <g style="fill:#262626;" transform="translate(16.318125 120.342812)rotate(-90)scale(0.12 -0.12)">
      <use xlink:href="#DejaVuSans-99"/>
      <use x="54.980469" xlink:href="#DejaVuSans-111"/>
      <use x="116.162109" xlink:href="#DejaVuSans-108"/>
      <use x="143.945312" xlink:href="#DejaVuSans-108"/>
      <use x="171.728516" xlink:href="#DejaVuSans-105"/>
      <use x="199.511719" xlink:href="#DejaVuSans-115"/>
      <use x="251.611328" xlink:href="#DejaVuSans-105"/>
      <use x="279.394531" xlink:href="#DejaVuSans-111"/>
      <use x="340.576172" xlink:href="#DejaVuSans-110"/>
      <use x="403.955078" xlink:href="#DejaVuSans-115"/>
     </g>
    </g>
   </g>
   <g id="line2d_13">
    <path clip-path="url(#p71d0b558b0)" d="M 54.451921 13.024372 
L 55.717734 38.52682 
L 56.778522 37.658566 
L 57.403242 38.011925 
L 58.05998 39.629301 
L 58.6203 43.716155 
L 59.098573 45.816119 
L 59.673992 46.381494 
L 60.184283 52.398699 
L 60.688389 50.641998 
" style="fill:none;stroke:#1f77b4;stroke-linecap:round;stroke-width:2.5;"/>
   </g>
   <g id="line2d_14">
    <path clip-path="url(#p71d0b558b0)" d="M 60.688389 50.641998 
L 61.045866 26.351067 
L 61.845595 46.643989 
L 62.744472 64.392724 
L 63.650989 62.514872 
L 64.508388 70.644156 
L 65.490403 74.529089 
L 66.32306 83.130865 
L 67.069122 87.997128 
L 67.918516 87.573097 
L 68.834675 91.974945 
L 69.64823 92.560512 
L 70.437953 89.45095 
L 71.519116 92.3384 
L 72.263177 92.459552 
L 73.083827 93.913373 
L 73.962874 94.135485 
L 74.699658 94.297021 
L 75.558148 95.347003 
L 76.353693 91.894177 
L 77.013706 93.024927 
L 77.809797 95.185467 
L 78.58151 93.913373 
L 79.31502 94.074909 
L 80.125846 97.709462 
L 80.888827 101.545935 
L 81.586316 102.656493 
L 82.225408 101.848815 
L 82.960555 105.362216 
L 83.710074 105.70548 
L 84.482878 109.097729 
L 85.286973 109.420801 
L 86.018846 110.470783 
L 86.781463 112.429403 
L 87.555541 111.823644 
L 88.366367 114.04476 
L 89.05476 112.308251 
L 89.816468 112.752475 
L 90.547794 109.178497 
L 91.277483 106.169895 
L 92.007354 108.108323 
L 93.184208 88.380776 
L 94.221891 111.076542 
L 95.019619 111.843836 
L 95.767318 109.62272 
L 96.601795 109.663104 
L 97.364412 114.872631 
L 98.122299 113.560153 
L 98.815785 113.11593 
L 99.569124 108.936194 
L 100.35903 109.885216 
L 101.090538 111.197693 
L 101.891177 109.158305 
L 102.644152 109.016961 
L 103.354194 110.65251 
L 103.987464 115.296662 
L 104.687864 118.426416 
L 105.436837 119.839853 
L 106.085753 120.485996 
L 106.919683 119.314862 
L 107.68703 119.961005 
" style="fill:none;stroke:#1f77b4;stroke-dasharray:10,3.75;stroke-dashoffset:0;stroke-width:2.5;"/>
   </g>
   <g id="line2d_15">
    <path clip-path="url(#p71d0b558b0)" d="M 107.68703 119.961005 
L 108.933196 98.113302 
L 110.569766 98.274837 
L 111.457728 106.250663 
L 112.934934 105.079529 
L 114.555496 107.785252 
L 115.832952 109.400609 
L 117.197913 108.815042 
L 120.224367 103.161292 
L 121.71631 103.928587 
L 123.013777 100.859409 
L 124.455509 100.919984 
L 125.873955 106.472774 
L 127.07082 106.452582 
L 128.344638 107.341029 
L 131.316334 106.392006 
L 132.486274 107.946787 
L 133.772645 103.706475 
L 135.077571 100.031538 
L 136.504386 96.901784 
L 137.791302 102.192078 
L 139.288702 106.028551 
L 140.288 106.43239 
L 141.652779 107.260261 
L 142.865471 114.266872 
L 144.275912 116.063956 
L 145.453675 117.154322 
L 146.631074 119.678318 
L 148.124472 119.658126 
L 149.224554 118.56776 
L 150.688845 116.467796 
L 151.503309 113.277466 
L 154.460088 106.149703 
L 155.645492 106.957381 
L 157.023733 106.230471 
L 158.459279 105.160297 
L 159.955588 107.643908 
L 161.313817 107.421796 
L 162.567442 106.856421 
L 163.920942 107.966979 
L 165.404152 114.771671 
L 166.49059 114.125528 
L 167.711105 114.569751 
L 169.101899 113.257274 
L 170.617855 112.691899 
L 171.816721 110.430399 
L 172.965922 105.220872 
L 174.228461 104.756457 
L 175.651455 106.210279 
L 176.908354 106.169895 
L 178.262217 105.241064 
L 179.282618 101.949775 
L 180.537334 106.53335 
L 181.687627 107.744868 
L 182.991826 107.441988 
L 184.203062 113.398617 
L 185.320973 114.771671 
L 186.859306 114.872631 
L 187.920639 112.469787 
L 189.495538 112.833242 
L 190.391321 112.267867 
L 191.739727 111.78326 
L 193.26296 110.551551 
L 194.464555 112.631323 
L 195.845525 113.721689 
L 197.085506 109.865024 
L 198.482303 109.360225 
L 199.780316 109.016961 
L 201.000467 109.965984 
L 202.428555 110.087135 
L 203.56011 108.431395 
L 204.65055 112.671707 
L 205.745357 113.418809 
L 207.117231 108.310243 
L 208.605899 108.996769 
L 209.723445 111.379421 
L 210.852453 107.280453 
L 212.113901 106.028551 
L 213.441204 106.351622 
L 214.564026 106.816038 
L 215.941904 106.190087 
L 216.875163 106.089127 
L 218.119874 111.439997 
L 219.191758 111.036158 
L 220.475036 109.82464 
L 221.732117 110.390015 
L 222.764343 111.096734 
L 224.178786 108.673698 
L 225.27523 108.391011 
L 227.433189 109.945792 
L 228.709554 110.571743 
L 230.127272 109.400609 
L 231.228082 107.421796 
L 232.528461 107.522756 
L 235.081918 111.096734 
L 236.41104 113.762073 
L 238.775844 120.041773 
L 239.942146 118.325456 
L 240.892507 121.172523 
L 241.969303 122.222505 
L 243.280051 121.233099 
L 244.699589 120.849451 
L 245.793122 117.598546 
L 246.864824 118.26488 
L 248.051684 112.611131 
L 250.319341 108.067939 
L 251.632454 108.310243 
L 252.601553 114.852439 
L 253.781317 110.995774 
L 254.77261 115.114934 
L 256.003313 115.337046 
L 257.105578 115.013974 
L 258.122704 117.497586 
L 259.565709 112.631323 
L 260.601027 118.56776 
L 261.747318 117.356242 
L 262.54923 117.416818 
L 263.894725 120.445612 
L 265.353376 118.870639 
L 266.477472 121.031179 
L 267.796043 118.26488 
L 269.012009 118.446608 
L 270.25199 119.29467 
L 273.851499 118.931215 
L 274.901371 121.273483 
L 276.980921 121.717706 
L 278.216535 120.849451 
L 279.626977 121.616746 
L 280.66466 120.889835 
L 281.596646 122.202313 
L 284.08734 129.16854 
L 285.262193 129.511803 
L 286.595499 127.916638 
L 287.507656 128.744509 
L 288.542428 126.543585 
L 289.574654 122.808072 
L 290.770609 119.759086 
L 291.783005 119.112943 
L 292.766476 118.244688 
L 292.766476 118.244688 
" style="fill:none;stroke:#1f77b4;stroke-dasharray:2.5,2.5;stroke-dashoffset:0;stroke-width:2.5;"/>
   </g>
   <g id="line2d_16">
    <path clip-path="url(#p71d0b558b0)" d="M 53.770987 105.584328 
L 54.671501 72.449317 
L 55.373174 58.577439 
L 56.095404 61.06105 
L 56.72067 66.500765 
L 57.273167 70.470505 
L 57.728154 68.491693 
L 58.145847 76.18483 
L 58.638492 87.18945 
L 59.081472 89.026919 
L 59.498619 85.412557 
L 59.873015 85.452941 
L 60.236677 83.494321 
L 60.676019 81.757812 
L 61.085707 79.173241 
L 61.487573 77.012701 
L 61.885072 82.161651 
L 62.324414 77.658844 
L 62.777218 73.539683 
L 63.166167 74.42813 
L 63.541472 72.772389 
L 63.932968 72.368549 
L 64.354118 70.127242 
L 64.712322 72.005094 
L 65.061794 73.600259 
L 65.435826 74.932929 
L 65.900455 79.233817 
L 66.260297 77.981915 
L 66.542276 82.888562 
L 66.941231 83.514513 
L 67.364017 85.271214 
L 67.698936 85.351981 
L 67.988374 83.433745 
L 68.332388 87.169258 
L 68.720428 82.545299 
L 69.007319 86.523115 
L 69.345148 86.704843 
L 69.630584 89.652869 
" style="fill:none;stroke:#ff7f0e;stroke-linecap:round;stroke-width:2.5;"/>
   </g>
   <g id="line2d_17">
    <path clip-path="url(#p71d0b558b0)" d="M 69.630584 89.652869 
L 70.36573 98.436373 
L 71.202754 91.71245 
L 71.958458 97.426775 
L 72.747271 88.3202 
L 73.480963 88.041551 
L 74.145888 91.813409 
L 74.974724 84.402959 
L 75.77409 85.372173 
L 76.625303 82.262611 
L 77.44286 86.220236 
L 78.222396 84.746222 
L 78.996292 81.394357 
L 79.817852 91.369186 
L 80.660333 88.703847 
L 81.480074 95.225851 
L 82.240508 95.791226 
L 82.938724 95.851802 
L 83.607651 98.577717 
L 84.483242 97.406583 
L 85.313352 102.737261 
L 86.067783 101.828623 
L 86.920815 104.332426 
L 87.667787 112.005372 
L 88.482434 117.457202 
L 89.227586 118.971599 
L 89.978378 118.587952 
L 90.660222 118.305264 
L 91.432117 120.102349 
L 92.167446 114.913014 
L 92.779795 112.409211 
L 93.512031 112.590939 
L 94.178048 114.670711 
L 94.892455 113.640921 
L 95.677449 113.439001 
L 96.407684 115.094742 
L 97.081887 108.875618 
L 97.754998 107.199685 
L 98.568735 104.27185 
L 99.258766 103.100716 
L 99.987909 101.444975 
L 100.651924 105.927591 
L 101.262636 110.733278 
L 102.112212 111.520765 
L 102.763493 113.681305 
L 103.489544 115.07455 
L 104.229057 115.922613 
L 104.897984 116.50818 
L 105.657872 114.287064 
L 106.4083 114.509175 
L 107.201298 117.093746 
L 107.840209 113.883224 
L 108.701609 114.97359 
L 109.328512 112.510171 
L 109.936314 109.663104 
L 110.691836 109.501569 
L 111.377318 103.504556 
L 111.899616 103.645899 
L 112.718629 104.57473 
L 113.370456 98.395989 
" style="fill:none;stroke:#ff7f0e;stroke-dasharray:10,3.75;stroke-dashoffset:0;stroke-width:2.5;"/>
   </g>
   <g id="line2d_18"/>
   <g id="line2d_19"/>
   <g id="line2d_20"/>
   <g id="line2d_21"/>
   <g id="line2d_22"/>
   <g id="line2d_23"/>
   <g id="line2d_24"/>
   <g id="patch_3">
    <path d="M 52.71875 178.76 
L 52.71875 7.2 
" style="fill:none;stroke:#cccccc;stroke-linecap:square;stroke-linejoin:miter;stroke-width:0.8;"/>
   </g>
   <g id="patch_4">
    <path d="M 304.71625 178.76 
L 304.71625 7.2 
" style="fill:none;stroke:#cccccc;stroke-linecap:square;stroke-linejoin:miter;stroke-width:0.8;"/>
   </g>
   <g id="patch_5">
    <path d="M 52.71875 178.76 
L 304.71625 178.76 
" style="fill:none;stroke:#cccccc;stroke-linecap:square;stroke-linejoin:miter;stroke-width:0.8;"/>
   </g>
   <g id="patch_6">
    <path d="M 52.71875 7.2 
L 304.71625 7.2 
" style="fill:none;stroke:#cccccc;stroke-linecap:square;stroke-linejoin:miter;stroke-width:0.8;"/>
   </g>
  </g>
  <g id="axes_2">
   <g id="patch_7">
    <path d="M 375.92625 178.76 
L 627.92375 178.76 
L 627.92375 7.2 
L 375.92625 7.2 
z
" style="fill:#ffffff;"/>
   </g>
   <g id="matplotlib.axis_3">
    <g id="xtick_7">
     <g id="line2d_25">
      <path clip-path="url(#p024ce64310)" d="M 375.92625 178.76 
L 375.92625 7.2 
" style="fill:none;stroke:#cccccc;stroke-linecap:round;stroke-width:0.8;"/>
     </g>
    </g>
    <g id="xtick_8">
     <g id="line2d_26">
      <path clip-path="url(#p024ce64310)" d="M 421.406752 178.76 
L 421.406752 7.2 
" style="fill:none;stroke:#cccccc;stroke-linecap:round;stroke-width:0.8;"/>
     </g>
    </g>
    <g id="xtick_9">
     <g id="line2d_27">
      <path clip-path="url(#p024ce64310)" d="M 466.887254 178.76 
L 466.887254 7.2 
" style="fill:none;stroke:#cccccc;stroke-linecap:round;stroke-width:0.8;"/>
     </g>
    </g>
    <g id="xtick_10">
     <g id="line2d_28">
      <path clip-path="url(#p024ce64310)" d="M 512.367755 178.76 
L 512.367755 7.2 
" style="fill:none;stroke:#cccccc;stroke-linecap:round;stroke-width:0.8;"/>
     </g>
    </g>
    <g id="xtick_11">
     <g id="line2d_29">
      <path clip-path="url(#p024ce64310)" d="M 557.848257 178.76 
L 557.848257 7.2 
" style="fill:none;stroke:#cccccc;stroke-linecap:round;stroke-width:0.8;"/>
     </g>
    </g>
    <g id="xtick_12">
     <g id="line2d_30">
      <path clip-path="url(#p024ce64310)" d="M 603.328759 178.76 
L 603.328759 7.2 
" style="fill:none;stroke:#cccccc;stroke-linecap:round;stroke-width:0.8;"/>
     </g>
    </g>
   </g>
   <g id="matplotlib.axis_4">
    <g id="ytick_7">
     <g id="line2d_31">
      <path clip-path="url(#p024ce64310)" d="M 375.92625 167.995997 
L 627.92375 167.995997 
" style="fill:none;stroke:#cccccc;stroke-linecap:round;stroke-width:0.8;"/>
     </g>
     <g id="text_8">
      <!-- −500 -->
      <defs>
       <path d="M 10.59375 35.5 
L 73.1875 35.5 
L 73.1875 27.203125 
L 10.59375 27.203125 
z
" id="DejaVuSans-8722"/>
      </defs>
      <g style="fill:#262626;" transform="translate(335.965625 172.555059)scale(0.12 -0.12)">
       <use xlink:href="#DejaVuSans-8722"/>
       <use x="83.789062" xlink:href="#DejaVuSans-53"/>
       <use x="147.412109" xlink:href="#DejaVuSans-48"/>
       <use x="211.035156" xlink:href="#DejaVuSans-48"/>
      </g>
     </g>
    </g>
    <g id="ytick_8">
     <g id="line2d_32">
      <path clip-path="url(#p024ce64310)" d="M 375.92625 142.690291 
L 627.92375 142.690291 
" style="fill:none;stroke:#cccccc;stroke-linecap:round;stroke-width:0.8;"/>
     </g>
     <g id="text_9">
      <!-- −450 -->
      <defs>
       <path d="M 37.796875 64.3125 
L 12.890625 25.390625 
L 37.796875 25.390625 
z
M 35.203125 72.90625 
L 47.609375 72.90625 
L 47.609375 25.390625 
L 58.015625 25.390625 
L 58.015625 17.1875 
L 47.609375 17.1875 
L 47.609375 0 
L 37.796875 0 
L 37.796875 17.1875 
L 4.890625 17.1875 
L 4.890625 26.703125 
z
" id="DejaVuSans-52"/>
      </defs>
      <g style="fill:#262626;" transform="translate(335.965625 147.249353)scale(0.12 -0.12)">
       <use xlink:href="#DejaVuSans-8722"/>
       <use x="83.789062" xlink:href="#DejaVuSans-52"/>
       <use x="147.412109" xlink:href="#DejaVuSans-53"/>
       <use x="211.035156" xlink:href="#DejaVuSans-48"/>
      </g>
     </g>
    </g>
    <g id="ytick_9">
     <g id="line2d_33">
      <path clip-path="url(#p024ce64310)" d="M 375.92625 117.384584 
L 627.92375 117.384584 
" style="fill:none;stroke:#cccccc;stroke-linecap:round;stroke-width:0.8;"/>
     </g>
     <g id="text_10">
      <!-- −400 -->
      <g style="fill:#262626;" transform="translate(335.965625 121.943647)scale(0.12 -0.12)">
       <use xlink:href="#DejaVuSans-8722"/>
       <use x="83.789062" xlink:href="#DejaVuSans-52"/>
       <use x="147.412109" xlink:href="#DejaVuSans-48"/>
       <use x="211.035156" xlink:href="#DejaVuSans-48"/>
      </g>
     </g>
    </g>
    <g id="ytick_10">
     <g id="line2d_34">
      <path clip-path="url(#p024ce64310)" d="M 375.92625 92.078878 
L 627.92375 92.078878 
" style="fill:none;stroke:#cccccc;stroke-linecap:round;stroke-width:0.8;"/>
     </g>
     <g id="text_11">
      <!-- −350 -->
      <defs>
       <path d="M 40.578125 39.3125 
Q 47.65625 37.796875 51.625 33 
Q 55.609375 28.21875 55.609375 21.1875 
Q 55.609375 10.40625 48.1875 4.484375 
Q 40.765625 -1.421875 27.09375 -1.421875 
Q 22.515625 -1.421875 17.65625 -0.515625 
Q 12.796875 0.390625 7.625 2.203125 
L 7.625 11.71875 
Q 11.71875 9.328125 16.59375 8.109375 
Q 21.484375 6.890625 26.8125 6.890625 
Q 36.078125 6.890625 40.9375 10.546875 
Q 45.796875 14.203125 45.796875 21.1875 
Q 45.796875 27.640625 41.28125 31.265625 
Q 36.765625 34.90625 28.71875 34.90625 
L 20.21875 34.90625 
L 20.21875 43.015625 
L 29.109375 43.015625 
Q 36.375 43.015625 40.234375 45.921875 
Q 44.09375 48.828125 44.09375 54.296875 
Q 44.09375 59.90625 40.109375 62.90625 
Q 36.140625 65.921875 28.71875 65.921875 
Q 24.65625 65.921875 20.015625 65.03125 
Q 15.375 64.15625 9.8125 62.3125 
L 9.8125 71.09375 
Q 15.4375 72.65625 20.34375 73.4375 
Q 25.25 74.21875 29.59375 74.21875 
Q 40.828125 74.21875 47.359375 69.109375 
Q 53.90625 64.015625 53.90625 55.328125 
Q 53.90625 49.265625 50.4375 45.09375 
Q 46.96875 40.921875 40.578125 39.3125 
z
" id="DejaVuSans-51"/>
      </defs>
      <g style="fill:#262626;" transform="translate(335.965625 96.63794)scale(0.12 -0.12)">
       <use xlink:href="#DejaVuSans-8722"/>
       <use x="83.789062" xlink:href="#DejaVuSans-51"/>
       <use x="147.412109" xlink:href="#DejaVuSans-53"/>
       <use x="211.035156" xlink:href="#DejaVuSans-48"/>
      </g>
     </g>
    </g>
    <g id="ytick_11">
     <g id="line2d_35">
      <path clip-path="url(#p024ce64310)" d="M 375.92625 66.773172 
L 627.92375 66.773172 
" style="fill:none;stroke:#cccccc;stroke-linecap:round;stroke-width:0.8;"/>
     </g>
     <g id="text_12">
      <!-- −300 -->
      <g style="fill:#262626;" transform="translate(335.965625 71.332234)scale(0.12 -0.12)">
       <use xlink:href="#DejaVuSans-8722"/>
       <use x="83.789062" xlink:href="#DejaVuSans-51"/>
       <use x="147.412109" xlink:href="#DejaVuSans-48"/>
       <use x="211.035156" xlink:href="#DejaVuSans-48"/>
      </g>
     </g>
    </g>
    <g id="ytick_12">
     <g id="line2d_36">
      <path clip-path="url(#p024ce64310)" d="M 375.92625 41.467465 
L 627.92375 41.467465 
" style="fill:none;stroke:#cccccc;stroke-linecap:round;stroke-width:0.8;"/>
     </g>
     <g id="text_13">
      <!-- −250 -->
      <g style="fill:#262626;" transform="translate(335.965625 46.026528)scale(0.12 -0.12)">
       <use xlink:href="#DejaVuSans-8722"/>
       <use x="83.789062" xlink:href="#DejaVuSans-50"/>
       <use x="147.412109" xlink:href="#DejaVuSans-53"/>
       <use x="211.035156" xlink:href="#DejaVuSans-48"/>
      </g>
     </g>
    </g>
    <g id="ytick_13">
     <g id="line2d_37">
      <path clip-path="url(#p024ce64310)" d="M 375.92625 16.161759 
L 627.92375 16.161759 
" style="fill:none;stroke:#cccccc;stroke-linecap:round;stroke-width:0.8;"/>
     </g>
     <g id="text_14">
      <!-- −200 -->
      <g style="fill:#262626;" transform="translate(335.965625 20.720822)scale(0.12 -0.12)">
       <use xlink:href="#DejaVuSans-8722"/>
       <use x="83.789062" xlink:href="#DejaVuSans-50"/>
       <use x="147.412109" xlink:href="#DejaVuSans-48"/>
       <use x="211.035156" xlink:href="#DejaVuSans-48"/>
      </g>
     </g>
    </g>
    <g id="text_15">
     <!-- reward -->
     <defs>
      <path d="M 41.109375 46.296875 
Q 39.59375 47.171875 37.8125 47.578125 
Q 36.03125 48 33.890625 48 
Q 26.265625 48 22.1875 43.046875 
Q 18.109375 38.09375 18.109375 28.8125 
L 18.109375 0 
L 9.078125 0 
L 9.078125 54.6875 
L 18.109375 54.6875 
L 18.109375 46.1875 
Q 20.953125 51.171875 25.484375 53.578125 
Q 30.03125 56 36.53125 56 
Q 37.453125 56 38.578125 55.875 
Q 39.703125 55.765625 41.0625 55.515625 
z
" id="DejaVuSans-114"/>
      <path d="M 56.203125 29.59375 
L 56.203125 25.203125 
L 14.890625 25.203125 
Q 15.484375 15.921875 20.484375 11.0625 
Q 25.484375 6.203125 34.421875 6.203125 
Q 39.59375 6.203125 44.453125 7.46875 
Q 49.3125 8.734375 54.109375 11.28125 
L 54.109375 2.78125 
Q 49.265625 0.734375 44.1875 -0.34375 
Q 39.109375 -1.421875 33.890625 -1.421875 
Q 20.796875 -1.421875 13.15625 6.1875 
Q 5.515625 13.8125 5.515625 26.8125 
Q 5.515625 40.234375 12.765625 48.109375 
Q 20.015625 56 32.328125 56 
Q 43.359375 56 49.78125 48.890625 
Q 56.203125 41.796875 56.203125 29.59375 
z
M 47.21875 32.234375 
Q 47.125 39.59375 43.09375 43.984375 
Q 39.0625 48.390625 32.421875 48.390625 
Q 24.90625 48.390625 20.390625 44.140625 
Q 15.875 39.890625 15.1875 32.171875 
z
" id="DejaVuSans-101"/>
      <path d="M 4.203125 54.6875 
L 13.1875 54.6875 
L 24.421875 12.015625 
L 35.59375 54.6875 
L 46.1875 54.6875 
L 57.421875 12.015625 
L 68.609375 54.6875 
L 77.59375 54.6875 
L 63.28125 0 
L 52.6875 0 
L 40.921875 44.828125 
L 29.109375 0 
L 18.5 0 
z
" id="DejaVuSans-119"/>
      <path d="M 34.28125 27.484375 
Q 23.390625 27.484375 19.1875 25 
Q 14.984375 22.515625 14.984375 16.5 
Q 14.984375 11.71875 18.140625 8.90625 
Q 21.296875 6.109375 26.703125 6.109375 
Q 34.1875 6.109375 38.703125 11.40625 
Q 43.21875 16.703125 43.21875 25.484375 
L 43.21875 27.484375 
z
M 52.203125 31.203125 
L 52.203125 0 
L 43.21875 0 
L 43.21875 8.296875 
Q 40.140625 3.328125 35.546875 0.953125 
Q 30.953125 -1.421875 24.3125 -1.421875 
Q 15.921875 -1.421875 10.953125 3.296875 
Q 6 8.015625 6 15.921875 
Q 6 25.140625 12.171875 29.828125 
Q 18.359375 34.515625 30.609375 34.515625 
L 43.21875 34.515625 
L 43.21875 35.40625 
Q 43.21875 41.609375 39.140625 45 
Q 35.0625 48.390625 27.6875 48.390625 
Q 23 48.390625 18.546875 47.265625 
Q 14.109375 46.140625 10.015625 43.890625 
L 10.015625 52.203125 
Q 14.9375 54.109375 19.578125 55.046875 
Q 24.21875 56 28.609375 56 
Q 40.484375 56 46.34375 49.84375 
Q 52.203125 43.703125 52.203125 31.203125 
z
" id="DejaVuSans-97"/>
      <path d="M 45.40625 46.390625 
L 45.40625 75.984375 
L 54.390625 75.984375 
L 54.390625 0 
L 45.40625 0 
L 45.40625 8.203125 
Q 42.578125 3.328125 38.25 0.953125 
Q 33.9375 -1.421875 27.875 -1.421875 
Q 17.96875 -1.421875 11.734375 6.484375 
Q 5.515625 14.40625 5.515625 27.296875 
Q 5.515625 40.1875 11.734375 48.09375 
Q 17.96875 56 27.875 56 
Q 33.9375 56 38.25 53.625 
Q 42.578125 51.265625 45.40625 46.390625 
z
M 14.796875 27.296875 
Q 14.796875 17.390625 18.875 11.75 
Q 22.953125 6.109375 30.078125 6.109375 
Q 37.203125 6.109375 41.296875 11.75 
Q 45.40625 17.390625 45.40625 27.296875 
Q 45.40625 37.203125 41.296875 42.84375 
Q 37.203125 48.484375 30.078125 48.484375 
Q 22.953125 48.484375 18.875 42.84375 
Q 14.796875 37.203125 14.796875 27.296875 
z
" id="DejaVuSans-100"/>
     </defs>
     <g style="fill:#262626;" transform="translate(329.47 113.995)rotate(-90)scale(0.12 -0.12)">
      <use xlink:href="#DejaVuSans-114"/>
      <use x="41.082031" xlink:href="#DejaVuSans-101"/>
      <use x="102.605469" xlink:href="#DejaVuSans-119"/>
      <use x="184.392578" xlink:href="#DejaVuSans-97"/>
      <use x="245.671875" xlink:href="#DejaVuSans-114"/>
      <use x="286.769531" xlink:href="#DejaVuSans-100"/>
     </g>
    </g>
   </g>
   <g id="line2d_38">
    <path clip-path="url(#p024ce64310)" d="M 377.659421 170.961818 
L 378.925234 138.506283 
L 379.986022 138.149592 
L 380.610742 135.69905 
L 381.26748 133.732258 
L 381.8278 127.825646 
L 382.306073 126.599565 
L 382.881492 125.832174 
L 383.391783 117.466434 
L 383.895889 120.931949 
" style="fill:none;stroke:#1f77b4;stroke-linecap:round;stroke-width:2.5;"/>
   </g>
   <g id="line2d_39">
    <path clip-path="url(#p024ce64310)" d="M 383.895889 120.931949 
L 384.253366 152.14219 
L 385.053095 131.363827 
L 385.951972 103.385428 
L 386.858489 107.995877 
L 387.715888 98.430885 
L 388.697903 94.828925 
L 389.53056 86.34715 
L 390.276622 78.126454 
L 391.126016 79.660169 
L 392.042175 75.236715 
L 392.85573 72.351135 
L 393.645453 74.716413 
L 394.726616 71.804743 
L 395.470677 71.374696 
L 396.291327 69.959795 
L 397.170374 69.543148 
L 397.907158 68.38579 
L 398.765648 67.312629 
L 399.561193 69.766193 
L 400.221206 71.782321 
L 401.017297 69.623451 
L 401.78901 70.695367 
L 402.52252 71.673135 
L 403.333346 68.486625 
L 404.096327 65.708254 
L 404.793816 61.466986 
L 405.432908 64.37787 
L 406.168055 62.755504 
L 406.917574 68.470294 
L 407.690378 66.738361 
L 408.494473 67.69952 
L 409.226346 71.32837 
L 409.988963 70.325169 
L 410.763041 66.265466 
L 411.573867 61.400222 
L 412.26226 61.458326 
L 413.023968 57.098803 
L 413.755294 56.36001 
L 414.484983 58.734343 
L 415.214854 59.044123 
L 416.391708 80.895937 
L 417.429391 69.274517 
L 418.227119 71.402076 
L 418.974818 74.014536 
L 419.809295 66.864839 
L 420.571912 58.99524 
L 421.329799 54.576626 
L 422.023285 52.695724 
L 422.776624 56.929608 
L 423.56653 53.646392 
L 424.298038 57.242294 
L 425.098677 61.211774 
L 425.851652 60.78487 
L 426.561694 62.175217 
L 427.194964 58.88042 
L 427.895364 55.546333 
L 428.644337 53.854898 
L 429.293253 55.434542 
L 430.127183 56.12869 
L 430.89453 55.185445 
" style="fill:none;stroke:#1f77b4;stroke-dasharray:10,3.75;stroke-dashoffset:0;stroke-width:2.5;"/>
   </g>
   <g id="line2d_40">
    <path clip-path="url(#p024ce64310)" d="M 430.89453 55.185445 
L 432.140696 72.912128 
L 433.777266 71.79123 
L 434.665228 59.016661 
L 436.142434 60.812986 
L 437.762996 58.603756 
L 440.405413 54.018604 
L 441.877889 58.508838 
L 443.431867 62.004184 
L 444.92381 59.607006 
L 446.221277 63.801543 
L 447.663009 62.545785 
L 449.081455 54.046976 
L 450.27832 52.344293 
L 451.552138 52.334295 
L 452.9664 52.011696 
L 454.523834 52.457544 
L 455.693774 50.430699 
L 458.285071 66.10071 
L 459.711886 71.556656 
L 460.998802 65.25403 
L 462.496202 58.615971 
L 463.4955 58.300513 
L 464.860279 55.889472 
L 466.072971 45.695287 
L 467.483412 43.210645 
L 468.661175 40.51148 
L 469.838574 36.871014 
L 471.331972 36.585532 
L 472.432054 39.864645 
L 473.896345 41.630286 
L 474.710809 44.657693 
L 477.667588 53.692551 
L 478.852992 52.635856 
L 480.231233 56.193941 
L 481.666779 59.278824 
L 483.163088 54.676292 
L 484.521317 57.029973 
L 485.774942 59.70841 
L 487.128442 57.025665 
L 488.611652 42.379004 
L 489.69809 42.02804 
L 492.309399 41.872037 
L 493.825355 42.054905 
L 495.024221 44.465466 
L 496.173422 52.326988 
L 497.435961 53.234377 
L 498.858955 51.07123 
L 500.115854 51.538388 
L 501.469717 52.495276 
L 502.490118 58.363964 
L 503.744834 52.128056 
L 504.895127 49.14361 
L 506.199326 49.538823 
L 507.410562 41.518276 
L 508.528473 38.04134 
L 510.066806 38.281166 
L 511.128139 41.211419 
L 512.703038 40.520645 
L 513.598821 39.660498 
L 514.947227 39.718425 
L 516.47046 44.717285 
L 517.672055 41.026689 
L 519.053025 39.449266 
L 520.293006 45.207907 
L 521.689803 49.834748 
L 522.987816 51.595971 
L 524.207967 48.321167 
L 525.636055 48.531854 
L 526.76761 52.351383 
L 527.85805 47.216348 
L 528.952857 43.563084 
L 530.324731 51.146297 
L 531.813399 48.944739 
L 532.930945 45.918806 
L 534.059953 49.530765 
L 536.648704 49.837745 
L 537.771526 47.144176 
L 539.149404 49.321546 
L 540.082663 49.404354 
L 541.327374 42.59482 
L 543.682536 45.207549 
L 544.939617 45.024939 
L 545.971843 43.49853 
L 547.386286 47.736457 
L 548.48273 48.56508 
L 549.898629 47.327879 
L 550.640689 47.37121 
L 551.917054 47.236887 
L 553.334772 49.188701 
L 554.435582 49.710622 
L 555.735961 48.946911 
L 560.681328 36.715354 
L 561.983344 33.333295 
L 563.149646 36.025812 
L 564.100007 31.917965 
L 565.176803 28.804249 
L 566.487551 31.302352 
L 567.907089 30.625194 
L 569.000622 35.41215 
L 570.072324 33.33025 
L 571.259184 43.254145 
L 572.494616 49.026065 
L 573.526841 50.064577 
L 574.839954 49.325401 
L 575.809053 37.919875 
L 576.988817 45.832287 
L 577.98011 37.93074 
L 579.210813 36.686044 
L 580.313078 37.03556 
L 581.330204 33.215309 
L 582.773209 41.560287 
L 583.808527 31.816225 
L 584.954818 35.276892 
L 585.75673 36.676974 
L 587.102225 32.408637 
L 588.560876 35.446897 
L 589.684972 31.046836 
L 591.003543 35.59256 
L 592.219509 34.159877 
L 593.45949 31.760953 
L 594.696196 31.263127 
L 595.780815 30.620738 
L 597.058999 32.20412 
L 598.108871 27.936383 
L 600.188421 27.786883 
L 601.424035 30.425886 
L 602.834477 29.278269 
L 603.87216 29.976517 
L 604.804146 28.391435 
L 607.29484 16.548068 
L 608.469693 14.998182 
L 609.802999 17.863556 
L 610.715156 17.07823 
L 611.749928 20.422872 
L 612.782154 26.428385 
L 613.978109 32.49393 
L 614.990505 34.159145 
L 615.973976 34.444295 
L 615.973976 34.444295 
" style="fill:none;stroke:#1f77b4;stroke-dasharray:2.5,2.5;stroke-dashoffset:0;stroke-width:2.5;"/>
   </g>
   <g id="line2d_41">
    <path clip-path="url(#p024ce64310)" d="M 376.978487 95.390586 
L 377.879001 110.716938 
L 378.580674 119.445784 
L 379.302904 117.003352 
L 379.92817 109.707297 
L 380.480667 104.421068 
L 380.935654 104.952483 
L 381.353347 98.345854 
L 381.845992 86.747423 
L 382.288972 83.640626 
L 382.706119 90.511082 
L 383.080515 90.58328 
L 383.444177 90.663698 
L 383.883519 89.715351 
L 384.293207 92.596606 
L 384.695073 95.32997 
L 385.092572 83.409732 
L 385.531914 86.452203 
L 385.984718 90.237731 
L 386.373667 91.003275 
L 386.748972 92.258594 
L 387.140468 92.232286 
L 387.561618 97.059724 
L 387.919822 95.371132 
L 388.269294 93.222881 
L 388.643326 91.832384 
L 389.107955 84.981039 
L 389.467797 86.931084 
L 389.749776 86.42414 
L 390.148731 87.340188 
L 390.571517 84.589344 
L 390.906436 83.369953 
L 391.195874 88.368427 
L 391.539888 83.885113 
L 391.927928 84.123624 
L 392.214819 76.870028 
L 392.552648 78.582799 
L 392.838084 74.732348 
" style="fill:none;stroke:#ff7f0e;stroke-linecap:round;stroke-width:2.5;"/>
   </g>
   <g id="line2d_42">
    <path clip-path="url(#p024ce64310)" d="M 392.838084 74.732348 
L 393.57323 75.389157 
L 394.410254 76.935489 
L 395.165958 67.727032 
L 395.954771 79.71354 
L 396.688463 79.354067 
L 397.353388 72.764148 
L 398.182224 80.203403 
L 398.98159 78.134578 
L 399.832803 81.012772 
L 400.65036 77.526977 
L 401.429896 81.207181 
L 402.203792 85.284717 
L 403.025352 73.165086 
L 403.867833 77.665778 
L 404.687574 73.983435 
L 405.448008 69.883529 
L 406.146224 68.277434 
L 406.815151 64.525955 
L 407.690742 64.373388 
L 408.520852 59.202129 
L 409.275283 56.327996 
L 410.128315 55.778742 
L 410.875287 48.149649 
L 411.689934 41.611652 
L 412.435086 42.03251 
L 413.185878 43.985569 
L 413.867722 45.252907 
L 414.639617 41.579977 
L 415.374946 47.711425 
L 415.987295 53.011029 
L 416.719531 54.129788 
L 417.385548 49.911263 
L 418.099955 51.33935 
L 418.884949 52.297779 
L 419.615184 51.99085 
L 420.289387 58.872672 
L 420.962498 58.752137 
L 421.776235 66.899025 
L 422.466266 67.159006 
L 423.195409 67.867993 
L 423.859424 62.521129 
L 424.470136 57.881469 
L 425.319712 57.309366 
L 425.970993 51.510312 
L 426.697044 53.626526 
L 427.436557 54.799264 
L 428.105484 52.422349 
L 428.865372 54.57845 
L 429.6158 53.826445 
L 430.408798 48.547654 
L 431.047709 50.112916 
L 431.909109 46.857855 
L 432.536012 50.731414 
L 433.143814 51.644902 
L 433.899336 51.140441 
L 434.584818 58.088713 
L 435.107116 56.396102 
L 435.926129 58.212035 
L 436.577956 64.796856 
" style="fill:none;stroke:#ff7f0e;stroke-dasharray:10,3.75;stroke-dashoffset:0;stroke-width:2.5;"/>
   </g>
   <g id="line2d_43"/>
   <g id="line2d_44"/>
   <g id="line2d_45"/>
   <g id="line2d_46"/>
   <g id="line2d_47"/>
   <g id="line2d_48"/>
   <g id="line2d_49"/>
   <g id="patch_8">
    <path d="M 375.92625 178.76 
L 375.92625 7.2 
" style="fill:none;stroke:#cccccc;stroke-linecap:square;stroke-linejoin:miter;stroke-width:0.8;"/>
   </g>
   <g id="patch_9">
    <path d="M 627.92375 178.76 
L 627.92375 7.2 
" style="fill:none;stroke:#cccccc;stroke-linecap:square;stroke-linejoin:miter;stroke-width:0.8;"/>
   </g>
   <g id="patch_10">
    <path d="M 375.92625 178.76 
L 627.92375 178.76 
" style="fill:none;stroke:#cccccc;stroke-linecap:square;stroke-linejoin:miter;stroke-width:0.8;"/>
   </g>
   <g id="patch_11">
    <path d="M 375.92625 7.2 
L 627.92375 7.2 
" style="fill:none;stroke:#cccccc;stroke-linecap:square;stroke-linejoin:miter;stroke-width:0.8;"/>
   </g>
  </g>
  <g id="axes_3">
   <g id="patch_12">
    <path d="M 52.71875 376.28 
L 304.71625 376.28 
L 304.71625 204.72 
L 52.71875 204.72 
z
" style="fill:#ffffff;"/>
   </g>
   <g id="matplotlib.axis_5">
    <g id="xtick_13">
     <g id="line2d_50">
      <path clip-path="url(#pdba2847eee)" d="M 52.71875 376.28 
L 52.71875 204.72 
" style="fill:none;stroke:#cccccc;stroke-linecap:round;stroke-width:0.8;"/>
     </g>
     <g id="text_16">
      <!-- 0.0M -->
      <defs>
       <path d="M 10.6875 12.40625 
L 21 12.40625 
L 21 0 
L 10.6875 0 
z
" id="DejaVuSans-46"/>
       <path d="M 9.8125 72.90625 
L 24.515625 72.90625 
L 43.109375 23.296875 
L 61.8125 72.90625 
L 76.515625 72.90625 
L 76.515625 0 
L 66.890625 0 
L 66.890625 64.015625 
L 48.09375 14.015625 
L 38.1875 14.015625 
L 19.390625 64.015625 
L 19.390625 0 
L 9.8125 0 
z
" id="DejaVuSans-77"/>
      </defs>
      <g style="fill:#262626;" transform="translate(38 392.398125)scale(0.12 -0.12)">
       <use xlink:href="#DejaVuSans-48"/>
       <use x="63.623047" xlink:href="#DejaVuSans-46"/>
       <use x="95.410156" xlink:href="#DejaVuSans-48"/>
       <use x="159.033203" xlink:href="#DejaVuSans-77"/>
      </g>
     </g>
    </g>
    <g id="xtick_14">
     <g id="line2d_51">
      <path clip-path="url(#pdba2847eee)" d="M 98.199252 376.28 
L 98.199252 204.72 
" style="fill:none;stroke:#cccccc;stroke-linecap:round;stroke-width:0.8;"/>
     </g>
     <g id="text_17">
      <!-- 0.2M -->
      <g style="fill:#262626;" transform="translate(83.480502 392.398125)scale(0.12 -0.12)">
       <use xlink:href="#DejaVuSans-48"/>
       <use x="63.623047" xlink:href="#DejaVuSans-46"/>
       <use x="95.410156" xlink:href="#DejaVuSans-50"/>
       <use x="159.033203" xlink:href="#DejaVuSans-77"/>
      </g>
     </g>
    </g>
    <g id="xtick_15">
     <g id="line2d_52">
      <path clip-path="url(#pdba2847eee)" d="M 143.679754 376.28 
L 143.679754 204.72 
" style="fill:none;stroke:#cccccc;stroke-linecap:round;stroke-width:0.8;"/>
     </g>
     <g id="text_18">
      <!-- 0.5M -->
      <g style="fill:#262626;" transform="translate(128.961004 392.398125)scale(0.12 -0.12)">
       <use xlink:href="#DejaVuSans-48"/>
       <use x="63.623047" xlink:href="#DejaVuSans-46"/>
       <use x="95.410156" xlink:href="#DejaVuSans-53"/>
       <use x="159.033203" xlink:href="#DejaVuSans-77"/>
      </g>
     </g>
    </g>
    <g id="xtick_16">
     <g id="line2d_53">
      <path clip-path="url(#pdba2847eee)" d="M 189.160255 376.28 
L 189.160255 204.72 
" style="fill:none;stroke:#cccccc;stroke-linecap:round;stroke-width:0.8;"/>
     </g>
     <g id="text_19">
      <!-- 0.8M -->
      <defs>
       <path d="M 31.78125 34.625 
Q 24.75 34.625 20.71875 30.859375 
Q 16.703125 27.09375 16.703125 20.515625 
Q 16.703125 13.921875 20.71875 10.15625 
Q 24.75 6.390625 31.78125 6.390625 
Q 38.8125 6.390625 42.859375 10.171875 
Q 46.921875 13.96875 46.921875 20.515625 
Q 46.921875 27.09375 42.890625 30.859375 
Q 38.875 34.625 31.78125 34.625 
z
M 21.921875 38.8125 
Q 15.578125 40.375 12.03125 44.71875 
Q 8.5 49.078125 8.5 55.328125 
Q 8.5 64.0625 14.71875 69.140625 
Q 20.953125 74.21875 31.78125 74.21875 
Q 42.671875 74.21875 48.875 69.140625 
Q 55.078125 64.0625 55.078125 55.328125 
Q 55.078125 49.078125 51.53125 44.71875 
Q 48 40.375 41.703125 38.8125 
Q 48.828125 37.15625 52.796875 32.3125 
Q 56.78125 27.484375 56.78125 20.515625 
Q 56.78125 9.90625 50.3125 4.234375 
Q 43.84375 -1.421875 31.78125 -1.421875 
Q 19.734375 -1.421875 13.25 4.234375 
Q 6.78125 9.90625 6.78125 20.515625 
Q 6.78125 27.484375 10.78125 32.3125 
Q 14.796875 37.15625 21.921875 38.8125 
z
M 18.3125 54.390625 
Q 18.3125 48.734375 21.84375 45.5625 
Q 25.390625 42.390625 31.78125 42.390625 
Q 38.140625 42.390625 41.71875 45.5625 
Q 45.3125 48.734375 45.3125 54.390625 
Q 45.3125 60.0625 41.71875 63.234375 
Q 38.140625 66.40625 31.78125 66.40625 
Q 25.390625 66.40625 21.84375 63.234375 
Q 18.3125 60.0625 18.3125 54.390625 
z
" id="DejaVuSans-56"/>
      </defs>
      <g style="fill:#262626;" transform="translate(174.441505 392.398125)scale(0.12 -0.12)">
       <use xlink:href="#DejaVuSans-48"/>
       <use x="63.623047" xlink:href="#DejaVuSans-46"/>
       <use x="95.410156" xlink:href="#DejaVuSans-56"/>
       <use x="159.033203" xlink:href="#DejaVuSans-77"/>
      </g>
     </g>
    </g>
    <g id="xtick_17">
     <g id="line2d_54">
      <path clip-path="url(#pdba2847eee)" d="M 234.640757 376.28 
L 234.640757 204.72 
" style="fill:none;stroke:#cccccc;stroke-linecap:round;stroke-width:0.8;"/>
     </g>
     <g id="text_20">
      <!-- 1.0M -->
      <g style="fill:#262626;" transform="translate(219.922007 392.398125)scale(0.12 -0.12)">
       <use xlink:href="#DejaVuSans-49"/>
       <use x="63.623047" xlink:href="#DejaVuSans-46"/>
       <use x="95.410156" xlink:href="#DejaVuSans-48"/>
       <use x="159.033203" xlink:href="#DejaVuSans-77"/>
      </g>
     </g>
    </g>
    <g id="xtick_18">
     <g id="line2d_55">
      <path clip-path="url(#pdba2847eee)" d="M 280.121259 376.28 
L 280.121259 204.72 
" style="fill:none;stroke:#cccccc;stroke-linecap:round;stroke-width:0.8;"/>
     </g>
     <g id="text_21">
      <!-- 1.2M -->
      <g style="fill:#262626;" transform="translate(265.402509 392.398125)scale(0.12 -0.12)">
       <use xlink:href="#DejaVuSans-49"/>
       <use x="63.623047" xlink:href="#DejaVuSans-46"/>
       <use x="95.410156" xlink:href="#DejaVuSans-50"/>
       <use x="159.033203" xlink:href="#DejaVuSans-77"/>
      </g>
     </g>
    </g>
    <g id="text_22">
     <!-- steps -->
     <defs>
      <path d="M 18.3125 70.21875 
L 18.3125 54.6875 
L 36.8125 54.6875 
L 36.8125 47.703125 
L 18.3125 47.703125 
L 18.3125 18.015625 
Q 18.3125 11.328125 20.140625 9.421875 
Q 21.96875 7.515625 27.59375 7.515625 
L 36.8125 7.515625 
L 36.8125 0 
L 27.59375 0 
Q 17.1875 0 13.234375 3.875 
Q 9.28125 7.765625 9.28125 18.015625 
L 9.28125 47.703125 
L 2.6875 47.703125 
L 2.6875 54.6875 
L 9.28125 54.6875 
L 9.28125 70.21875 
z
" id="DejaVuSans-116"/>
      <path d="M 18.109375 8.203125 
L 18.109375 -20.796875 
L 9.078125 -20.796875 
L 9.078125 54.6875 
L 18.109375 54.6875 
L 18.109375 46.390625 
Q 20.953125 51.265625 25.265625 53.625 
Q 29.59375 56 35.59375 56 
Q 45.5625 56 51.78125 48.09375 
Q 58.015625 40.1875 58.015625 27.296875 
Q 58.015625 14.40625 51.78125 6.484375 
Q 45.5625 -1.421875 35.59375 -1.421875 
Q 29.59375 -1.421875 25.265625 0.953125 
Q 20.953125 3.328125 18.109375 8.203125 
z
M 48.6875 27.296875 
Q 48.6875 37.203125 44.609375 42.84375 
Q 40.53125 48.484375 33.40625 48.484375 
Q 26.265625 48.484375 22.1875 42.84375 
Q 18.109375 37.203125 18.109375 27.296875 
Q 18.109375 17.390625 22.1875 11.75 
Q 26.265625 6.109375 33.40625 6.109375 
Q 40.53125 6.109375 44.609375 11.75 
Q 48.6875 17.390625 48.6875 27.296875 
z
" id="DejaVuSans-112"/>
     </defs>
     <g style="fill:#262626;" transform="translate(162.613125 408.011875)scale(0.12 -0.12)">
      <use xlink:href="#DejaVuSans-115"/>
      <use x="52.099609" xlink:href="#DejaVuSans-116"/>
      <use x="91.308594" xlink:href="#DejaVuSans-101"/>
      <use x="152.832031" xlink:href="#DejaVuSans-112"/>
      <use x="216.308594" xlink:href="#DejaVuSans-115"/>
     </g>
    </g>
   </g>
   <g id="matplotlib.axis_6">
    <g id="ytick_14">
     <g id="line2d_56">
      <path clip-path="url(#pdba2847eee)" d="M 52.71875 376.28 
L 304.71625 376.28 
" style="fill:none;stroke:#cccccc;stroke-linecap:round;stroke-width:0.8;"/>
     </g>
     <g id="text_23">
      <!-- 0.0 -->
      <g style="fill:#262626;" transform="translate(26.635 380.839062)scale(0.12 -0.12)">
       <use xlink:href="#DejaVuSans-48"/>
       <use x="63.623047" xlink:href="#DejaVuSans-46"/>
       <use x="95.410156" xlink:href="#DejaVuSans-48"/>
      </g>
     </g>
    </g>
    <g id="ytick_15">
     <g id="line2d_57">
      <path clip-path="url(#pdba2847eee)" d="M 52.71875 341.968 
L 304.71625 341.968 
" style="fill:none;stroke:#cccccc;stroke-linecap:round;stroke-width:0.8;"/>
     </g>
     <g id="text_24">
      <!-- 0.2 -->
      <g style="fill:#262626;" transform="translate(26.635 346.527062)scale(0.12 -0.12)">
       <use xlink:href="#DejaVuSans-48"/>
       <use x="63.623047" xlink:href="#DejaVuSans-46"/>
       <use x="95.410156" xlink:href="#DejaVuSans-50"/>
      </g>
     </g>
    </g>
    <g id="ytick_16">
     <g id="line2d_58">
      <path clip-path="url(#pdba2847eee)" d="M 52.71875 307.656 
L 304.71625 307.656 
" style="fill:none;stroke:#cccccc;stroke-linecap:round;stroke-width:0.8;"/>
     </g>
     <g id="text_25">
      <!-- 0.4 -->
      <g style="fill:#262626;" transform="translate(26.635 312.215062)scale(0.12 -0.12)">
       <use xlink:href="#DejaVuSans-48"/>
       <use x="63.623047" xlink:href="#DejaVuSans-46"/>
       <use x="95.410156" xlink:href="#DejaVuSans-52"/>
      </g>
     </g>
    </g>
    <g id="ytick_17">
     <g id="line2d_59">
      <path clip-path="url(#pdba2847eee)" d="M 52.71875 273.344 
L 304.71625 273.344 
" style="fill:none;stroke:#cccccc;stroke-linecap:round;stroke-width:0.8;"/>
     </g>
     <g id="text_26">
      <!-- 0.6 -->
      <defs>
       <path d="M 33.015625 40.375 
Q 26.375 40.375 22.484375 35.828125 
Q 18.609375 31.296875 18.609375 23.390625 
Q 18.609375 15.53125 22.484375 10.953125 
Q 26.375 6.390625 33.015625 6.390625 
Q 39.65625 6.390625 43.53125 10.953125 
Q 47.40625 15.53125 47.40625 23.390625 
Q 47.40625 31.296875 43.53125 35.828125 
Q 39.65625 40.375 33.015625 40.375 
z
M 52.59375 71.296875 
L 52.59375 62.3125 
Q 48.875 64.0625 45.09375 64.984375 
Q 41.3125 65.921875 37.59375 65.921875 
Q 27.828125 65.921875 22.671875 59.328125 
Q 17.53125 52.734375 16.796875 39.40625 
Q 19.671875 43.65625 24.015625 45.921875 
Q 28.375 48.1875 33.59375 48.1875 
Q 44.578125 48.1875 50.953125 41.515625 
Q 57.328125 34.859375 57.328125 23.390625 
Q 57.328125 12.15625 50.6875 5.359375 
Q 44.046875 -1.421875 33.015625 -1.421875 
Q 20.359375 -1.421875 13.671875 8.265625 
Q 6.984375 17.96875 6.984375 36.375 
Q 6.984375 53.65625 15.1875 63.9375 
Q 23.390625 74.21875 37.203125 74.21875 
Q 40.921875 74.21875 44.703125 73.484375 
Q 48.484375 72.75 52.59375 71.296875 
z
" id="DejaVuSans-54"/>
      </defs>
      <g style="fill:#262626;" transform="translate(26.635 277.903062)scale(0.12 -0.12)">
       <use xlink:href="#DejaVuSans-48"/>
       <use x="63.623047" xlink:href="#DejaVuSans-46"/>
       <use x="95.410156" xlink:href="#DejaVuSans-54"/>
      </g>
     </g>
    </g>
    <g id="ytick_18">
     <g id="line2d_60">
      <path clip-path="url(#pdba2847eee)" d="M 52.71875 239.032 
L 304.71625 239.032 
" style="fill:none;stroke:#cccccc;stroke-linecap:round;stroke-width:0.8;"/>
     </g>
     <g id="text_27">
      <!-- 0.8 -->
      <g style="fill:#262626;" transform="translate(26.635 243.591062)scale(0.12 -0.12)">
       <use xlink:href="#DejaVuSans-48"/>
       <use x="63.623047" xlink:href="#DejaVuSans-46"/>
       <use x="95.410156" xlink:href="#DejaVuSans-56"/>
      </g>
     </g>
    </g>
    <g id="ytick_19">
     <g id="line2d_61">
      <path clip-path="url(#pdba2847eee)" d="M 52.71875 204.72 
L 304.71625 204.72 
" style="fill:none;stroke:#cccccc;stroke-linecap:round;stroke-width:0.8;"/>
     </g>
     <g id="text_28">
      <!-- 1.0 -->
      <g style="fill:#262626;" transform="translate(26.635 209.279062)scale(0.12 -0.12)">
       <use xlink:href="#DejaVuSans-49"/>
       <use x="63.623047" xlink:href="#DejaVuSans-46"/>
       <use x="95.410156" xlink:href="#DejaVuSans-48"/>
      </g>
     </g>
    </g>
    <g id="text_29">
     <!-- spl -->
     <g style="fill:#262626;" transform="translate(20.139375 299.101562)rotate(-90)scale(0.12 -0.12)">
      <use xlink:href="#DejaVuSans-115"/>
      <use x="52.099609" xlink:href="#DejaVuSans-112"/>
      <use x="115.576172" xlink:href="#DejaVuSans-108"/>
     </g>
    </g>
   </g>
   <g id="line2d_62">
    <path clip-path="url(#pdba2847eee)" d="M 54.451921 376.28 
L 55.717734 365.631074 
L 56.778522 362.945697 
L 57.403242 360.831064 
L 58.05998 360.029704 
L 58.6203 356.221627 
L 59.098573 356.221627 
L 59.673992 355.897573 
L 60.184283 349.887081 
L 60.688389 351.954165 
" style="fill:none;stroke:#1f77b4;stroke-linecap:round;stroke-width:2.5;"/>
   </g>
   <g id="line2d_63">
    <path clip-path="url(#pdba2847eee)" d="M 60.688389 351.954165 
L 61.045866 367.986645 
L 61.845595 364.301387 
L 62.744472 343.134769 
L 63.650989 346.996392 
L 64.508388 345.245467 
L 65.490403 343.873161 
L 66.32306 341.761066 
L 67.069122 336.594535 
L 67.918516 340.844578 
L 68.834675 339.649824 
L 69.64823 336.510824 
L 70.437953 335.482899 
L 71.519116 334.35332 
L 72.263177 334.190588 
L 73.083827 333.203309 
L 73.962874 333.441448 
L 74.699658 332.08852 
L 75.558148 332.943143 
L 76.353693 332.628067 
L 77.013706 335.923739 
L 77.809797 334.720149 
L 78.58151 334.318912 
L 79.31502 335.060331 
L 80.125846 334.753195 
L 80.888827 336.218246 
L 81.586316 332.278859 
L 82.225408 334.301796 
L 82.960555 335.12454 
L 83.710074 342.771169 
L 84.482878 343.536177 
L 85.286973 344.342985 
L 86.018846 348.708271 
L 86.781463 349.075038 
L 87.555541 344.806666 
L 88.366367 341.492609 
L 89.05476 340.344407 
L 89.816468 335.536211 
L 90.547794 331.418047 
L 91.277483 331.569624 
L 92.007354 333.239386 
L 93.184208 338.997027 
L 94.221891 350.147379 
L 95.019619 353.57463 
L 95.767318 353.027385 
L 96.601795 345.423154 
L 97.364412 340.094555 
L 98.122299 335.03582 
L 98.815785 332.529965 
L 99.569124 334.331395 
L 100.35903 332.785269 
L 101.090538 338.142394 
L 101.891177 341.106089 
L 102.644152 340.435164 
L 103.354194 342.834118 
L 103.987464 342.410251 
L 104.687864 341.72268 
L 105.436837 341.022941 
L 106.085753 342.876643 
L 106.919683 341.869861 
L 107.68703 342.188656 
" style="fill:none;stroke:#1f77b4;stroke-dasharray:10,3.75;stroke-dashoffset:0;stroke-width:2.5;"/>
   </g>
   <g id="line2d_64">
    <path clip-path="url(#pdba2847eee)" d="M 107.68703 342.188656 
L 108.933196 339.642223 
L 110.569766 338.88718 
L 111.457728 332.689615 
L 112.934934 333.689111 
L 114.555496 333.245112 
L 115.832952 331.695747 
L 117.197913 329.708521 
L 118.670389 332.287518 
L 120.224367 332.978813 
L 121.71631 331.418545 
L 123.013777 334.910071 
L 124.455509 334.893154 
L 125.873955 330.450304 
L 127.07082 327.492937 
L 128.344638 327.589164 
L 129.7589 326.612153 
L 131.316334 326.021295 
L 132.486274 325.207597 
L 133.772645 330.004116 
L 135.077571 335.807207 
L 136.504386 339.942034 
L 137.791302 338.074033 
L 139.288702 333.654786 
L 141.652779 331.979214 
L 142.865471 327.151534 
L 145.453675 321.013352 
L 146.631074 318.815082 
L 148.124472 318.2646 
L 149.224554 318.823777 
L 150.688845 316.835594 
L 151.503309 318.282895 
L 152.907383 320.478767 
L 154.460088 324.227822 
L 155.645492 324.24698 
L 157.023733 328.087952 
L 158.459279 332.643556 
L 159.955588 329.893543 
L 162.567442 335.068038 
L 163.920942 332.981616 
L 165.404152 323.55021 
L 166.49059 320.817379 
L 167.711105 320.970134 
L 169.101899 319.023625 
L 170.617855 318.067568 
L 171.816721 317.7482 
L 172.965922 321.577522 
L 174.228461 324.384711 
L 175.651455 324.182079 
L 176.908354 324.718167 
L 178.262217 325.501518 
L 179.282618 330.457763 
L 180.537334 328.250388 
L 181.687627 325.038271 
L 182.991826 324.751616 
L 184.203062 322.427891 
L 185.320973 319.066465 
L 186.859306 318.512759 
L 187.920639 319.236965 
L 189.495538 318.284141 
L 190.391321 316.056531 
L 191.739727 314.330918 
L 193.26296 318.441341 
L 194.464555 315.126432 
L 195.845525 314.326541 
L 198.482303 322.767868 
L 199.780316 324.423493 
L 201.000467 321.6555 
L 202.428555 321.91779 
L 203.56011 324.853869 
L 205.745357 317.290979 
L 207.117231 321.586805 
L 208.605899 320.118718 
L 212.113901 321.051738 
L 213.441204 322.28808 
L 214.564026 319.602528 
L 215.941904 322.305223 
L 216.875163 321.164375 
L 218.119874 318.791079 
L 219.191758 320.491564 
L 220.475036 319.398115 
L 221.732117 320.729947 
L 222.764343 318.851798 
L 224.178786 321.157319 
L 225.27523 321.423684 
L 226.691129 320.365377 
L 227.433189 321.670845 
L 230.127272 321.871724 
L 231.228082 320.308502 
L 232.528461 319.824312 
L 233.843393 316.962935 
L 235.081918 316.254052 
L 236.41104 314.930944 
L 237.473828 314.622832 
L 238.775844 314.740055 
L 239.942146 316.205576 
L 240.892507 314.648575 
L 241.969303 311.67376 
L 243.280051 313.199311 
L 244.699589 312.889077 
L 245.793122 315.174416 
L 246.864824 314.107444 
L 248.051684 320.399212 
L 249.287116 323.915285 
L 250.319341 323.253293 
L 251.632454 321.032753 
L 252.601553 313.181634 
L 253.781317 317.468148 
L 254.77261 311.161677 
L 256.003313 310.347707 
L 257.105578 310.356164 
L 258.122704 309.661141 
L 259.565709 314.684732 
L 260.601027 310.877294 
L 261.747318 315.070974 
L 262.54923 316.054181 
L 263.894725 314.503647 
L 265.353376 315.859111 
L 266.477472 312.8949 
L 267.796043 312.973386 
L 269.012009 309.676559 
L 270.25199 308.740051 
L 271.488696 308.55954 
L 272.573315 306.518371 
L 273.851499 308.575067 
L 274.901371 307.685899 
L 275.879383 308.214492 
L 276.980921 308.085797 
L 278.216535 310.320602 
L 279.626977 310.314175 
L 280.66466 310.526259 
L 281.596646 308.310607 
L 282.836991 304.551822 
L 284.08734 300.189634 
L 285.262193 298.249044 
L 286.595499 299.363806 
L 287.507656 298.406397 
L 288.542428 300.018784 
L 290.770609 308.994202 
L 291.783005 309.468149 
L 292.766476 309.660224 
L 292.766476 309.660224 
" style="fill:none;stroke:#1f77b4;stroke-dasharray:2.5,2.5;stroke-dashoffset:0;stroke-width:2.5;"/>
   </g>
   <g id="line2d_65">
    <path clip-path="url(#pdba2847eee)" d="M 53.770987 376.28 
L 54.671501 362.675589 
L 55.373174 359.625489 
L 56.095404 359.627202 
L 56.72067 356.750156 
L 57.273167 354.537025 
L 57.728154 352.987349 
L 58.145847 354.031474 
L 58.638492 351.195244 
L 59.081472 350.185848 
L 59.498619 354.839126 
L 59.873015 355.042114 
L 60.236677 353.375603 
L 60.676019 350.819453 
L 61.085707 352.485659 
L 61.487573 352.378833 
L 61.885072 344.042003 
L 62.324414 342.887112 
L 62.777218 341.465367 
L 63.166167 342.511018 
L 63.541472 341.319111 
L 63.932968 340.321316 
L 64.354118 344.533073 
L 64.712322 344.300673 
L 65.061794 344.832084 
L 65.435826 345.037435 
L 65.900455 340.412278 
L 66.260297 341.387806 
L 66.542276 343.330511 
L 66.941231 345.211517 
L 67.364017 344.206997 
L 67.698936 342.814622 
L 67.988374 347.4074 
L 68.332388 345.530144 
L 68.720428 343.734786 
L 69.007319 340.296762 
L 69.345148 342.081385 
L 69.630584 340.058841 
" style="fill:none;stroke:#ff7f0e;stroke-linecap:round;stroke-width:2.5;"/>
   </g>
   <g id="line2d_66">
    <path clip-path="url(#pdba2847eee)" d="M 69.630584 340.058841 
L 70.36573 342.6287 
L 71.202754 345.530558 
L 71.958458 339.318206 
L 72.747271 343.94114 
L 73.480963 343.001922 
L 74.145888 339.949108 
L 74.974724 342.352618 
L 75.77409 340.593399 
L 76.625303 340.222064 
L 77.44286 338.319311 
L 78.222396 341.916986 
L 78.996292 341.326149 
L 79.817852 334.691409 
L 80.660333 337.361014 
L 81.480074 341.809639 
L 82.240508 338.230171 
L 82.938724 335.991908 
L 83.607651 334.232517 
L 84.483242 335.259723 
L 85.313352 334.057532 
L 86.067783 328.114511 
L 86.920815 330.05775 
L 87.667787 329.017285 
L 88.482434 326.353551 
L 89.227586 326.860974 
L 89.978378 328.940833 
L 90.660222 329.801381 
L 91.432117 326.87015 
L 92.167446 328.459871 
L 92.779795 333.722957 
L 93.512031 335.732498 
L 94.178048 331.898816 
L 94.892455 332.036662 
L 95.677449 334.16991 
L 96.407684 334.486534 
L 97.081887 336.147985 
L 97.754998 334.256659 
L 98.568735 339.770714 
L 99.258766 339.457652 
L 99.987909 337.040141 
L 100.651924 336.054749 
L 101.262636 333.522144 
L 102.112212 333.963112 
L 102.763493 329.961891 
L 103.489544 334.182137 
L 104.229057 336.800201 
L 104.897984 335.20365 
L 105.657872 337.209369 
L 106.4083 336.40096 
L 107.201298 332.595382 
L 107.840209 330.749818 
L 108.701609 327.730365 
L 109.328512 328.990694 
L 109.936314 326.81402 
L 110.691836 326.398027 
L 111.377318 329.559811 
L 111.899616 327.052446 
L 112.718629 330.416918 
L 113.370456 332.320737 
" style="fill:none;stroke:#ff7f0e;stroke-dasharray:10,3.75;stroke-dashoffset:0;stroke-width:2.5;"/>
   </g>
   <g id="line2d_67"/>
   <g id="line2d_68"/>
   <g id="line2d_69"/>
   <g id="line2d_70"/>
   <g id="line2d_71"/>
   <g id="line2d_72"/>
   <g id="line2d_73"/>
   <g id="line2d_74">
    <path clip-path="url(#pdba2847eee)" d="M 52.71875 288.7844 
L 304.71625 288.7844 
" style="fill:none;stroke:#ff0000;stroke-dasharray:3.7,1.6;stroke-dashoffset:0;"/>
   </g>
   <g id="line2d_75">
    <path clip-path="url(#pdba2847eee)" d="M 52.71875 336.8212 
L 304.71625 336.8212 
" style="fill:none;stroke:#800080;stroke-dasharray:3.7,1.6;stroke-dashoffset:0;"/>
   </g>
   <g id="line2d_76">
    <path clip-path="url(#pdba2847eee)" d="M 52.71875 371.64788 
L 304.71625 371.64788 
" style="fill:none;stroke:#008000;stroke-dasharray:3.7,1.6;stroke-dashoffset:0;"/>
   </g>
   <g id="patch_13">
    <path d="M 52.71875 376.28 
L 52.71875 204.72 
" style="fill:none;stroke:#cccccc;stroke-linecap:square;stroke-linejoin:miter;stroke-width:0.8;"/>
   </g>
   <g id="patch_14">
    <path d="M 304.71625 376.28 
L 304.71625 204.72 
" style="fill:none;stroke:#cccccc;stroke-linecap:square;stroke-linejoin:miter;stroke-width:0.8;"/>
   </g>
   <g id="patch_15">
    <path d="M 52.71875 376.28 
L 304.71625 376.28 
" style="fill:none;stroke:#cccccc;stroke-linecap:square;stroke-linejoin:miter;stroke-width:0.8;"/>
   </g>
   <g id="patch_16">
    <path d="M 52.71875 204.72 
L 304.71625 204.72 
" style="fill:none;stroke:#cccccc;stroke-linecap:square;stroke-linejoin:miter;stroke-width:0.8;"/>
   </g>
  </g>
  <g id="axes_4">
   <g id="patch_17">
    <path d="M 375.92625 376.28 
L 627.92375 376.28 
L 627.92375 204.72 
L 375.92625 204.72 
z
" style="fill:#ffffff;"/>
   </g>
   <g id="matplotlib.axis_7">
    <g id="xtick_19">
     <g id="line2d_77">
      <path clip-path="url(#p061feb16c1)" d="M 375.92625 376.28 
L 375.92625 204.72 
" style="fill:none;stroke:#cccccc;stroke-linecap:round;stroke-width:0.8;"/>
     </g>
     <g id="text_30">
      <!-- 0.0M -->
      <g style="fill:#262626;" transform="translate(361.2075 392.398125)scale(0.12 -0.12)">
       <use xlink:href="#DejaVuSans-48"/>
       <use x="63.623047" xlink:href="#DejaVuSans-46"/>
       <use x="95.410156" xlink:href="#DejaVuSans-48"/>
       <use x="159.033203" xlink:href="#DejaVuSans-77"/>
      </g>
     </g>
    </g>
    <g id="xtick_20">
     <g id="line2d_78">
      <path clip-path="url(#p061feb16c1)" d="M 421.406752 376.28 
L 421.406752 204.72 
" style="fill:none;stroke:#cccccc;stroke-linecap:round;stroke-width:0.8;"/>
     </g>
     <g id="text_31">
      <!-- 0.2M -->
      <g style="fill:#262626;" transform="translate(406.688002 392.398125)scale(0.12 -0.12)">
       <use xlink:href="#DejaVuSans-48"/>
       <use x="63.623047" xlink:href="#DejaVuSans-46"/>
       <use x="95.410156" xlink:href="#DejaVuSans-50"/>
       <use x="159.033203" xlink:href="#DejaVuSans-77"/>
      </g>
     </g>
    </g>
    <g id="xtick_21">
     <g id="line2d_79">
      <path clip-path="url(#p061feb16c1)" d="M 466.887254 376.28 
L 466.887254 204.72 
" style="fill:none;stroke:#cccccc;stroke-linecap:round;stroke-width:0.8;"/>
     </g>
     <g id="text_32">
      <!-- 0.5M -->
      <g style="fill:#262626;" transform="translate(452.168504 392.398125)scale(0.12 -0.12)">
       <use xlink:href="#DejaVuSans-48"/>
       <use x="63.623047" xlink:href="#DejaVuSans-46"/>
       <use x="95.410156" xlink:href="#DejaVuSans-53"/>
       <use x="159.033203" xlink:href="#DejaVuSans-77"/>
      </g>
     </g>
    </g>
    <g id="xtick_22">
     <g id="line2d_80">
      <path clip-path="url(#p061feb16c1)" d="M 512.367755 376.28 
L 512.367755 204.72 
" style="fill:none;stroke:#cccccc;stroke-linecap:round;stroke-width:0.8;"/>
     </g>
     <g id="text_33">
      <!-- 0.8M -->
      <g style="fill:#262626;" transform="translate(497.649005 392.398125)scale(0.12 -0.12)">
       <use xlink:href="#DejaVuSans-48"/>
       <use x="63.623047" xlink:href="#DejaVuSans-46"/>
       <use x="95.410156" xlink:href="#DejaVuSans-56"/>
       <use x="159.033203" xlink:href="#DejaVuSans-77"/>
      </g>
     </g>
    </g>
    <g id="xtick_23">
     <g id="line2d_81">
      <path clip-path="url(#p061feb16c1)" d="M 557.848257 376.28 
L 557.848257 204.72 
" style="fill:none;stroke:#cccccc;stroke-linecap:round;stroke-width:0.8;"/>
     </g>
     <g id="text_34">
      <!-- 1.0M -->
      <g style="fill:#262626;" transform="translate(543.129507 392.398125)scale(0.12 -0.12)">
       <use xlink:href="#DejaVuSans-49"/>
       <use x="63.623047" xlink:href="#DejaVuSans-46"/>
       <use x="95.410156" xlink:href="#DejaVuSans-48"/>
       <use x="159.033203" xlink:href="#DejaVuSans-77"/>
      </g>
     </g>
    </g>
    <g id="xtick_24">
     <g id="line2d_82">
      <path clip-path="url(#p061feb16c1)" d="M 603.328759 376.28 
L 603.328759 204.72 
" style="fill:none;stroke:#cccccc;stroke-linecap:round;stroke-width:0.8;"/>
     </g>
     <g id="text_35">
      <!-- 1.2M -->
      <g style="fill:#262626;" transform="translate(588.610009 392.398125)scale(0.12 -0.12)">
       <use xlink:href="#DejaVuSans-49"/>
       <use x="63.623047" xlink:href="#DejaVuSans-46"/>
       <use x="95.410156" xlink:href="#DejaVuSans-50"/>
       <use x="159.033203" xlink:href="#DejaVuSans-77"/>
      </g>
     </g>
    </g>
    <g id="text_36">
     <!-- steps -->
     <g style="fill:#262626;" transform="translate(485.820625 408.011875)scale(0.12 -0.12)">
      <use xlink:href="#DejaVuSans-115"/>
      <use x="52.099609" xlink:href="#DejaVuSans-116"/>
      <use x="91.308594" xlink:href="#DejaVuSans-101"/>
      <use x="152.832031" xlink:href="#DejaVuSans-112"/>
      <use x="216.308594" xlink:href="#DejaVuSans-115"/>
     </g>
    </g>
   </g>
   <g id="matplotlib.axis_8">
    <g id="ytick_20">
     <g id="line2d_83">
      <path clip-path="url(#p061feb16c1)" d="M 375.92625 376.28 
L 627.92375 376.28 
" style="fill:none;stroke:#cccccc;stroke-linecap:round;stroke-width:0.8;"/>
     </g>
     <g id="text_37">
      <!-- 0% -->
      <defs>
       <path d="M 72.703125 32.078125 
Q 68.453125 32.078125 66.03125 28.46875 
Q 63.625 24.859375 63.625 18.40625 
Q 63.625 12.0625 66.03125 8.421875 
Q 68.453125 4.78125 72.703125 4.78125 
Q 76.859375 4.78125 79.265625 8.421875 
Q 81.6875 12.0625 81.6875 18.40625 
Q 81.6875 24.8125 79.265625 28.4375 
Q 76.859375 32.078125 72.703125 32.078125 
z
M 72.703125 38.28125 
Q 80.421875 38.28125 84.953125 32.90625 
Q 89.5 27.546875 89.5 18.40625 
Q 89.5 9.28125 84.9375 3.921875 
Q 80.375 -1.421875 72.703125 -1.421875 
Q 64.890625 -1.421875 60.34375 3.921875 
Q 55.8125 9.28125 55.8125 18.40625 
Q 55.8125 27.59375 60.375 32.9375 
Q 64.9375 38.28125 72.703125 38.28125 
z
M 22.3125 68.015625 
Q 18.109375 68.015625 15.6875 64.375 
Q 13.28125 60.75 13.28125 54.390625 
Q 13.28125 47.953125 15.671875 44.328125 
Q 18.0625 40.71875 22.3125 40.71875 
Q 26.5625 40.71875 28.96875 44.328125 
Q 31.390625 47.953125 31.390625 54.390625 
Q 31.390625 60.6875 28.953125 64.34375 
Q 26.515625 68.015625 22.3125 68.015625 
z
M 66.40625 74.21875 
L 74.21875 74.21875 
L 28.609375 -1.421875 
L 20.796875 -1.421875 
z
M 22.3125 74.21875 
Q 30.03125 74.21875 34.609375 68.875 
Q 39.203125 63.53125 39.203125 54.390625 
Q 39.203125 45.171875 34.640625 39.84375 
Q 30.078125 34.515625 22.3125 34.515625 
Q 14.546875 34.515625 10.03125 39.859375 
Q 5.515625 45.21875 5.515625 54.390625 
Q 5.515625 63.484375 10.046875 68.84375 
Q 14.59375 74.21875 22.3125 74.21875 
z
" id="DejaVuSans-37"/>
      </defs>
      <g style="fill:#262626;" transform="translate(349.889375 380.839062)scale(0.12 -0.12)">
       <use xlink:href="#DejaVuSans-48"/>
       <use x="63.623047" xlink:href="#DejaVuSans-37"/>
      </g>
     </g>
    </g>
    <g id="ytick_21">
     <g id="line2d_84">
      <path clip-path="url(#p061feb16c1)" d="M 375.92625 341.968 
L 627.92375 341.968 
" style="fill:none;stroke:#cccccc;stroke-linecap:round;stroke-width:0.8;"/>
     </g>
     <g id="text_38">
      <!-- 20% -->
      <g style="fill:#262626;" transform="translate(342.254375 346.527062)scale(0.12 -0.12)">
       <use xlink:href="#DejaVuSans-50"/>
       <use x="63.623047" xlink:href="#DejaVuSans-48"/>
       <use x="127.246094" xlink:href="#DejaVuSans-37"/>
      </g>
     </g>
    </g>
    <g id="ytick_22">
     <g id="line2d_85">
      <path clip-path="url(#p061feb16c1)" d="M 375.92625 307.656 
L 627.92375 307.656 
" style="fill:none;stroke:#cccccc;stroke-linecap:round;stroke-width:0.8;"/>
     </g>
     <g id="text_39">
      <!-- 40% -->
      <g style="fill:#262626;" transform="translate(342.254375 312.215062)scale(0.12 -0.12)">
       <use xlink:href="#DejaVuSans-52"/>
       <use x="63.623047" xlink:href="#DejaVuSans-48"/>
       <use x="127.246094" xlink:href="#DejaVuSans-37"/>
      </g>
     </g>
    </g>
    <g id="ytick_23">
     <g id="line2d_86">
      <path clip-path="url(#p061feb16c1)" d="M 375.92625 273.344 
L 627.92375 273.344 
" style="fill:none;stroke:#cccccc;stroke-linecap:round;stroke-width:0.8;"/>
     </g>
     <g id="text_40">
      <!-- 60% -->
      <g style="fill:#262626;" transform="translate(342.254375 277.903062)scale(0.12 -0.12)">
       <use xlink:href="#DejaVuSans-54"/>
       <use x="63.623047" xlink:href="#DejaVuSans-48"/>
       <use x="127.246094" xlink:href="#DejaVuSans-37"/>
      </g>
     </g>
    </g>
    <g id="ytick_24">
     <g id="line2d_87">
      <path clip-path="url(#p061feb16c1)" d="M 375.92625 239.032 
L 627.92375 239.032 
" style="fill:none;stroke:#cccccc;stroke-linecap:round;stroke-width:0.8;"/>
     </g>
     <g id="text_41">
      <!-- 80% -->
      <g style="fill:#262626;" transform="translate(342.254375 243.591062)scale(0.12 -0.12)">
       <use xlink:href="#DejaVuSans-56"/>
       <use x="63.623047" xlink:href="#DejaVuSans-48"/>
       <use x="127.246094" xlink:href="#DejaVuSans-37"/>
      </g>
     </g>
    </g>
    <g id="ytick_25">
     <g id="line2d_88">
      <path clip-path="url(#p061feb16c1)" d="M 375.92625 204.72 
L 627.92375 204.72 
" style="fill:none;stroke:#cccccc;stroke-linecap:round;stroke-width:0.8;"/>
     </g>
     <g id="text_42">
      <!-- 100% -->
      <g style="fill:#262626;" transform="translate(334.619375 209.279062)scale(0.12 -0.12)">
       <use xlink:href="#DejaVuSans-49"/>
       <use x="63.623047" xlink:href="#DejaVuSans-48"/>
       <use x="127.246094" xlink:href="#DejaVuSans-48"/>
       <use x="190.869141" xlink:href="#DejaVuSans-37"/>
      </g>
     </g>
    </g>
    <g id="text_43">
     <!-- success -->
     <defs>
      <path d="M 8.5 21.578125 
L 8.5 54.6875 
L 17.484375 54.6875 
L 17.484375 21.921875 
Q 17.484375 14.15625 20.5 10.265625 
Q 23.53125 6.390625 29.59375 6.390625 
Q 36.859375 6.390625 41.078125 11.03125 
Q 45.3125 15.671875 45.3125 23.6875 
L 45.3125 54.6875 
L 54.296875 54.6875 
L 54.296875 0 
L 45.3125 0 
L 45.3125 8.40625 
Q 42.046875 3.421875 37.71875 1 
Q 33.40625 -1.421875 27.6875 -1.421875 
Q 18.265625 -1.421875 13.375 4.4375 
Q 8.5 10.296875 8.5 21.578125 
z
M 31.109375 56 
z
" id="DejaVuSans-117"/>
     </defs>
     <g style="fill:#262626;" transform="translate(328.12375 313.969375)rotate(-90)scale(0.12 -0.12)">
      <use xlink:href="#DejaVuSans-115"/>
      <use x="52.099609" xlink:href="#DejaVuSans-117"/>
      <use x="115.478516" xlink:href="#DejaVuSans-99"/>
      <use x="170.458984" xlink:href="#DejaVuSans-99"/>
      <use x="225.439453" xlink:href="#DejaVuSans-101"/>
      <use x="286.962891" xlink:href="#DejaVuSans-115"/>
      <use x="339.0625" xlink:href="#DejaVuSans-115"/>
     </g>
    </g>
   </g>
   <g id="line2d_89">
    <path clip-path="url(#p061feb16c1)" d="M 377.659421 376.28 
L 378.925234 350.546 
L 379.986022 341.968 
L 380.610742 341.968 
L 381.26748 341.968 
L 381.8278 336.249333 
L 382.306073 336.249333 
L 382.881492 336.249333 
L 383.391783 330.530667 
L 383.895889 333.39 
" style="fill:none;stroke:#1f77b4;stroke-linecap:round;stroke-width:2.5;"/>
   </g>
   <g id="line2d_90">
    <path clip-path="url(#p061feb16c1)" d="M 383.895889 333.39 
L 384.253366 359.124 
L 385.053095 341.968 
L 385.951972 313.374667 
L 386.858489 320.523 
L 387.715888 314.5184 
L 388.697903 313.374667 
L 389.53056 310.515333 
L 390.276622 304.796667 
L 391.126016 307.656 
L 392.042175 304.796667 
L 392.85573 301.937333 
L 393.645453 301.937333 
L 394.726616 296.218667 
L 395.470677 293.359333 
L 396.291327 296.218667 
L 397.170374 296.218667 
L 397.907158 293.359333 
L 398.765648 293.359333 
L 399.561193 296.218667 
L 400.221206 301.937333 
L 401.017297 301.937333 
L 401.78901 301.937333 
L 402.52252 304.796667 
L 403.333346 307.656 
L 404.096327 307.656 
L 404.793816 304.796667 
L 405.432908 304.796667 
L 406.168055 307.656 
L 406.917574 319.093333 
L 407.690378 319.093333 
L 408.494473 319.093333 
L 409.226346 324.812 
L 409.988963 327.671333 
L 410.763041 319.093333 
L 411.573867 313.374667 
L 412.26226 310.515333 
L 413.023968 304.796667 
L 413.755294 301.937333 
L 414.484983 301.937333 
L 415.214854 301.937333 
L 416.391708 313.374667 
L 417.429391 316.234 
L 418.227119 319.093333 
L 418.974818 321.952667 
L 419.809295 310.515333 
L 420.571912 304.796667 
L 421.329799 299.078 
L 422.023285 296.218667 
L 422.776624 299.078 
L 423.56653 296.218667 
L 424.298038 301.937333 
L 425.098677 304.796667 
L 425.851652 304.796667 
L 426.561694 310.515333 
L 427.194964 310.515333 
L 427.895364 307.656 
L 428.644337 304.796667 
L 429.293253 307.656 
L 430.127183 307.656 
L 430.89453 307.656 
" style="fill:none;stroke:#1f77b4;stroke-dasharray:10,3.75;stroke-dashoffset:0;stroke-width:2.5;"/>
   </g>
   <g id="line2d_91">
    <path clip-path="url(#p061feb16c1)" d="M 430.89453 307.656 
L 432.140696 304.796667 
L 433.777266 299.078 
L 434.665228 290.5 
L 436.142434 293.359333 
L 437.762996 287.640667 
L 440.405413 287.640667 
L 441.877889 293.359333 
L 443.431867 293.359333 
L 444.92381 290.5 
L 446.221277 296.218667 
L 447.663009 293.359333 
L 449.081455 284.781333 
L 450.27832 281.922 
L 451.552138 287.640667 
L 452.9664 281.922 
L 454.523834 284.781333 
L 455.693774 281.922 
L 456.980145 293.359333 
L 458.285071 301.937333 
L 459.711886 304.796667 
L 460.998802 304.796667 
L 462.496202 296.218667 
L 463.4955 296.218667 
L 464.860279 290.5 
L 466.072971 279.062667 
L 467.483412 276.203333 
L 471.331972 276.203333 
L 472.432054 281.922 
L 473.896345 284.781333 
L 474.710809 287.640667 
L 476.114883 287.640667 
L 477.667588 290.5 
L 478.852992 290.5 
L 480.231233 296.218667 
L 481.666779 296.218667 
L 483.163088 293.359333 
L 484.521317 296.218667 
L 485.774942 296.218667 
L 487.128442 293.359333 
L 488.611652 276.203333 
L 489.69809 279.062667 
L 490.918605 279.062667 
L 492.309399 276.203333 
L 493.825355 279.062667 
L 495.024221 279.062667 
L 496.173422 287.640667 
L 497.435961 287.640667 
L 498.858955 284.781333 
L 501.469717 284.781333 
L 502.490118 290.5 
L 503.744834 284.781333 
L 504.895127 281.922 
L 506.199326 281.922 
L 508.528473 276.203333 
L 510.066806 279.062667 
L 511.128139 281.922 
L 514.947227 281.922 
L 516.47046 287.640667 
L 517.672055 281.922 
L 519.053025 279.062667 
L 520.293006 284.781333 
L 521.689803 290.5 
L 522.987816 290.5 
L 524.207967 284.781333 
L 525.636055 287.640667 
L 526.76761 290.5 
L 527.85805 281.922 
L 528.952857 279.062667 
L 530.324731 284.781333 
L 531.813399 284.781333 
L 532.930945 281.922 
L 534.059953 284.781333 
L 535.321401 284.781333 
L 536.648704 281.922 
L 537.771526 276.203333 
L 539.149404 279.062667 
L 540.082663 276.203333 
L 541.327374 270.484667 
L 542.399258 276.203333 
L 543.682536 279.062667 
L 544.939617 284.781333 
L 545.971843 281.922 
L 547.386286 287.640667 
L 548.48273 290.5 
L 549.898629 287.640667 
L 555.735961 287.640667 
L 557.050893 281.922 
L 559.61854 276.203333 
L 560.681328 276.203333 
L 561.983344 273.344 
L 563.149646 270.484667 
L 564.100007 270.484667 
L 565.176803 267.625333 
L 566.487551 270.484667 
L 567.907089 267.625333 
L 569.000622 273.344 
L 570.072324 273.344 
L 571.259184 281.922 
L 572.494616 287.640667 
L 573.526841 287.640667 
L 574.839954 290.5 
L 575.809053 276.203333 
L 576.988817 284.781333 
L 577.98011 279.062667 
L 580.313078 279.062667 
L 581.330204 273.344 
L 582.773209 281.922 
L 583.808527 273.344 
L 584.954818 276.203333 
L 585.75673 276.203333 
L 587.102225 270.484667 
L 588.560876 276.203333 
L 589.684972 273.344 
L 591.003543 279.062667 
L 593.45949 273.344 
L 594.696196 273.344 
L 595.780815 270.484667 
L 597.058999 273.344 
L 598.108871 267.625333 
L 599.086883 270.484667 
L 600.188421 270.484667 
L 601.424035 273.344 
L 604.804146 273.344 
L 607.29484 261.906667 
L 608.469693 261.906667 
L 609.802999 264.766 
L 611.749928 264.766 
L 612.782154 267.625333 
L 613.978109 273.344 
L 614.990505 276.203333 
L 615.973976 276.203333 
L 615.973976 276.203333 
" style="fill:none;stroke:#1f77b4;stroke-dasharray:2.5,2.5;stroke-dashoffset:0;stroke-width:2.5;"/>
   </g>
   <g id="line2d_92">
    <path clip-path="url(#p061feb16c1)" d="M 376.978487 376.28 
L 377.879001 359.124 
L 378.580674 347.686667 
L 379.302904 346.257 
L 379.92817 341.968 
L 380.480667 339.108667 
L 380.935654 333.39 
L 381.353347 330.530667 
L 381.845992 327.671333 
L 382.288972 324.812 
L 382.706119 330.530667 
L 383.080515 330.530667 
L 383.444177 330.530667 
L 383.883519 327.671333 
L 384.293207 330.530667 
L 384.695073 333.39 
L 385.092572 321.952667 
L 385.531914 321.952667 
L 385.984718 321.952667 
L 386.373667 321.952667 
L 386.748972 321.952667 
L 387.140468 321.952667 
L 387.561618 324.812 
L 387.919822 324.812 
L 388.269294 324.812 
L 388.643326 324.812 
L 389.107955 316.234 
L 389.467797 316.234 
L 389.749776 321.952667 
L 390.148731 321.952667 
L 390.571517 319.093333 
L 390.906436 316.234 
L 391.195874 321.952667 
L 391.539888 319.093333 
L 391.927928 313.374667 
L 392.214819 304.796667 
L 392.552648 307.656 
L 392.838084 307.656 
" style="fill:none;stroke:#ff7f0e;stroke-linecap:round;stroke-width:2.5;"/>
   </g>
   <g id="line2d_93">
    <path clip-path="url(#p061feb16c1)" d="M 392.838084 307.656 
L 393.57323 324.812 
L 394.410254 316.234 
L 395.165958 307.656 
L 395.954771 316.234 
L 396.688463 314.5184 
L 397.353388 307.656 
L 398.182224 307.656 
L 398.98159 304.796667 
L 399.832803 307.656 
L 400.65036 307.656 
L 401.429896 313.374667 
L 402.203792 319.093333 
L 403.025352 316.234 
L 403.867833 319.093333 
L 404.687574 319.093333 
L 405.448008 313.374667 
L 406.146224 304.796667 
L 406.815151 299.078 
L 407.690742 293.359333 
L 408.520852 293.359333 
L 409.275283 287.640667 
L 410.128315 287.640667 
L 410.875287 290.5 
L 411.689934 287.640667 
L 412.435086 293.359333 
L 413.185878 293.359333 
L 413.867722 296.218667 
L 414.639617 293.359333 
L 415.374946 296.218667 
L 415.987295 301.937333 
L 416.719531 304.796667 
L 417.385548 301.937333 
L 418.099955 301.937333 
L 418.884949 304.796667 
L 419.615184 307.656 
L 420.289387 310.515333 
L 420.962498 307.656 
L 421.776235 319.093333 
L 422.466266 319.093333 
L 423.195409 319.093333 
L 423.859424 313.374667 
L 424.470136 310.515333 
L 425.319712 307.656 
L 425.970993 299.078 
L 426.697044 304.796667 
L 427.436557 307.656 
L 428.105484 304.796667 
L 428.865372 307.656 
L 429.6158 307.656 
L 430.408798 301.937333 
L 431.047709 299.078 
L 431.909109 290.5 
L 432.536012 296.218667 
L 433.143814 290.5 
L 433.899336 290.5 
L 434.584818 296.218667 
L 435.107116 290.5 
L 435.926129 299.078 
L 436.577956 301.937333 
" style="fill:none;stroke:#ff7f0e;stroke-dasharray:10,3.75;stroke-dashoffset:0;stroke-width:2.5;"/>
   </g>
   <g id="line2d_94"/>
   <g id="line2d_95"/>
   <g id="line2d_96"/>
   <g id="line2d_97"/>
   <g id="line2d_98"/>
   <g id="line2d_99"/>
   <g id="line2d_100"/>
   <g id="line2d_101">
    <path clip-path="url(#p061feb16c1)" d="M 375.92625 269.9128 
L 627.92375 269.9128 
" style="fill:none;stroke:#ff0000;stroke-dasharray:3.7,1.6;stroke-dashoffset:0;"/>
   </g>
   <g id="line2d_102">
    <path clip-path="url(#p061feb16c1)" d="M 375.92625 336.8212 
L 627.92375 336.8212 
" style="fill:none;stroke:#800080;stroke-dasharray:3.7,1.6;stroke-dashoffset:0;"/>
   </g>
   <g id="line2d_103">
    <path clip-path="url(#p061feb16c1)" d="M 375.92625 359.124 
L 627.92375 359.124 
" style="fill:none;stroke:#008000;stroke-dasharray:3.7,1.6;stroke-dashoffset:0;"/>
   </g>
   <g id="patch_18">
    <path d="M 375.92625 376.28 
L 375.92625 204.72 
" style="fill:none;stroke:#cccccc;stroke-linecap:square;stroke-linejoin:miter;stroke-width:0.8;"/>
   </g>
   <g id="patch_19">
    <path d="M 627.92375 376.28 
L 627.92375 204.72 
" style="fill:none;stroke:#cccccc;stroke-linecap:square;stroke-linejoin:miter;stroke-width:0.8;"/>
   </g>
   <g id="patch_20">
    <path d="M 375.92625 376.28 
L 627.92375 376.28 
" style="fill:none;stroke:#cccccc;stroke-linecap:square;stroke-linejoin:miter;stroke-width:0.8;"/>
   </g>
   <g id="patch_21">
    <path d="M 375.92625 204.72 
L 627.92375 204.72 
" style="fill:none;stroke:#cccccc;stroke-linecap:square;stroke-linejoin:miter;stroke-width:0.8;"/>
   </g>
   <g id="legend_1">
    <g id="patch_22">
     <path d="M 641.3637 279.40125 
L 766.765575 279.40125 
Q 769.165575 279.40125 769.165575 277.00125 
L 769.165575 84.45 
Q 769.165575 82.05 766.765575 82.05 
L 641.3637 82.05 
Q 638.9637 82.05 638.9637 84.45 
L 638.9637 277.00125 
Q 638.9637 279.40125 641.3637 279.40125 
z
" style="fill:#ffffff;opacity:0.8;stroke:#cccccc;stroke-linejoin:miter;"/>
    </g>
    <g id="line2d_104">
     <path d="M 643.7637 91.768125 
L 667.7637 91.768125 
" style="fill:none;"/>
    </g>
    <g id="line2d_105"/>
    <g id="line2d_106">
     <path d="M 643.7637 109.381875 
L 667.7637 109.381875 
" style="fill:none;stroke:#1f77b4;stroke-linecap:round;stroke-width:1.5;"/>
    </g>
    <g id="line2d_107"/>
    <g id="text_44">
     <!-- Dense reward -->
     <defs>
      <path d="M 19.671875 64.796875 
L 19.671875 8.109375 
L 31.59375 8.109375 
Q 46.6875 8.109375 53.6875 14.9375 
Q 60.6875 21.78125 60.6875 36.53125 
Q 60.6875 51.171875 53.6875 57.984375 
Q 46.6875 64.796875 31.59375 64.796875 
z
M 9.8125 72.90625 
L 30.078125 72.90625 
Q 51.265625 72.90625 61.171875 64.09375 
Q 71.09375 55.28125 71.09375 36.53125 
Q 71.09375 17.671875 61.125 8.828125 
Q 51.171875 0 30.078125 0 
L 9.8125 0 
z
" id="DejaVuSans-68"/>
      <path id="DejaVuSans-32"/>
     </defs>
     <g style="fill:#262626;" transform="translate(677.3637 113.581875)scale(0.12 -0.12)">
      <use xlink:href="#DejaVuSans-68"/>
      <use x="77.001953" xlink:href="#DejaVuSans-101"/>
      <use x="138.525391" xlink:href="#DejaVuSans-110"/>
      <use x="201.904297" xlink:href="#DejaVuSans-115"/>
      <use x="254.003906" xlink:href="#DejaVuSans-101"/>
      <use x="315.527344" xlink:href="#DejaVuSans-32"/>
      <use x="347.314453" xlink:href="#DejaVuSans-114"/>
      <use x="388.396484" xlink:href="#DejaVuSans-101"/>
      <use x="449.919922" xlink:href="#DejaVuSans-119"/>
      <use x="531.707031" xlink:href="#DejaVuSans-97"/>
      <use x="592.986328" xlink:href="#DejaVuSans-114"/>
      <use x="634.083984" xlink:href="#DejaVuSans-100"/>
     </g>
    </g>
    <g id="line2d_108">
     <path d="M 643.7637 126.995625 
L 667.7637 126.995625 
" style="fill:none;stroke:#ff7f0e;stroke-linecap:round;stroke-width:1.5;"/>
    </g>
    <g id="line2d_109"/>
    <g id="text_45">
     <!-- Sparse reward -->
     <defs>
      <path d="M 53.515625 70.515625 
L 53.515625 60.890625 
Q 47.90625 63.578125 42.921875 64.890625 
Q 37.9375 66.21875 33.296875 66.21875 
Q 25.25 66.21875 20.875 63.09375 
Q 16.5 59.96875 16.5 54.203125 
Q 16.5 49.359375 19.40625 46.890625 
Q 22.3125 44.4375 30.421875 42.921875 
L 36.375 41.703125 
Q 47.40625 39.59375 52.65625 34.296875 
Q 57.90625 29 57.90625 20.125 
Q 57.90625 9.515625 50.796875 4.046875 
Q 43.703125 -1.421875 29.984375 -1.421875 
Q 24.8125 -1.421875 18.96875 -0.25 
Q 13.140625 0.921875 6.890625 3.21875 
L 6.890625 13.375 
Q 12.890625 10.015625 18.65625 8.296875 
Q 24.421875 6.59375 29.984375 6.59375 
Q 38.421875 6.59375 43.015625 9.90625 
Q 47.609375 13.234375 47.609375 19.390625 
Q 47.609375 24.75 44.3125 27.78125 
Q 41.015625 30.8125 33.5 32.328125 
L 27.484375 33.5 
Q 16.453125 35.6875 11.515625 40.375 
Q 6.59375 45.0625 6.59375 53.421875 
Q 6.59375 63.09375 13.40625 68.65625 
Q 20.21875 74.21875 32.171875 74.21875 
Q 37.3125 74.21875 42.625 73.28125 
Q 47.953125 72.359375 53.515625 70.515625 
z
" id="DejaVuSans-83"/>
     </defs>
     <g style="fill:#262626;" transform="translate(677.3637 131.195625)scale(0.12 -0.12)">
      <use xlink:href="#DejaVuSans-83"/>
      <use x="63.476562" xlink:href="#DejaVuSans-112"/>
      <use x="126.953125" xlink:href="#DejaVuSans-97"/>
      <use x="188.232422" xlink:href="#DejaVuSans-114"/>
      <use x="229.345703" xlink:href="#DejaVuSans-115"/>
      <use x="281.445312" xlink:href="#DejaVuSans-101"/>
      <use x="342.96875" xlink:href="#DejaVuSans-32"/>
      <use x="374.755859" xlink:href="#DejaVuSans-114"/>
      <use x="415.837891" xlink:href="#DejaVuSans-101"/>
      <use x="477.361328" xlink:href="#DejaVuSans-119"/>
      <use x="559.148438" xlink:href="#DejaVuSans-97"/>
      <use x="620.427734" xlink:href="#DejaVuSans-114"/>
      <use x="661.525391" xlink:href="#DejaVuSans-100"/>
     </g>
    </g>
    <g id="line2d_110">
     <path d="M 643.7637 144.609375 
L 667.7637 144.609375 
" style="fill:none;"/>
    </g>
    <g id="line2d_111"/>
    <g id="line2d_112">
     <path d="M 643.7637 162.223125 
L 667.7637 162.223125 
" style="fill:none;stroke:#333333;stroke-linecap:round;stroke-width:1.5;"/>
    </g>
    <g id="line2d_113"/>
    <g id="text_46">
     <!-- $d&lt;2\mathrm{m}$ -->
     <defs>
      <path d="M 41.796875 8.203125 
Q 38.1875 3.46875 33.25 1.015625 
Q 28.328125 -1.421875 22.3125 -1.421875 
Q 14.109375 -1.421875 9.34375 4.171875 
Q 4.59375 9.765625 4.59375 19.484375 
Q 4.59375 27.59375 7.46875 34.9375 
Q 10.359375 42.28125 15.828125 48.09375 
Q 19.4375 51.953125 23.96875 53.96875 
Q 28.515625 56 33.5 56 
Q 38.765625 56 42.796875 53.453125 
Q 46.828125 50.921875 49.03125 46.1875 
L 54.890625 75.984375 
L 63.921875 75.984375 
L 49.125 0 
L 40.09375 0 
z
M 13.921875 21.09375 
Q 13.921875 14.015625 17.109375 10.0625 
Q 20.3125 6.109375 25.984375 6.109375 
Q 30.171875 6.109375 33.765625 8.125 
Q 37.359375 10.15625 40.09375 14.109375 
Q 42.96875 18.21875 44.625 23.578125 
Q 46.296875 28.953125 46.296875 34.1875 
Q 46.296875 40.96875 43.09375 44.765625 
Q 39.890625 48.578125 34.28125 48.578125 
Q 30.03125 48.578125 26.359375 46.578125 
Q 22.703125 44.578125 20.125 40.828125 
Q 17.28125 36.765625 15.59375 31.390625 
Q 13.921875 26.03125 13.921875 21.09375 
z
" id="DejaVuSans-Oblique-100"/>
      <path d="M 73.1875 49.21875 
L 22.796875 31.296875 
L 73.1875 13.484375 
L 73.1875 4.59375 
L 10.59375 27.296875 
L 10.59375 35.40625 
L 73.1875 58.109375 
z
" id="DejaVuSans-60"/>
      <path d="M 52 44.1875 
Q 55.375 50.25 60.0625 53.125 
Q 64.75 56 71.09375 56 
Q 79.640625 56 84.28125 50.015625 
Q 88.921875 44.046875 88.921875 33.015625 
L 88.921875 0 
L 79.890625 0 
L 79.890625 32.71875 
Q 79.890625 40.578125 77.09375 44.375 
Q 74.3125 48.1875 68.609375 48.1875 
Q 61.625 48.1875 57.5625 43.546875 
Q 53.515625 38.921875 53.515625 30.90625 
L 53.515625 0 
L 44.484375 0 
L 44.484375 32.71875 
Q 44.484375 40.625 41.703125 44.40625 
Q 38.921875 48.1875 33.109375 48.1875 
Q 26.21875 48.1875 22.15625 43.53125 
Q 18.109375 38.875 18.109375 30.90625 
L 18.109375 0 
L 9.078125 0 
L 9.078125 54.6875 
L 18.109375 54.6875 
L 18.109375 46.1875 
Q 21.1875 51.21875 25.484375 53.609375 
Q 29.78125 56 35.6875 56 
Q 41.65625 56 45.828125 52.96875 
Q 50 49.953125 52 44.1875 
z
" id="DejaVuSans-109"/>
     </defs>
     <g style="fill:#262626;" transform="translate(677.3637 166.423125)scale(0.12 -0.12)">
      <use transform="translate(0 0.015625)" xlink:href="#DejaVuSans-Oblique-100"/>
      <use transform="translate(82.958984 0.015625)" xlink:href="#DejaVuSans-60"/>
      <use transform="translate(186.230469 0.015625)" xlink:href="#DejaVuSans-50"/>
      <use transform="translate(249.853516 0.015625)" xlink:href="#DejaVuSans-109"/>
     </g>
    </g>
    <g id="line2d_114">
     <path d="M 643.7637 179.836875 
L 667.7637 179.836875 
" style="fill:none;stroke:#333333;stroke-dasharray:6,2.25;stroke-dashoffset:0;stroke-width:1.5;"/>
    </g>
    <g id="line2d_115"/>
    <g id="text_47">
     <!-- $d&lt;4\mathrm{m}$ -->
     <g style="fill:#262626;" transform="translate(677.3637 184.036875)scale(0.12 -0.12)">
      <use transform="translate(0 0.015625)" xlink:href="#DejaVuSans-Oblique-100"/>
      <use transform="translate(82.958984 0.015625)" xlink:href="#DejaVuSans-60"/>
      <use transform="translate(186.230469 0.015625)" xlink:href="#DejaVuSans-52"/>
      <use transform="translate(249.853516 0.015625)" xlink:href="#DejaVuSans-109"/>
     </g>
    </g>
    <g id="line2d_116">
     <path d="M 643.7637 197.450625 
L 667.7637 197.450625 
" style="fill:none;stroke:#333333;stroke-dasharray:1.5,1.5;stroke-dashoffset:0;stroke-width:1.5;"/>
    </g>
    <g id="line2d_117"/>
    <g id="text_48">
     <!-- Full -->
     <defs>
      <path d="M 9.8125 72.90625 
L 51.703125 72.90625 
L 51.703125 64.59375 
L 19.671875 64.59375 
L 19.671875 43.109375 
L 48.578125 43.109375 
L 48.578125 34.8125 
L 19.671875 34.8125 
L 19.671875 0 
L 9.8125 0 
z
" id="DejaVuSans-70"/>
     </defs>
     <g style="fill:#262626;" transform="translate(677.3637 201.650625)scale(0.12 -0.12)">
      <use xlink:href="#DejaVuSans-70"/>
      <use x="57.441406" xlink:href="#DejaVuSans-117"/>
      <use x="120.820312" xlink:href="#DejaVuSans-108"/>
      <use x="148.603516" xlink:href="#DejaVuSans-108"/>
     </g>
    </g>
    <g id="line2d_118">
     <path d="M 643.7637 215.064375 
L 667.7637 215.064375 
" style="fill:none;"/>
    </g>
    <g id="line2d_119"/>
    <g id="line2d_120">
     <path d="M 643.7637 232.678125 
L 667.7637 232.678125 
" style="fill:none;stroke:#ff0000;stroke-dasharray:3.7,1.6;stroke-dashoffset:0;"/>
    </g>
    <g id="line2d_121"/>
    <g id="text_49">
     <!-- SLAM -->
     <defs>
      <path d="M 9.8125 72.90625 
L 19.671875 72.90625 
L 19.671875 8.296875 
L 55.171875 8.296875 
L 55.171875 0 
L 9.8125 0 
z
" id="DejaVuSans-76"/>
      <path d="M 34.1875 63.1875 
L 20.796875 26.90625 
L 47.609375 26.90625 
z
M 28.609375 72.90625 
L 39.796875 72.90625 
L 67.578125 0 
L 57.328125 0 
L 50.6875 18.703125 
L 17.828125 18.703125 
L 11.1875 0 
L 0.78125 0 
z
" id="DejaVuSans-65"/>
     </defs>
     <g style="fill:#262626;" transform="translate(677.3637 236.878125)scale(0.12 -0.12)">
      <use xlink:href="#DejaVuSans-83"/>
      <use x="63.476562" xlink:href="#DejaVuSans-76"/>
      <use x="119.220703" xlink:href="#DejaVuSans-65"/>
      <use x="187.628906" xlink:href="#DejaVuSans-77"/>
     </g>
    </g>
    <g id="line2d_122">
     <path d="M 643.7637 250.291875 
L 667.7637 250.291875 
" style="fill:none;stroke:#800080;stroke-dasharray:3.7,1.6;stroke-dashoffset:0;"/>
    </g>
    <g id="line2d_123"/>
    <g id="text_50">
     <!-- Goal follower -->
     <defs>
      <path d="M 59.515625 10.40625 
L 59.515625 29.984375 
L 43.40625 29.984375 
L 43.40625 38.09375 
L 69.28125 38.09375 
L 69.28125 6.78125 
Q 63.578125 2.734375 56.6875 0.65625 
Q 49.8125 -1.421875 42 -1.421875 
Q 24.90625 -1.421875 15.25 8.5625 
Q 5.609375 18.5625 5.609375 36.375 
Q 5.609375 54.25 15.25 64.234375 
Q 24.90625 74.21875 42 74.21875 
Q 49.125 74.21875 55.546875 72.453125 
Q 61.96875 70.703125 67.390625 67.28125 
L 67.390625 56.78125 
Q 61.921875 61.421875 55.765625 63.765625 
Q 49.609375 66.109375 42.828125 66.109375 
Q 29.4375 66.109375 22.71875 58.640625 
Q 16.015625 51.171875 16.015625 36.375 
Q 16.015625 21.625 22.71875 14.15625 
Q 29.4375 6.6875 42.828125 6.6875 
Q 48.046875 6.6875 52.140625 7.59375 
Q 56.25 8.5 59.515625 10.40625 
z
" id="DejaVuSans-71"/>
      <path d="M 37.109375 75.984375 
L 37.109375 68.5 
L 28.515625 68.5 
Q 23.6875 68.5 21.796875 66.546875 
Q 19.921875 64.59375 19.921875 59.515625 
L 19.921875 54.6875 
L 34.71875 54.6875 
L 34.71875 47.703125 
L 19.921875 47.703125 
L 19.921875 0 
L 10.890625 0 
L 10.890625 47.703125 
L 2.296875 47.703125 
L 2.296875 54.6875 
L 10.890625 54.6875 
L 10.890625 58.5 
Q 10.890625 67.625 15.140625 71.796875 
Q 19.390625 75.984375 28.609375 75.984375 
z
" id="DejaVuSans-102"/>
     </defs>
     <g style="fill:#262626;" transform="translate(677.3637 254.491875)scale(0.12 -0.12)">
      <use xlink:href="#DejaVuSans-71"/>
      <use x="77.490234" xlink:href="#DejaVuSans-111"/>
      <use x="138.671875" xlink:href="#DejaVuSans-97"/>
      <use x="199.951172" xlink:href="#DejaVuSans-108"/>
      <use x="227.734375" xlink:href="#DejaVuSans-32"/>
      <use x="259.521484" xlink:href="#DejaVuSans-102"/>
      <use x="294.726562" xlink:href="#DejaVuSans-111"/>
      <use x="355.908203" xlink:href="#DejaVuSans-108"/>
      <use x="383.691406" xlink:href="#DejaVuSans-108"/>
      <use x="411.474609" xlink:href="#DejaVuSans-111"/>
      <use x="472.65625" xlink:href="#DejaVuSans-119"/>
      <use x="554.443359" xlink:href="#DejaVuSans-101"/>
      <use x="615.966797" xlink:href="#DejaVuSans-114"/>
     </g>
    </g>
    <g id="line2d_124">
     <path d="M 643.7637 267.905625 
L 667.7637 267.905625 
" style="fill:none;stroke:#008000;stroke-dasharray:3.7,1.6;stroke-dashoffset:0;"/>
    </g>
    <g id="line2d_125"/>
    <g id="text_51">
     <!-- Random -->
     <defs>
      <path d="M 44.390625 34.1875 
Q 47.5625 33.109375 50.5625 29.59375 
Q 53.5625 26.078125 56.59375 19.921875 
L 66.609375 0 
L 56 0 
L 46.6875 18.703125 
Q 43.0625 26.03125 39.671875 28.421875 
Q 36.28125 30.8125 30.421875 30.8125 
L 19.671875 30.8125 
L 19.671875 0 
L 9.8125 0 
L 9.8125 72.90625 
L 32.078125 72.90625 
Q 44.578125 72.90625 50.734375 67.671875 
Q 56.890625 62.453125 56.890625 51.90625 
Q 56.890625 45.015625 53.6875 40.46875 
Q 50.484375 35.9375 44.390625 34.1875 
z
M 19.671875 64.796875 
L 19.671875 38.921875 
L 32.078125 38.921875 
Q 39.203125 38.921875 42.84375 42.21875 
Q 46.484375 45.515625 46.484375 51.90625 
Q 46.484375 58.296875 42.84375 61.546875 
Q 39.203125 64.796875 32.078125 64.796875 
z
" id="DejaVuSans-82"/>
     </defs>
     <g style="fill:#262626;" transform="translate(677.3637 272.105625)scale(0.12 -0.12)">
      <use xlink:href="#DejaVuSans-82"/>
      <use x="69.451172" xlink:href="#DejaVuSans-97"/>
      <use x="130.730469" xlink:href="#DejaVuSans-110"/>
      <use x="194.109375" xlink:href="#DejaVuSans-100"/>
      <use x="257.585938" xlink:href="#DejaVuSans-111"/>
      <use x="318.767578" xlink:href="#DejaVuSans-109"/>
     </g>
    </g>
   </g>
  </g>
 </g>
 <defs>
  <clipPath id="p71d0b558b0">
   <rect height="171.56" width="251.9975" x="52.71875" y="7.2"/>
  </clipPath>
  <clipPath id="p024ce64310">
   <rect height="171.56" width="251.9975" x="375.92625" y="7.2"/>
  </clipPath>
  <clipPath id="pdba2847eee">
   <rect height="171.56" width="251.9975" x="52.71875" y="204.72"/>
  </clipPath>
  <clipPath id="p061feb16c1">
   <rect height="171.56" width="251.9975" x="375.92625" y="204.72"/>
  </clipPath>
 </defs>
</svg>
