<?xml version="1.0" encoding="UTF-8" standalone="no"?>
<svg
   xmlns:dc="http://purl.org/dc/elements/1.1/"
   xmlns:cc="http://creativecommons.org/ns#"
   xmlns:rdf="http://www.w3.org/1999/02/22-rdf-syntax-ns#"
   xmlns:svg="http://www.w3.org/2000/svg"
   xmlns="http://www.w3.org/2000/svg"
   viewBox="0 0 448 98.573334"
   height="98.573334"
   width="448"
   xml:space="preserve"
   id="svg2"
   version="1.1"><metadata
     id="metadata8"><rdf:RDF><cc:Work
         rdf:about=""><dc:format>image/svg+xml</dc:format><dc:type
           rdf:resource="http://purl.org/dc/dcmitype/StillImage" /></cc:Work></rdf:RDF></metadata><defs
     id="defs6" /><g
     transform="matrix(1.3333333,0,0,-1.3333333,0,98.573333)"
     id="g10"><g
       id="g12"><path
         id="path14"
         style="fill:#231f20;fill-opacity:1;fill-rule:nonzero;stroke:none"
         d="m 153.758,64.035 c -0.363,0.125 -0.778,0.165 -1.117,0.165 -1.012,0 -1.461,-0.524 -1.461,-1.715 v -0.754 h 2.09 v -1.785 h -2.09 v -7.172 h -2.289 v 7.172 h -1.571 v 1.785 h 1.571 v 0.719 c 0,2.433 1.117,3.621 3.566,3.621 0.484,0 0.992,-0.036 1.461,-0.141 z m -11.606,-4.07 c -1.027,0 -2.039,-0.793 -2.039,-2.633 0,-1.839 0.668,-2.773 2,-2.773 1.141,0 2,0.918 2,2.738 0,1.731 -0.609,2.668 -1.961,2.668 z m -0.234,-7.371 c -2.539,0 -4.184,1.313 -4.184,4.504 0,2.793 1.86,4.812 4.578,4.812 2.543,0 4.18,-1.406 4.18,-4.488 0,-2.812 -1.887,-4.828 -4.574,-4.828 z m -11.082,-0.648 c -1.066,-2.793 -2,-3.641 -4.055,-3.641 -0.394,0 -0.883,0.055 -1.261,0.145 l 0.144,1.98 c 0.414,-0.125 0.793,-0.199 1.227,-0.199 0.754,0 1.257,0.344 1.726,1.676 l 0.309,0.867 -3.297,8.957 h 2.559 l 1.207,-3.426 c 0.269,-0.773 0.503,-1.656 0.703,-2.469 h 0.015 c 0.199,0.813 0.578,2 0.867,2.848 l 1.063,3.047 h 2.469 z m -8,0.648 c -1.981,0 -2.613,0.719 -2.613,2.809 v 4.543 h -1.535 v 1.785 h 1.535 v 2.754 l 2.304,0.613 v -3.367 h 2.184 v -1.785 h -2.184 v -3.93 c 0,-1.152 0.274,-1.477 1.067,-1.477 0.379,0 0.793,0.055 1.117,0.145 v -1.856 c -0.578,-0.144 -1.246,-0.234 -1.875,-0.234 z m -8.129,0.18 v 8.957 h 2.309 v -8.957 z m 1.152,10.109 c -0.793,0 -1.421,0.629 -1.421,1.406 0,0.754 0.628,1.387 1.421,1.387 0.793,0 1.446,-0.613 1.446,-1.387 0,-0.777 -0.653,-1.406 -1.446,-1.406 z m -7.117,-10.289 c -0.648,0 -1.297,0.07 -1.875,0.16 l 0.059,1.895 c 0.554,-0.145 1.238,-0.274 1.926,-0.274 0.882,0 1.46,0.364 1.46,0.957 0,1.586 -3.624,0.684 -3.624,3.731 0,1.566 1.281,2.863 3.804,2.863 0.524,0 1.098,-0.07 1.641,-0.16 l -0.074,-1.82 c -0.504,0.144 -1.098,0.234 -1.661,0.234 -0.898,0 -1.332,-0.359 -1.332,-0.918 0,-1.461 3.676,-0.812 3.676,-3.715 0,-1.765 -1.551,-2.953 -4,-2.953 z m -3.152,7.063 C 103.934,60 103.105,58.918 103.105,56.43 v -3.656 h -2.308 v 8.957 h 2.18 c 0,-0.453 -0.051,-1.172 -0.165,-1.805 h 0.04 c 0.429,1.137 1.296,2.129 2.843,2 z m -10.559,0.578 c -0.953,0 -1.625,-0.703 -1.75,-1.785 h 3.301 c 0.031,1.117 -0.578,1.785 -1.551,1.785 z m 3.766,-3.352 h -5.551 c -0.019,-1.676 0.809,-2.488 2.469,-2.488 0.883,0 1.836,0.199 2.613,0.558 l 0.215,-1.785 c -0.953,-0.379 -2.09,-0.574 -3.207,-0.574 -2.848,0 -4.43,1.422 -4.43,4.574 0,2.742 1.512,4.758 4.196,4.758 2.613,0 3.765,-1.781 3.765,-4 0,-0.305 -0.015,-0.664 -0.07,-1.043 z M 87.211,52.774 h -2.344 l -3.316,8.957 h 2.527 l 1.418,-4.039 c 0.219,-0.614 0.434,-1.332 0.598,-1.981 h 0.035 c 0.144,0.614 0.324,1.297 0.539,1.91 l 1.441,4.11 h 2.453 z m -9.262,0 v 8.957 h 2.309 v -8.957 z m 1.153,10.109 c -0.793,0 -1.422,0.629 -1.422,1.406 0,0.754 0.629,1.387 1.422,1.387 0.793,0 1.441,-0.613 1.441,-1.387 0,-0.777 -0.648,-1.406 -1.441,-1.406 z M 73.156,52.774 v 5.73 c 0,0.938 -0.254,1.496 -1.101,1.496 -1.168,0 -2.09,-1.336 -2.09,-2.902 V 52.774 H 67.66 v 8.957 h 2.18 c 0,-0.414 -0.035,-1.117 -0.125,-1.586 l 0.015,-0.02 c 0.543,1.063 1.586,1.801 3.047,1.801 2.02,0 2.668,-1.297 2.668,-2.863 V 52.774 Z M 60.109,52.575 c -3.839,0 -4.703,2.089 -4.703,4.414 v 7.949 h 2.344 v -7.805 c 0,-1.531 0.504,-2.613 2.52,-2.613 1.804,0 2.562,0.758 2.562,2.832 v 7.586 h 2.324 v -7.442 c 0,-3.336 -1.84,-4.921 -5.047,-4.921 z m 54.813,-10.27 v 1.91 h -1.68 v -1.91 h -1.058 v 4.59 h 1.058 v -1.762 h 1.68 v 1.762 h 1.058 v -4.59 z m -6.758,0 v 0.828 l 1.477,2.469 c 0.074,0.121 0.156,0.238 0.242,0.355 -0.121,-0.007 -0.278,-0.015 -0.723,-0.015 h -0.949 v 0.953 h 2.973 v -0.863 l -1.559,-2.504 c -0.055,-0.086 -0.109,-0.164 -0.176,-0.258 0.086,0.015 0.348,0.015 0.891,0.015 h 0.871 v -0.98 z m -2.828,-0.09 c -1.465,0 -1.816,0.789 -1.816,1.707 v 2.973 h 1.058 v -2.91 c 0,-0.539 0.172,-0.879 0.824,-0.879 0.598,0 0.828,0.254 0.828,0.941 v 2.848 h 1.047 v -2.789 c 0,-1.293 -0.726,-1.891 -1.941,-1.891 z m -5.859,-8.484 v 5.73 c 0,0.938 -0.254,1.496 -1.098,1.496 -1.172,0 -2.09,-1.336 -2.09,-2.902 V 33.731 H 93.98 v 13.156 h 2.309 v -3.84 c 0,-0.543 -0.035,-1.297 -0.164,-1.82 l 0.035,-0.02 c 0.524,1.012 1.551,1.676 2.938,1.676 2.019,0 2.668,-1.297 2.668,-2.863 v -6.289 z m -9.75,-0.164 c -2.485,0 -4.032,1.297 -4.032,4.343 0,2.793 1.457,4.938 4.629,4.938 0.614,0 1.262,-0.09 1.836,-0.25 l -0.234,-2.004 c -0.485,0.184 -1.043,0.328 -1.621,0.328 -1.461,0 -2.2,-1.082 -2.2,-2.777 0,-1.531 0.598,-2.578 2.129,-2.578 0.61,0 1.282,0.129 1.766,0.379 l 0.18,-1.965 c -0.614,-0.235 -1.496,-0.414 -2.453,-0.414 z m -8.028,0.164 v 8.957 h 2.309 v -8.957 z m 1.153,10.109 c -0.793,0 -1.422,0.629 -1.422,1.406 0,0.754 0.629,1.387 1.422,1.387 0.796,0 1.441,-0.613 1.441,-1.387 0,-0.777 -0.645,-1.406 -1.441,-1.406 z m -2.926,-3.226 c -1.656,0.343 -2.485,-0.739 -2.485,-3.227 v -3.656 h -2.308 v 8.957 h 2.179 c 0,-0.453 -0.054,-1.172 -0.16,-1.805 h 0.036 c 0.433,1.137 1.296,2.129 2.847,2 z m -9.442,-6.883 c 0,0.414 0.02,1.117 0.11,1.586 l -0.02,0.015 c -0.539,-1.062 -1.566,-1.8 -3.047,-1.8 -2.015,0 -2.664,1.296 -2.664,2.867 v 6.289 h 2.285 v -5.731 c 0,-0.937 0.254,-1.496 1.122,-1.496 1.168,0 2.07,1.332 2.07,2.899 v 4.328 h 2.308 v -8.957 z m -15.527,0 v 1.801 l 4.379,7.136 c 0.25,0.414 0.504,0.774 0.793,1.153 -0.434,-0.016 -1.012,-0.036 -2.219,-0.036 h -2.812 v 2.11 h 7.859 V 44.02 l -4.633,-7.317 c -0.179,-0.289 -0.344,-0.558 -0.558,-0.847 0.308,0.035 1.136,0.035 2.632,0.035 h 2.629 v -2.16 h -8.07" /><path
         id="path16"
         style="fill:#231f20;fill-opacity:1;fill-rule:nonzero;stroke:none"
         d="m 31.562,39.309 v 23.152 h -0.496 v 2.555 c -0.007,0.316 -0.05,0.519 -0.195,0.844 -0.035,0.082 -0.086,0.172 -0.144,0.261 v 0.922 c 0,0 0,0.723 -0.297,1.27 -0.328,0.594 -0.957,0.918 -1.266,1.051 -0.07,0.031 -0.117,0.046 -0.125,0.046 l -0.051,0.02 -0.062,-0.02 c -0.031,-0.007 -0.531,-0.164 -1.004,-0.812 -0.434,-0.594 -0.445,-1.352 -0.449,-1.563 0,-0.035 0,-0.054 0,-0.054 v -0.852 c -0.059,-0.082 -0.137,-0.211 -0.227,-0.398 -0.129,-0.324 -0.141,-0.625 -0.144,-0.805 v -2.465 h -0.5 v -8.449 l -1.368,1.367 v 2.41 l -0.464,1.559 -0.676,5.34 -0.504,-5.117 -0.465,-1.782 V 55.555 L 21.77,54.2 v 8.261 h -0.497 v 2.555 c -0.003,0.316 -0.05,0.519 -0.191,0.844 -0.035,0.082 -0.09,0.172 -0.144,0.261 v 0.922 c 0,0 -0.004,0.723 -0.301,1.27 -0.325,0.594 -0.957,0.918 -1.262,1.051 -0.074,0.031 -0.117,0.046 -0.129,0.046 l -0.051,0.02 -0.062,-0.02 c -0.031,-0.007 -0.531,-0.164 -1.004,-0.812 -0.43,-0.594 -0.445,-1.352 -0.449,-1.563 0,-0.035 0,-0.054 0,-0.054 v -0.852 c -0.055,-0.082 -0.137,-0.211 -0.223,-0.398 -0.133,-0.324 -0.141,-0.625 -0.145,-0.805 v -2.465 h -0.5 V 39.309 H 4.645 c -1.7,3.133 -2.668,6.723 -2.668,10.539 0,6.109 2.472,11.637 6.476,15.641 4.004,4 9.531,6.476 15.637,6.476 6.109,0 11.637,-2.476 15.64,-6.476 4,-4.004 6.477,-9.532 6.477,-15.641 0,-3.816 -0.969,-7.406 -2.672,-10.539 z m -0.605,5.25 v -5.25 h -3.945 v 5.25 z m 0,3.441 V 44.899 H 27.012 V 48 Z m 0,5.094 V 48.34 h -3.945 v 4.754 z m -1.219,2.332 v -1.992 h -1.504 v 1.996 c 0,0.383 0.141,0.695 0.364,0.91 0.109,0.106 0.242,0.184 0.386,0.238 h 0.004 c 0.149,-0.054 0.278,-0.132 0.387,-0.238 0.223,-0.215 0.363,-0.527 0.363,-0.91 z m 1.219,2.004 v -3.996 h -0.879 v 1.996 c 0.004,0.469 -0.176,0.875 -0.469,1.156 -0.156,0.149 -0.343,0.262 -0.55,0.332 -0.008,0.004 -0.075,0.024 -0.075,0.024 0,0 -0.058,-0.02 -0.066,-0.024 -0.207,-0.07 -0.395,-0.183 -0.555,-0.332 C 28.07,56.305 27.895,55.895 27.895,55.43 V 53.434 H 27.012 V 57.43 Z M 29.66,59.184 V 57.77 h -1.348 v 1.414 c 0.004,0.547 0.274,0.926 0.672,1.101 0.403,-0.175 0.672,-0.554 0.676,-1.101 z m 1.297,1.726 v -3.14 h -0.953 v 1.414 c 0,0.469 -0.176,0.863 -0.461,1.137 -0.152,0.148 -0.34,0.257 -0.543,0.328 -0.012,0.004 -0.012,0.004 -0.012,0.004 0,0 -0.004,0 -0.015,-0.004 -0.203,-0.071 -0.387,-0.18 -0.543,-0.328 -0.285,-0.274 -0.461,-0.668 -0.457,-1.137 V 57.77 h -0.961 v 3.14 z m 0,1.145 V 61.25 h -3.945 v 0.805 z m -2.922,3.535 c 0.094,-0.222 0.11,-0.465 0.11,-0.637 l 0.003,-2.492 h -0.632 v 2.496 c 0.004,0.168 0.019,0.399 0.117,0.629 0.066,0.153 0.137,0.278 0.191,0.36 0.074,-0.106 0.141,-0.207 0.211,-0.356 z m 1.438,-0.652 V 62.461 H 28.5 c 0,0.692 0,2.477 0,2.481 0.008,0.16 0.02,0.386 0.137,0.617 0.121,0.242 0.351,0.387 0.351,0.387 0,0 0.223,-0.145 0.344,-0.387 0.125,-0.242 0.133,-0.453 0.141,-0.621 z m 0.675,1.008 c 0.059,-0.086 0.122,-0.211 0.192,-0.36 0.098,-0.234 0.121,-0.461 0.125,-0.629 v -2.496 h -0.641 v 2.492 c 0.004,0.172 0.031,0.411 0.125,0.633 0.078,0.176 0.141,0.278 0.199,0.36 z m -2.246,1.238 c 0.016,0.277 0.09,0.805 0.36,1.164 0.207,0.277 0.41,0.445 0.558,0.539 0.067,0.047 0.121,0.074 0.16,0.09 0.043,-0.016 0.098,-0.043 0.165,-0.09 0.148,-0.094 0.351,-0.262 0.558,-0.539 0.27,-0.359 0.344,-0.887 0.359,-1.164 z m 2.164,-0.34 V 66.657 C 30.062,66.621 30.051,66.563 30.031,66.512 30,66.426 29.922,66.293 29.816,66.129 c -0.039,-0.066 -0.109,-0.176 -0.187,-0.332 -0.102,0.153 -0.188,0.254 -0.246,0.321 -0.067,0.07 -0.156,0.16 -0.227,0.246 -0.16,0.183 -0.168,0.296 -0.168,0.296 0,0 -0.004,-0.113 -0.164,-0.296 -0.07,-0.086 -0.16,-0.176 -0.226,-0.246 -0.063,-0.067 -0.149,-0.168 -0.25,-0.329 -0.078,0.164 -0.153,0.274 -0.192,0.34 -0.105,0.168 -0.183,0.301 -0.218,0.387 -0.032,0.082 -0.04,0.176 -0.04,0.184 v 0.144 z M 26.602,44.559 v -5.25 h -5.036 v 5.25 z M 23.156,48 v -2 h 1.871 v 2 h 1.575 V 44.899 H 21.566 V 48 Z m 3.446,2.578 V 48.34 h -1.575 v 0.559 c 0,0.519 -0.418,0.937 -0.933,0.937 -0.52,0 -0.938,-0.418 -0.938,-0.937 V 48.34 h -1.59 v 2.238 z m 0,2.516 v -1.922 h -5.036 v 1.922 z m -2.508,2.852 2.508,-2.512 h -5.02 z m -0.528,1.855 0.399,1.695 0.16,2.836 0.098,-2.832 0.394,-1.699 z m 1.067,-0.406 v -1.414 l -0.539,0.539 -0.543,-0.539 v 1.414 z M 21.164,44.559 v -5.25 h -3.941 v 5.25 z m 0,3.441 V 44.899 H 17.223 V 48 Z m 0,5.094 V 48.34 h -3.941 v 4.754 z m -1.215,2.332 v -1.992 h -1.508 v 1.996 c 0,0.383 0.141,0.695 0.364,0.91 0.113,0.106 0.242,0.184 0.39,0.238 0.149,-0.054 0.278,-0.132 0.387,-0.238 0.227,-0.215 0.367,-0.527 0.367,-0.91 z m 1.215,2.004 v -3.996 h -0.875 v 1.996 c 0,0.469 -0.176,0.875 -0.473,1.156 -0.156,0.149 -0.343,0.262 -0.546,0.332 -0.012,0.004 -0.075,0.024 -0.075,0.024 0,0 -0.062,-0.02 -0.07,-0.024 -0.207,-0.07 -0.395,-0.183 -0.555,-0.332 -0.293,-0.281 -0.468,-0.691 -0.468,-1.156 v -1.996 h -0.879 v 3.996 z m -1.293,1.754 V 57.77 H 18.52 v 1.414 c 0.003,0.547 0.273,0.926 0.675,1.101 0.403,-0.175 0.668,-0.554 0.676,-1.101 z m 1.293,1.726 v -3.14 h -0.953 v 1.414 c 0,0.469 -0.176,0.863 -0.461,1.137 -0.152,0.148 -0.336,0.257 -0.543,0.328 -0.012,0.004 -0.012,0.004 -0.012,0.004 0,0 0,0 -0.015,-0.004 -0.203,-0.071 -0.387,-0.18 -0.543,-0.328 C 18.352,60.047 18.18,59.653 18.18,59.184 V 57.77 h -0.957 v 3.14 z m 0,1.145 V 61.25 h -3.941 v 0.805 z m -2.918,3.535 c 0.09,-0.222 0.106,-0.465 0.106,-0.637 l 0.003,-2.492 h -0.632 v 2.496 c 0.004,0.168 0.019,0.399 0.117,0.629 0.07,0.153 0.137,0.278 0.195,0.36 0.07,-0.106 0.141,-0.207 0.211,-0.356 z m 1.434,-0.652 v -2.477 h -0.973 c 0,0.692 0,2.477 0,2.481 0.008,0.16 0.02,0.386 0.137,0.617 0.125,0.242 0.355,0.387 0.355,0.387 0,0 0.219,-0.145 0.34,-0.387 0.125,-0.242 0.137,-0.453 0.141,-0.621 z m 0.675,1.008 c 0.059,-0.086 0.125,-0.211 0.196,-0.36 0.094,-0.234 0.117,-0.461 0.121,-0.629 v -2.496 h -0.641 c 0,0.551 0,1.758 0,2.492 0.004,0.172 0.035,0.411 0.125,0.633 0.078,0.176 0.141,0.278 0.199,0.36 z m -2.246,1.238 c 0.016,0.277 0.094,0.805 0.364,1.164 0.203,0.277 0.406,0.445 0.554,0.539 0.071,0.047 0.125,0.074 0.164,0.09 0.039,-0.016 0.094,-0.043 0.161,-0.09 0.152,-0.094 0.355,-0.262 0.558,-0.539 0.27,-0.359 0.344,-0.887 0.363,-1.164 z m 2.168,-0.34 v -0.187 c -0.007,-0.036 -0.015,-0.094 -0.035,-0.145 -0.031,-0.086 -0.113,-0.219 -0.219,-0.383 -0.039,-0.066 -0.109,-0.176 -0.187,-0.332 -0.102,0.153 -0.184,0.254 -0.246,0.321 -0.067,0.07 -0.156,0.16 -0.227,0.246 -0.156,0.183 -0.168,0.296 -0.168,0.296 0,0 -0.004,-0.113 -0.16,-0.296 -0.074,-0.086 -0.164,-0.176 -0.23,-0.246 -0.059,-0.067 -0.145,-0.168 -0.25,-0.329 -0.078,0.164 -0.149,0.274 -0.192,0.34 -0.105,0.168 -0.183,0.301 -0.215,0.387 -0.031,0.082 -0.043,0.176 -0.043,0.184 v 0.144 z M 43.027,38.418 H 5.156 c -0.113,0.18 -0.218,0.367 -0.324,0.551 h 38.516 c -0.106,-0.184 -0.211,-0.371 -0.321,-0.551 z m -1.488,-2.16 c -0.254,0.543 -0.805,0.918 -1.445,0.918 -0.883,0 -1.602,-0.719 -1.602,-1.601 v -0.516 h -0.578 v 0.516 c 0,0.882 -0.715,1.601 -1.602,1.601 -0.882,0 -1.597,-0.719 -1.597,-1.601 v -0.516 h -0.582 v 0.516 c 0,0.882 -0.715,1.601 -1.602,1.601 -0.883,0 -1.597,-0.719 -1.597,-1.601 v -0.516 h -0.582 v 0.516 c 0,0.882 -0.715,1.601 -1.598,1.601 -0.887,0 -1.602,-0.719 -1.602,-1.601 v -0.516 h -0.597 c -0.184,1.195 -1.215,2.117 -2.461,2.117 -1.25,0 -2.282,-0.922 -2.465,-2.117 h -0.613 v 0.516 c 0,0.882 -0.719,1.601 -1.602,1.601 -0.883,0 -1.602,-0.719 -1.602,-1.601 v -0.516 h -0.578 v 0.516 c 0,0.882 -0.718,1.601 -1.601,1.601 -0.883,0 -1.602,-0.719 -1.602,-1.601 v -0.516 h -0.578 v 0.516 c 0,0.882 -0.719,1.601 -1.601,1.601 -0.883,0 -1.602,-0.719 -1.602,-1.601 V 35.059 H 9.672 v 0.516 c 0,0.882 -0.715,1.601 -1.602,1.601 -0.632,0 -1.179,-0.371 -1.437,-0.902 -0.391,0.5 -0.758,1.019 -1.106,1.551 H 42.656 C 42.305,37.289 41.934,36.766 41.539,36.258 Z M 39.73,34.211 c -3.449,-3.453 -8.035,-5.765 -13.144,-6.34 v 2.532 h 0.934 c 1.73,0 2.984,0.144 2.984,0.144 0,0 -1.289,0.196 -2.984,0.196 h -0.934 v 3.718 h 1.117 v 1.114 c 0,0.636 0.516,1.156 1.156,1.156 0.637,0 1.157,-0.52 1.157,-1.156 v -1.114 h 1.468 v 1.114 c 0,0.636 0.516,1.156 1.157,1.156 0.636,0 1.156,-0.52 1.156,-1.156 v -1.114 h 1.469 v 1.114 c 0,0.636 0.515,1.156 1.156,1.156 0.637,0 1.156,-0.52 1.156,-1.156 v -1.114 h 1.465 v 1.114 c 0,0.636 0.519,1.156 1.16,1.156 0.504,0 0.934,-0.328 1.09,-0.781 -0.492,-0.606 -1.012,-1.188 -1.563,-1.739 z M 25.414,32.399 c -0.156,-0.586 -0.687,-1.016 -1.32,-1.016 -0.637,0 -1.168,0.43 -1.324,1.016 z m -1.699,1.156 c 0.105,-0.293 0.383,-0.504 0.715,-0.504 0.355,0 0.656,0.25 0.734,0.582 0.223,-0.012 0.445,-0.074 0.664,-0.262 0.211,-0.175 0.293,-0.48 0.32,-0.628 h -4.113 c 0.027,0.148 0.11,0.453 0.32,0.628 0.454,0.379 0.915,0.258 1.36,0.184 z m -0.535,3.148 0.449,-0.64 0.457,0.867 0.457,-0.867 0.449,0.64 -0.18,-1.113 h -1.457 z m 0.211,-1.453 h 1.402 c 0.055,-0.129 0.187,-0.457 0.269,-0.644 0.059,-0.129 0.129,-0.27 0.04,-0.414 -0.106,-0.172 -0.243,-0.149 -0.34,-0.141 -0.004,0 -0.012,0 -0.016,0 -0.098,-0.266 -0.351,-0.457 -0.652,-0.457 -0.305,0 -0.559,0.191 -0.656,0.457 -0.004,0 -0.012,0 -0.016,0 -0.098,-0.008 -0.234,-0.031 -0.34,0.141 -0.09,0.144 -0.02,0.285 0.039,0.414 0.082,0.187 0.215,0.515 0.27,0.644 z m 2.402,-7.453 c -0.563,-0.043 -1.129,-0.066 -1.703,-0.066 -0.57,0 -1.137,0.023 -1.699,0.066 l -0.418,2.606 h 0.48 c -0.117,0.285 -0.328,0.785 -0.41,0.988 -0.129,0.328 -0.031,0.543 0.184,0.625 0.214,0.082 0.449,-0.031 0.527,-0.313 l 0.211,-0.789 h 0.308 L 23.27,30.403 h 0.003 L 23.27,30.301 h -0.727 v -0.34 h 1.066 v 0.442 h 1.297 l -0.004,0.511 h 0.313 l 0.211,0.789 c 0.074,0.282 0.316,0.395 0.527,0.313 0.219,-0.082 0.317,-0.297 0.188,-0.625 -0.039,-0.09 -0.094,-0.234 -0.157,-0.395 l -0.289,-0.695 h -0.777 v -0.34 h 1.004 l 0.183,0.442 h 0.106 z m -4.195,2.946 h -1.02 v -0.34 h 1.02 v -2.532 c -5.114,0.575 -9.696,2.887 -13.145,6.34 -0.496,0.492 -0.969,1.012 -1.414,1.551 0.09,0.551 0.566,0.969 1.137,0.969 0.64,0 1.156,-0.52 1.156,-1.156 v -1.114 h 1.469 v 1.114 c 0,0.636 0.519,1.156 1.156,1.156 0.641,0 1.156,-0.52 1.156,-1.156 v -1.114 h 1.469 v 1.114 c 0,0.636 0.52,1.156 1.156,1.156 0.641,0 1.157,-0.52 1.157,-1.156 v -1.114 h 1.468 v 1.114 c 0,0.636 0.52,1.156 1.157,1.156 0.64,0 1.156,-0.52 1.156,-1.156 v -1.114 h 0.922 z m 2.492,41.621 c -12.434,0 -22.516,-10.079 -22.516,-22.516 0,-12.434 10.082,-22.516 22.516,-22.516 12.437,0 22.515,10.082 22.515,22.516 0,12.437 -10.078,22.516 -22.515,22.516 z M 24.457,34.7 h 0.191 v 0.339 h -0.46 v -0.754 h 0.269 z M 7.477,66.457 C 3.227,62.203 0.594,56.332 0.594,49.84 c 0,-6.488 2.633,-12.359 6.883,-16.613 4.253,-4.25 10.125,-6.879 16.613,-6.879 6.492,0 12.363,2.629 16.617,6.879 4.25,4.254 6.879,10.125 6.879,16.613 0,6.492 -2.629,12.363 -6.879,16.617 -4.254,4.25 -10.125,6.879 -16.617,6.879 -6.488,0 -12.36,-2.629 -16.613,-6.879 z M 0,49.84 C 0,63.149 10.785,73.934 24.09,73.934 37.395,73.934 48.18,63.149 48.18,49.84 48.18,36.535 37.395,25.75 24.09,25.75 10.785,25.75 0,36.535 0,49.84 Z m 122.852,2.75 c -1.985,0 -2.614,0.723 -2.614,2.813 v 4.539 h -1.531 v 1.785 h 1.531 v 2.758 l 2.305,0.613 v -3.371 h 2.184 v -1.785 h -2.184 v -3.926 c 0,-1.156 0.269,-1.481 1.062,-1.481 0.379,0 0.793,0.055 1.122,0.145 V 52.825 C 124.148,52.68 123.48,52.59 122.852,52.59 Z m -8.145,0.18 v 8.957 h 2.309 V 52.77 Z m 1.152,10.109 c -0.793,0 -1.421,0.633 -1.421,1.406 0,0.758 0.628,1.387 1.421,1.387 0.793,0 1.446,-0.613 1.446,-1.387 0,-0.773 -0.653,-1.406 -1.446,-1.406 z M 95.031,60.231 c -0.957,0 -1.625,-0.703 -1.75,-1.785 h 3.301 c 0.035,1.117 -0.578,1.785 -1.551,1.785 z m 3.836,-2.305 c 0,-0.308 -0.015,-0.668 -0.07,-1.047 h -5.551 c -0.019,-1.676 0.809,-2.488 2.469,-2.488 0.883,0 1.836,0.199 2.613,0.559 l 0.215,-1.782 c -0.953,-0.379 -2.09,-0.578 -3.207,-0.578 -2.848,0 -4.43,1.422 -4.43,4.578 0,2.739 1.512,4.758 4.196,4.758 m -66.118,8.598 c -0.23,0 -0.422,-0.188 -0.422,-0.422 0,-0.234 0.192,-0.422 0.422,-0.422 0.235,0 0.422,0.188 0.422,0.422 0,0.234 -0.187,0.422 -0.422,0.422 z m 0.332,-28.313 v 1 c 0,0.188 -0.152,0.34 -0.336,0.34 -0.187,0 -0.339,-0.152 -0.339,-0.34 v -1 z M 29.195,46 v 1.129 c 0,0.114 -0.093,0.207 -0.211,0.207 -0.117,0 -0.207,-0.093 -0.207,-0.207 V 46 Z m 0,3.395 v 1.125 c 0,0.117 -0.093,0.211 -0.211,0.211 -0.117,0 -0.207,-0.094 -0.207,-0.211 v -1.125 z m 0.18,8.988 v 0.871 c -0.004,0.313 -0.156,0.531 -0.391,0.633 -0.23,-0.102 -0.386,-0.32 -0.386,-0.633 v -0.871 z m 0,-4.32 v 1.347 c -0.004,0.313 -0.156,0.532 -0.391,0.633 -0.23,-0.101 -0.386,-0.32 -0.386,-0.636 v -1.344 z m -10.18,16.461 c -0.234,0 -0.422,-0.188 -0.422,-0.422 0,-0.234 0.188,-0.422 0.422,-0.422 0.231,0 0.422,0.188 0.422,0.422 0,0.234 -0.191,0.422 -0.422,0.422 z m 0.332,-28.313 v 1 c 0,0.188 -0.152,0.34 -0.339,0.34 -0.188,0 -0.34,-0.152 -0.34,-0.34 v -1 z M 19.402,46 v 1.129 c 0,0.114 -0.093,0.207 -0.211,0.207 -0.113,0 -0.207,-0.093 -0.207,-0.207 V 46 Z m 0,3.395 v 1.125 c 0,0.117 -0.093,0.211 -0.211,0.211 -0.113,0 -0.207,-0.094 -0.207,-0.211 v -1.125 z m 0.184,8.988 v 0.871 c -0.004,0.313 -0.16,0.531 -0.391,0.633 -0.23,-0.102 -0.386,-0.32 -0.39,-0.633 v -0.871 z m 0,-4.32 v 1.347 c -0.004,0.313 -0.16,0.532 -0.391,0.633 -0.23,-0.101 -0.386,-0.32 -0.39,-0.636 v -1.344 z m 0.254,-23.07 c -0.235,0 -0.422,-0.192 -0.422,-0.422 0,-0.235 0.187,-0.422 0.422,-0.422 0.234,0 0.422,0.187 0.422,0.422 0,0.23 -0.188,0.422 -0.422,0.422 z m 4.039,23.085 h 0.426 v 0.915 h -0.426 z m 0.215,11.778 c -0.235,0 -0.426,-0.188 -0.426,-0.422 0,-0.234 0.191,-0.422 0.426,-0.422 0.23,0 0.422,0.188 0.422,0.422 0,0.234 -0.192,0.422 -0.422,0.422 z m 1.488,-23.899 v 1.192 c 0,0.219 -0.18,0.402 -0.402,0.402 -0.223,0 -0.403,-0.183 -0.403,-0.402 v -1.192 z m -2.176,0 v 1.192 c 0,0.219 -0.179,0.402 -0.402,0.402 -0.223,0 -0.402,-0.183 -0.402,-0.402 v -1.192 z m 12.59,-9.797 c -0.031,0 -0.078,0 -0.105,0.004 -0.055,0.012 -0.059,0.028 -0.071,0.082 -0.008,0.082 -0.008,0.247 -0.008,0.442 v 0.355 c 0,0.309 0,0.364 0.004,0.43 0.008,0.07 0.016,0.082 0.067,0.094 0.023,0.004 0.035,0.004 0.058,0.004 0.02,0 0.051,0.011 0.051,0.043 -0.008,0.031 -0.035,0.031 -0.062,0.035 -0.082,0 -0.215,-0.008 -0.27,-0.008 -0.058,0 -0.199,0.008 -0.277,0.008 -0.035,-0.004 -0.063,0 -0.071,-0.035 0,-0.032 0.032,-0.043 0.051,-0.043 0.028,0 0.051,0 0.071,-0.008 0.043,-0.016 0.054,-0.024 0.062,-0.09 0,-0.066 0,-0.121 0,-0.43 v -0.355 c 0,-0.195 0,-0.36 -0.008,-0.442 -0.011,-0.058 -0.015,-0.074 -0.05,-0.082 -0.016,-0.004 -0.04,-0.004 -0.071,-0.004 -0.027,0 -0.047,-0.019 -0.047,-0.039 0,-0.031 0.028,-0.039 0.055,-0.039 0.086,0 0.227,0.008 0.273,0.008 0.059,0 0.2,-0.008 0.34,-0.008 0.024,0 0.055,0.008 0.059,0.039 0,0.02 -0.024,0.039 -0.051,0.039 z m -1.273,0 c -0.028,0 -0.075,0 -0.102,0.004 -0.055,0.012 -0.062,0.028 -0.07,0.082 -0.012,0.082 -0.012,0.247 -0.012,0.442 v 0.355 c 0,0.309 0,0.364 0.008,0.43 0.008,0.07 0.012,0.082 0.062,0.094 0.024,0.004 0.039,0.004 0.059,0.004 0.023,0 0.051,0.011 0.051,0.043 -0.004,0.031 -0.035,0.031 -0.059,0.035 -0.082,0 -0.219,-0.008 -0.269,-0.008 -0.059,0 -0.203,0.008 -0.282,0.008 -0.031,-0.004 -0.062,0 -0.066,-0.035 0,-0.032 0.027,-0.043 0.051,-0.043 0.023,0 0.051,0 0.07,-0.008 0.039,-0.016 0.055,-0.024 0.059,-0.09 0.004,-0.066 0.004,-0.121 0.004,-0.43 v -0.355 c 0,-0.195 0,-0.36 -0.008,-0.442 -0.012,-0.058 -0.016,-0.074 -0.051,-0.082 -0.016,-0.004 -0.039,-0.004 -0.07,-0.004 -0.032,0 -0.051,-0.019 -0.051,-0.039 0,-0.031 0.031,-0.039 0.058,-0.039 0.083,0 0.227,0.008 0.274,0.008 0.055,0 0.199,-0.008 0.34,-0.008 0.023,0 0.054,0.008 0.054,0.039 0,0.02 -0.019,0.039 -0.05,0.039 z m -1.27,0 c -0.031,0 -0.078,0 -0.105,0.004 -0.055,0.012 -0.059,0.028 -0.067,0.082 -0.011,0.082 -0.011,0.247 -0.011,0.442 v 0.355 c 0,0.309 0,0.364 0.003,0.43 0.008,0.07 0.016,0.082 0.067,0.094 0.023,0.004 0.039,0.004 0.058,0.004 0.02,0 0.051,0.011 0.051,0.043 -0.004,0.031 -0.035,0.031 -0.058,0.035 -0.082,0 -0.219,-0.008 -0.27,-0.008 -0.059,0 -0.203,0.008 -0.281,0.008 -0.031,-0.004 -0.063,0 -0.067,-0.035 0,-0.032 0.028,-0.043 0.051,-0.043 0.024,0 0.047,0 0.071,-0.008 0.039,-0.016 0.05,-0.024 0.058,-0.09 0.004,-0.066 0.004,-0.121 0.004,-0.43 v -0.355 c 0,-0.195 0,-0.36 -0.012,-0.442 -0.007,-0.058 -0.015,-0.074 -0.047,-0.082 -0.019,-0.004 -0.043,-0.004 -0.07,-0.004 -0.031,0 -0.051,-0.019 -0.051,-0.039 0,-0.031 0.032,-0.039 0.059,-0.039 0.082,0 0.226,0.008 0.273,0.008 0.055,0 0.2,-0.008 0.336,-0.008 0.028,0 0.055,0.008 0.059,0.039 0,0.02 -0.024,0.039 -0.051,0.039 z m -1.094,0 c -0.019,0 -0.05,0 -0.078,0.008 -0.043,0.016 -0.07,0.035 -0.105,0.078 -0.047,0.059 -0.379,0.579 -0.457,0.704 l 0.34,0.464 c 0.062,0.086 0.101,0.137 0.14,0.149 0.028,0.004 0.055,0.008 0.071,0.008 0.027,0 0.05,0.015 0.05,0.039 0,0.031 -0.031,0.039 -0.054,0.039 -0.078,0 -0.164,-0.008 -0.204,-0.008 -0.039,0 -0.14,0.008 -0.218,0.008 -0.032,0 -0.063,-0.008 -0.063,-0.039 0,-0.028 0.024,-0.039 0.043,-0.039 0.016,0 0.043,0 0.059,-0.004 0.019,-0.004 0.027,-0.016 0.027,-0.02 0,-0.012 -0.008,-0.039 -0.023,-0.062 -0.032,-0.055 -0.196,-0.293 -0.27,-0.399 -0.078,0.129 -0.16,0.262 -0.246,0.418 -0.012,0.016 -0.019,0.043 -0.019,0.051 0,0 0,0.008 0.015,0.012 0.016,0.004 0.035,0.004 0.047,0.004 0.02,0 0.051,0.011 0.051,0.039 -0.004,0.031 -0.035,0.039 -0.063,0.039 -0.078,0 -0.207,-0.008 -0.234,-0.008 -0.098,0 -0.27,0.008 -0.32,0.008 -0.024,-0.004 -0.055,-0.004 -0.059,-0.035 0,-0.024 0.016,-0.043 0.039,-0.043 0.02,0 0.051,-0.004 0.082,-0.012 0.07,-0.024 0.11,-0.063 0.16,-0.141 l 0.364,-0.566 -0.403,-0.543 C 30.957,32.211 30.93,32.184 30.875,32.168 30.844,32.16 30.816,32.16 30.801,32.16 c -0.024,-0.003 -0.043,-0.019 -0.043,-0.042 0,-0.024 0.023,-0.036 0.047,-0.036 h 0.035 c 0.035,0 0.137,0.008 0.176,0.008 0.05,0 0.191,-0.008 0.203,-0.008 h 0.039 c 0.027,0 0.058,0.004 0.058,0.036 -0.004,0.027 -0.023,0.039 -0.043,0.042 -0.015,0 -0.031,0 -0.046,0 -0.012,0 -0.024,0.008 -0.024,0.016 v 0.004 c 0,0.016 0.012,0.043 0.027,0.07 l 0.297,0.453 c 0.09,-0.148 0.2,-0.332 0.317,-0.519 0.004,-0.004 0.004,-0.012 0.004,-0.012 0,-0.004 -0.004,-0.004 -0.004,-0.004 -0.02,-0.004 -0.039,-0.019 -0.039,-0.043 0.004,-0.039 0.039,-0.035 0.09,-0.039 0.171,-0.004 0.335,-0.004 0.386,-0.004 h 0.063 c 0.027,0 0.054,0.008 0.058,0.039 0,0.024 -0.023,0.039 -0.043,0.039 z m -1.777,0 c -0.02,0 -0.051,0 -0.078,0.008 -0.043,0.016 -0.07,0.035 -0.106,0.078 -0.046,0.059 -0.378,0.579 -0.457,0.704 l 0.34,0.464 c 0.063,0.086 0.102,0.137 0.141,0.149 0.027,0.004 0.051,0.008 0.07,0.008 0.028,0 0.051,0.015 0.051,0.039 0,0.031 -0.031,0.039 -0.055,0.039 -0.078,0 -0.164,-0.008 -0.207,-0.008 -0.039,0 -0.136,0.008 -0.215,0.008 -0.031,0 -0.062,-0.008 -0.062,-0.039 0,-0.028 0.023,-0.039 0.039,-0.039 0.019,0 0.047,0 0.062,-0.004 0.02,-0.004 0.028,-0.016 0.024,-0.02 0.004,-0.012 -0.004,-0.039 -0.02,-0.062 -0.031,-0.055 -0.195,-0.293 -0.269,-0.399 -0.078,0.129 -0.16,0.262 -0.246,0.418 -0.012,0.016 -0.02,0.043 -0.02,0.051 0,0 0,0.008 0.016,0.012 0.015,0.004 0.035,0.004 0.047,0.004 0.019,0 0.047,0.011 0.051,0.039 -0.004,0.031 -0.036,0.039 -0.063,0.039 -0.078,0 -0.207,-0.008 -0.234,-0.008 -0.102,0 -0.27,0.008 -0.321,0.008 -0.023,-0.004 -0.054,-0.004 -0.058,-0.035 0,-0.024 0.015,-0.043 0.039,-0.043 0.019,0 0.051,-0.004 0.082,-0.012 0.07,-0.024 0.109,-0.063 0.16,-0.141 l 0.363,-0.566 -0.402,-0.543 C 29.18,32.211 29.152,32.184 29.094,32.168 29.066,32.16 29.035,32.16 29.023,32.16 29,32.157 28.977,32.141 28.977,32.118 c 0,-0.024 0.027,-0.036 0.05,-0.036 h 0.035 c 0.036,0 0.137,0.008 0.176,0.008 0.051,0 0.188,-0.008 0.203,-0.008 h 0.036 c 0.027,0 0.058,0.004 0.062,0.036 -0.004,0.027 -0.023,0.039 -0.043,0.042 -0.016,0 -0.031,0 -0.047,0 -0.011,0 -0.023,0.008 -0.023,0.016 0,0.004 0,0.004 0,0.004 0,0.016 0.008,0.043 0.027,0.07 l 0.293,0.453 c 0.094,-0.148 0.203,-0.332 0.316,-0.519 0.008,-0.004 0.008,-0.012 0.008,-0.012 0,-0.004 -0.004,-0.004 -0.004,-0.004 -0.023,-0.004 -0.039,-0.019 -0.039,-0.043 0.004,-0.039 0.035,-0.035 0.09,-0.039 0.172,-0.004 0.336,-0.004 0.387,-0.004 h 0.062 c 0.028,0 0.055,0.008 0.059,0.039 0,0.024 -0.023,0.039 -0.043,0.039 z m -1.777,0 c -0.02,0 -0.051,0 -0.078,0.008 -0.043,0.016 -0.071,0.035 -0.106,0.078 -0.047,0.059 -0.379,0.579 -0.461,0.704 l 0.344,0.464 c 0.062,0.086 0.101,0.137 0.141,0.149 0.027,0.004 0.05,0.008 0.07,0.008 0.023,0 0.051,0.015 0.051,0.039 0,0.031 -0.032,0.039 -0.055,0.039 -0.078,0 -0.168,-0.008 -0.203,-0.008 -0.043,0 -0.141,0.008 -0.223,0.008 -0.027,0 -0.058,-0.008 -0.062,-0.039 0.004,-0.028 0.027,-0.039 0.043,-0.039 0.019,0 0.046,0 0.062,-0.004 0.02,-0.004 0.024,-0.016 0.024,-0.02 0,-0.012 -0.004,-0.039 -0.02,-0.062 -0.035,-0.055 -0.195,-0.293 -0.27,-0.399 -0.078,0.129 -0.16,0.262 -0.246,0.418 -0.011,0.016 -0.019,0.043 -0.019,0.051 0,0 0,0.008 0.015,0.012 0.016,0.004 0.036,0.004 0.047,0.004 0.02,0 0.047,0.011 0.047,0.039 0,0.031 -0.031,0.039 -0.058,0.039 -0.078,0 -0.207,-0.008 -0.235,-0.008 -0.101,0 -0.269,0.008 -0.32,0.008 -0.023,-0.004 -0.055,-0.004 -0.059,-0.035 0,-0.024 0.016,-0.043 0.039,-0.043 0.016,0 0.051,-0.004 0.082,-0.012 0.071,-0.024 0.11,-0.063 0.161,-0.141 l 0.363,-0.566 -0.402,-0.543 c -0.075,-0.098 -0.102,-0.125 -0.161,-0.141 -0.027,-0.008 -0.058,-0.008 -0.07,-0.008 -0.023,-0.003 -0.047,-0.019 -0.047,-0.042 0,-0.024 0.024,-0.036 0.047,-0.036 h 0.039 c 0.035,0 0.137,0.008 0.176,0.008 0.051,0 0.187,-0.008 0.203,-0.008 h 0.035 c 0.028,0 0.059,0.004 0.063,0.036 -0.004,0.027 -0.024,0.039 -0.043,0.042 -0.016,0 -0.031,0 -0.047,0 -0.012,0 -0.024,0.008 -0.024,0.016 0,0.004 0,0.004 0,0.004 0,0.016 0.008,0.043 0.028,0.07 l 0.293,0.453 c 0.093,-0.148 0.203,-0.332 0.316,-0.519 0.004,-0.004 0.004,-0.012 0.004,-0.012 0.004,-0.004 0,-0.004 0,-0.004 -0.023,-0.004 -0.043,-0.019 -0.043,-0.043 0.008,-0.039 0.039,-0.035 0.094,-0.039 0.172,-0.004 0.336,-0.004 0.387,-0.004 h 0.062 c 0.023,0 0.055,0.008 0.059,0.039 -0.004,0.024 -0.024,0.039 -0.043,0.039 z m -8.098,0.34 c -0.027,0 -0.043,-0.027 -0.043,-0.054 -0.008,-0.036 -0.035,-0.09 -0.066,-0.129 -0.078,-0.086 -0.176,-0.102 -0.36,-0.102 -0.273,0 -0.636,0.223 -0.636,0.692 0,0.199 0.039,0.386 0.187,0.515 0.094,0.078 0.203,0.11 0.383,0.11 0.191,0 0.328,-0.051 0.394,-0.114 0.047,-0.05 0.075,-0.117 0.075,-0.175 0,-0.028 0.007,-0.059 0.039,-0.063 0.039,0.004 0.043,0.039 0.047,0.066 0,0.043 0,0.157 0.007,0.219 0.004,0.074 0.008,0.094 0.008,0.113 0.004,0.024 -0.019,0.043 -0.047,0.043 -0.058,0.008 -0.129,0.02 -0.207,0.032 -0.093,0.011 -0.176,0.023 -0.308,0.023 -0.313,0 -0.52,-0.082 -0.676,-0.219 -0.203,-0.183 -0.25,-0.425 -0.25,-0.566 0,-0.199 0.055,-0.434 0.269,-0.613 0.196,-0.164 0.442,-0.223 0.731,-0.223 0.137,0 0.293,0.012 0.383,0.047 0.035,0.012 0.058,0.035 0.066,0.07 0.02,0.074 0.043,0.246 0.043,0.274 0,0.023 -0.008,0.05 -0.039,0.054 z m -1.676,0 C 19,32.5 18.988,32.473 18.984,32.446 18.98,32.41 18.953,32.356 18.918,32.317 18.84,32.231 18.746,32.215 18.559,32.215 c -0.274,0 -0.633,0.223 -0.633,0.692 0,0.199 0.035,0.386 0.183,0.515 0.094,0.078 0.203,0.11 0.387,0.11 0.188,0 0.328,-0.051 0.395,-0.114 0.047,-0.05 0.07,-0.117 0.074,-0.175 0,-0.028 0.004,-0.059 0.039,-0.063 0.035,0.004 0.043,0.039 0.043,0.066 0.004,0.043 0.004,0.157 0.008,0.219 0.004,0.074 0.011,0.094 0.011,0.113 0,0.024 -0.019,0.043 -0.046,0.043 -0.063,0.008 -0.129,0.02 -0.211,0.032 -0.094,0.011 -0.176,0.023 -0.305,0.023 -0.316,0 -0.524,-0.082 -0.676,-0.219 -0.207,-0.183 -0.25,-0.425 -0.25,-0.566 -0.004,-0.199 0.055,-0.434 0.266,-0.613 0.195,-0.164 0.441,-0.223 0.73,-0.223 0.137,0 0.297,0.012 0.387,0.047 0.035,0.012 0.055,0.035 0.062,0.07 0.024,0.074 0.047,0.246 0.047,0.274 0,0.023 -0.011,0.05 -0.039,0.054 z m -1.679,0 c -0.028,0 -0.043,-0.027 -0.043,-0.054 -0.008,-0.036 -0.036,-0.09 -0.067,-0.129 -0.078,-0.086 -0.176,-0.102 -0.359,-0.102 -0.274,0 -0.637,0.223 -0.637,0.692 0,0.199 0.039,0.386 0.188,0.515 0.089,0.078 0.203,0.11 0.382,0.11 0.192,0 0.329,-0.051 0.395,-0.114 0.051,-0.05 0.074,-0.117 0.074,-0.175 0,-0.028 0.004,-0.059 0.039,-0.063 0.035,0.004 0.043,0.039 0.047,0.066 0,0.043 0,0.157 0.008,0.219 0.004,0.074 0.008,0.094 0.008,0.113 0.004,0.024 -0.02,0.043 -0.047,0.043 -0.059,0.008 -0.129,0.02 -0.207,0.032 -0.098,0.011 -0.176,0.023 -0.309,0.023 -0.312,0 -0.519,-0.082 -0.676,-0.219 -0.203,-0.183 -0.25,-0.425 -0.25,-0.566 0,-0.199 0.055,-0.434 0.266,-0.613 0.195,-0.164 0.445,-0.223 0.734,-0.223 0.133,0 0.293,0.012 0.383,0.047 0.039,0.012 0.059,0.035 0.067,0.07 0.019,0.074 0.043,0.246 0.043,0.274 0,0.023 -0.008,0.05 -0.039,0.054 z m -1.985,0.328 c 0,-0.207 -0.043,-0.382 -0.172,-0.492 -0.121,-0.101 -0.257,-0.133 -0.445,-0.133 -0.16,0 -0.238,0.043 -0.262,0.075 -0.011,0.011 -0.019,0.086 -0.019,0.132 0,0.04 -0.004,0.196 -0.004,0.411 v 0.254 c 0,0.16 0,0.328 0.004,0.394 0,0.024 0,0.02 0.011,0.027 0.012,0.004 0.082,0.012 0.125,0.012 0.165,0 0.387,-0.019 0.575,-0.187 0.09,-0.078 0.187,-0.243 0.187,-0.493 z M 15.5,33.41 c -0.234,0.239 -0.594,0.235 -0.855,0.235 -0.125,0 -0.278,-0.004 -0.34,-0.004 -0.059,0 -0.196,0.004 -0.301,0.004 -0.031,0 -0.063,0 -0.066,-0.035 0,-0.028 0.031,-0.039 0.05,-0.039 0.032,0 0.067,0 0.082,-0.004 0.063,-0.024 0.071,-0.028 0.078,-0.094 0,-0.066 0,-0.121 0,-0.43 v -0.355 c 0,-0.188 0,-0.348 -0.007,-0.43 C 14.133,32.2 14.121,32.172 14.09,32.164 14.074,32.16 14.051,32.16 14.02,32.16 c -0.032,0 -0.051,-0.019 -0.051,-0.039 0.004,-0.031 0.031,-0.039 0.058,-0.039 0.043,0 0.098,0 0.145,0.004 0.051,0 0.098,0.004 0.121,0.004 0.051,0 0.125,-0.008 0.211,-0.012 0.082,-0.007 0.172,-0.011 0.25,-0.011 0.391,0 0.617,0.144 0.715,0.242 0.121,0.117 0.234,0.316 0.234,0.574 0,0.246 -0.098,0.422 -0.203,0.527 z m -1.711,-1.25 c -0.023,0 -0.055,0 -0.113,0.016 -0.051,0.016 -0.071,0.059 -0.09,0.188 l -0.191,1.25 c -0.008,0.046 -0.032,0.078 -0.063,0.078 -0.031,0 -0.051,-0.024 -0.07,-0.059 l -0.547,-1.113 -0.547,1.098 c -0.027,0.054 -0.051,0.074 -0.078,0.074 -0.031,0 -0.055,-0.028 -0.059,-0.067 l -0.207,-1.32 c -0.008,-0.07 -0.031,-0.141 -0.07,-0.141 -0.035,-0.004 -0.047,-0.004 -0.063,-0.004 -0.027,0 -0.05,-0.011 -0.05,-0.039 0,-0.031 0.035,-0.039 0.054,-0.039 0.067,0 0.168,0.008 0.207,0.008 0.039,0 0.133,-0.008 0.223,-0.008 0.027,0 0.066,0.004 0.066,0.039 -0.003,0.028 -0.027,0.036 -0.05,0.039 -0.016,0 -0.036,0 -0.071,0.008 -0.035,0.008 -0.05,0.016 -0.05,0.043 0,0.032 0.003,0.059 0.007,0.094 l 0.094,0.746 c 0.07,-0.144 0.176,-0.359 0.191,-0.394 0.024,-0.059 0.192,-0.368 0.239,-0.461 0.035,-0.063 0.054,-0.106 0.101,-0.114 0.039,0.004 0.051,0.032 0.098,0.125 l 0.43,0.868 0.109,-0.832 c 0.004,-0.02 0.004,-0.032 0.004,-0.043 0,-0.024 -0.004,-0.024 0,-0.028 -0.016,-0.004 -0.035,-0.012 -0.035,-0.035 0.004,-0.031 0.027,-0.039 0.078,-0.043 0.082,-0.004 0.379,-0.012 0.434,-0.012 0.031,0 0.066,0.004 0.07,0.039 0,0.032 -0.028,0.039 -0.051,0.039 z M 40.504,43.5 c 0.047,0.047 0.066,0.047 0.144,0.016 0.188,-0.082 0.387,-0.184 0.442,-0.211 0.051,-0.027 0.082,-0.051 0.07,-0.078 -0.012,-0.031 -0.047,-0.024 -0.074,-0.012 -0.043,0.02 -0.121,0.039 -0.188,0.047 -0.285,0.031 -0.464,-0.129 -0.558,-0.344 -0.133,-0.308 0.012,-0.547 0.191,-0.629 0.168,-0.07 0.352,-0.089 0.696,0.102 l 0.191,0.102 c 0.461,0.25 0.754,0.277 1.035,0.156 0.375,-0.16 0.512,-0.594 0.305,-1.071 -0.098,-0.222 -0.192,-0.351 -0.254,-0.433 -0.024,-0.027 -0.039,-0.039 -0.063,-0.027 -0.046,0.019 -0.14,0.074 -0.406,0.191 -0.074,0.031 -0.101,0.055 -0.086,0.082 0.008,0.023 0.035,0.023 0.074,0.008 0.032,-0.016 0.145,-0.043 0.266,-0.012 0.09,0.023 0.234,0.082 0.328,0.305 0.113,0.254 0.031,0.472 -0.176,0.558 -0.156,0.071 -0.312,0.043 -0.652,-0.148 l -0.113,-0.067 c -0.492,-0.281 -0.789,-0.324 -1.117,-0.183 -0.2,0.086 -0.403,0.266 -0.457,0.582 -0.036,0.219 0.015,0.422 0.093,0.605 0.086,0.2 0.176,0.344 0.309,0.461 z m 2.199,1.321 c 0.547,-0.157 0.649,-0.184 0.766,-0.207 0.125,-0.028 0.195,-0.012 0.238,0.062 0.02,0.039 0.035,0.082 0.051,0.125 0.008,0.039 0.023,0.059 0.051,0.051 0.023,-0.008 0.019,-0.039 0.003,-0.098 -0.039,-0.136 -0.113,-0.359 -0.144,-0.465 -0.023,-0.089 -0.074,-0.304 -0.113,-0.441 -0.012,-0.047 -0.028,-0.074 -0.047,-0.066 -0.031,0.007 -0.031,0.031 -0.02,0.066 0.008,0.039 0.016,0.066 0.02,0.113 0.008,0.102 -0.043,0.149 -0.168,0.192 -0.113,0.039 -0.215,0.066 -0.762,0.222 l -0.633,0.18 c -0.347,0.098 -0.633,0.176 -0.793,0.207 -0.097,0.016 -0.172,0.008 -0.214,-0.094 -0.024,-0.05 -0.051,-0.125 -0.067,-0.179 -0.012,-0.039 -0.027,-0.055 -0.047,-0.051 -0.023,0.008 -0.027,0.039 -0.015,0.078 0.066,0.238 0.14,0.461 0.168,0.559 0.023,0.082 0.078,0.312 0.117,0.457 0.015,0.046 0.031,0.07 0.058,0.062 0.016,-0.004 0.024,-0.023 0.012,-0.066 -0.016,-0.055 -0.019,-0.098 -0.023,-0.133 -0.004,-0.078 0.05,-0.117 0.152,-0.156 0.145,-0.059 0.43,-0.141 0.777,-0.239 z m -1.117,3.175 c 0.035,0.055 0.055,0.063 0.133,0.051 0.207,-0.031 0.426,-0.074 0.484,-0.09 0.055,-0.011 0.094,-0.027 0.09,-0.054 -0.004,-0.035 -0.039,-0.035 -0.066,-0.032 -0.051,0.008 -0.129,0.004 -0.196,-0.003 -0.285,-0.043 -0.418,-0.247 -0.449,-0.477 -0.047,-0.332 0.152,-0.527 0.352,-0.555 0.179,-0.027 0.359,0.004 0.644,0.278 l 0.156,0.148 c 0.375,0.363 0.657,0.465 0.957,0.422 0.407,-0.059 0.649,-0.441 0.575,-0.953 -0.036,-0.242 -0.094,-0.391 -0.133,-0.485 -0.012,-0.031 -0.028,-0.05 -0.051,-0.046 -0.051,0.007 -0.152,0.039 -0.441,0.078 -0.082,0.011 -0.11,0.027 -0.106,0.058 0.004,0.028 0.027,0.035 0.07,0.028 0.036,-0.004 0.153,-0.004 0.258,0.062 0.078,0.043 0.207,0.137 0.239,0.375 0.043,0.274 -0.094,0.465 -0.317,0.496 -0.172,0.024 -0.312,-0.043 -0.59,-0.316 l -0.093,-0.094 c -0.399,-0.398 -0.676,-0.519 -1.028,-0.469 -0.215,0.032 -0.461,0.149 -0.597,0.442 -0.09,0.199 -0.094,0.414 -0.067,0.609 0.031,0.215 0.082,0.375 0.176,0.527 z m 0.5,3.45 c -0.289,-0.02 -0.387,-0.071 -0.41,-0.145 -0.02,-0.066 -0.02,-0.137 -0.02,-0.195 0.004,-0.043 -0.004,-0.067 -0.027,-0.067 -0.031,0 -0.039,0.032 -0.039,0.086 -0.008,0.243 -0.004,0.391 -0.004,0.465 -0.004,0.031 -0.02,0.207 -0.027,0.403 -0.004,0.046 0,0.082 0.035,0.082 0.019,0 0.031,-0.02 0.031,-0.059 0.004,-0.047 0.008,-0.113 0.023,-0.168 0.036,-0.094 0.145,-0.105 0.469,-0.098 l 2.215,0.043 c 0.074,0.004 0.129,-0.008 0.129,-0.043 0,-0.043 -0.047,-0.078 -0.113,-0.144 -0.047,-0.043 -0.633,-0.633 -1.157,-1.199 -0.246,-0.262 -0.765,-0.786 -0.824,-0.852 v -0.02 l 1.676,0.098 c 0.23,0.012 0.301,0.047 0.336,0.137 0.019,0.058 0.016,0.148 0.012,0.199 0,0.047 0.011,0.063 0.031,0.063 0.031,0 0.039,-0.039 0.039,-0.098 0.008,-0.191 0.004,-0.371 0.004,-0.453 0.004,-0.039 0.019,-0.18 0.023,-0.363 0.004,-0.051 0,-0.086 -0.027,-0.09 -0.023,0 -0.035,0.023 -0.039,0.066 0,0.039 0,0.07 -0.016,0.113 -0.031,0.102 -0.113,0.129 -0.32,0.125 l -2.359,-0.039 c -0.082,-0.004 -0.118,0.008 -0.122,0.043 0,0.043 0.04,0.086 0.079,0.129 0.218,0.246 0.691,0.738 1.062,1.145 0.391,0.418 0.84,0.851 0.91,0.922 v 0.011 z m 0.691,3.191 c 0.555,0.125 0.657,0.148 0.77,0.184 0.121,0.031 0.176,0.074 0.172,0.203 0,0.031 -0.008,0.094 -0.02,0.144 -0.008,0.039 -0.008,0.063 0.02,0.067 0.023,0.008 0.039,-0.016 0.051,-0.071 0.019,-0.097 0.042,-0.207 0.062,-0.296 0.016,-0.098 0.031,-0.18 0.043,-0.231 0.027,-0.117 0.191,-0.844 0.211,-0.914 0.019,-0.066 0.043,-0.125 0.055,-0.152 0.007,-0.016 0.023,-0.036 0.027,-0.055 0.004,-0.016 -0.008,-0.023 -0.027,-0.027 -0.024,-0.008 -0.071,0 -0.243,-0.024 -0.039,-0.008 -0.199,-0.035 -0.246,-0.039 -0.019,0 -0.043,0.004 -0.047,0.027 -0.007,0.028 0.008,0.04 0.043,0.047 0.024,0.004 0.086,0.024 0.125,0.051 0.063,0.039 0.098,0.086 0.079,0.274 -0.008,0.062 -0.086,0.449 -0.102,0.523 -0.004,0.016 -0.02,0.023 -0.043,0.016 l -0.922,-0.207 c -0.027,-0.008 -0.043,-0.012 -0.035,-0.036 0.016,-0.078 0.109,-0.5 0.137,-0.582 0.027,-0.086 0.051,-0.136 0.093,-0.164 0.036,-0.019 0.059,-0.027 0.063,-0.047 0.004,-0.015 -0.004,-0.027 -0.023,-0.031 -0.024,-0.004 -0.086,-0.004 -0.274,-0.031 -0.074,-0.012 -0.223,-0.035 -0.25,-0.039 -0.027,-0.008 -0.066,-0.016 -0.074,0.016 -0.008,0.027 0.008,0.035 0.023,0.039 0.035,0.011 0.086,0.023 0.129,0.046 0.071,0.036 0.114,0.098 0.098,0.235 -0.008,0.07 -0.086,0.433 -0.106,0.523 -0.004,0.016 -0.019,0.016 -0.043,0.012 l -0.289,-0.066 c -0.121,-0.028 -0.457,-0.098 -0.562,-0.125 -0.25,-0.063 -0.293,-0.133 -0.211,-0.508 0.023,-0.094 0.059,-0.246 0.121,-0.332 0.066,-0.086 0.152,-0.114 0.309,-0.106 0.039,0.004 0.058,0 0.062,-0.027 0.008,-0.027 -0.023,-0.035 -0.058,-0.043 -0.086,-0.02 -0.34,-0.047 -0.415,-0.043 -0.101,0.004 -0.109,0.035 -0.14,0.176 -0.063,0.273 -0.098,0.476 -0.129,0.633 -0.031,0.16 -0.051,0.273 -0.074,0.382 -0.012,0.039 -0.032,0.121 -0.051,0.207 -0.02,0.082 -0.051,0.176 -0.066,0.25 -0.008,0.047 -0.004,0.075 0.019,0.082 0.02,0.004 0.035,-0.007 0.043,-0.05 0.012,-0.055 0.031,-0.098 0.047,-0.129 0.027,-0.071 0.113,-0.071 0.223,-0.063 0.156,0.016 0.445,0.082 0.781,0.157 z m -2.465,2.801 c 0.161,0.465 0.508,0.715 0.844,0.851 0.235,0.098 0.672,0.196 1.114,-0.011 0.332,-0.157 0.605,-0.426 0.82,-0.942 0.086,-0.215 0.125,-0.347 0.172,-0.515 0.035,-0.137 0.05,-0.262 0.082,-0.371 0.011,-0.04 0,-0.059 -0.02,-0.067 -0.027,-0.012 -0.074,-0.019 -0.195,-0.062 -0.117,-0.039 -0.305,-0.121 -0.379,-0.145 -0.055,-0.016 -0.086,-0.019 -0.098,0.008 -0.011,0.031 0.016,0.047 0.063,0.066 0.105,0.051 0.207,0.145 0.262,0.27 0.074,0.164 0.054,0.469 -0.075,0.789 -0.125,0.301 -0.281,0.465 -0.484,0.559 -0.336,0.156 -0.691,0.085 -1.027,-0.051 -0.821,-0.34 -0.969,-1.133 -0.778,-1.598 0.125,-0.309 0.239,-0.48 0.453,-0.551 0.09,-0.031 0.211,-0.035 0.278,-0.023 0.058,0.012 0.074,0.012 0.086,-0.016 0.011,-0.027 -0.008,-0.043 -0.035,-0.054 -0.043,-0.016 -0.36,-0.098 -0.493,-0.114 -0.066,-0.008 -0.09,0 -0.136,0.047 -0.114,0.117 -0.246,0.371 -0.34,0.59 -0.196,0.473 -0.254,0.914 -0.114,1.34 z m 0.278,2.383 c 0.492,0.289 0.582,0.339 0.68,0.406 0.105,0.07 0.14,0.137 0.117,0.219 -0.012,0.039 -0.035,0.082 -0.055,0.121 -0.02,0.031 -0.023,0.054 0,0.07 0.02,0.012 0.043,-0.008 0.074,-0.062 0.071,-0.122 0.18,-0.329 0.235,-0.422 0.047,-0.082 0.168,-0.266 0.242,-0.387 0.023,-0.043 0.031,-0.074 0.015,-0.086 -0.027,-0.016 -0.046,0 -0.062,0.035 -0.02,0.031 -0.039,0.055 -0.066,0.09 -0.071,0.078 -0.141,0.07 -0.254,0.012 -0.11,-0.055 -0.2,-0.11 -0.688,-0.399 l -0.566,-0.332 c -0.313,-0.183 -0.571,-0.336 -0.7,-0.429 -0.082,-0.063 -0.128,-0.118 -0.082,-0.223 0.02,-0.047 0.055,-0.121 0.082,-0.172 0.024,-0.035 0.024,-0.055 0.008,-0.066 -0.023,-0.012 -0.05,0.007 -0.07,0.043 -0.125,0.211 -0.234,0.421 -0.285,0.507 -0.047,0.075 -0.176,0.274 -0.25,0.403 -0.024,0.039 -0.027,0.07 -0.004,0.082 0.016,0.008 0.031,0 0.055,-0.035 0.027,-0.051 0.058,-0.086 0.082,-0.11 0.05,-0.058 0.117,-0.043 0.214,0 0.145,0.067 0.399,0.215 0.711,0.399 z m -1.934,2.203 c -0.031,-0.028 -0.039,-0.043 -0.031,-0.071 0.027,-0.078 0.09,-0.171 0.148,-0.246 0.094,-0.113 0.137,-0.144 0.215,-0.164 0.137,-0.039 0.34,-0.015 0.578,0.18 0.414,0.332 0.313,0.703 0.172,0.875 -0.058,0.07 -0.101,0.121 -0.136,0.145 -0.02,0.015 -0.036,0.011 -0.059,-0.008 z m -0.047,0.527 c 0.442,0.356 0.524,0.422 0.614,0.504 0.093,0.086 0.121,0.145 0.066,0.258 -0.016,0.027 -0.051,0.082 -0.082,0.121 -0.027,0.031 -0.035,0.055 -0.016,0.07 0.02,0.016 0.043,0 0.079,-0.043 0.125,-0.152 0.261,-0.343 0.312,-0.406 0.078,-0.098 0.266,-0.312 0.34,-0.402 0.148,-0.184 0.285,-0.395 0.305,-0.637 0.011,-0.129 -0.043,-0.363 -0.239,-0.52 -0.215,-0.175 -0.488,-0.242 -0.961,-0.14 -0.121,-0.524 -0.218,-0.934 -0.257,-1.25 -0.04,-0.301 0.035,-0.434 0.062,-0.485 0.02,-0.039 0.039,-0.066 0.059,-0.089 0.019,-0.024 0.019,-0.043 0.004,-0.055 -0.024,-0.02 -0.047,-0.004 -0.075,0.031 l -0.222,0.277 c -0.129,0.165 -0.176,0.25 -0.196,0.356 -0.035,0.18 0.016,0.402 0.11,0.746 0.066,0.246 0.152,0.539 0.168,0.609 0.004,0.032 -0.008,0.051 -0.024,0.071 l -0.195,0.258 c -0.012,0.015 -0.027,0.019 -0.043,0.003 l -0.043,-0.031 c -0.27,-0.219 -0.5,-0.402 -0.609,-0.515 -0.078,-0.079 -0.129,-0.149 -0.071,-0.243 0.032,-0.05 0.078,-0.117 0.106,-0.152 0.019,-0.023 0.019,-0.043 0.004,-0.055 -0.02,-0.015 -0.047,-0.004 -0.078,0.036 -0.133,0.167 -0.301,0.39 -0.336,0.433 -0.043,0.059 -0.2,0.234 -0.293,0.348 -0.032,0.039 -0.039,0.066 -0.02,0.082 0.016,0.012 0.035,0.008 0.063,-0.028 0.035,-0.043 0.07,-0.074 0.093,-0.093 0.059,-0.051 0.137,-0.012 0.231,0.043 0.133,0.086 0.363,0.269 0.633,0.484 z m -2.836,2.672 c 0.372,0.43 0.442,0.508 0.512,0.605 0.078,0.102 0.094,0.165 0.016,0.266 -0.016,0.027 -0.063,0.07 -0.102,0.106 -0.031,0.023 -0.043,0.046 -0.027,0.066 0.019,0.019 0.043,0.008 0.086,-0.027 0.148,-0.133 0.32,-0.293 0.406,-0.368 0.066,-0.058 0.254,-0.203 0.356,-0.289 0.042,-0.039 0.058,-0.058 0.039,-0.078 -0.016,-0.023 -0.036,-0.011 -0.067,0.012 -0.031,0.027 -0.051,0.039 -0.09,0.062 -0.086,0.051 -0.152,0.024 -0.242,-0.07 -0.082,-0.086 -0.152,-0.168 -0.523,-0.598 l -0.34,-0.398 c -0.352,-0.41 -0.418,-0.656 -0.379,-0.887 0.039,-0.215 0.16,-0.34 0.254,-0.422 0.125,-0.105 0.312,-0.199 0.527,-0.183 0.289,0.023 0.516,0.269 0.766,0.562 l 0.305,0.356 c 0.371,0.43 0.441,0.512 0.511,0.605 0.078,0.102 0.094,0.168 0.016,0.266 -0.016,0.027 -0.063,0.07 -0.094,0.098 -0.031,0.027 -0.043,0.046 -0.027,0.066 0.019,0.02 0.043,0.008 0.082,-0.023 0.144,-0.125 0.316,-0.29 0.32,-0.29 0.031,-0.031 0.219,-0.175 0.328,-0.269 0.043,-0.035 0.059,-0.059 0.039,-0.078 -0.015,-0.02 -0.039,-0.012 -0.074,0.019 -0.031,0.028 -0.047,0.039 -0.09,0.063 -0.086,0.051 -0.152,0.023 -0.242,-0.07 -0.082,-0.086 -0.152,-0.168 -0.523,-0.598 l -0.258,-0.305 c -0.274,-0.316 -0.59,-0.621 -1.004,-0.621 -0.352,0 -0.582,0.141 -0.766,0.301 -0.148,0.129 -0.414,0.371 -0.461,0.738 -0.035,0.254 0.039,0.555 0.391,0.969 z m -1.683,2.125 -0.488,0.27 C 33.41,67.723 33.324,67.75 33.23,67.707 33.172,67.68 33.133,67.649 33.109,67.629 33.09,67.606 33.074,67.598 33.051,67.61 c -0.02,0.011 -0.02,0.031 0.004,0.07 0.031,0.051 0.265,0.309 0.285,0.328 0.035,0.039 0.055,0.051 0.074,0.039 0.027,-0.015 0.039,-0.066 0.117,-0.121 0.086,-0.062 0.207,-0.141 0.313,-0.203 l 1.277,-0.75 c 0.102,-0.063 0.18,-0.094 0.231,-0.113 0.054,-0.02 0.086,-0.028 0.097,-0.035 0.024,-0.016 0.016,-0.036 -0.011,-0.086 -0.04,-0.067 -0.18,-0.282 -0.231,-0.368 -0.023,-0.031 -0.039,-0.046 -0.059,-0.035 -0.027,0.016 -0.023,0.035 0.004,0.086 l 0.016,0.039 c 0.043,0.086 0.008,0.227 -0.273,0.403 l -0.403,0.25 -0.777,-1.325 c -0.172,-0.296 -0.324,-0.55 -0.387,-0.699 -0.047,-0.097 -0.066,-0.18 0.024,-0.25 0.039,-0.031 0.109,-0.082 0.156,-0.109 0.035,-0.02 0.043,-0.039 0.035,-0.055 -0.012,-0.023 -0.043,-0.019 -0.078,0.004 -0.215,0.125 -0.414,0.254 -0.504,0.305 -0.074,0.043 -0.281,0.156 -0.41,0.23 -0.043,0.024 -0.059,0.047 -0.047,0.07 0.012,0.016 0.027,0.02 0.066,-0.003 0.051,-0.032 0.09,-0.047 0.125,-0.055 0.071,-0.027 0.133,0.031 0.2,0.121 0.093,0.125 0.242,0.383 0.417,0.68 z M 14.555,64.633 c -0.063,-0.008 -0.082,0 -0.125,0.07 -0.102,0.18 -0.207,0.379 -0.231,0.434 -0.027,0.051 -0.039,0.09 -0.011,0.106 0.027,0.015 0.046,-0.012 0.062,-0.036 0.027,-0.043 0.078,-0.101 0.129,-0.148 0.211,-0.195 0.453,-0.168 0.652,-0.051 0.289,0.172 0.313,0.449 0.211,0.621 -0.094,0.156 -0.226,0.278 -0.621,0.328 l -0.215,0.028 c -0.515,0.066 -0.773,0.218 -0.929,0.48 -0.207,0.356 -0.063,0.785 0.382,1.051 0.211,0.121 0.364,0.172 0.461,0.195 0.035,0.012 0.055,0.012 0.071,-0.011 0.023,-0.04 0.066,-0.141 0.214,-0.391 0.043,-0.07 0.047,-0.106 0.024,-0.117 -0.024,-0.016 -0.047,0 -0.07,0.035 -0.016,0.031 -0.09,0.121 -0.207,0.164 -0.086,0.031 -0.235,0.074 -0.446,-0.051 -0.238,-0.14 -0.301,-0.363 -0.187,-0.558 0.09,-0.145 0.23,-0.215 0.617,-0.258 l 0.129,-0.016 c 0.562,-0.062 0.832,-0.203 1.015,-0.508 0.11,-0.187 0.172,-0.449 0.028,-0.738 -0.098,-0.199 -0.262,-0.336 -0.43,-0.437 -0.187,-0.11 -0.348,-0.172 -0.523,-0.192 z m -1.942,-0.027 c 0.016,0.012 0.012,0.023 0,0.031 l -0.836,0.512 c -0.015,0.008 -0.027,0.023 -0.039,0.015 -0.008,-0.007 0,-0.027 0.004,-0.043 l 0.305,-0.933 c 0.008,-0.012 0.019,-0.02 0.031,-0.008 z m -0.48,-0.621 c -0.012,-0.012 -0.016,-0.024 -0.008,-0.043 l 0.176,-0.543 c 0.031,-0.098 0.07,-0.18 0.101,-0.215 0.039,-0.055 0.098,-0.07 0.188,0.004 l 0.043,0.035 c 0.035,0.027 0.051,0.027 0.062,0.012 0.02,-0.024 0.008,-0.047 -0.027,-0.071 -0.09,-0.074 -0.223,-0.168 -0.316,-0.238 -0.032,-0.027 -0.184,-0.164 -0.336,-0.285 -0.039,-0.031 -0.063,-0.039 -0.078,-0.016 -0.016,0.02 -0.008,0.035 0.015,0.051 0.024,0.024 0.067,0.059 0.086,0.078 0.121,0.125 0.098,0.27 0.039,0.465 l -0.73,2.418 c -0.036,0.113 -0.043,0.16 -0.012,0.184 0.023,0.019 0.062,0.007 0.144,-0.036 0.2,-0.105 1.622,-0.925 2.161,-1.218 0.324,-0.176 0.441,-0.149 0.511,-0.114 0.051,0.024 0.098,0.059 0.133,0.086 0.024,0.02 0.039,0.028 0.059,0.008 0.015,-0.023 -0.004,-0.051 -0.114,-0.137 -0.105,-0.085 -0.32,-0.253 -0.558,-0.437 -0.055,-0.039 -0.086,-0.066 -0.106,-0.047 -0.011,0.02 -0.007,0.035 0.02,0.063 0.016,0.019 0.016,0.062 -0.027,0.086 l -0.727,0.433 c -0.016,0.012 -0.031,0.008 -0.047,-0.004 z M 9.293,63.528 8.922,63.11 C 8.781,62.95 8.73,62.871 8.754,62.774 8.77,62.707 8.789,62.664 8.805,62.637 8.82,62.61 8.824,62.594 8.809,62.575 8.789,62.559 8.773,62.563 8.742,62.594 8.699,62.633 8.5,62.918 8.484,62.946 c -0.027,0.043 -0.035,0.066 -0.023,0.082 0.023,0.019 0.074,0.023 0.144,0.086 0.083,0.07 0.188,0.168 0.27,0.257 l 1.02,1.079 c 0.082,0.085 0.128,0.152 0.16,0.199 0.031,0.047 0.047,0.074 0.058,0.086 0.016,0.019 0.035,0.008 0.078,-0.032 0.055,-0.054 0.235,-0.238 0.305,-0.308 0.027,-0.027 0.035,-0.047 0.024,-0.063 -0.024,-0.023 -0.043,-0.015 -0.086,0.02 l -0.032,0.027 C 10.328,64.438 10.18,64.438 9.949,64.2 L 9.617,63.868 10.73,62.813 c 0.25,-0.235 0.465,-0.438 0.594,-0.535 0.086,-0.063 0.16,-0.106 0.246,-0.032 0.043,0.032 0.106,0.086 0.145,0.125 0.027,0.032 0.047,0.039 0.062,0.024 0.02,-0.016 0.004,-0.047 -0.023,-0.074 -0.168,-0.18 -0.34,-0.344 -0.41,-0.422 -0.059,-0.063 -0.211,-0.242 -0.317,-0.348 -0.031,-0.035 -0.058,-0.047 -0.078,-0.031 -0.011,0.015 -0.011,0.031 0.02,0.066 0.039,0.039 0.062,0.078 0.082,0.106 0.039,0.066 -0.004,0.14 -0.074,0.222 -0.102,0.121 -0.317,0.325 -0.567,0.559 z m -0.918,-2.52 c -0.461,0.336 -0.547,0.399 -0.648,0.461 -0.106,0.07 -0.18,0.078 -0.243,0.02 C 7.449,61.465 7.418,61.426 7.395,61.391 7.371,61.36 7.352,61.348 7.328,61.364 c -0.019,0.011 -0.008,0.043 0.027,0.089 0.083,0.118 0.231,0.301 0.297,0.387 0.055,0.074 0.176,0.262 0.258,0.375 0.031,0.039 0.055,0.059 0.07,0.047 C 8.008,62.243 8,62.223 7.977,62.192 7.953,62.16 7.941,62.133 7.918,62.094 7.875,62 7.91,61.938 8.012,61.856 8.102,61.782 8.188,61.719 8.645,61.383 L 9.18,60.996 c 0.293,-0.214 0.531,-0.39 0.668,-0.472 0.09,-0.051 0.16,-0.071 0.238,0.011 0.035,0.04 0.09,0.102 0.125,0.149 0.023,0.031 0.043,0.039 0.059,0.027 0.019,-0.015 0.011,-0.043 -0.012,-0.078 C 10.113,60.434 9.965,60.25 9.906,60.168 9.855,60.098 9.723,59.903 9.637,59.782 9.605,59.743 9.582,59.727 9.562,59.743 c -0.015,0.011 -0.015,0.031 0.012,0.066 0.031,0.047 0.051,0.086 0.067,0.117 0.031,0.07 -0.008,0.125 -0.09,0.199 -0.113,0.106 -0.352,0.282 -0.645,0.496 z m 0.082,-3.09 c -0.051,-0.039 -0.07,-0.039 -0.145,0 -0.179,0.102 -0.367,0.227 -0.417,0.258 -0.047,0.031 -0.075,0.063 -0.063,0.09 0.02,0.027 0.051,0.016 0.074,0 0.043,-0.023 0.117,-0.051 0.184,-0.066 0.281,-0.063 0.48,0.078 0.594,0.281 0.164,0.293 0.046,0.547 -0.125,0.644 -0.161,0.09 -0.336,0.129 -0.7,-0.023 L 7.656,59.02 C 7.172,58.821 6.875,58.825 6.613,58.977 6.254,59.18 6.168,59.625 6.422,60.075 c 0.121,0.214 0.23,0.332 0.301,0.402 0.023,0.027 0.043,0.035 0.066,0.023 0.043,-0.023 0.129,-0.09 0.383,-0.234 0.07,-0.039 0.094,-0.066 0.078,-0.09 -0.012,-0.023 -0.039,-0.023 -0.078,0 C 7.145,60.192 7.031,60.235 6.91,60.215 6.82,60.2 6.668,60.16 6.551,59.95 6.414,59.707 6.469,59.481 6.664,59.371 6.812,59.285 6.969,59.297 7.328,59.45 l 0.121,0.054 c 0.52,0.223 0.821,0.239 1.133,0.063 C 8.77,59.457 8.953,59.258 8.973,58.938 8.984,58.715 8.91,58.516 8.812,58.344 8.707,58.157 8.602,58.024 8.457,57.918 Z M 6.258,56.364 c 0.035,-0.016 0.054,-0.016 0.074,0.007 0.051,0.063 0.102,0.164 0.137,0.25 0.054,0.141 0.058,0.192 0.035,0.27 -0.035,0.137 -0.156,0.301 -0.442,0.41 C 5.566,57.493 5.297,57.219 5.219,57.012 5.184,56.926 5.164,56.864 5.16,56.825 5.156,56.797 5.168,56.785 5.195,56.774 Z M 5.82,56.059 C 5.293,56.262 5.195,56.301 5.078,56.336 4.957,56.375 4.891,56.368 4.824,56.262 4.805,56.239 4.777,56.18 4.758,56.133 4.746,56.094 4.73,56.075 4.707,56.086 4.68,56.094 4.684,56.121 4.703,56.172 c 0.07,0.188 0.168,0.403 0.195,0.477 0.047,0.117 0.137,0.386 0.18,0.496 0.086,0.219 0.195,0.445 0.399,0.582 0.105,0.074 0.335,0.144 0.57,0.051 0.258,-0.098 0.453,-0.297 0.601,-0.762 0.512,0.16 0.914,0.281 1.211,0.402 0.278,0.117 0.36,0.25 0.391,0.301 0.02,0.035 0.035,0.066 0.047,0.094 0.012,0.027 0.027,0.035 0.043,0.031 0.027,-0.012 0.027,-0.039 0.012,-0.082 L 8.223,57.43 C 8.145,57.235 8.094,57.157 8.012,57.082 7.875,56.965 7.656,56.895 7.312,56.805 7.066,56.739 6.77,56.668 6.699,56.645 6.672,56.637 6.66,56.618 6.648,56.59 L 6.523,56.289 C 6.52,56.274 6.52,56.262 6.543,56.25 L 6.59,56.235 C 6.918,56.11 7.191,56 7.344,55.961 c 0.105,-0.027 0.191,-0.035 0.246,0.063 0.027,0.051 0.062,0.125 0.078,0.164 0.012,0.031 0.027,0.039 0.047,0.031 C 7.738,56.211 7.738,56.184 7.723,56.137 7.645,55.934 7.531,55.68 7.512,55.629 7.488,55.563 7.414,55.34 7.359,55.2 7.34,55.153 7.32,55.133 7.297,55.141 7.281,55.149 7.273,55.168 7.289,55.207 7.312,55.262 7.32,55.305 7.324,55.34 7.336,55.414 7.27,55.461 7.172,55.516 7.031,55.59 6.758,55.696 6.438,55.821 Z M 5.129,53.364 C 4.574,53.485 4.469,53.508 4.352,53.524 4.227,53.543 4.16,53.528 4.109,53.41 4.094,53.383 4.078,53.325 4.066,53.274 4.059,53.231 4.047,53.211 4.02,53.215 c -0.024,0.008 -0.028,0.035 -0.012,0.09 0.019,0.098 0.047,0.203 0.066,0.293 0.024,0.098 0.043,0.18 0.055,0.23 0.027,0.118 0.183,0.844 0.195,0.915 0.008,0.074 0.012,0.132 0.012,0.164 0,0.019 -0.008,0.043 -0.004,0.062 0.004,0.016 0.02,0.016 0.039,0.012 C 4.395,54.977 4.438,54.95 4.602,54.903 4.637,54.891 4.797,54.848 4.84,54.832 4.855,54.825 4.875,54.813 4.871,54.785 4.867,54.762 4.848,54.758 4.812,54.766 4.789,54.77 4.727,54.782 4.676,54.77 4.605,54.758 4.555,54.731 4.492,54.555 4.473,54.493 4.383,54.11 4.367,54.039 4.363,54.02 4.371,54.012 4.398,54.004 l 0.926,-0.199 c 0.024,-0.004 0.039,-0.004 0.043,0.02 0.02,0.078 0.11,0.5 0.121,0.585 C 5.5,54.5 5.5,54.555 5.469,54.598 5.445,54.629 5.43,54.649 5.434,54.664 5.438,54.68 5.449,54.688 5.469,54.684 5.492,54.68 5.547,54.653 5.73,54.598 5.801,54.578 5.945,54.535 5.973,54.532 6,54.524 6.043,54.516 6.035,54.485 6.027,54.457 6.012,54.453 5.992,54.457 5.957,54.461 5.91,54.473 5.859,54.469 5.781,54.469 5.719,54.43 5.672,54.297 5.652,54.231 5.57,53.868 5.551,53.782 5.547,53.762 5.562,53.754 5.582,53.75 l 0.289,-0.062 c 0.125,-0.028 0.461,-0.102 0.567,-0.121 0.253,-0.047 0.32,0 0.402,0.371 0.019,0.097 0.055,0.25 0.031,0.355 -0.023,0.102 -0.094,0.164 -0.238,0.223 -0.039,0.016 -0.051,0.027 -0.047,0.051 0.008,0.031 0.039,0.023 0.074,0.015 0.082,-0.019 0.328,-0.101 0.395,-0.136 0.09,-0.043 0.082,-0.078 0.054,-0.215 C 7.051,53.953 7,53.754 6.961,53.598 6.922,53.442 6.895,53.332 6.867,53.219 6.859,53.18 6.844,53.102 6.828,53.012 6.809,52.926 6.797,52.832 6.781,52.758 6.77,52.711 6.754,52.688 6.73,52.692 c -0.019,0.004 -0.027,0.023 -0.019,0.066 0.012,0.055 0.016,0.098 0.016,0.133 0,0.078 -0.079,0.113 -0.18,0.152 -0.149,0.051 -0.438,0.114 -0.774,0.184 z M 4.07,50.055 C 3.859,49.985 3.816,49.922 3.77,49.789 3.75,49.735 3.746,49.676 3.746,49.645 3.742,49.61 3.73,49.602 3.707,49.602 3.68,49.606 3.676,49.645 3.68,49.703 c 0.015,0.196 0.039,0.411 0.047,0.54 0.007,0.093 0.007,0.273 0.019,0.46 0.004,0.043 0.012,0.086 0.039,0.082 0.024,0 0.031,-0.023 0.027,-0.058 0,-0.059 0,-0.113 0.02,-0.145 0.016,-0.027 0.043,-0.043 0.074,-0.043 0.051,-0.004 0.156,0.024 0.293,0.067 l 1.739,0.535 v 0.012 C 5.535,51.34 4.363,51.903 4.125,52.008 4.078,52.032 4.023,52.047 3.988,52.051 3.957,52.051 3.926,52.039 3.914,52.008 3.898,51.961 3.891,51.907 3.887,51.86 3.883,51.825 3.879,51.797 3.852,51.797 c -0.028,0 -0.036,0.035 -0.032,0.106 0.012,0.187 0.035,0.343 0.039,0.39 0.004,0.067 0.004,0.242 0.008,0.356 0.004,0.047 0.016,0.074 0.039,0.074 0.028,0 0.035,-0.023 0.032,-0.063 0,-0.035 -0.008,-0.113 0.031,-0.183 C 4,52.426 4.062,52.364 4.293,52.25 4.637,52.082 4.832,51.969 5.277,51.735 5.805,51.461 6.203,51.262 6.383,51.168 6.594,51.055 6.652,51.032 6.648,50.977 6.645,50.93 6.594,50.91 6.414,50.852 Z m 0.801,-1.68 C 4.305,48.34 4.199,48.336 4.082,48.321 3.953,48.305 3.895,48.262 3.879,48.18 3.871,48.137 3.871,48.09 3.875,48.043 c 0,-0.035 -0.008,-0.058 -0.035,-0.062 -0.024,0 -0.031,0.027 -0.035,0.09 -0.012,0.14 -0.012,0.375 -0.02,0.484 -0.008,0.094 -0.031,0.313 -0.043,0.457 0,0.047 0.004,0.078 0.028,0.078 0.031,0.004 0.039,-0.019 0.042,-0.058 0,-0.036 0.008,-0.067 0.016,-0.11 0.027,-0.101 0.09,-0.125 0.223,-0.125 0.117,0 0.222,0.008 0.793,0.043 L 5.5,48.883 c 0.363,0.02 0.656,0.039 0.816,0.067 0.098,0.015 0.164,0.046 0.172,0.16 0.004,0.05 0.008,0.133 0.004,0.191 -0.004,0.039 0.008,0.059 0.028,0.063 0.023,0 0.039,-0.032 0.039,-0.071 0.015,-0.246 0.019,-0.48 0.027,-0.582 C 6.59,48.625 6.617,48.391 6.625,48.239 6.629,48.192 6.621,48.164 6.594,48.164 6.574,48.16 6.562,48.176 6.559,48.223 6.555,48.278 6.547,48.321 6.535,48.356 6.516,48.43 6.453,48.446 6.344,48.45 6.184,48.461 5.891,48.442 5.527,48.418 Z m 1.805,-3.343 c 0.281,0.07 0.367,0.14 0.379,0.218 0.007,0.067 -0.004,0.137 -0.016,0.196 -0.012,0.039 -0.008,0.062 0.012,0.066 C 7.082,45.52 7.098,45.489 7.105,45.438 7.16,45.2 7.18,45.051 7.195,44.981 7.203,44.95 7.25,44.782 7.293,44.59 7.305,44.543 7.309,44.508 7.273,44.5 7.254,44.496 7.238,44.516 7.23,44.555 7.223,44.602 7.203,44.664 7.18,44.715 7.129,44.801 7.02,44.793 6.699,44.727 L 4.531,44.285 C 4.457,44.27 4.406,44.27 4.395,44.305 c -0.008,0.043 0.031,0.086 0.085,0.16 0.04,0.055 0.512,0.742 0.922,1.391 0.196,0.304 0.614,0.91 0.66,0.988 L 6.055,46.86 4.426,46.465 C 4.203,46.41 4.141,46.364 4.125,46.266 4.113,46.207 4.133,46.121 4.145,46.071 4.152,46.024 4.145,46.008 4.125,46.004 4.094,45.996 4.082,46.035 4.07,46.09 4.027,46.282 4,46.457 3.984,46.535 c -0.007,0.04 -0.05,0.176 -0.089,0.356 -0.012,0.047 -0.016,0.086 0.015,0.09 0.02,0.008 0.035,-0.012 0.047,-0.059 0.008,-0.035 0.012,-0.062 0.035,-0.105 0.051,-0.098 0.133,-0.11 0.34,-0.067 l 2.313,0.465 C 6.727,47.235 6.762,47.227 6.77,47.192 6.777,47.153 6.746,47.098 6.715,47.051 6.547,46.774 6.172,46.2 5.879,45.739 5.57,45.254 5.203,44.746 5.148,44.668 V 44.657 Z M 6.82,41.211 C 6.297,40.989 6.199,40.946 6.094,40.891 5.98,40.836 5.938,40.785 5.961,40.66 5.965,40.629 5.988,40.571 6.008,40.524 6.023,40.485 6.023,40.461 6,40.45 5.977,40.442 5.961,40.461 5.938,40.512 5.859,40.696 5.777,40.914 5.734,41.02 c -0.035,0.082 -0.14,0.293 -0.191,0.418 -0.023,0.051 -0.027,0.078 -0.004,0.09 0.023,0.007 0.043,-0.008 0.055,-0.043 0.015,-0.039 0.031,-0.059 0.054,-0.094 0.055,-0.086 0.125,-0.09 0.25,-0.043 0.114,0.039 0.207,0.078 0.731,0.305 l 0.48,0.203 c 0.5,0.215 0.668,0.406 0.731,0.633 C 7.902,42.7 7.848,42.86 7.797,42.977 7.734,43.129 7.605,43.293 7.41,43.371 7.141,43.481 6.824,43.36 6.473,43.207 L 6.043,43.024 C 5.52,42.797 5.422,42.758 5.316,42.703 5.203,42.645 5.16,42.594 5.184,42.473 5.188,42.442 5.211,42.383 5.227,42.344 5.242,42.305 5.242,42.282 5.219,42.274 5.195,42.262 5.18,42.282 5.156,42.332 5.082,42.508 5,42.727 5,42.731 c -0.02,0.043 -0.121,0.254 -0.18,0.387 -0.019,0.046 -0.023,0.074 0,0.085 0.024,0.012 0.039,-0.007 0.059,-0.046 0.016,-0.039 0.027,-0.059 0.051,-0.098 0.058,-0.086 0.129,-0.086 0.254,-0.043 0.109,0.039 0.207,0.082 0.73,0.305 l 0.367,0.16 c 0.383,0.164 0.805,0.297 1.176,0.117 C 7.77,43.442 7.914,43.211 8.012,42.989 8.086,42.805 8.219,42.473 8.102,42.121 8.016,41.879 7.82,41.641 7.32,41.426 l -0.5,-0.215" /><text
         id="text20"
         style="font-variant:normal;font-weight:bold;font-size:14px;font-family:'Liberation Sans';-inkscape-font-specification:LiberationSans-Bold;writing-mode:lr-tb;fill:#000000;fill-opacity:1;fill-rule:nonzero;stroke:none"
         transform="matrix(1,0,0,-1,79.440326,7.147553)"><tspan
           id="tspan18"
           y="0"
           x="0 3.878 12.418 20.202 24.864 28.742001 33.403999 41.944 46.647999 54.431999 58.310001 66.849998 71.512001 75.389999 85.498001 93.281998 101.864 107.31 115.85 119.728 128.26801 132.92999 141.47 146.916 159.362 167.146 171.808 175.686 183.47">Institute of Neuroinformatics</tspan></text>
<path
         id="path22"
         style="fill:#231f20;fill-opacity:1;fill-rule:nonzero;stroke:none"
         d="m 278.234,42.891 c -0.812,-4.016 -3.914,-4.223 -4.531,-4.223 -1.75,0 -2.797,1.012 -2.797,2.707 0,0.383 0.059,0.91 0.156,1.438 l 1.918,9.562 0.012,0.035 h -2.269 l -1.957,-9.804 -0.024,-0.141 c -0.086,-0.441 -0.164,-0.863 -0.164,-1.406 0,-2.637 1.731,-4.402 4.309,-4.402 1.886,0 3.402,0.617 4.508,1.839 l -0.293,-1.613 -0.008,-0.039 h 2.234 l 3.09,15.531 0.004,0.035 h -2.297 l -1.891,-9.519" /><path
         id="path24"
         style="fill:#231f20;fill-opacity:1;fill-rule:nonzero;stroke:none"
         d="m 293.688,52.598 c -1.754,0 -3.305,-0.715 -4.282,-1.973 l 0.352,1.75 0.004,0.035 h -2.235 l -3.086,-15.527 -0.007,-0.039 h 2.269 l 1.891,9.524 c 0.48,2.445 2.359,4.218 4.465,4.218 0.902,0 1.613,-0.355 2.175,-1.086 l 0.02,-0.031 1.84,1.649 -0.016,0.027 c -0.851,0.98 -1.961,1.453 -3.39,1.453" /><path
         id="path26"
         style="fill:#231f20;fill-opacity:1;fill-rule:nonzero;stroke:none"
         d="m 256.203,50.438 -0.008,-0.039 h 7.735 l -10.297,-11.645 -0.008,-0.008 -0.387,-1.902 h 10.977 l 0.39,2.016 h -8.207 l 10.332,11.644 0.004,0.004 0.391,1.902 h -10.539 l -0.383,-1.972" /><path
         id="path28"
         style="fill:#231f20;fill-opacity:1;fill-rule:nonzero;stroke:none"
         d="m 297.383,36.883 -0.008,-0.039 h 2.27 l 3.093,15.566 h -2.23 l -3.125,-15.527" /><path
         id="path30"
         style="fill:#231f20;fill-opacity:1;fill-rule:nonzero;stroke:none"
         d="m 328.125,52.598 c -1.867,0 -3.32,-0.57 -4.441,-1.75 l 1.761,8.672 h -2.269 l -4.555,-22.68 h 2.266 l 1.89,9.528 c 0.813,4.015 3.942,4.218 4.559,4.218 1.734,0 2.769,-1.011 2.769,-2.703 0,-0.387 -0.058,-0.91 -0.156,-1.441 l -1.926,-9.602 h 2.266 l 1.988,9.809 c 0.098,0.523 0.161,0.965 0.161,1.547 0,2.636 -1.735,4.402 -4.313,4.402" /><path
         id="path32"
         style="fill:#231f20;fill-opacity:1;fill-rule:nonzero;stroke:none"
         d="m 313.094,52.598 c -4.114,0 -7,-2.895 -7.922,-7.949 -0.168,-0.844 -0.223,-1.789 -0.223,-2.395 0,-3.453 2.094,-5.597 5.469,-5.597 1.965,0 3.754,0.753 5.18,2.175 l 0.023,0.024 -1.309,1.594 -0.023,0.027 -0.023,-0.024 c -1.204,-1.265 -2.282,-1.785 -3.723,-1.785 -1.609,0 -3.328,0.957 -3.328,3.649 0,0.843 0.097,1.539 0.246,2.32 0.246,1.32 0.793,3.164 2.008,4.449 0.965,0.996 2.109,1.5 3.406,1.5 1.352,0 2.195,-0.48 3.02,-1.715 l 0.019,-0.031 1.664,1.406 0.024,0.02 -0.016,0.027 c -1.137,1.594 -2.524,2.305 -4.492,2.305" /><path
         id="path34"
         style="fill:#231f20;fill-opacity:1;fill-rule:nonzero;stroke:none"
         d="m 301.348,56.684 h 2.273 l 0.563,2.836 h -2.262 l -0.574,-2.836" /><path
         id="path36"
         style="fill:#231f20;fill-opacity:1;fill-rule:nonzero;stroke:none"
         d="m 279.301,56.684 h 2.273 l 0.563,2.836 h -2.262 l -0.574,-2.836" /><path
         id="path38"
         style="fill:#231f20;fill-opacity:1;fill-rule:nonzero;stroke:none"
         d="m 273.254,56.684 h 2.273 l 0.563,2.836 h -2.262 l -0.574,-2.836" /><path
         id="path40"
         style="fill:#231f20;fill-opacity:1;fill-rule:nonzero;stroke:none"
         d="m 242.961,50.731 h -5.102 l 1.793,8.789 h -43.363 l -4.555,-22.68 h 17.289 l 1.133,5.668 h -10.207 l 0.617,3.121 h 10.207 l 1.028,5.102 H 201.59 l 0.621,3.117 h 16.18 L 214.973,36.84 h 7.089 l 3.415,17.008 h 5.949 L 228.012,36.84 h 7.086 l 1.75,8.789 h 5.101 l -1.75,-8.789 h 7.086 l 4.555,22.68 h -7.086 l -1.793,-8.789" /><g
         transform="translate(0,73.93)"
         id="g42"><path
           id="path44"
           style="fill:none;stroke:#000000;stroke-width:0.80000001;stroke-linecap:butt;stroke-linejoin:miter;stroke-miterlimit:4;stroke-dasharray:none;stroke-opacity:1"
           d="M 174.949,-4.555 V -50.301" /></g></g></g></svg>