<?xml version="1.0" encoding="utf-8" standalone="no"?>
<!DOCTYPE svg PUBLIC "-//W3C//DTD SVG 1.1//EN"
  "http://www.w3.org/Graphics/SVG/1.1/DTD/svg11.dtd">
<!-- Created with matplotlib (https://matplotlib.org/) -->
<svg height="205.5155pt" version="1.1" viewBox="0 0 703.326825 205.5155" width="703.326825pt" xmlns="http://www.w3.org/2000/svg" xmlns:xlink="http://www.w3.org/1999/xlink">
 <defs>
  <style type="text/css">
*{stroke-linecap:butt;stroke-linejoin:round;}
  </style>
 </defs>
 <g id="figure_1">
  <g id="patch_1">
   <path d="M 0 205.5155 
L 703.326825 205.5155 
L 703.326825 0 
L 0 0 
z
" style="fill:#ffffff;"/>
  </g>
  <g id="axes_1">
   <g id="patch_2">
    <path d="M 48.8975 164.088 
L 272.52 164.088 
L 272.52 16.008 
L 48.8975 16.008 
z
" style="fill:#ffffff;"/>
   </g>
   <g id="matplotlib.axis_1">
    <g id="xtick_1">
     <g id="line2d_1">
      <path clip-path="url(#p675ba01942)" d="M 48.8975 164.088 
L 48.8975 16.008 
" style="fill:none;stroke:#cccccc;stroke-linecap:round;stroke-width:0.8;"/>
     </g>
     <g id="text_1">
      <!-- 0M -->
      <defs>
       <path d="M 31.78125 66.40625 
Q 24.171875 66.40625 20.328125 58.90625 
Q 16.5 51.421875 16.5 36.375 
Q 16.5 21.390625 20.328125 13.890625 
Q 24.171875 6.390625 31.78125 6.390625 
Q 39.453125 6.390625 43.28125 13.890625 
Q 47.125 21.390625 47.125 36.375 
Q 47.125 51.421875 43.28125 58.90625 
Q 39.453125 66.40625 31.78125 66.40625 
z
M 31.78125 74.21875 
Q 44.046875 74.21875 50.515625 64.515625 
Q 56.984375 54.828125 56.984375 36.375 
Q 56.984375 17.96875 50.515625 8.265625 
Q 44.046875 -1.421875 31.78125 -1.421875 
Q 19.53125 -1.421875 13.0625 8.265625 
Q 6.59375 17.96875 6.59375 36.375 
Q 6.59375 54.828125 13.0625 64.515625 
Q 19.53125 74.21875 31.78125 74.21875 
z
" id="DejaVuSans-48"/>
       <path d="M 9.8125 72.90625 
L 24.515625 72.90625 
L 43.109375 23.296875 
L 61.8125 72.90625 
L 76.515625 72.90625 
L 76.515625 0 
L 66.890625 0 
L 66.890625 64.015625 
L 48.09375 14.015625 
L 38.1875 14.015625 
L 19.390625 64.015625 
L 19.390625 0 
L 9.8125 0 
z
" id="DejaVuSans-77"/>
      </defs>
      <g style="fill:#262626;" transform="translate(39.903125 180.206125)scale(0.12 -0.12)">
       <use xlink:href="#DejaVuSans-48"/>
       <use x="63.623047" xlink:href="#DejaVuSans-77"/>
      </g>
     </g>
    </g>
    <g id="xtick_2">
     <g id="line2d_2">
      <path clip-path="url(#p675ba01942)" d="M 97.380171 164.088 
L 97.380171 16.008 
" style="fill:none;stroke:#cccccc;stroke-linecap:round;stroke-width:0.8;"/>
     </g>
     <g id="text_2">
      <!-- 10M -->
      <defs>
       <path d="M 12.40625 8.296875 
L 28.515625 8.296875 
L 28.515625 63.921875 
L 10.984375 60.40625 
L 10.984375 69.390625 
L 28.421875 72.90625 
L 38.28125 72.90625 
L 38.28125 8.296875 
L 54.390625 8.296875 
L 54.390625 0 
L 12.40625 0 
z
" id="DejaVuSans-49"/>
      </defs>
      <g style="fill:#262626;" transform="translate(84.568296 180.206125)scale(0.12 -0.12)">
       <use xlink:href="#DejaVuSans-49"/>
       <use x="63.623047" xlink:href="#DejaVuSans-48"/>
       <use x="127.246094" xlink:href="#DejaVuSans-77"/>
      </g>
     </g>
    </g>
    <g id="xtick_3">
     <g id="line2d_3">
      <path clip-path="url(#p675ba01942)" d="M 145.862842 164.088 
L 145.862842 16.008 
" style="fill:none;stroke:#cccccc;stroke-linecap:round;stroke-width:0.8;"/>
     </g>
     <g id="text_3">
      <!-- 20M -->
      <defs>
       <path d="M 19.1875 8.296875 
L 53.609375 8.296875 
L 53.609375 0 
L 7.328125 0 
L 7.328125 8.296875 
Q 12.9375 14.109375 22.625 23.890625 
Q 32.328125 33.6875 34.8125 36.53125 
Q 39.546875 41.84375 41.421875 45.53125 
Q 43.3125 49.21875 43.3125 52.78125 
Q 43.3125 58.59375 39.234375 62.25 
Q 35.15625 65.921875 28.609375 65.921875 
Q 23.96875 65.921875 18.8125 64.3125 
Q 13.671875 62.703125 7.8125 59.421875 
L 7.8125 69.390625 
Q 13.765625 71.78125 18.9375 73 
Q 24.125 74.21875 28.421875 74.21875 
Q 39.75 74.21875 46.484375 68.546875 
Q 53.21875 62.890625 53.21875 53.421875 
Q 53.21875 48.921875 51.53125 44.890625 
Q 49.859375 40.875 45.40625 35.40625 
Q 44.1875 33.984375 37.640625 27.21875 
Q 31.109375 20.453125 19.1875 8.296875 
z
" id="DejaVuSans-50"/>
      </defs>
      <g style="fill:#262626;" transform="translate(133.050967 180.206125)scale(0.12 -0.12)">
       <use xlink:href="#DejaVuSans-50"/>
       <use x="63.623047" xlink:href="#DejaVuSans-48"/>
       <use x="127.246094" xlink:href="#DejaVuSans-77"/>
      </g>
     </g>
    </g>
    <g id="xtick_4">
     <g id="line2d_4">
      <path clip-path="url(#p675ba01942)" d="M 194.345513 164.088 
L 194.345513 16.008 
" style="fill:none;stroke:#cccccc;stroke-linecap:round;stroke-width:0.8;"/>
     </g>
     <g id="text_4">
      <!-- 30M -->
      <defs>
       <path d="M 40.578125 39.3125 
Q 47.65625 37.796875 51.625 33 
Q 55.609375 28.21875 55.609375 21.1875 
Q 55.609375 10.40625 48.1875 4.484375 
Q 40.765625 -1.421875 27.09375 -1.421875 
Q 22.515625 -1.421875 17.65625 -0.515625 
Q 12.796875 0.390625 7.625 2.203125 
L 7.625 11.71875 
Q 11.71875 9.328125 16.59375 8.109375 
Q 21.484375 6.890625 26.8125 6.890625 
Q 36.078125 6.890625 40.9375 10.546875 
Q 45.796875 14.203125 45.796875 21.1875 
Q 45.796875 27.640625 41.28125 31.265625 
Q 36.765625 34.90625 28.71875 34.90625 
L 20.21875 34.90625 
L 20.21875 43.015625 
L 29.109375 43.015625 
Q 36.375 43.015625 40.234375 45.921875 
Q 44.09375 48.828125 44.09375 54.296875 
Q 44.09375 59.90625 40.109375 62.90625 
Q 36.140625 65.921875 28.71875 65.921875 
Q 24.65625 65.921875 20.015625 65.03125 
Q 15.375 64.15625 9.8125 62.3125 
L 9.8125 71.09375 
Q 15.4375 72.65625 20.34375 73.4375 
Q 25.25 74.21875 29.59375 74.21875 
Q 40.828125 74.21875 47.359375 69.109375 
Q 53.90625 64.015625 53.90625 55.328125 
Q 53.90625 49.265625 50.4375 45.09375 
Q 46.96875 40.921875 40.578125 39.3125 
z
" id="DejaVuSans-51"/>
      </defs>
      <g style="fill:#262626;" transform="translate(181.533638 180.206125)scale(0.12 -0.12)">
       <use xlink:href="#DejaVuSans-51"/>
       <use x="63.623047" xlink:href="#DejaVuSans-48"/>
       <use x="127.246094" xlink:href="#DejaVuSans-77"/>
      </g>
     </g>
    </g>
    <g id="xtick_5">
     <g id="line2d_5">
      <path clip-path="url(#p675ba01942)" d="M 242.828184 164.088 
L 242.828184 16.008 
" style="fill:none;stroke:#cccccc;stroke-linecap:round;stroke-width:0.8;"/>
     </g>
     <g id="text_5">
      <!-- 40M -->
      <defs>
       <path d="M 37.796875 64.3125 
L 12.890625 25.390625 
L 37.796875 25.390625 
z
M 35.203125 72.90625 
L 47.609375 72.90625 
L 47.609375 25.390625 
L 58.015625 25.390625 
L 58.015625 17.1875 
L 47.609375 17.1875 
L 47.609375 0 
L 37.796875 0 
L 37.796875 17.1875 
L 4.890625 17.1875 
L 4.890625 26.703125 
z
" id="DejaVuSans-52"/>
      </defs>
      <g style="fill:#262626;" transform="translate(230.016309 180.206125)scale(0.12 -0.12)">
       <use xlink:href="#DejaVuSans-52"/>
       <use x="63.623047" xlink:href="#DejaVuSans-48"/>
       <use x="127.246094" xlink:href="#DejaVuSans-77"/>
      </g>
     </g>
    </g>
    <g id="text_6">
     <!-- steps -->
     <defs>
      <path d="M 44.28125 53.078125 
L 44.28125 44.578125 
Q 40.484375 46.53125 36.375 47.5 
Q 32.28125 48.484375 27.875 48.484375 
Q 21.1875 48.484375 17.84375 46.4375 
Q 14.5 44.390625 14.5 40.28125 
Q 14.5 37.15625 16.890625 35.375 
Q 19.28125 33.59375 26.515625 31.984375 
L 29.59375 31.296875 
Q 39.15625 29.25 43.1875 25.515625 
Q 47.21875 21.78125 47.21875 15.09375 
Q 47.21875 7.46875 41.1875 3.015625 
Q 35.15625 -1.421875 24.609375 -1.421875 
Q 20.21875 -1.421875 15.453125 -0.5625 
Q 10.6875 0.296875 5.421875 2 
L 5.421875 11.28125 
Q 10.40625 8.6875 15.234375 7.390625 
Q 20.0625 6.109375 24.8125 6.109375 
Q 31.15625 6.109375 34.5625 8.28125 
Q 37.984375 10.453125 37.984375 14.40625 
Q 37.984375 18.0625 35.515625 20.015625 
Q 33.0625 21.96875 24.703125 23.78125 
L 21.578125 24.515625 
Q 13.234375 26.265625 9.515625 29.90625 
Q 5.8125 33.546875 5.8125 39.890625 
Q 5.8125 47.609375 11.28125 51.796875 
Q 16.75 56 26.8125 56 
Q 31.78125 56 36.171875 55.265625 
Q 40.578125 54.546875 44.28125 53.078125 
z
" id="DejaVuSans-115"/>
      <path d="M 18.3125 70.21875 
L 18.3125 54.6875 
L 36.8125 54.6875 
L 36.8125 47.703125 
L 18.3125 47.703125 
L 18.3125 18.015625 
Q 18.3125 11.328125 20.140625 9.421875 
Q 21.96875 7.515625 27.59375 7.515625 
L 36.8125 7.515625 
L 36.8125 0 
L 27.59375 0 
Q 17.1875 0 13.234375 3.875 
Q 9.28125 7.765625 9.28125 18.015625 
L 9.28125 47.703125 
L 2.6875 47.703125 
L 2.6875 54.6875 
L 9.28125 54.6875 
L 9.28125 70.21875 
z
" id="DejaVuSans-116"/>
      <path d="M 56.203125 29.59375 
L 56.203125 25.203125 
L 14.890625 25.203125 
Q 15.484375 15.921875 20.484375 11.0625 
Q 25.484375 6.203125 34.421875 6.203125 
Q 39.59375 6.203125 44.453125 7.46875 
Q 49.3125 8.734375 54.109375 11.28125 
L 54.109375 2.78125 
Q 49.265625 0.734375 44.1875 -0.34375 
Q 39.109375 -1.421875 33.890625 -1.421875 
Q 20.796875 -1.421875 13.15625 6.1875 
Q 5.515625 13.8125 5.515625 26.8125 
Q 5.515625 40.234375 12.765625 48.109375 
Q 20.015625 56 32.328125 56 
Q 43.359375 56 49.78125 48.890625 
Q 56.203125 41.796875 56.203125 29.59375 
z
M 47.21875 32.234375 
Q 47.125 39.59375 43.09375 43.984375 
Q 39.0625 48.390625 32.421875 48.390625 
Q 24.90625 48.390625 20.390625 44.140625 
Q 15.875 39.890625 15.1875 32.171875 
z
" id="DejaVuSans-101"/>
      <path d="M 18.109375 8.203125 
L 18.109375 -20.796875 
L 9.078125 -20.796875 
L 9.078125 54.6875 
L 18.109375 54.6875 
L 18.109375 46.390625 
Q 20.953125 51.265625 25.265625 53.625 
Q 29.59375 56 35.59375 56 
Q 45.5625 56 51.78125 48.09375 
Q 58.015625 40.1875 58.015625 27.296875 
Q 58.015625 14.40625 51.78125 6.484375 
Q 45.5625 -1.421875 35.59375 -1.421875 
Q 29.59375 -1.421875 25.265625 0.953125 
Q 20.953125 3.328125 18.109375 8.203125 
z
M 48.6875 27.296875 
Q 48.6875 37.203125 44.609375 42.84375 
Q 40.53125 48.484375 33.40625 48.484375 
Q 26.265625 48.484375 22.1875 42.84375 
Q 18.109375 37.203125 18.109375 27.296875 
Q 18.109375 17.390625 22.1875 11.75 
Q 26.265625 6.109375 33.40625 6.109375 
Q 40.53125 6.109375 44.609375 11.75 
Q 48.6875 17.390625 48.6875 27.296875 
z
" id="DejaVuSans-112"/>
     </defs>
     <g style="fill:#262626;" transform="translate(144.604375 195.819875)scale(0.12 -0.12)">
      <use xlink:href="#DejaVuSans-115"/>
      <use x="52.099609" xlink:href="#DejaVuSans-116"/>
      <use x="91.308594" xlink:href="#DejaVuSans-101"/>
      <use x="152.832031" xlink:href="#DejaVuSans-112"/>
      <use x="216.308594" xlink:href="#DejaVuSans-115"/>
     </g>
    </g>
   </g>
   <g id="matplotlib.axis_2">
    <g id="ytick_1">
     <g id="line2d_6">
      <path clip-path="url(#p675ba01942)" d="M 48.8975 164.088 
L 272.52 164.088 
" style="fill:none;stroke:#cccccc;stroke-linecap:round;stroke-width:0.8;"/>
     </g>
     <g id="text_7">
      <!-- 0.0 -->
      <defs>
       <path d="M 10.6875 12.40625 
L 21 12.40625 
L 21 0 
L 10.6875 0 
z
" id="DejaVuSans-46"/>
      </defs>
      <g style="fill:#262626;" transform="translate(22.81375 168.647063)scale(0.12 -0.12)">
       <use xlink:href="#DejaVuSans-48"/>
       <use x="63.623047" xlink:href="#DejaVuSans-46"/>
       <use x="95.410156" xlink:href="#DejaVuSans-48"/>
      </g>
     </g>
    </g>
    <g id="ytick_2">
     <g id="line2d_7">
      <path clip-path="url(#p675ba01942)" d="M 48.8975 134.472 
L 272.52 134.472 
" style="fill:none;stroke:#cccccc;stroke-linecap:round;stroke-width:0.8;"/>
     </g>
     <g id="text_8">
      <!-- 0.2 -->
      <g style="fill:#262626;" transform="translate(22.81375 139.031063)scale(0.12 -0.12)">
       <use xlink:href="#DejaVuSans-48"/>
       <use x="63.623047" xlink:href="#DejaVuSans-46"/>
       <use x="95.410156" xlink:href="#DejaVuSans-50"/>
      </g>
     </g>
    </g>
    <g id="ytick_3">
     <g id="line2d_8">
      <path clip-path="url(#p675ba01942)" d="M 48.8975 104.856 
L 272.52 104.856 
" style="fill:none;stroke:#cccccc;stroke-linecap:round;stroke-width:0.8;"/>
     </g>
     <g id="text_9">
      <!-- 0.4 -->
      <g style="fill:#262626;" transform="translate(22.81375 109.415062)scale(0.12 -0.12)">
       <use xlink:href="#DejaVuSans-48"/>
       <use x="63.623047" xlink:href="#DejaVuSans-46"/>
       <use x="95.410156" xlink:href="#DejaVuSans-52"/>
      </g>
     </g>
    </g>
    <g id="ytick_4">
     <g id="line2d_9">
      <path clip-path="url(#p675ba01942)" d="M 48.8975 75.24 
L 272.52 75.24 
" style="fill:none;stroke:#cccccc;stroke-linecap:round;stroke-width:0.8;"/>
     </g>
     <g id="text_10">
      <!-- 0.6 -->
      <defs>
       <path d="M 33.015625 40.375 
Q 26.375 40.375 22.484375 35.828125 
Q 18.609375 31.296875 18.609375 23.390625 
Q 18.609375 15.53125 22.484375 10.953125 
Q 26.375 6.390625 33.015625 6.390625 
Q 39.65625 6.390625 43.53125 10.953125 
Q 47.40625 15.53125 47.40625 23.390625 
Q 47.40625 31.296875 43.53125 35.828125 
Q 39.65625 40.375 33.015625 40.375 
z
M 52.59375 71.296875 
L 52.59375 62.3125 
Q 48.875 64.0625 45.09375 64.984375 
Q 41.3125 65.921875 37.59375 65.921875 
Q 27.828125 65.921875 22.671875 59.328125 
Q 17.53125 52.734375 16.796875 39.40625 
Q 19.671875 43.65625 24.015625 45.921875 
Q 28.375 48.1875 33.59375 48.1875 
Q 44.578125 48.1875 50.953125 41.515625 
Q 57.328125 34.859375 57.328125 23.390625 
Q 57.328125 12.15625 50.6875 5.359375 
Q 44.046875 -1.421875 33.015625 -1.421875 
Q 20.359375 -1.421875 13.671875 8.265625 
Q 6.984375 17.96875 6.984375 36.375 
Q 6.984375 53.65625 15.1875 63.9375 
Q 23.390625 74.21875 37.203125 74.21875 
Q 40.921875 74.21875 44.703125 73.484375 
Q 48.484375 72.75 52.59375 71.296875 
z
" id="DejaVuSans-54"/>
      </defs>
      <g style="fill:#262626;" transform="translate(22.81375 79.799063)scale(0.12 -0.12)">
       <use xlink:href="#DejaVuSans-48"/>
       <use x="63.623047" xlink:href="#DejaVuSans-46"/>
       <use x="95.410156" xlink:href="#DejaVuSans-54"/>
      </g>
     </g>
    </g>
    <g id="ytick_5">
     <g id="line2d_10">
      <path clip-path="url(#p675ba01942)" d="M 48.8975 45.624 
L 272.52 45.624 
" style="fill:none;stroke:#cccccc;stroke-linecap:round;stroke-width:0.8;"/>
     </g>
     <g id="text_11">
      <!-- 0.8 -->
      <defs>
       <path d="M 31.78125 34.625 
Q 24.75 34.625 20.71875 30.859375 
Q 16.703125 27.09375 16.703125 20.515625 
Q 16.703125 13.921875 20.71875 10.15625 
Q 24.75 6.390625 31.78125 6.390625 
Q 38.8125 6.390625 42.859375 10.171875 
Q 46.921875 13.96875 46.921875 20.515625 
Q 46.921875 27.09375 42.890625 30.859375 
Q 38.875 34.625 31.78125 34.625 
z
M 21.921875 38.8125 
Q 15.578125 40.375 12.03125 44.71875 
Q 8.5 49.078125 8.5 55.328125 
Q 8.5 64.0625 14.71875 69.140625 
Q 20.953125 74.21875 31.78125 74.21875 
Q 42.671875 74.21875 48.875 69.140625 
Q 55.078125 64.0625 55.078125 55.328125 
Q 55.078125 49.078125 51.53125 44.71875 
Q 48 40.375 41.703125 38.8125 
Q 48.828125 37.15625 52.796875 32.3125 
Q 56.78125 27.484375 56.78125 20.515625 
Q 56.78125 9.90625 50.3125 4.234375 
Q 43.84375 -1.421875 31.78125 -1.421875 
Q 19.734375 -1.421875 13.25 4.234375 
Q 6.78125 9.90625 6.78125 20.515625 
Q 6.78125 27.484375 10.78125 32.3125 
Q 14.796875 37.15625 21.921875 38.8125 
z
M 18.3125 54.390625 
Q 18.3125 48.734375 21.84375 45.5625 
Q 25.390625 42.390625 31.78125 42.390625 
Q 38.140625 42.390625 41.71875 45.5625 
Q 45.3125 48.734375 45.3125 54.390625 
Q 45.3125 60.0625 41.71875 63.234375 
Q 38.140625 66.40625 31.78125 66.40625 
Q 25.390625 66.40625 21.84375 63.234375 
Q 18.3125 60.0625 18.3125 54.390625 
z
" id="DejaVuSans-56"/>
      </defs>
      <g style="fill:#262626;" transform="translate(22.81375 50.183063)scale(0.12 -0.12)">
       <use xlink:href="#DejaVuSans-48"/>
       <use x="63.623047" xlink:href="#DejaVuSans-46"/>
       <use x="95.410156" xlink:href="#DejaVuSans-56"/>
      </g>
     </g>
    </g>
    <g id="ytick_6">
     <g id="line2d_11">
      <path clip-path="url(#p675ba01942)" d="M 48.8975 16.008 
L 272.52 16.008 
" style="fill:none;stroke:#cccccc;stroke-linecap:round;stroke-width:0.8;"/>
     </g>
     <g id="text_12">
      <!-- 1.0 -->
      <g style="fill:#262626;" transform="translate(22.81375 20.567063)scale(0.12 -0.12)">
       <use xlink:href="#DejaVuSans-49"/>
       <use x="63.623047" xlink:href="#DejaVuSans-46"/>
       <use x="95.410156" xlink:href="#DejaVuSans-48"/>
      </g>
     </g>
    </g>
    <g id="text_13">
     <!-- spl -->
     <defs>
      <path d="M 9.421875 75.984375 
L 18.40625 75.984375 
L 18.40625 0 
L 9.421875 0 
z
" id="DejaVuSans-108"/>
     </defs>
     <g style="fill:#262626;" transform="translate(16.318125 98.649563)rotate(-90)scale(0.12 -0.12)">
      <use xlink:href="#DejaVuSans-115"/>
      <use x="52.099609" xlink:href="#DejaVuSans-112"/>
      <use x="115.576172" xlink:href="#DejaVuSans-108"/>
     </g>
    </g>
   </g>
   <g id="line2d_12">
    <path clip-path="url(#p675ba01942)" d="M 48.917359 163.270593 
L 49.314529 159.496582 
L 49.711699 156.43311 
L 50.108869 156.400862 
L 50.506039 156.297958 
L 50.903209 156.688408 
L 51.300379 157.49168 
L 51.697549 157.882424 
L 52.094719 157.787591 
L 52.491889 157.666205 
L 52.889059 157.253896 
L 53.286229 157.368632 
L 53.683399 157.114266 
L 54.080569 156.735849 
L 54.477739 156.631169 
L 54.874909 156.680798 
L 55.272079 156.398498 
L 55.669249 156.063624 
L 56.066419 155.674813 
L 56.463589 155.229491 
L 56.860759 154.710429 
L 57.257929 154.459459 
L 57.655099 154.130138 
L 58.052269 153.754627 
L 58.44944 153.559878 
L 58.84661 153.490417 
L 59.24378 153.370658 
L 59.64095 153.154027 
L 60.03812 152.796243 
L 60.43529 152.64618 
L 60.83246 152.385207 
L 61.22963 152.033881 
L 61.6268 151.914301 
L 62.02397 151.604951 
L 62.42114 151.255583 
L 62.81831 150.851384 
L 63.21548 150.517769 
L 63.61265 150.209212 
L 64.00982 149.734261 
L 64.40699 149.250698 
L 64.80416 148.703369 
L 65.20133 148.035306 
" style="fill:none;"/>
   </g>
   <g id="line2d_13">
    <path clip-path="url(#p675ba01942)" d="M 65.207536 135.094365 
L 65.604706 130.641673 
L 66.399046 137.876979 
L 67.193386 142.037956 
L 68.384896 144.401338 
L 68.782066 144.697859 
L 69.179236 144.506685 
L 69.973576 144.861262 
L 70.370747 144.907514 
L 72.356597 146.04942 
L 73.150937 146.150677 
L 73.548107 146.50938 
L 74.342447 146.596297 
L 75.136787 146.924982 
L 77.122637 147.753819 
L 77.519807 147.741421 
L 78.711317 147.350161 
L 79.108487 147.54402 
L 80.697168 147.859701 
L 81.491508 148.754992 
L 81.888678 148.803553 
L 83.080188 148.536562 
L 83.477358 148.606293 
L 83.874528 148.415825 
L 85.066038 148.680237 
L 85.463208 148.599737 
L 86.654718 148.676243 
L 87.051888 148.708992 
L 87.846228 148.404079 
L 88.243398 148.377776 
L 88.640568 148.210366 
L 89.037738 148.186084 
L 89.434909 147.885518 
L 91.420759 147.307618 
L 91.817929 147.056534 
L 92.215099 146.638541 
L 93.009439 146.196124 
L 93.406609 146.180494 
L 94.200949 146.428368 
L 94.598119 146.216403 
L 95.392459 145.27762 
L 95.789629 145.163944 
L 96.186799 144.817338 
L 96.981139 144.645176 
L 98.172649 144.074164 
L 98.569819 144.108524 
L 98.96699 144.382845 
L 99.36416 144.420258 
L 99.76133 144.617763 
L 100.55567 144.734131 
L 104.52737 145.041636 
L 104.92454 144.880742 
L 106.11605 145.077006 
L 107.70473 144.773539 
L 108.1019 144.931585 
L 108.896241 145.005394 
L 109.690581 144.66103 
L 110.484921 144.688893 
L 111.279261 145.049882 
L 111.676431 144.955114 
L 112.073601 145.133524 
L 112.867941 144.927181 
L 114.059451 145.400967 
L 114.456621 145.387679 
L 115.250961 144.9826 
L 116.045301 144.461736 
L 116.442471 144.068656 
L 116.839641 143.838481 
L 117.236811 143.760503 
L 118.031152 143.350579 
L 118.428322 143.238204 
L 119.222662 142.833506 
L 120.414172 142.351256 
L 120.811342 142.450675 
L 121.208512 142.411275 
L 121.605682 141.960204 
L 122.002852 141.73768 
L 123.194362 141.969923 
L 123.591532 141.867392 
L 123.988702 141.639476 
L 124.385872 141.590584 
L 124.783042 141.269585 
L 125.577382 141.414489 
L 125.974552 141.349261 
L 126.371722 141.451728 
L 127.563233 141.050757 
L 128.754743 140.97622 
L 129.549083 140.530443 
L 129.946253 140.434836 
L 129.946253 140.434836 
" style="fill:none;stroke-dasharray:0,0;stroke-dashoffset:0;"/>
   </g>
   <g id="line2d_14">
    <path clip-path="url(#p675ba01942)" d="M 129.980385 135.29691 
L 130.377555 139.865829 
L 130.774725 142.318987 
L 131.171895 141.213137 
L 131.569065 140.90067 
L 131.966235 141.569719 
L 132.363405 142.697411 
L 133.157745 143.546286 
L 133.952085 145.657643 
L 134.349255 146.129564 
L 135.540765 148.683984 
L 135.937935 149.335819 
L 136.335105 149.515721 
L 136.732275 150.204953 
L 137.129445 150.610432 
L 137.923785 150.985857 
L 138.320955 151.265208 
L 138.718125 151.408479 
L 139.512466 152.125474 
L 140.703976 152.758727 
L 141.498316 153.159236 
L 143.086996 153.716431 
L 143.484166 153.953707 
L 145.470016 154.442486 
L 145.867186 155.120073 
L 146.264356 155.525422 
L 146.661526 155.734133 
L 147.455866 156.799905 
L 149.044547 158.210208 
L 149.838887 158.503299 
L 150.236057 158.662771 
L 151.824737 158.666947 
L 152.221907 158.887414 
L 153.016247 158.859263 
L 154.604927 159.277286 
L 155.796437 159.302221 
L 158.973798 159.778579 
L 159.370968 159.750052 
L 160.165308 159.974105 
L 161.356818 160.202913 
L 162.151158 160.039818 
L 162.548328 160.141362 
L 163.342668 160.124749 
L 164.137008 160.142877 
L 166.122858 159.95141 
L 168.505879 160.032723 
L 169.697389 160.305269 
L 170.491729 160.281083 
L 170.888899 160.229628 
L 171.286069 160.322714 
L 172.874749 160.163887 
L 175.257769 160.65695 
L 176.052109 160.727685 
L 178.03796 161.188866 
L 179.22947 161.420926 
L 180.42098 161.551678 
L 184.39268 162.378908 
L 185.98136 162.385463 
L 186.775701 162.597269 
L 187.172871 162.586449 
L 187.967211 162.783899 
L 188.761551 162.791279 
L 190.350231 162.583538 
L 191.144571 162.426689 
L 192.336081 162.250899 
L 194.719101 161.89883 
L 199.087972 161.703046 
L 199.882312 161.524514 
L 201.470992 161.311261 
L 202.662502 161.285759 
L 203.456842 161.098372 
L 203.854012 161.187783 
L 204.251182 161.066589 
L 205.442692 161.046291 
L 206.237033 160.912208 
L 207.031373 161.02123 
L 207.825713 161.019122 
L 209.811563 161.110663 
L 210.605903 161.057856 
L 211.400243 161.077671 
L 212.591753 161.00059 
L 213.386093 161.072175 
L 217.754964 161.515383 
L 221.329494 162.155265 
L 221.329494 162.155265 
" style="fill:none;stroke-dasharray:0,0;stroke-dashoffset:0;"/>
   </g>
   <g id="line2d_15">
    <path clip-path="url(#p675ba01942)" d="M 48.917359 163.149138 
L 49.314529 162.471909 
L 49.711699 161.261017 
L 50.108869 158.97565 
L 50.506039 158.134443 
L 50.903209 157.75235 
L 51.300379 157.54549 
L 52.094719 157.507053 
L 53.286229 158.843143 
L 53.683399 159.124336 
L 54.080569 159.098069 
L 54.477739 159.1835 
L 59.64095 154.868759 
L 60.43529 154.157248 
L 61.6268 153.006406 
L 62.81831 152.126115 
L 63.61265 151.238178 
L 64.40699 150.355126 
L 65.5985 148.367488 
L 65.99567 148.021875 
L 67.981521 145.202789 
L 68.775861 144.036111 
L 71.158881 140.162651 
L 72.350391 138.564379 
L 73.939071 137.35943 
L 74.733411 136.375146 
L 75.130581 136.065921 
L 75.527751 135.532914 
L 75.924921 135.277434 
L 76.322091 134.711263 
L 76.719261 134.655365 
L 77.116431 134.337437 
L 77.513601 134.207133 
L 77.910772 134.439151 
L 78.307942 134.33496 
L 78.705112 134.035287 
L 79.102282 133.954057 
L 79.499452 134.074952 
L 80.690962 133.903439 
L 81.088132 134.144252 
L 81.485302 134.05138 
L 81.882472 134.190311 
L 82.279642 134.589027 
L 82.676812 134.425613 
L 83.471152 134.852321 
L 83.868322 134.73336 
L 84.265492 134.484167 
L 84.662662 134.80777 
L 85.059832 134.814509 
L 85.457002 134.400998 
L 86.251342 134.515545 
L 86.648512 134.468444 
L 87.045682 134.539845 
L 87.442853 134.977521 
L 87.840023 135.158341 
L 88.237193 135.143101 
L 88.634363 134.770026 
L 89.428703 134.498031 
L 89.825873 134.455999 
L 90.620213 134.872658 
L 91.017383 134.908364 
L 91.414553 135.303275 
L 91.811723 135.384967 
L 93.003233 136.008549 
L 93.400403 135.830201 
L 94.194743 135.179067 
L 94.591913 135.289143 
L 94.989083 135.595851 
L 95.386253 135.453008 
L 95.783423 135.629187 
L 96.180593 135.932103 
L 96.577763 135.981441 
L 96.974934 135.84855 
L 97.372104 136.02932 
L 98.166444 135.586592 
L 98.563614 135.891254 
L 98.960784 135.740427 
L 99.357954 135.718081 
L 99.755124 135.347659 
L 100.152294 135.512225 
L 100.549464 135.135461 
L 100.946634 135.135822 
L 101.343804 135.601932 
L 102.535314 135.642676 
L 102.932484 135.685369 
L 103.329654 135.127199 
L 104.521164 134.959489 
L 104.918334 135.006085 
L 105.315504 135.21753 
L 105.315504 135.21753 
" style="fill:none;"/>
   </g>
   <g id="line2d_16">
    <path clip-path="url(#p675ba01942)" d="M 105.351188 134.791261 
L 105.748358 129.800207 
L 106.145528 132.131201 
L 106.542698 132.061285 
L 106.939868 131.118946 
L 107.337038 133.062324 
L 107.734208 132.187 
L 108.131378 133.033245 
L 108.528548 132.754098 
L 108.925718 133.348538 
L 109.322888 133.410426 
L 110.117228 134.888706 
L 110.514398 135.070552 
L 110.911568 134.41232 
L 111.308738 134.377766 
L 111.705908 134.66425 
L 112.103078 134.375733 
L 112.897418 134.903474 
L 113.294588 135.597621 
L 113.691759 135.639556 
L 114.088929 135.980728 
L 114.883269 136.203509 
L 115.280439 136.281225 
L 115.677609 136.512689 
L 116.869119 136.050779 
L 117.663459 135.756308 
L 118.457799 135.893843 
L 118.854969 135.755624 
L 119.252139 136.012017 
L 120.443649 136.3961 
L 120.840819 136.189151 
L 121.237989 136.191485 
L 121.635159 136.565905 
L 122.032329 136.756828 
L 122.429499 136.774723 
L 122.826669 136.930663 
L 123.22384 136.904323 
L 123.62101 137.240889 
L 124.01818 136.906045 
L 124.41535 137.237477 
L 125.20969 137.301998 
L 126.4012 136.769955 
L 126.79837 137.244593 
L 127.19554 137.411238 
L 127.59271 137.3219 
L 127.98988 137.36107 
L 128.78422 137.875316 
L 129.18139 137.710074 
L 129.57856 137.780171 
L 129.97573 137.576713 
L 130.3729 137.754551 
L 131.16724 137.62417 
L 131.96158 137.282169 
L 132.35875 137.48145 
L 132.755921 137.440292 
L 133.947431 138.344276 
L 134.344601 138.312613 
L 134.741771 138.569657 
L 135.933281 138.308813 
L 136.330451 138.190838 
L 136.727621 138.43206 
L 137.521961 137.923235 
L 138.316301 137.4574 
L 139.110641 137.413224 
L 139.904981 137.920716 
L 140.302151 137.894378 
L 140.699321 137.747096 
L 141.493661 138.042735 
L 141.890831 137.813772 
L 142.288002 138.184202 
L 143.082342 137.755704 
L 143.479512 137.70914 
L 143.876682 137.984881 
L 144.273852 137.954145 
L 144.671022 137.738631 
L 145.465362 137.009557 
L 145.862532 137.038623 
L 146.259702 136.422255 
L 146.656872 136.430741 
L 147.054042 136.165156 
L 147.848382 136.826056 
L 148.642722 136.429013 
L 149.834232 135.149606 
L 152.614423 133.98568 
L 153.408763 134.02119 
L 153.805933 133.994962 
L 154.203103 134.416246 
L 154.600273 134.458365 
L 155.791783 133.567254 
L 156.188953 133.543069 
L 156.586123 133.747282 
L 157.380463 133.540149 
L 158.969143 133.619822 
L 159.366313 133.579273 
L 160.160653 132.72275 
L 160.557823 132.554923 
L 160.954993 132.592034 
L 161.352164 132.817319 
L 162.146504 132.887283 
L 163.735184 131.748549 
L 164.132354 131.327933 
L 164.529524 131.259368 
L 164.926694 131.432582 
L 165.323864 131.372479 
L 166.912544 130.543124 
L 168.104054 130.384733 
L 168.501224 130.173751 
L 168.898394 130.14044 
L 169.295564 130.27001 
L 169.692734 129.906704 
L 170.089904 129.360031 
L 170.487074 129.069069 
L 170.884245 129.075466 
L 171.281415 128.92103 
L 171.678585 129.246832 
L 172.075755 128.902191 
L 172.075755 128.902191 
" style="fill:none;stroke-dasharray:0,0;stroke-dashoffset:0;"/>
   </g>
   <g id="line2d_17">
    <path clip-path="url(#p675ba01942)" d="M 172.111826 127.933004 
L 172.906166 136.377482 
L 173.303336 134.727499 
L 173.700506 135.302218 
L 174.097676 135.15765 
L 174.494846 136.037553 
L 175.289186 140.969094 
L 176.083526 144.788836 
L 176.877866 147.66926 
L 177.672206 149.858425 
L 178.466546 151.532493 
L 179.260887 152.823952 
L 180.452397 154.334561 
L 181.643907 155.504974 
L 183.232587 156.688839 
L 184.821267 157.585707 
L 186.807117 158.441272 
L 187.601457 158.723609 
L 188.395797 160.307719 
L 188.792968 160.801897 
L 189.587308 162.321831 
L 190.381648 163.632437 
L 191.175988 163.925362 
L 192.367498 164.047061 
L 197.133538 164.088 
L 261.872255 164.005888 
L 261.872255 164.005888 
" style="fill:none;stroke-dasharray:0,0;stroke-dashoffset:0;"/>
   </g>
   <g id="line2d_18"/>
   <g id="line2d_19"/>
   <g id="line2d_20"/>
   <g id="line2d_21"/>
   <g id="line2d_22"/>
   <g id="line2d_23"/>
   <g id="line2d_24"/>
   <g id="line2d_25">
    <path clip-path="url(#p675ba01942)" d="M 48.8975 160.08984 
L 272.52 160.08984 
" style="fill:none;stroke:#008000;stroke-dasharray:5.55,2.4;stroke-dashoffset:0;stroke-width:1.5;"/>
   </g>
   <g id="line2d_26">
    <path clip-path="url(#p675ba01942)" d="M 48.8975 130.0296 
L 272.52 130.0296 
" style="fill:none;stroke:#800080;stroke-dasharray:5.55,2.4;stroke-dashoffset:0;stroke-width:1.5;"/>
   </g>
   <g id="line2d_27">
    <path clip-path="url(#p675ba01942)" d="M 48.8975 88.5672 
L 272.52 88.5672 
" style="fill:none;stroke:#ff0000;stroke-dasharray:5.55,2.4;stroke-dashoffset:0;stroke-width:1.5;"/>
   </g>
   <g id="patch_3">
    <path d="M 48.8975 164.088 
L 48.8975 16.008 
" style="fill:none;stroke:#cccccc;stroke-linecap:square;stroke-linejoin:miter;stroke-width:0.8;"/>
   </g>
   <g id="patch_4">
    <path d="M 272.52 164.088 
L 272.52 16.008 
" style="fill:none;stroke:#cccccc;stroke-linecap:square;stroke-linejoin:miter;stroke-width:0.8;"/>
   </g>
   <g id="patch_5">
    <path d="M 48.8975 164.088 
L 272.52 164.088 
" style="fill:none;stroke:#cccccc;stroke-linecap:square;stroke-linejoin:miter;stroke-width:0.8;"/>
   </g>
   <g id="patch_6">
    <path d="M 48.8975 16.008 
L 272.52 16.008 
" style="fill:none;stroke:#cccccc;stroke-linecap:square;stroke-linejoin:miter;stroke-width:0.8;"/>
   </g>
  </g>
  <g id="axes_2">
   <g id="patch_7">
    <path d="M 332.355 164.088 
L 555.9775 164.088 
L 555.9775 16.008 
L 332.355 16.008 
z
" style="fill:#ffffff;"/>
   </g>
   <g id="matplotlib.axis_3">
    <g id="xtick_6">
     <g id="line2d_28">
      <path clip-path="url(#pf5c939d474)" d="M 332.355 164.088 
L 332.355 16.008 
" style="fill:none;stroke:#cccccc;stroke-linecap:round;stroke-width:0.8;"/>
     </g>
     <g id="text_14">
      <!-- 0M -->
      <g style="fill:#262626;" transform="translate(323.360625 180.206125)scale(0.12 -0.12)">
       <use xlink:href="#DejaVuSans-48"/>
       <use x="63.623047" xlink:href="#DejaVuSans-77"/>
      </g>
     </g>
    </g>
    <g id="xtick_7">
     <g id="line2d_29">
      <path clip-path="url(#pf5c939d474)" d="M 380.837671 164.088 
L 380.837671 16.008 
" style="fill:none;stroke:#cccccc;stroke-linecap:round;stroke-width:0.8;"/>
     </g>
     <g id="text_15">
      <!-- 10M -->
      <g style="fill:#262626;" transform="translate(368.025796 180.206125)scale(0.12 -0.12)">
       <use xlink:href="#DejaVuSans-49"/>
       <use x="63.623047" xlink:href="#DejaVuSans-48"/>
       <use x="127.246094" xlink:href="#DejaVuSans-77"/>
      </g>
     </g>
    </g>
    <g id="xtick_8">
     <g id="line2d_30">
      <path clip-path="url(#pf5c939d474)" d="M 429.320342 164.088 
L 429.320342 16.008 
" style="fill:none;stroke:#cccccc;stroke-linecap:round;stroke-width:0.8;"/>
     </g>
     <g id="text_16">
      <!-- 20M -->
      <g style="fill:#262626;" transform="translate(416.508467 180.206125)scale(0.12 -0.12)">
       <use xlink:href="#DejaVuSans-50"/>
       <use x="63.623047" xlink:href="#DejaVuSans-48"/>
       <use x="127.246094" xlink:href="#DejaVuSans-77"/>
      </g>
     </g>
    </g>
    <g id="xtick_9">
     <g id="line2d_31">
      <path clip-path="url(#pf5c939d474)" d="M 477.803013 164.088 
L 477.803013 16.008 
" style="fill:none;stroke:#cccccc;stroke-linecap:round;stroke-width:0.8;"/>
     </g>
     <g id="text_17">
      <!-- 30M -->
      <g style="fill:#262626;" transform="translate(464.991138 180.206125)scale(0.12 -0.12)">
       <use xlink:href="#DejaVuSans-51"/>
       <use x="63.623047" xlink:href="#DejaVuSans-48"/>
       <use x="127.246094" xlink:href="#DejaVuSans-77"/>
      </g>
     </g>
    </g>
    <g id="xtick_10">
     <g id="line2d_32">
      <path clip-path="url(#pf5c939d474)" d="M 526.285684 164.088 
L 526.285684 16.008 
" style="fill:none;stroke:#cccccc;stroke-linecap:round;stroke-width:0.8;"/>
     </g>
     <g id="text_18">
      <!-- 40M -->
      <g style="fill:#262626;" transform="translate(513.473809 180.206125)scale(0.12 -0.12)">
       <use xlink:href="#DejaVuSans-52"/>
       <use x="63.623047" xlink:href="#DejaVuSans-48"/>
       <use x="127.246094" xlink:href="#DejaVuSans-77"/>
      </g>
     </g>
    </g>
    <g id="text_19">
     <!-- steps -->
     <g style="fill:#262626;" transform="translate(428.061875 195.819875)scale(0.12 -0.12)">
      <use xlink:href="#DejaVuSans-115"/>
      <use x="52.099609" xlink:href="#DejaVuSans-116"/>
      <use x="91.308594" xlink:href="#DejaVuSans-101"/>
      <use x="152.832031" xlink:href="#DejaVuSans-112"/>
      <use x="216.308594" xlink:href="#DejaVuSans-115"/>
     </g>
    </g>
   </g>
   <g id="matplotlib.axis_4">
    <g id="ytick_7">
     <g id="line2d_33">
      <path clip-path="url(#pf5c939d474)" d="M 332.355 164.088 
L 555.9775 164.088 
" style="fill:none;stroke:#cccccc;stroke-linecap:round;stroke-width:0.8;"/>
     </g>
     <g id="text_20">
      <!-- 0 -->
      <g style="fill:#262626;" transform="translate(317.72 168.647063)scale(0.12 -0.12)">
       <use xlink:href="#DejaVuSans-48"/>
      </g>
     </g>
    </g>
    <g id="ytick_8">
     <g id="line2d_34">
      <path clip-path="url(#pf5c939d474)" d="M 332.355 136.232579 
L 555.9775 136.232579 
" style="fill:none;stroke:#cccccc;stroke-linecap:round;stroke-width:0.8;"/>
     </g>
     <g id="text_21">
      <!-- 20 -->
      <g style="fill:#262626;" transform="translate(310.085 140.791641)scale(0.12 -0.12)">
       <use xlink:href="#DejaVuSans-50"/>
       <use x="63.623047" xlink:href="#DejaVuSans-48"/>
      </g>
     </g>
    </g>
    <g id="ytick_9">
     <g id="line2d_35">
      <path clip-path="url(#pf5c939d474)" d="M 332.355 108.377158 
L 555.9775 108.377158 
" style="fill:none;stroke:#cccccc;stroke-linecap:round;stroke-width:0.8;"/>
     </g>
     <g id="text_22">
      <!-- 40 -->
      <g style="fill:#262626;" transform="translate(310.085 112.93622)scale(0.12 -0.12)">
       <use xlink:href="#DejaVuSans-52"/>
       <use x="63.623047" xlink:href="#DejaVuSans-48"/>
      </g>
     </g>
    </g>
    <g id="ytick_10">
     <g id="line2d_36">
      <path clip-path="url(#pf5c939d474)" d="M 332.355 80.521737 
L 555.9775 80.521737 
" style="fill:none;stroke:#cccccc;stroke-linecap:round;stroke-width:0.8;"/>
     </g>
     <g id="text_23">
      <!-- 60 -->
      <g style="fill:#262626;" transform="translate(310.085 85.080799)scale(0.12 -0.12)">
       <use xlink:href="#DejaVuSans-54"/>
       <use x="63.623047" xlink:href="#DejaVuSans-48"/>
      </g>
     </g>
    </g>
    <g id="ytick_11">
     <g id="line2d_37">
      <path clip-path="url(#pf5c939d474)" d="M 332.355 52.666316 
L 555.9775 52.666316 
" style="fill:none;stroke:#cccccc;stroke-linecap:round;stroke-width:0.8;"/>
     </g>
     <g id="text_24">
      <!-- 80 -->
      <g style="fill:#262626;" transform="translate(310.085 57.225378)scale(0.12 -0.12)">
       <use xlink:href="#DejaVuSans-56"/>
       <use x="63.623047" xlink:href="#DejaVuSans-48"/>
      </g>
     </g>
    </g>
    <g id="ytick_12">
     <g id="line2d_38">
      <path clip-path="url(#pf5c939d474)" d="M 332.355 24.810895 
L 555.9775 24.810895 
" style="fill:none;stroke:#cccccc;stroke-linecap:round;stroke-width:0.8;"/>
     </g>
     <g id="text_25">
      <!-- 100 -->
      <g style="fill:#262626;" transform="translate(302.45 29.369957)scale(0.12 -0.12)">
       <use xlink:href="#DejaVuSans-49"/>
       <use x="63.623047" xlink:href="#DejaVuSans-48"/>
       <use x="127.246094" xlink:href="#DejaVuSans-48"/>
      </g>
     </g>
    </g>
    <g id="text_26">
     <!-- collisions -->
     <defs>
      <path d="M 48.78125 52.59375 
L 48.78125 44.1875 
Q 44.96875 46.296875 41.140625 47.34375 
Q 37.3125 48.390625 33.40625 48.390625 
Q 24.65625 48.390625 19.8125 42.84375 
Q 14.984375 37.3125 14.984375 27.296875 
Q 14.984375 17.28125 19.8125 11.734375 
Q 24.65625 6.203125 33.40625 6.203125 
Q 37.3125 6.203125 41.140625 7.25 
Q 44.96875 8.296875 48.78125 10.40625 
L 48.78125 2.09375 
Q 45.015625 0.34375 40.984375 -0.53125 
Q 36.96875 -1.421875 32.421875 -1.421875 
Q 20.0625 -1.421875 12.78125 6.34375 
Q 5.515625 14.109375 5.515625 27.296875 
Q 5.515625 40.671875 12.859375 48.328125 
Q 20.21875 56 33.015625 56 
Q 37.15625 56 41.109375 55.140625 
Q 45.0625 54.296875 48.78125 52.59375 
z
" id="DejaVuSans-99"/>
      <path d="M 30.609375 48.390625 
Q 23.390625 48.390625 19.1875 42.75 
Q 14.984375 37.109375 14.984375 27.296875 
Q 14.984375 17.484375 19.15625 11.84375 
Q 23.34375 6.203125 30.609375 6.203125 
Q 37.796875 6.203125 41.984375 11.859375 
Q 46.1875 17.53125 46.1875 27.296875 
Q 46.1875 37.015625 41.984375 42.703125 
Q 37.796875 48.390625 30.609375 48.390625 
z
M 30.609375 56 
Q 42.328125 56 49.015625 48.375 
Q 55.71875 40.765625 55.71875 27.296875 
Q 55.71875 13.875 49.015625 6.21875 
Q 42.328125 -1.421875 30.609375 -1.421875 
Q 18.84375 -1.421875 12.171875 6.21875 
Q 5.515625 13.875 5.515625 27.296875 
Q 5.515625 40.765625 12.171875 48.375 
Q 18.84375 56 30.609375 56 
z
" id="DejaVuSans-111"/>
      <path d="M 9.421875 54.6875 
L 18.40625 54.6875 
L 18.40625 0 
L 9.421875 0 
z
M 9.421875 75.984375 
L 18.40625 75.984375 
L 18.40625 64.59375 
L 9.421875 64.59375 
z
" id="DejaVuSans-105"/>
      <path d="M 54.890625 33.015625 
L 54.890625 0 
L 45.90625 0 
L 45.90625 32.71875 
Q 45.90625 40.484375 42.875 44.328125 
Q 39.84375 48.1875 33.796875 48.1875 
Q 26.515625 48.1875 22.3125 43.546875 
Q 18.109375 38.921875 18.109375 30.90625 
L 18.109375 0 
L 9.078125 0 
L 9.078125 54.6875 
L 18.109375 54.6875 
L 18.109375 46.1875 
Q 21.34375 51.125 25.703125 53.5625 
Q 30.078125 56 35.796875 56 
Q 45.21875 56 50.046875 50.171875 
Q 54.890625 44.34375 54.890625 33.015625 
z
" id="DejaVuSans-110"/>
     </defs>
     <g style="fill:#262626;" transform="translate(295.954375 117.410813)rotate(-90)scale(0.12 -0.12)">
      <use xlink:href="#DejaVuSans-99"/>
      <use x="54.980469" xlink:href="#DejaVuSans-111"/>
      <use x="116.162109" xlink:href="#DejaVuSans-108"/>
      <use x="143.945312" xlink:href="#DejaVuSans-108"/>
      <use x="171.728516" xlink:href="#DejaVuSans-105"/>
      <use x="199.511719" xlink:href="#DejaVuSans-115"/>
      <use x="251.611328" xlink:href="#DejaVuSans-105"/>
      <use x="279.394531" xlink:href="#DejaVuSans-111"/>
      <use x="340.576172" xlink:href="#DejaVuSans-110"/>
      <use x="403.955078" xlink:href="#DejaVuSans-115"/>
     </g>
    </g>
   </g>
   <g id="line2d_39">
    <path clip-path="url(#pf5c939d474)" d="M 332.374859 95.981493 
L 332.772029 82.796593 
L 333.169199 80.305082 
L 333.566369 80.869928 
L 333.963539 80.531021 
L 334.360709 81.264547 
L 334.757879 79.699338 
L 335.155049 78.658905 
L 335.552219 79.263084 
L 335.949389 79.012901 
L 336.346559 79.913981 
L 336.743729 80.351508 
L 337.140899 80.578875 
L 337.538069 81.811707 
L 337.935239 82.159016 
L 338.332409 81.960933 
L 338.729579 81.493946 
L 339.126749 82.009938 
L 339.523919 81.653058 
L 339.921089 81.408468 
L 340.318259 80.968308 
L 340.715429 80.158772 
L 341.112599 79.770852 
L 341.509769 80.146462 
L 341.90694 79.528227 
L 342.30411 79.070041 
L 342.70128 78.859009 
L 343.09845 78.049568 
L 343.49562 77.384 
L 343.89279 76.775183 
L 344.28996 76.11429 
L 344.68713 75.549834 
L 345.0843 74.447004 
L 345.48147 73.742219 
L 345.87864 72.752727 
L 346.27581 71.877529 
L 346.67298 70.889031 
L 347.07015 69.963555 
L 347.46732 69.216484 
L 347.86449 68.310617 
L 348.26166 66.376987 
L 348.65883 65.558734 
" style="fill:none;"/>
   </g>
   <g id="line2d_40">
    <path clip-path="url(#pf5c939d474)" d="M 348.665036 22.814588 
L 349.062206 31.54262 
L 349.459376 33.910332 
L 349.856546 37.078885 
L 350.253716 42.164821 
L 351.048056 46.179981 
L 351.445226 46.741234 
L 352.239566 48.831552 
L 352.636736 49.479824 
L 353.033906 50.797681 
L 353.431076 52.687742 
L 353.828247 53.588197 
L 354.225417 53.98171 
L 354.622587 54.813504 
L 355.019757 54.68993 
L 355.416927 55.279051 
L 356.608437 57.61618 
L 357.005607 58.011602 
L 357.402777 58.790471 
L 357.799947 58.823524 
L 358.197117 59.295906 
L 358.594287 59.25698 
L 358.991457 59.489174 
L 359.388627 59.346643 
L 359.785797 59.374029 
L 362.565987 63.286195 
L 362.963157 63.527421 
L 363.360328 64.006404 
L 364.154668 64.698697 
L 365.743348 68.770231 
L 368.920708 72.221982 
L 369.317878 72.298584 
L 369.715048 72.201091 
L 370.112218 72.506339 
L 370.509388 72.580621 
L 370.906558 73.053002 
L 371.303728 72.960151 
L 371.700898 72.485448 
L 372.098068 72.428576 
L 372.495238 72.029315 
L 373.289579 72.013066 
L 373.686749 72.183681 
L 374.083919 71.845933 
L 374.481089 72.213857 
L 374.878259 72.145379 
L 375.275429 72.499375 
L 375.672599 73.003094 
L 376.069769 73.020504 
L 376.466939 72.83364 
L 376.864109 72.321797 
L 377.261279 71.447833 
L 377.658449 70.884921 
L 378.452789 70.546014 
L 378.849959 70.506552 
L 379.247129 70.14095 
L 379.644299 70.044616 
L 380.041469 69.30993 
L 380.438639 69.163689 
L 380.835809 68.813175 
L 381.232979 68.880492 
L 381.630149 68.752821 
L 382.027319 68.243299 
L 382.42449 67.499328 
L 384.41034 65.836127 
L 385.20468 65.399725 
L 385.60185 65.641138 
L 387.19053 65.527395 
L 387.5877 65.84309 
L 387.98487 65.877909 
L 388.38204 66.245833 
L 388.77921 66.327078 
L 389.17638 65.940584 
L 389.57355 66.075218 
L 389.97072 66.53019 
L 390.36789 66.69152 
L 390.76506 67.184793 
L 391.16223 67.383263 
L 392.353741 66.857492 
L 392.750911 67.201042 
L 393.148081 67.801094 
L 393.545251 67.841717 
L 393.942421 67.763954 
L 394.339591 67.507452 
L 394.736761 67.084978 
L 395.133931 67.038552 
L 395.531101 66.784371 
L 396.325441 67.011857 
L 397.516951 65.934781 
L 397.914121 65.981207 
L 398.311291 66.296901 
L 398.708461 66.291098 
L 400.297141 67.495845 
L 400.694311 67.296215 
L 401.885822 67.462187 
L 402.282992 67.762794 
L 403.077332 67.218453 
L 403.474502 67.370497 
L 403.871672 67.343802 
L 404.666012 66.952666 
L 405.063182 67.2672 
L 405.460352 67.178991 
L 406.254692 66.068256 
L 407.049032 65.484453 
L 407.843372 65.711938 
L 408.240542 66.087987 
L 408.637712 65.904605 
L 409.034882 65.391601 
L 409.432052 65.354461 
L 409.829222 65.087513 
L 412.212243 65.916211 
L 412.609413 66.431537 
L 413.006583 66.351452 
L 413.403753 66.404842 
L 413.403753 66.404842 
" style="fill:none;stroke-dasharray:0,0;stroke-dashoffset:0;"/>
   </g>
   <g id="line2d_41">
    <path clip-path="url(#pf5c939d474)" d="M 413.437885 77.039809 
L 413.835055 73.766799 
L 414.232225 72.938875 
L 414.629395 76.482703 
L 415.026565 78.562574 
L 415.423735 78.718873 
L 415.820905 77.968324 
L 416.218075 77.573706 
L 416.615245 78.504799 
L 417.012415 78.901481 
L 417.409585 79.491932 
L 418.203925 81.435967 
L 419.395435 86.707963 
L 420.189775 89.270404 
L 420.984115 91.25536 
L 422.572796 94.014208 
L 423.367136 95.542238 
L 425.750156 98.845382 
L 428.133176 100.066958 
L 428.927516 100.636834 
L 429.721856 102.542609 
L 430.119026 103.695127 
L 430.913366 104.945139 
L 431.310536 105.784283 
L 432.104877 107.918705 
L 432.502047 108.492062 
L 433.296387 110.04152 
L 434.090727 110.894592 
L 434.487897 111.259033 
L 434.885067 111.183592 
L 435.282237 111.516696 
L 435.679407 111.454021 
L 436.870917 111.88578 
L 438.856767 113.307567 
L 439.253937 113.519965 
L 440.048277 114.198941 
L 440.445447 114.429909 
L 441.239787 114.39625 
L 442.034128 114.779262 
L 443.622808 116.176675 
L 444.019978 116.647896 
L 444.814318 116.958948 
L 445.211488 117.370977 
L 445.608658 117.463828 
L 446.005828 117.422045 
L 446.800168 117.603105 
L 447.197338 117.637924 
L 447.991678 117.507932 
L 448.786018 117.489362 
L 449.183188 117.644888 
L 449.580358 117.601944 
L 449.977528 117.943173 
L 450.374698 117.906033 
L 450.771868 117.982635 
L 451.169039 117.82827 
L 451.963379 118.120752 
L 452.757719 118.134679 
L 453.552059 118.292527 
L 454.346399 117.924603 
L 455.140739 117.21545 
L 455.935079 116.288097 
L 456.729419 115.720543 
L 457.126589 115.587069 
L 457.523759 115.315479 
L 457.920929 115.334049 
L 458.715269 114.792029 
L 459.509609 114.26974 
L 459.906779 113.777627 
L 460.70112 113.49327 
L 461.49546 113.092848 
L 461.89263 113.058029 
L 462.2898 112.868844 
L 463.48131 112.967499 
L 463.87848 112.742334 
L 464.27565 112.868844 
L 465.46716 112.948929 
L 465.86433 112.664571 
L 466.2615 112.587969 
L 467.05584 112.858399 
L 467.85018 112.483511 
L 468.64452 112.576362 
L 469.04169 112.404587 
L 470.233201 112.622788 
L 471.424711 113.504876 
L 472.219051 113.392294 
L 472.616221 113.182218 
L 474.204901 113.429435 
L 474.602071 113.573354 
L 474.999241 113.595406 
L 475.396411 113.919226 
L 475.793581 114.028326 
L 476.190751 114.270901 
L 476.985091 114.357949 
L 477.382261 114.599362 
L 477.779431 114.648109 
L 478.176601 114.924342 
L 478.573771 115.025318 
L 478.970941 115.397884 
L 479.368111 115.559214 
L 479.765282 116.190603 
L 480.956792 117.21429 
L 481.353962 117.210808 
L 481.751132 117.492844 
L 482.545472 117.753989 
L 483.736982 118.682503 
L 484.134152 119.150242 
L 485.722832 119.880286 
L 486.120002 120.365434 
L 486.517172 120.259816 
L 487.311512 120.309724 
L 487.708682 120.549977 
L 488.105852 120.572029 
L 488.503022 120.717109 
L 488.900192 120.433913 
L 489.297363 120.396772 
L 490.091703 120.486142 
L 490.488873 120.926025 
L 491.283213 121.305555 
L 491.680383 121.445993 
L 492.077553 121.327607 
L 492.474723 121.505186 
L 493.666233 121.559736 
L 494.063403 121.659551 
L 495.254913 121.570182 
L 495.652083 121.35082 
L 496.049253 121.42162 
L 496.843593 121.053696 
L 498.432273 121.31368 
L 498.829444 121.080391 
L 499.226614 121.025841 
L 499.623784 121.109407 
L 500.020954 120.967809 
L 500.418124 120.679969 
L 500.815294 120.671845 
L 501.212464 120.782106 
L 501.609634 120.757732 
L 502.006804 120.527925 
L 503.595484 121.920696 
L 504.389824 123.365696 
L 504.786994 124.096901 
L 504.786994 124.096901 
" style="fill:none;stroke-dasharray:0,0;stroke-dashoffset:0;"/>
   </g>
   <g id="line2d_42">
    <path clip-path="url(#pf5c939d474)" d="M 332.374859 87.439167 
L 332.772029 84.305432 
L 333.169199 78.355205 
L 333.566369 77.794227 
L 333.963539 78.005464 
L 334.360709 79.322406 
L 334.757879 81.33087 
L 335.155049 82.343946 
L 335.552219 82.420032 
L 335.949389 81.468821 
L 336.346559 81.053522 
L 337.140899 82.110925 
L 337.538069 82.203011 
L 337.935239 82.409716 
L 338.332409 82.126325 
L 338.729579 81.65234 
L 339.921089 78.669352 
L 340.318259 77.137082 
L 343.49562 68.723205 
L 343.89279 67.030428 
L 347.07015 58.479303 
L 347.46732 57.819569 
L 347.86449 57.411023 
L 348.65883 54.864573 
L 349.056 54.270324 
L 349.85034 51.706465 
L 351.439021 45.022325 
L 353.424871 36.943092 
L 355.013551 33.294031 
L 355.410721 32.891288 
L 355.807891 32.175172 
L 356.205061 31.815373 
L 356.602231 31.784035 
L 356.999401 31.420754 
L 357.396571 31.274513 
L 357.793741 30.856682 
L 358.588081 29.725056 
L 358.985251 29.535871 
L 359.382421 29.199285 
L 359.779591 29.690236 
L 360.176761 29.249192 
L 360.573931 29.034473 
L 360.971101 29.10063 
L 361.368272 28.394959 
L 362.162612 28.181401 
L 362.559782 28.364782 
L 363.354122 28.165152 
L 364.148462 27.520995 
L 364.942802 26.512397 
L 365.737142 26.764256 
L 366.134312 27.430465 
L 366.531482 27.662594 
L 366.928652 27.551172 
L 367.722992 28.702529 
L 368.120162 28.826718 
L 368.914502 29.974593 
L 369.311672 30.192794 
L 369.708842 29.73434 
L 370.106012 29.844601 
L 370.503182 29.690236 
L 371.297523 28.586465 
L 372.091863 28.439063 
L 372.489033 27.796067 
L 373.680543 26.748007 
L 374.474883 26.679529 
L 374.872053 26.117778 
L 375.269223 26.053943 
L 375.666393 25.74173 
L 376.063563 25.827618 
L 376.460733 25.624505 
L 376.857903 25.708071 
L 377.652243 26.891927 
L 378.049413 27.407252 
L 378.446583 27.197176 
L 378.843753 27.416537 
L 379.240923 27.426983 
L 380.035263 27.140304 
L 380.432434 27.770533 
L 381.623944 27.611525 
L 382.021114 26.919782 
L 383.212624 26.390529 
L 383.609794 25.786995 
L 384.006964 25.94136 
L 384.801304 25.198549 
L 385.198474 25.557188 
L 385.595644 25.575758 
L 385.992814 25.149802 
L 386.389984 25.003561 
L 386.787154 25.936718 
L 387.184324 25.965734 
L 387.581494 26.167685 
L 387.978664 26.508914 
L 388.773004 26.459007 
L 388.773004 26.459007 
" style="fill:none;"/>
   </g>
   <g id="line2d_43">
    <path clip-path="url(#pf5c939d474)" d="M 388.808688 26.667926 
L 389.205858 35.767363 
L 389.603028 35.67451 
L 390.000198 36.707483 
L 390.397368 40.112809 
L 390.794538 38.939786 
L 391.191708 41.524149 
L 391.588878 42.638366 
L 391.986048 42.953029 
L 392.780388 41.608558 
L 393.177558 39.988231 
L 393.971898 39.192915 
L 394.766238 39.864429 
L 395.560578 38.939784 
L 395.957748 39.669563 
L 396.354918 40.105843 
L 397.149259 42.528631 
L 397.546429 43.354936 
L 397.943599 43.847368 
L 398.737939 43.649017 
L 399.135109 42.884249 
L 399.532279 43.838801 
L 399.929449 44.168812 
L 400.326619 45.157733 
L 401.120959 45.93604 
L 401.518129 46.802609 
L 402.312469 47.572753 
L 403.106809 48.993666 
L 403.503979 49.742718 
L 403.901149 49.861727 
L 405.092659 51.292115 
L 405.886999 53.23387 
L 406.284169 53.659825 
L 406.68134 54.818147 
L 407.07851 55.4565 
L 407.47568 56.614821 
L 408.66719 58.956998 
L 409.8587 62.377412 
L 410.25587 62.784797 
L 410.65304 63.533412 
L 411.44738 65.984689 
L 411.84455 66.110038 
L 412.24172 66.685717 
L 412.63889 66.678753 
L 413.03606 66.921327 
L 414.22757 68.107503 
L 414.62474 68.680861 
L 415.02191 69.90766 
L 415.81625 70.841978 
L 416.610591 70.909295 
L 417.007761 71.736833 
L 417.404931 72.161628 
L 417.802101 72.812749 
L 418.199271 73.23058 
L 418.596441 72.929974 
L 418.993611 73.113355 
L 419.390781 72.9764 
L 419.787951 73.282809 
L 420.185121 72.607315 
L 420.979461 72.746592 
L 421.376631 72.023512 
L 422.170971 71.385159 
L 422.568141 70.4845 
L 423.362481 68.420878 
L 424.156821 68.372131 
L 424.553991 67.945014 
L 424.951161 68.039026 
L 425.348331 67.868412 
L 425.745502 67.096584 
L 426.539842 66.919006 
L 427.334182 65.687564 
L 427.731352 65.688725 
L 428.128522 66.010223 
L 428.922862 66.028793 
L 429.320032 65.530877 
L 429.717202 65.749078 
L 430.114372 65.273214 
L 430.511542 65.122331 
L 430.908712 65.113046 
L 431.703052 64.457283 
L 432.100222 64.09052 
L 432.497392 64.155516 
L 433.291732 62.044307 
L 434.086072 60.571451 
L 434.483242 60.367178 
L 434.880412 59.510624 
L 435.277583 58.99878 
L 435.674753 58.916375 
L 436.071923 59.211178 
L 436.866263 59.295905 
L 437.263433 59.53964 
L 437.660603 58.873431 
L 438.057773 58.698174 
L 438.852113 59.411969 
L 439.249283 59.327242 
L 440.837963 58.037769 
L 441.235133 58.199098 
L 442.029473 57.639668 
L 442.426643 57.231122 
L 442.823813 57.161484 
L 443.220983 57.319331 
L 443.618153 57.300761 
L 444.015323 56.291002 
L 444.412493 55.991556 
L 444.809664 55.239459 
L 445.206834 54.844841 
L 445.604004 54.276126 
L 446.398344 55.00617 
L 447.192684 53.789817 
L 447.589854 53.930255 
L 448.384194 53.688841 
L 448.781364 53.838564 
L 449.575704 54.351568 
L 450.370044 54.488524 
L 450.767214 54.309785 
L 451.164384 54.373621 
L 452.355894 54.122922 
L 452.753064 53.64938 
L 453.150234 53.854813 
L 453.547404 54.57093 
L 453.944574 54.864573 
L 454.341745 54.577894 
L 454.738915 54.479239 
L 455.136085 53.810709 
L 455.533255 53.710894 
L 455.533255 53.710894 
" style="fill:none;stroke-dasharray:0,0;stroke-dashoffset:0;"/>
   </g>
   <g id="line2d_44">
    <path clip-path="url(#pf5c939d474)" d="M 455.569326 54.662622 
L 455.966496 52.921659 
L 456.363666 57.324361 
L 457.555176 74.919703 
L 457.952346 77.331628 
L 458.349516 81.229729 
L 459.143856 90.8236 
L 460.335366 101.08118 
L 461.129706 106.962721 
L 461.924046 111.585993 
L 462.718387 114.976938 
L 464.307067 121.537835 
L 465.101407 123.981765 
L 466.690087 127.666236 
L 467.881597 130.496103 
L 469.867447 134.117073 
L 471.058957 135.721896 
L 472.250468 143.144205 
L 473.044808 146.670237 
L 474.236318 150.953008 
L 474.633488 151.759655 
L 476.222168 153.867382 
L 476.619338 154.091386 
L 477.413678 154.806342 
L 479.002358 155.842795 
L 479.399528 155.825386 
L 480.193868 155.542189 
L 480.591038 155.517815 
L 480.988208 155.16498 
L 481.385378 155.306578 
L 482.576889 155.134803 
L 484.562739 154.123884 
L 485.357079 153.615522 
L 487.342929 152.967884 
L 488.137269 152.733434 
L 488.931609 152.704418 
L 489.725949 152.561659 
L 490.917459 152.810036 
L 492.50614 153.038683 
L 494.09482 152.869229 
L 494.49199 152.515233 
L 494.88916 152.314442 
L 495.28633 151.873398 
L 495.6835 151.712069 
L 496.47784 151.772422 
L 496.87501 152.191414 
L 498.06652 152.515233 
L 498.86086 153.106 
L 499.6552 153.230189 
L 500.846711 154.257358 
L 501.641051 154.610193 
L 502.038221 154.65894 
L 504.024071 155.650129 
L 505.215581 155.839313 
L 506.009921 155.953056 
L 509.187281 156.074924 
L 509.981621 156.491595 
L 511.173132 157.872759 
L 511.570302 158.354426 
L 512.364642 158.754848 
L 513.556152 158.726992 
L 513.953322 158.844217 
L 515.542002 158.873233 
L 519.116532 158.913856 
L 519.513702 158.754848 
L 521.896723 158.612089 
L 522.691063 158.308 
L 523.088233 158.056141 
L 523.882573 156.532217 
L 524.676913 156.073763 
L 525.074083 155.681466 
L 525.471253 154.822591 
L 526.265593 153.795422 
L 526.662763 153.50294 
L 527.059933 153.390358 
L 527.854273 152.799591 
L 529.442954 152.287747 
L 531.031634 151.441639 
L 531.825974 151.402177 
L 532.620314 151.252454 
L 533.017484 151.159603 
L 534.606164 151.165406 
L 535.003334 150.894976 
L 535.400504 150.766145 
L 535.797674 150.463217 
L 537.386354 147.927213 
L 537.783524 147.61384 
L 538.577864 147.54304 
L 538.975035 147.692763 
L 539.769375 148.707165 
L 540.166545 148.62592 
L 540.960885 148.858048 
L 541.358055 149.516133 
L 542.152395 150.228767 
L 543.343905 150.473663 
L 543.741075 150.674454 
L 544.932585 150.91935 
L 545.329755 151.152639 
L 545.329755 151.152639 
" style="fill:none;stroke-dasharray:0,0;stroke-dashoffset:0;"/>
   </g>
   <g id="line2d_45"/>
   <g id="line2d_46"/>
   <g id="line2d_47"/>
   <g id="line2d_48"/>
   <g id="line2d_49"/>
   <g id="line2d_50"/>
   <g id="line2d_51"/>
   <g id="line2d_52">
    <path clip-path="url(#pf5c939d474)" d="M 332.355 60.883665 
L 555.9775 60.883665 
" style="fill:none;stroke:#008000;stroke-dasharray:5.55,2.4;stroke-dashoffset:0;stroke-width:1.5;"/>
   </g>
   <g id="patch_8">
    <path d="M 332.355 164.088 
L 332.355 16.008 
" style="fill:none;stroke:#cccccc;stroke-linecap:square;stroke-linejoin:miter;stroke-width:0.8;"/>
   </g>
   <g id="patch_9">
    <path d="M 555.9775 164.088 
L 555.9775 16.008 
" style="fill:none;stroke:#cccccc;stroke-linecap:square;stroke-linejoin:miter;stroke-width:0.8;"/>
   </g>
   <g id="patch_10">
    <path d="M 332.355 164.088 
L 555.9775 164.088 
" style="fill:none;stroke:#cccccc;stroke-linecap:square;stroke-linejoin:miter;stroke-width:0.8;"/>
   </g>
   <g id="patch_11">
    <path d="M 332.355 16.008 
L 555.9775 16.008 
" style="fill:none;stroke:#cccccc;stroke-linecap:square;stroke-linejoin:miter;stroke-width:0.8;"/>
   </g>
   <g id="legend_1">
    <g id="patch_12">
     <path d="M 568.84995 186.9375 
L 693.726825 186.9375 
Q 696.126825 186.9375 696.126825 184.5375 
L 696.126825 9.6 
Q 696.126825 7.2 693.726825 7.2 
L 568.84995 7.2 
Q 566.44995 7.2 566.44995 9.6 
L 566.44995 184.5375 
Q 566.44995 186.9375 568.84995 186.9375 
z
" style="fill:#ffffff;opacity:0.8;stroke:#cccccc;stroke-linejoin:miter;"/>
    </g>
    <g id="line2d_53">
     <path d="M 571.24995 16.918125 
L 595.24995 16.918125 
" style="fill:none;stroke:#008000;stroke-dasharray:5.55,2.4;stroke-dashoffset:0;stroke-width:1.5;"/>
    </g>
    <g id="line2d_54"/>
    <g id="text_27">
     <!-- Random -->
     <defs>
      <path d="M 44.390625 34.1875 
Q 47.5625 33.109375 50.5625 29.59375 
Q 53.5625 26.078125 56.59375 19.921875 
L 66.609375 0 
L 56 0 
L 46.6875 18.703125 
Q 43.0625 26.03125 39.671875 28.421875 
Q 36.28125 30.8125 30.421875 30.8125 
L 19.671875 30.8125 
L 19.671875 0 
L 9.8125 0 
L 9.8125 72.90625 
L 32.078125 72.90625 
Q 44.578125 72.90625 50.734375 67.671875 
Q 56.890625 62.453125 56.890625 51.90625 
Q 56.890625 45.015625 53.6875 40.46875 
Q 50.484375 35.9375 44.390625 34.1875 
z
M 19.671875 64.796875 
L 19.671875 38.921875 
L 32.078125 38.921875 
Q 39.203125 38.921875 42.84375 42.21875 
Q 46.484375 45.515625 46.484375 51.90625 
Q 46.484375 58.296875 42.84375 61.546875 
Q 39.203125 64.796875 32.078125 64.796875 
z
" id="DejaVuSans-82"/>
      <path d="M 34.28125 27.484375 
Q 23.390625 27.484375 19.1875 25 
Q 14.984375 22.515625 14.984375 16.5 
Q 14.984375 11.71875 18.140625 8.90625 
Q 21.296875 6.109375 26.703125 6.109375 
Q 34.1875 6.109375 38.703125 11.40625 
Q 43.21875 16.703125 43.21875 25.484375 
L 43.21875 27.484375 
z
M 52.203125 31.203125 
L 52.203125 0 
L 43.21875 0 
L 43.21875 8.296875 
Q 40.140625 3.328125 35.546875 0.953125 
Q 30.953125 -1.421875 24.3125 -1.421875 
Q 15.921875 -1.421875 10.953125 3.296875 
Q 6 8.015625 6 15.921875 
Q 6 25.140625 12.171875 29.828125 
Q 18.359375 34.515625 30.609375 34.515625 
L 43.21875 34.515625 
L 43.21875 35.40625 
Q 43.21875 41.609375 39.140625 45 
Q 35.0625 48.390625 27.6875 48.390625 
Q 23 48.390625 18.546875 47.265625 
Q 14.109375 46.140625 10.015625 43.890625 
L 10.015625 52.203125 
Q 14.9375 54.109375 19.578125 55.046875 
Q 24.21875 56 28.609375 56 
Q 40.484375 56 46.34375 49.84375 
Q 52.203125 43.703125 52.203125 31.203125 
z
" id="DejaVuSans-97"/>
      <path d="M 45.40625 46.390625 
L 45.40625 75.984375 
L 54.390625 75.984375 
L 54.390625 0 
L 45.40625 0 
L 45.40625 8.203125 
Q 42.578125 3.328125 38.25 0.953125 
Q 33.9375 -1.421875 27.875 -1.421875 
Q 17.96875 -1.421875 11.734375 6.484375 
Q 5.515625 14.40625 5.515625 27.296875 
Q 5.515625 40.1875 11.734375 48.09375 
Q 17.96875 56 27.875 56 
Q 33.9375 56 38.25 53.625 
Q 42.578125 51.265625 45.40625 46.390625 
z
M 14.796875 27.296875 
Q 14.796875 17.390625 18.875 11.75 
Q 22.953125 6.109375 30.078125 6.109375 
Q 37.203125 6.109375 41.296875 11.75 
Q 45.40625 17.390625 45.40625 27.296875 
Q 45.40625 37.203125 41.296875 42.84375 
Q 37.203125 48.484375 30.078125 48.484375 
Q 22.953125 48.484375 18.875 42.84375 
Q 14.796875 37.203125 14.796875 27.296875 
z
" id="DejaVuSans-100"/>
      <path d="M 52 44.1875 
Q 55.375 50.25 60.0625 53.125 
Q 64.75 56 71.09375 56 
Q 79.640625 56 84.28125 50.015625 
Q 88.921875 44.046875 88.921875 33.015625 
L 88.921875 0 
L 79.890625 0 
L 79.890625 32.71875 
Q 79.890625 40.578125 77.09375 44.375 
Q 74.3125 48.1875 68.609375 48.1875 
Q 61.625 48.1875 57.5625 43.546875 
Q 53.515625 38.921875 53.515625 30.90625 
L 53.515625 0 
L 44.484375 0 
L 44.484375 32.71875 
Q 44.484375 40.625 41.703125 44.40625 
Q 38.921875 48.1875 33.109375 48.1875 
Q 26.21875 48.1875 22.15625 43.53125 
Q 18.109375 38.875 18.109375 30.90625 
L 18.109375 0 
L 9.078125 0 
L 9.078125 54.6875 
L 18.109375 54.6875 
L 18.109375 46.1875 
Q 21.1875 51.21875 25.484375 53.609375 
Q 29.78125 56 35.6875 56 
Q 41.65625 56 45.828125 52.96875 
Q 50 49.953125 52 44.1875 
z
" id="DejaVuSans-109"/>
     </defs>
     <g style="fill:#262626;" transform="translate(604.84995 21.118125)scale(0.12 -0.12)">
      <use xlink:href="#DejaVuSans-82"/>
      <use x="69.451172" xlink:href="#DejaVuSans-97"/>
      <use x="130.730469" xlink:href="#DejaVuSans-110"/>
      <use x="194.109375" xlink:href="#DejaVuSans-100"/>
      <use x="257.585938" xlink:href="#DejaVuSans-111"/>
      <use x="318.767578" xlink:href="#DejaVuSans-109"/>
     </g>
    </g>
    <g id="line2d_55">
     <path d="M 571.24995 34.531875 
L 595.24995 34.531875 
" style="fill:none;stroke:#800080;stroke-dasharray:5.55,2.4;stroke-dashoffset:0;stroke-width:1.5;"/>
    </g>
    <g id="line2d_56"/>
    <g id="text_28">
     <!-- Goal follower   -->
     <defs>
      <path d="M 59.515625 10.40625 
L 59.515625 29.984375 
L 43.40625 29.984375 
L 43.40625 38.09375 
L 69.28125 38.09375 
L 69.28125 6.78125 
Q 63.578125 2.734375 56.6875 0.65625 
Q 49.8125 -1.421875 42 -1.421875 
Q 24.90625 -1.421875 15.25 8.5625 
Q 5.609375 18.5625 5.609375 36.375 
Q 5.609375 54.25 15.25 64.234375 
Q 24.90625 74.21875 42 74.21875 
Q 49.125 74.21875 55.546875 72.453125 
Q 61.96875 70.703125 67.390625 67.28125 
L 67.390625 56.78125 
Q 61.921875 61.421875 55.765625 63.765625 
Q 49.609375 66.109375 42.828125 66.109375 
Q 29.4375 66.109375 22.71875 58.640625 
Q 16.015625 51.171875 16.015625 36.375 
Q 16.015625 21.625 22.71875 14.15625 
Q 29.4375 6.6875 42.828125 6.6875 
Q 48.046875 6.6875 52.140625 7.59375 
Q 56.25 8.5 59.515625 10.40625 
z
" id="DejaVuSans-71"/>
      <path id="DejaVuSans-32"/>
      <path d="M 37.109375 75.984375 
L 37.109375 68.5 
L 28.515625 68.5 
Q 23.6875 68.5 21.796875 66.546875 
Q 19.921875 64.59375 19.921875 59.515625 
L 19.921875 54.6875 
L 34.71875 54.6875 
L 34.71875 47.703125 
L 19.921875 47.703125 
L 19.921875 0 
L 10.890625 0 
L 10.890625 47.703125 
L 2.296875 47.703125 
L 2.296875 54.6875 
L 10.890625 54.6875 
L 10.890625 58.5 
Q 10.890625 67.625 15.140625 71.796875 
Q 19.390625 75.984375 28.609375 75.984375 
z
" id="DejaVuSans-102"/>
      <path d="M 4.203125 54.6875 
L 13.1875 54.6875 
L 24.421875 12.015625 
L 35.59375 54.6875 
L 46.1875 54.6875 
L 57.421875 12.015625 
L 68.609375 54.6875 
L 77.59375 54.6875 
L 63.28125 0 
L 52.6875 0 
L 40.921875 44.828125 
L 29.109375 0 
L 18.5 0 
z
" id="DejaVuSans-119"/>
      <path d="M 41.109375 46.296875 
Q 39.59375 47.171875 37.8125 47.578125 
Q 36.03125 48 33.890625 48 
Q 26.265625 48 22.1875 43.046875 
Q 18.109375 38.09375 18.109375 28.8125 
L 18.109375 0 
L 9.078125 0 
L 9.078125 54.6875 
L 18.109375 54.6875 
L 18.109375 46.1875 
Q 20.953125 51.171875 25.484375 53.578125 
Q 30.03125 56 36.53125 56 
Q 37.453125 56 38.578125 55.875 
Q 39.703125 55.765625 41.0625 55.515625 
z
" id="DejaVuSans-114"/>
     </defs>
     <g style="fill:#262626;" transform="translate(604.84995 38.731875)scale(0.12 -0.12)">
      <use xlink:href="#DejaVuSans-71"/>
      <use x="77.490234" xlink:href="#DejaVuSans-111"/>
      <use x="138.671875" xlink:href="#DejaVuSans-97"/>
      <use x="199.951172" xlink:href="#DejaVuSans-108"/>
      <use x="227.734375" xlink:href="#DejaVuSans-32"/>
      <use x="259.521484" xlink:href="#DejaVuSans-102"/>
      <use x="294.726562" xlink:href="#DejaVuSans-111"/>
      <use x="355.908203" xlink:href="#DejaVuSans-108"/>
      <use x="383.691406" xlink:href="#DejaVuSans-108"/>
      <use x="411.474609" xlink:href="#DejaVuSans-111"/>
      <use x="472.65625" xlink:href="#DejaVuSans-119"/>
      <use x="554.443359" xlink:href="#DejaVuSans-101"/>
      <use x="615.966797" xlink:href="#DejaVuSans-114"/>
      <use x="657.080078" xlink:href="#DejaVuSans-32"/>
      <use x="688.867188" xlink:href="#DejaVuSans-32"/>
     </g>
    </g>
    <g id="line2d_57">
     <path d="M 571.24995 52.145625 
L 595.24995 52.145625 
" style="fill:none;stroke:#ff0000;stroke-dasharray:5.55,2.4;stroke-dashoffset:0;stroke-width:1.5;"/>
    </g>
    <g id="line2d_58"/>
    <g id="text_29">
     <!-- SLAM -->
     <defs>
      <path d="M 53.515625 70.515625 
L 53.515625 60.890625 
Q 47.90625 63.578125 42.921875 64.890625 
Q 37.9375 66.21875 33.296875 66.21875 
Q 25.25 66.21875 20.875 63.09375 
Q 16.5 59.96875 16.5 54.203125 
Q 16.5 49.359375 19.40625 46.890625 
Q 22.3125 44.4375 30.421875 42.921875 
L 36.375 41.703125 
Q 47.40625 39.59375 52.65625 34.296875 
Q 57.90625 29 57.90625 20.125 
Q 57.90625 9.515625 50.796875 4.046875 
Q 43.703125 -1.421875 29.984375 -1.421875 
Q 24.8125 -1.421875 18.96875 -0.25 
Q 13.140625 0.921875 6.890625 3.21875 
L 6.890625 13.375 
Q 12.890625 10.015625 18.65625 8.296875 
Q 24.421875 6.59375 29.984375 6.59375 
Q 38.421875 6.59375 43.015625 9.90625 
Q 47.609375 13.234375 47.609375 19.390625 
Q 47.609375 24.75 44.3125 27.78125 
Q 41.015625 30.8125 33.5 32.328125 
L 27.484375 33.5 
Q 16.453125 35.6875 11.515625 40.375 
Q 6.59375 45.0625 6.59375 53.421875 
Q 6.59375 63.09375 13.40625 68.65625 
Q 20.21875 74.21875 32.171875 74.21875 
Q 37.3125 74.21875 42.625 73.28125 
Q 47.953125 72.359375 53.515625 70.515625 
z
" id="DejaVuSans-83"/>
      <path d="M 9.8125 72.90625 
L 19.671875 72.90625 
L 19.671875 8.296875 
L 55.171875 8.296875 
L 55.171875 0 
L 9.8125 0 
z
" id="DejaVuSans-76"/>
      <path d="M 34.1875 63.1875 
L 20.796875 26.90625 
L 47.609375 26.90625 
z
M 28.609375 72.90625 
L 39.796875 72.90625 
L 67.578125 0 
L 57.328125 0 
L 50.6875 18.703125 
L 17.828125 18.703125 
L 11.1875 0 
L 0.78125 0 
z
" id="DejaVuSans-65"/>
     </defs>
     <g style="fill:#262626;" transform="translate(604.84995 56.345625)scale(0.12 -0.12)">
      <use xlink:href="#DejaVuSans-83"/>
      <use x="63.476562" xlink:href="#DejaVuSans-76"/>
      <use x="119.220703" xlink:href="#DejaVuSans-65"/>
      <use x="187.628906" xlink:href="#DejaVuSans-77"/>
     </g>
    </g>
    <g id="line2d_59">
     <path d="M 571.24995 69.759375 
L 595.24995 69.759375 
" style="fill:none;"/>
    </g>
    <g id="line2d_60"/>
    <g id="line2d_61">
     <path d="M 571.24995 87.373125 
L 595.24995 87.373125 
" style="fill:none;"/>
    </g>
    <g id="line2d_62"/>
    <g id="line2d_63">
     <path d="M 571.24995 104.986875 
L 595.24995 104.986875 
" style="fill:none;"/>
    </g>
    <g id="line2d_64"/>
    <g id="line2d_65">
     <path d="M 571.24995 122.600625 
L 595.24995 122.600625 
" style="fill:none;"/>
    </g>
    <g id="line2d_66"/>
    <g id="line2d_67">
     <path d="M 571.24995 140.214375 
L 595.24995 140.214375 
" style="fill:none;"/>
    </g>
    <g id="line2d_68"/>
    <g id="line2d_69">
     <path d="M 571.24995 157.828125 
L 595.24995 157.828125 
" style="fill:none;"/>
    </g>
    <g id="line2d_70"/>
    <g id="line2d_71">
     <path d="M 571.24995 175.441875 
L 595.24995 175.441875 
" style="fill:none;"/>
    </g>
    <g id="line2d_72"/>
   </g>
  </g>
 </g>
 <defs>
  <clipPath id="p675ba01942">
   <rect height="148.08" width="223.6225" x="48.8975" y="16.008"/>
  </clipPath>
  <clipPath id="pf5c939d474">
   <rect height="148.08" width="223.6225" x="332.355" y="16.008"/>
  </clipPath>
 </defs>
</svg>
