<?xml version="1.0" encoding="UTF-8" standalone="no"?>
<svg
   xmlns:dc="http://purl.org/dc/elements/1.1/"
   xmlns:cc="http://creativecommons.org/ns#"
   xmlns:rdf="http://www.w3.org/1999/02/22-rdf-syntax-ns#"
   xmlns:svg="http://www.w3.org/2000/svg"
   xmlns="http://www.w3.org/2000/svg"
   viewBox="0 0 530.38397 310.32266"
   height="310.32266"
   width="530.38397"
   xml:space="preserve"
   id="svg2"
   version="1.1"><metadata
     id="metadata8"><rdf:RDF><cc:Work
         rdf:about=""><dc:format>image/svg+xml</dc:format><dc:type
           rdf:resource="http://purl.org/dc/dcmitype/StillImage" /></cc:Work></rdf:RDF></metadata><defs
     id="defs6"><clipPath
       id="clipPath14"
       clipPathUnits="userSpaceOnUse"><path
         id="path12"
         d="M 0,0 H 841.89 V 595.28 H 0 Z" /></clipPath><clipPath
       id="clipPath22"
       clipPathUnits="userSpaceOnUse"><path
         id="path20"
         d="M 0,595.28 H 841.89 V 0 H 0 Z" /></clipPath><clipPath
       id="clipPath122"
       clipPathUnits="userSpaceOnUse"><path
         id="path120"
         d="m 212.119,350.88 133.481,-79.874 1.129,1.888 -133.48,79.874 z" /></clipPath><linearGradient
       id="linearGradient134"
       spreadMethod="pad"
       gradientTransform="matrix(-134.60937,0,0,-134.60937,346.72852,311.88672)"
       gradientUnits="userSpaceOnUse"
       y2="0"
       x2="1"
       y1="0"
       x1="0"><stop
         id="stop128"
         offset="0"
         style="stop-opacity:1;stop-color:#2e3192" /><stop
         id="stop130"
         offset="0.20091295"
         style="stop-opacity:1;stop-color:#233a34" /><stop
         id="stop132"
         offset="1"
         style="stop-opacity:1;stop-color:#233a34" /></linearGradient><clipPath
       id="clipPath144"
       clipPathUnits="userSpaceOnUse"><path
         id="path142"
         d="m 212.183,350.844 133.481,-68.277 1.002,1.958 -133.481,68.279 z" /></clipPath><linearGradient
       id="linearGradient156"
       spreadMethod="pad"
       gradientTransform="matrix(-134.48242,0,0,-134.48242,346.66602,317.68457)"
       gradientUnits="userSpaceOnUse"
       y2="0"
       x2="1"
       y1="0"
       x1="0"><stop
         id="stop150"
         offset="0"
         style="stop-opacity:1;stop-color:#2e3192" /><stop
         id="stop152"
         offset="0.20091295"
         style="stop-opacity:1;stop-color:#233a34" /><stop
         id="stop154"
         offset="1"
         style="stop-opacity:1;stop-color:#233a34" /></linearGradient><clipPath
       id="clipPath166"
       clipPathUnits="userSpaceOnUse"><path
         id="path164"
         d="m 212.254,350.811 133.481,-56.683 0.859,2.025 -133.48,56.683 z" /></clipPath><linearGradient
       id="linearGradient178"
       spreadMethod="pad"
       gradientTransform="matrix(-134.33984,0,0,-134.33984,346.59375,323.48242)"
       gradientUnits="userSpaceOnUse"
       y2="0"
       x2="1"
       y1="0"
       x1="0"><stop
         id="stop172"
         offset="0"
         style="stop-opacity:1;stop-color:#2e3192" /><stop
         id="stop174"
         offset="0.20091295"
         style="stop-opacity:1;stop-color:#233a34" /><stop
         id="stop176"
         offset="1"
         style="stop-opacity:1;stop-color:#233a34" /></linearGradient><clipPath
       id="clipPath188"
       clipPathUnits="userSpaceOnUse"><path
         id="path186"
         d="m 212.333,350.781 133.48,-45.086 0.703,2.083 -133.481,45.088 z" /></clipPath><linearGradient
       id="linearGradient200"
       spreadMethod="pad"
       gradientTransform="matrix(-134.18359,0,0,-134.18359,346.51562,329.28027)"
       gradientUnits="userSpaceOnUse"
       y2="0"
       x2="1"
       y1="0"
       x1="0"><stop
         id="stop194"
         offset="0"
         style="stop-opacity:1;stop-color:#2e3192" /><stop
         id="stop196"
         offset="0.20091295"
         style="stop-opacity:1;stop-color:#233a34" /><stop
         id="stop198"
         offset="1"
         style="stop-opacity:1;stop-color:#233a34" /></linearGradient><clipPath
       id="clipPath210"
       clipPathUnits="userSpaceOnUse"><path
         id="path208"
         d="m 212.416,350.757 133.481,-33.492 0.535,2.134 -133.48,33.492 z" /></clipPath><linearGradient
       id="linearGradient222"
       spreadMethod="pad"
       gradientTransform="matrix(-134.01562,0,0,-134.01562,346.43164,335.07812)"
       gradientUnits="userSpaceOnUse"
       y2="0"
       x2="1"
       y1="0"
       x1="0"><stop
         id="stop216"
         offset="0"
         style="stop-opacity:1;stop-color:#2e3192" /><stop
         id="stop218"
         offset="0.20091295"
         style="stop-opacity:1;stop-color:#233a34" /><stop
         id="stop220"
         offset="1"
         style="stop-opacity:1;stop-color:#233a34" /></linearGradient><clipPath
       id="clipPath232"
       clipPathUnits="userSpaceOnUse"><path
         id="path230"
         d="m 212.506,350.738 133.481,-21.896 0.355,2.171 -133.48,21.896 z" /></clipPath><linearGradient
       id="linearGradient244"
       spreadMethod="pad"
       gradientTransform="matrix(-133.83594,0,0,-133.83594,346.3418,340.87549)"
       gradientUnits="userSpaceOnUse"
       y2="0"
       x2="1"
       y1="0"
       x1="0"><stop
         id="stop238"
         offset="0"
         style="stop-opacity:1;stop-color:#2e3192" /><stop
         id="stop240"
         offset="0.20091295"
         style="stop-opacity:1;stop-color:#233a34" /><stop
         id="stop242"
         offset="1"
         style="stop-opacity:1;stop-color:#233a34" /></linearGradient><clipPath
       id="clipPath254"
       clipPathUnits="userSpaceOnUse"><path
         id="path252"
         d="m 212.599,350.727 133.481,-10.301 0.17,2.193 -133.481,10.302 z" /></clipPath><linearGradient
       id="linearGradient266"
       spreadMethod="pad"
       gradientTransform="matrix(-133.65039,0,0,-133.65039,346.25,346.67334)"
       gradientUnits="userSpaceOnUse"
       y2="0"
       x2="1"
       y1="0"
       x1="0"><stop
         id="stop260"
         offset="0"
         style="stop-opacity:1;stop-color:#2e3192" /><stop
         id="stop262"
         offset="0.20091295"
         style="stop-opacity:1;stop-color:#233a34" /><stop
         id="stop264"
         offset="1"
         style="stop-opacity:1;stop-color:#233a34" /></linearGradient><clipPath
       id="clipPath276"
       clipPathUnits="userSpaceOnUse"><path
         id="path274"
         d="m 212.674,352.924 0.021,-2.2 133.48,1.294 -0.021,2.2 z" /></clipPath><linearGradient
       id="linearGradient288"
       spreadMethod="pad"
       gradientTransform="matrix(-133.50195,0,0,-133.50195,346.17578,352.4707)"
       gradientUnits="userSpaceOnUse"
       y2="0"
       x2="1"
       y1="0"
       x1="0"><stop
         id="stop282"
         offset="0"
         style="stop-opacity:1;stop-color:#2e3192" /><stop
         id="stop284"
         offset="0.20091295"
         style="stop-opacity:1;stop-color:#233a34" /><stop
         id="stop286"
         offset="1"
         style="stop-opacity:1;stop-color:#233a34" /></linearGradient><clipPath
       id="clipPath298"
       clipPathUnits="userSpaceOnUse"><path
         id="path296"
         d="m 212.578,352.919 0.212,-2.19 133.48,12.89 -0.211,2.189 z" /></clipPath><linearGradient
       id="linearGradient310"
       spreadMethod="pad"
       gradientTransform="matrix(-133.69141,0,0,-133.69141,346.26953,358.26855)"
       gradientUnits="userSpaceOnUse"
       y2="0"
       x2="1"
       y1="0"
       x1="0"><stop
         id="stop304"
         offset="0"
         style="stop-opacity:1;stop-color:#2e3192" /><stop
         id="stop306"
         offset="0.20091295"
         style="stop-opacity:1;stop-color:#233a34" /><stop
         id="stop308"
         offset="1"
         style="stop-opacity:1;stop-color:#233a34" /></linearGradient><clipPath
       id="clipPath320"
       clipPathUnits="userSpaceOnUse"><path
         id="path318"
         d="m 212.486,352.906 0.396,-2.164 133.481,24.484 -0.397,2.165 z" /></clipPath><linearGradient
       id="linearGradient332"
       spreadMethod="pad"
       gradientTransform="matrix(-133.87695,0,0,-133.87695,346.36328,364.06641)"
       gradientUnits="userSpaceOnUse"
       y2="0"
       x2="1"
       y1="0"
       x1="0"><stop
         id="stop326"
         offset="0"
         style="stop-opacity:1;stop-color:#2e3192" /><stop
         id="stop328"
         offset="0.20091295"
         style="stop-opacity:1;stop-color:#233a34" /><stop
         id="stop330"
         offset="1"
         style="stop-opacity:1;stop-color:#233a34" /></linearGradient><clipPath
       id="clipPath342"
       clipPathUnits="userSpaceOnUse"><path
         id="path340"
         d="m 212.397,352.885 0.574,-2.123 133.48,36.08 -0.574,2.124 z" /></clipPath><linearGradient
       id="linearGradient354"
       spreadMethod="pad"
       gradientTransform="matrix(-134.05469,0,0,-134.05469,346.45117,369.86426)"
       gradientUnits="userSpaceOnUse"
       y2="0"
       x2="1"
       y1="0"
       x1="0"><stop
         id="stop348"
         offset="0"
         style="stop-opacity:1;stop-color:#2e3192" /><stop
         id="stop350"
         offset="0.20091295"
         style="stop-opacity:1;stop-color:#233a34" /><stop
         id="stop352"
         offset="1"
         style="stop-opacity:1;stop-color:#233a34" /></linearGradient><clipPath
       id="clipPath364"
       clipPathUnits="userSpaceOnUse"><path
         id="path362"
         d="m 212.314,352.86 0.74,-2.072 133.481,47.675 -0.741,2.073 z" /></clipPath><linearGradient
       id="linearGradient376"
       spreadMethod="pad"
       gradientTransform="matrix(-134.2207,0,0,-134.2207,346.53516,375.66162)"
       gradientUnits="userSpaceOnUse"
       y2="0"
       x2="1"
       y1="0"
       x1="0"><stop
         id="stop370"
         offset="0"
         style="stop-opacity:1;stop-color:#2e3192" /><stop
         id="stop372"
         offset="0.20091295"
         style="stop-opacity:1;stop-color:#233a34" /><stop
         id="stop374"
         offset="1"
         style="stop-opacity:1;stop-color:#233a34" /></linearGradient><clipPath
       id="clipPath386"
       clipPathUnits="userSpaceOnUse"><path
         id="path384"
         d="m 212.314,352.86 -2.195,-0.784 135.481,-81.07 1.129,1.888 -131.48,78.678 c 16.962,6.053 126.249,45.06 131.291,46.894 v 0 l -0.751,2.067 C 340.355,398.557 213.594,353.317 212.314,352.86" /></clipPath><linearGradient
       id="linearGradient398"
       spreadMethod="pad"
       gradientTransform="matrix(-136.60937,1.53e-5,1.53e-5,136.60937,346.729,335.77002)"
       gradientUnits="userSpaceOnUse"
       y2="0"
       x2="1"
       y1="0"
       x1="0"><stop
         id="stop392"
         offset="0"
         style="stop-opacity:1;stop-color:#2e3192" /><stop
         id="stop394"
         offset="0.20091295"
         style="stop-opacity:1;stop-color:#233a34" /><stop
         id="stop396"
         offset="1"
         style="stop-opacity:1;stop-color:#233a34" /></linearGradient><clipPath
       id="clipPath408"
       clipPathUnits="userSpaceOnUse"><path
         id="path406"
         d="m 195.621,187.566 1.088,-1.911 150,85.339 -1.088,1.912 z" /></clipPath><linearGradient
       id="linearGradient420"
       spreadMethod="pad"
       gradientTransform="matrix(-151.08789,0,0,-151.08789,346.70898,229.28027)"
       gradientUnits="userSpaceOnUse"
       y2="0"
       x2="1"
       y1="0"
       x1="0"><stop
         id="stop414"
         offset="0"
         style="stop-opacity:1;stop-color:#2e3192" /><stop
         id="stop416"
         offset="0.45169567"
         style="stop-opacity:1;stop-color:#7bc3d1" /><stop
         id="stop418"
         offset="1"
         style="stop-opacity:1;stop-color:#7bc3d1" /></linearGradient><clipPath
       id="clipPath430"
       clipPathUnits="userSpaceOnUse"><path
         id="path428"
         d="m 345.568,284.469 -149.999,-96.935 1.193,-1.848 149.999,96.936 -0.095,1.903 z" /></clipPath><linearGradient
       id="linearGradient442"
       spreadMethod="pad"
       gradientTransform="matrix(-151.19336,0,0,-151.19336,346.76172,235.10645)"
       gradientUnits="userSpaceOnUse"
       y2="0"
       x2="1"
       y1="0"
       x1="0"><stop
         id="stop436"
         offset="0"
         style="stop-opacity:1;stop-color:#2e3192" /><stop
         id="stop438"
         offset="0.45169567"
         style="stop-opacity:1;stop-color:#7bc3d1" /><stop
         id="stop440"
         offset="1"
         style="stop-opacity:1;stop-color:#7bc3d1" /></linearGradient><clipPath
       id="clipPath452"
       clipPathUnits="userSpaceOnUse"><path
         id="path450"
         d="m 345.52,296.033 -149.999,-108.532 1.289,-1.782 149.999,108.531 -0.215,1.903 z" /></clipPath><linearGradient
       id="linearGradient464"
       spreadMethod="pad"
       gradientTransform="matrix(-151.28711,0,0,-151.28711,346.80859,240.93652)"
       gradientUnits="userSpaceOnUse"
       y2="0"
       x2="1"
       y1="0"
       x1="0"><stop
         id="stop458"
         offset="0"
         style="stop-opacity:1;stop-color:#2e3192" /><stop
         id="stop460"
         offset="0.45169567"
         style="stop-opacity:1;stop-color:#7bc3d1" /><stop
         id="stop462"
         offset="1"
         style="stop-opacity:1;stop-color:#7bc3d1" /></linearGradient><clipPath
       id="clipPath474"
       clipPathUnits="userSpaceOnUse"><path
         id="path472"
         d="m 345.477,307.595 -149.999,-120.126 1.375,-1.717 149.999,120.126 -0.336,1.9 z" /></clipPath><linearGradient
       id="linearGradient486"
       spreadMethod="pad"
       gradientTransform="matrix(-151.37305,0,0,-151.37305,346.85156,246.76562)"
       gradientUnits="userSpaceOnUse"
       y2="0"
       x2="1"
       y1="0"
       x1="0"><stop
         id="stop480"
         offset="0"
         style="stop-opacity:1;stop-color:#2e3192" /><stop
         id="stop482"
         offset="0.45169567"
         style="stop-opacity:1;stop-color:#7bc3d1" /><stop
         id="stop484"
         offset="1"
         style="stop-opacity:1;stop-color:#7bc3d1" /></linearGradient><clipPath
       id="clipPath496"
       clipPathUnits="userSpaceOnUse"><path
         id="path494"
         d="m 345.439,319.159 -150,-131.722 1.452,-1.653 149.999,131.722 -0.458,1.893 z" /></clipPath><linearGradient
       id="linearGradient508"
       spreadMethod="pad"
       gradientTransform="matrix(-151.45117,0,0,-151.45117,346.89062,252.5918)"
       gradientUnits="userSpaceOnUse"
       y2="0"
       x2="1"
       y1="0"
       x1="0"><stop
         id="stop502"
         offset="0"
         style="stop-opacity:1;stop-color:#2e3192" /><stop
         id="stop504"
         offset="0.45169567"
         style="stop-opacity:1;stop-color:#7bc3d1" /><stop
         id="stop506"
         offset="1"
         style="stop-opacity:1;stop-color:#7bc3d1" /></linearGradient><clipPath
       id="clipPath518"
       clipPathUnits="userSpaceOnUse"><path
         id="path516"
         d="m 345.405,330.723 -149.999,-143.318 1.519,-1.589 149.999,143.316 -0.582,1.881 z" /></clipPath><linearGradient
       id="linearGradient530"
       spreadMethod="pad"
       gradientTransform="matrix(-151.51758,0,0,-151.51758,346.92383,258.41406)"
       gradientUnits="userSpaceOnUse"
       y2="0"
       x2="1"
       y1="0"
       x1="0"><stop
         id="stop524"
         offset="0"
         style="stop-opacity:1;stop-color:#2e3192" /><stop
         id="stop526"
         offset="0.45169567"
         style="stop-opacity:1;stop-color:#7bc3d1" /><stop
         id="stop528"
         offset="1"
         style="stop-opacity:1;stop-color:#7bc3d1" /></linearGradient><clipPath
       id="clipPath540"
       clipPathUnits="userSpaceOnUse"><path
         id="path538"
         d="m 345.374,342.288 -149.998,-154.912 1.58,-1.531 149.998,154.913 -0.704,1.861 z" /></clipPath><linearGradient
       id="linearGradient552"
       spreadMethod="pad"
       gradientTransform="matrix(-151.58008,0,0,-151.58008,346.95508,264.23242)"
       gradientUnits="userSpaceOnUse"
       y2="0"
       x2="1"
       y1="0"
       x1="0"><stop
         id="stop546"
         offset="0"
         style="stop-opacity:1;stop-color:#2e3192" /><stop
         id="stop548"
         offset="0.45169567"
         style="stop-opacity:1;stop-color:#7bc3d1" /><stop
         id="stop550"
         offset="1"
         style="stop-opacity:1;stop-color:#7bc3d1" /></linearGradient><clipPath
       id="clipPath562"
       clipPathUnits="userSpaceOnUse"><path
         id="path560"
         d="m 345.347,353.855 -149.999,-166.508 1.635,-1.473 149.999,166.508 -0.828,1.836 z" /></clipPath><linearGradient
       id="linearGradient574"
       spreadMethod="pad"
       gradientTransform="matrix(-151.63477,0,0,-151.63477,346.98242,270.0459)"
       gradientUnits="userSpaceOnUse"
       y2="0"
       x2="1"
       y1="0"
       x1="0"><stop
         id="stop568"
         offset="0"
         style="stop-opacity:1;stop-color:#2e3192" /><stop
         id="stop570"
         offset="0.45169567"
         style="stop-opacity:1;stop-color:#7bc3d1" /><stop
         id="stop572"
         offset="1"
         style="stop-opacity:1;stop-color:#7bc3d1" /></linearGradient><clipPath
       id="clipPath584"
       clipPathUnits="userSpaceOnUse"><path
         id="path582"
         d="m 345.323,365.422 -150,-178.102 1.684,-1.419 150,178.104 -0.948,1.803 z" /></clipPath><linearGradient
       id="linearGradient596"
       spreadMethod="pad"
       gradientTransform="matrix(-151.68164,0,0,-151.68164,347.00586,275.85449)"
       gradientUnits="userSpaceOnUse"
       y2="0"
       x2="1"
       y1="0"
       x1="0"><stop
         id="stop590"
         offset="0"
         style="stop-opacity:1;stop-color:#2e3192" /><stop
         id="stop592"
         offset="0.45169567"
         style="stop-opacity:1;stop-color:#7bc3d1" /><stop
         id="stop594"
         offset="1"
         style="stop-opacity:1;stop-color:#7bc3d1" /></linearGradient><clipPath
       id="clipPath606"
       clipPathUnits="userSpaceOnUse"><path
         id="path604"
         d="m 345.301,376.991 -149.999,-189.698 1.727,-1.366 149.998,189.7 -1.061,1.764 z" /></clipPath><linearGradient
       id="linearGradient618"
       spreadMethod="pad"
       gradientTransform="matrix(-151.72461,0,0,-151.72461,347.02734,281.65918)"
       gradientUnits="userSpaceOnUse"
       y2="0"
       x2="1"
       y1="0"
       x1="0"><stop
         id="stop612"
         offset="0"
         style="stop-opacity:1;stop-color:#2e3192" /><stop
         id="stop614"
         offset="0.45169567"
         style="stop-opacity:1;stop-color:#7bc3d1" /><stop
         id="stop616"
         offset="1"
         style="stop-opacity:1;stop-color:#7bc3d1" /></linearGradient><clipPath
       id="clipPath628"
       clipPathUnits="userSpaceOnUse"><path
         id="path626"
         d="m 345.289,388.807 -150.005,-201.539 1.764,-1.315 149.998,201.294 -0.595,1.858 z" /></clipPath><linearGradient
       id="linearGradient640"
       spreadMethod="pad"
       gradientTransform="matrix(-151.76367,0,0,-151.76367,347.04687,287.5293)"
       gradientUnits="userSpaceOnUse"
       y2="0"
       x2="1"
       y1="0"
       x1="0"><stop
         id="stop634"
         offset="0"
         style="stop-opacity:1;stop-color:#2e3192" /><stop
         id="stop636"
         offset="0.45169567"
         style="stop-opacity:1;stop-color:#7bc3d1" /><stop
         id="stop638"
         offset="1"
         style="stop-opacity:1;stop-color:#7bc3d1" /></linearGradient><clipPath
       id="clipPath650"
       clipPathUnits="userSpaceOnUse"><path
         id="path648"
         d="M 344.556,398.361 192.414,183.21 l 154.295,87.784 0.02,1.9 -1.108,0.012 -145.703,-82.895 146.877,207.756 -0.509,1.399 z" /></clipPath><linearGradient
       id="linearGradient662"
       spreadMethod="pad"
       gradientTransform="matrix(-154.38184,1.53e-5,1.53e-5,154.38184,346.79541,291.1875)"
       gradientUnits="userSpaceOnUse"
       y2="0"
       x2="1"
       y1="0"
       x1="0"><stop
         id="stop656"
         offset="0"
         style="stop-opacity:1;stop-color:#2e3192" /><stop
         id="stop658"
         offset="0.45169567"
         style="stop-opacity:1;stop-color:#7bc3d1" /><stop
         id="stop660"
         offset="1"
         style="stop-opacity:1;stop-color:#7bc3d1" /></linearGradient></defs><g
     clip-path="url(#clipPath14)"
     transform="matrix(1.3333333,0,0,-1.3333333,-245.424,545.29867)"
     id="g10"><g
       id="g16"><g
         clip-path="url(#clipPath22)"
         id="g18"><g
           transform="translate(376.0049,392.4946)"
           id="g24"><path
             id="path26"
             style="fill:#0b120e;fill-opacity:1;fill-rule:nonzero;stroke:none"
             d="m 0,0 v -13.555 h 5.168 c 2.357,0 5.168,1.904 5.168,4.397 v 4.851 C 10.336,-1.95 8.478,0 6.029,0 Z M 0,0 V 0.181 C -0.045,0.09 -0.091,0 -0.227,0 Z m -0.317,2.946 h 6.346 c 4.171,0 7.254,-3.082 7.254,-7.253 v -4.851 c 0,-2.221 -2.131,-5.485 -4.896,-5.848 3.037,-0.408 5.032,-3.672 5.032,-5.938 v -7.889 h -2.947 v 7.889 c 0,2.538 -2.947,4.443 -5.304,4.443 H 0 v -12.332 h -2.901 v 29.15 c 0,1.541 1.043,2.629 2.584,2.629" /></g><g
           transform="translate(398.3096,370.8701)"
           id="g28"><path
             id="path30"
             style="fill:#0b120e;fill-opacity:1;fill-rule:nonzero;stroke:none"
             d="m 0,0 c 0,-2.992 2.675,-4.533 5.44,-4.533 2.72,0 5.395,1.541 5.395,4.533 v 17.363 c 0,2.947 -2.675,4.488 -5.395,4.488 C 2.675,21.851 0,20.31 0,17.363 Z m -2.901,17.363 c 0,4.941 4.125,7.435 8.341,7.435 4.17,0 8.341,-2.494 8.341,-7.435 L 13.781,0 c 0,-4.986 -4.171,-7.48 -8.341,-7.48 -4.216,0 -8.341,2.494 -8.341,7.48 z" /></g><g
           transform="translate(432.4033,370.8701)"
           id="g32"><path
             id="path34"
             style="fill:#0b120e;fill-opacity:1;fill-rule:nonzero;stroke:none"
             d="m 0,0 v 3.854 c 0,2.447 -1.949,4.442 -4.307,4.442 h -6.619 V -4.307 h 6.709 C -2.04,-4.216 0,-2.312 0,0 M -10.926,21.579 V 11.288 h 6.619 c 2.221,0 3.808,1.995 3.808,4.307 v 1.632 c 0,2.403 -1.949,4.352 -4.307,4.352 z m 0,-25.886 h -0.272 c 0.136,-0.045 0.272,-0.135 0.272,-0.317 z m -0.362,25.886 h 0.362 v 0.363 z M -1.542,9.883 C 1.586,9.339 2.946,6.166 2.946,3.854 V 0 c 0,-3.854 -3.49,-7.208 -7.163,-7.253 h -7.071 c -1.587,0 -2.539,0.997 -2.539,2.629 v 26.566 c 0,1.541 0.952,2.584 2.539,2.584 h 6.482 c 3.854,-0.046 7.253,-3.129 7.253,-7.299 v -1.632 c 0,-1.949 -0.997,-5.077 -3.989,-5.712" /></g><g
           transform="translate(443.9189,370.8701)"
           id="g36"><path
             id="path38"
             style="fill:#0b120e;fill-opacity:1;fill-rule:nonzero;stroke:none"
             d="m 0,0 c 0,-2.992 2.675,-4.533 5.44,-4.533 2.72,0 5.395,1.541 5.395,4.533 v 17.363 c 0,2.947 -2.675,4.488 -5.395,4.488 C 2.675,21.851 0,20.31 0,17.363 Z m -2.901,17.363 c 0,4.941 4.125,7.435 8.341,7.435 4.17,0 8.341,-2.494 8.341,-7.435 L 13.781,0 c 0,-4.986 -4.171,-7.48 -8.341,-7.48 -4.216,0 -8.341,2.494 -8.341,7.48 z" /></g><g
           transform="translate(478.1934,395.396)"
           id="g40"><path
             id="path42"
             style="fill:#0b120e;fill-opacity:1;fill-rule:nonzero;stroke:none"
             d="m 0,0 v -2.947 h -7.616 v -28.787 h -2.947 v 28.787 h -7.435 V 0 Z" /></g><path
           id="path44"
           style="fill:#0b120e;fill-opacity:1;fill-rule:nonzero;stroke:none"
           d="m 483.226,395.396 h 2.992 v -31.734 h -2.992 z" /><g
           transform="translate(509.7471,371.7314)"
           id="g46"><path
             id="path48"
             style="fill:#0b120e;fill-opacity:1;fill-rule:nonzero;stroke:none"
             d="m 0,0 c -0.045,-5.53 -4.307,-8.342 -8.341,-8.342 -4.262,0 -8.342,2.494 -8.342,7.526 v 17.317 c 0,5.033 4.036,7.526 8.296,7.526 4.08,0 8.296,-2.811 8.387,-8.341 h -3.037 c 0,3.536 -2.629,5.395 -5.304,5.395 -2.765,0 -5.395,-1.587 -5.395,-4.58 V -0.816 c 0.046,-2.992 2.674,-4.579 5.395,-4.579 2.675,0 5.304,1.859 5.304,5.395 z" /></g><g
           transform="translate(523.4385,395.7583)"
           id="g50"><path
             id="path52"
             style="fill:#0b120e;fill-opacity:1;fill-rule:nonzero;stroke:none"
             d="M 0,0 C 3.989,0 8.114,-2.811 8.114,-8.205 H 5.168 c 0,3.445 -2.584,5.259 -5.168,5.259 -2.675,0 -5.259,-1.542 -5.259,-4.443 v -2.675 c 0,-3.082 2.992,-3.853 5.576,-4.397 3.627,-0.726 7.797,-1.768 7.797,-7.163 v -3.355 c 0,-4.941 -4.17,-7.435 -8.205,-7.435 -4.171,0 -8.114,2.811 -8.069,8.251 h 2.901 c 0,-3.49 2.539,-5.258 5.168,-5.258 2.63,0 5.259,1.541 5.259,4.442 v 3.355 c 0,3.173 -2.766,3.808 -5.485,4.261 -3.854,0.771 -7.798,1.633 -7.843,7.299 v 2.675 C -8.16,-2.493 -4.171,0 0,0" /></g><g
           transform="translate(563.6973,378.4409)"
           id="g54"><path
             id="path56"
             style="fill:#0b120e;fill-opacity:1;fill-rule:nonzero;stroke:none"
             d="M 0,0 H -4.533 C -6.71,0 -8.478,-2.04 -8.478,-4.125 v -3.537 c 0,-2.357 1.905,-4.306 4.216,-4.306 2.404,0 4.262,1.994 4.262,4.443 z m 6.256,-11.833 v -2.901 c -2.312,0 -4.715,1.36 -5.123,3.809 -0.407,-2.403 -3.309,-3.945 -5.395,-3.945 -4.08,0 -7.117,3.128 -7.117,7.208 v 3.537 c 0,2.221 1.36,4.352 3.174,5.576 -1.769,1.178 -2.857,3.218 -2.857,5.53 v 2.358 c 0,3.944 2.811,6.89 6.846,6.89 2.447,0 4.76,-1.586 6.256,-3.762 l -2.357,-1.723 c -1.088,1.723 -2.539,2.584 -3.899,2.584 -2.222,0 -3.989,-1.768 -3.989,-3.989 V 6.981 c 0,-2.04 1.541,-4.08 3.717,-4.08 H 0 V 5.032 H 2.855 V 2.901 H 5.848 V 0 H 2.855 v -7.525 c 0,-4.08 2.495,-4.308 3.401,-4.308" /></g><g
           transform="translate(376.0049,335.2354)"
           id="g58"><path
             id="path60"
             style="fill:#0b120e;fill-opacity:1;fill-rule:nonzero;stroke:none"
             d="m 0,0 h 6.165 c 2.267,0 4.171,1.949 4.171,4.307 v 4.669 c 0,2.357 -1.904,4.352 -4.171,4.352 L 0,13.237 Z m 6.165,16.274 c 3.899,0 7.118,-3.445 7.118,-7.298 V 4.307 c 0,-3.808 -3.219,-7.254 -7.118,-7.254 H 0 V -15.459 H -2.901 V 13.69 c 0,1.497 1.223,2.584 2.539,2.584 z" /></g><g
           transform="translate(408.7822,348.5635)"
           id="g62"><path
             id="path64"
             style="fill:#0b120e;fill-opacity:1;fill-rule:nonzero;stroke:none"
             d="m 0,0 -10.972,-0.091 v -10.971 h 10.473 v -2.946 h -10.473 v -7.435 c 0,-2.312 1.951,-4.398 4.308,-4.398 H 0 v -2.946 h -6.664 c -3.944,0 -7.254,3.4 -7.254,7.344 V 0.362 c 0,1.496 1.314,2.584 2.629,2.584 L 0,2.946 Z" /></g><g
           transform="translate(417.5781,348.6084)"
           id="g66"><path
             id="path68"
             style="fill:#0b120e;fill-opacity:1;fill-rule:nonzero;stroke:none"
             d="m 0,0 v -13.555 h 5.168 c 2.357,0 5.168,1.905 5.168,4.398 v 4.85 C 10.336,-1.949 8.478,0 6.029,0 Z M 0,0 V 0.182 C -0.045,0.091 -0.091,0 -0.227,0 Z m -0.317,2.947 h 6.346 c 4.171,0 7.254,-3.083 7.254,-7.254 v -4.85 c 0,-2.222 -2.131,-5.486 -4.896,-5.848 3.037,-0.408 5.032,-3.672 5.032,-5.939 v -7.888 h -2.947 v 7.888 c 0,2.539 -2.947,4.443 -5.304,4.443 H 0 V -28.832 H -2.901 V 0.317 c 0,1.542 1.043,2.63 2.584,2.63" /></g><g
           transform="translate(453.665,327.8457)"
           id="g70"><path
             id="path72"
             style="fill:#0b120e;fill-opacity:1;fill-rule:nonzero;stroke:none"
             d="m 0,0 c -0.045,-5.53 -4.307,-8.342 -8.341,-8.342 -4.262,0 -8.342,2.494 -8.342,7.526 v 17.318 c 0,5.031 4.036,7.525 8.296,7.525 4.08,0 8.296,-2.81 8.387,-8.341 h -3.037 c 0,3.536 -2.629,5.394 -5.304,5.394 -2.765,0 -5.395,-1.586 -5.395,-4.578 V -0.816 c 0.046,-2.992 2.674,-4.579 5.395,-4.579 2.675,0 5.304,1.859 5.304,5.395 z" /></g><g
           transform="translate(473.8848,348.5635)"
           id="g74"><path
             id="path76"
             style="fill:#0b120e;fill-opacity:1;fill-rule:nonzero;stroke:none"
             d="m 0,0 -10.972,-0.091 v -10.971 h 10.473 v -2.946 h -10.473 v -7.435 c 0,-2.312 1.951,-4.398 4.307,-4.398 H 0 v -2.946 h -6.665 c -3.943,0 -7.253,3.4 -7.253,7.344 V 0.362 c 0,1.496 1.314,2.584 2.629,2.584 L 0,2.946 Z" /></g><g
           transform="translate(483.7236,335.2354)"
           id="g78"><path
             id="path80"
             style="fill:#0b120e;fill-opacity:1;fill-rule:nonzero;stroke:none"
             d="m 0,0 h 6.165 c 2.267,0 4.171,1.949 4.171,4.307 v 4.669 c 0,2.357 -1.904,4.352 -4.171,4.352 L 0,13.237 Z m 6.165,16.274 c 3.899,0 7.118,-3.445 7.118,-7.298 V 4.307 c 0,-3.808 -3.219,-7.254 -7.118,-7.254 H 0 V -15.459 H -2.901 V 13.69 c 0,1.497 1.223,2.584 2.539,2.584 z" /></g><g
           transform="translate(516.8184,351.5098)"
           id="g82"><path
             id="path84"
             style="fill:#0b120e;fill-opacity:1;fill-rule:nonzero;stroke:none"
             d="m 0,0 v -2.946 h -7.616 v -28.787 h -2.947 v 28.787 h -7.435 V 0 Z" /></g><path
           id="path86"
           style="fill:#0b120e;fill-opacity:1;fill-rule:nonzero;stroke:none"
           d="m 521.852,351.51 h 2.992 v -31.733 h -2.992 z" /><g
           transform="translate(534.5908,326.9844)"
           id="g88"><path
             id="path90"
             style="fill:#0b120e;fill-opacity:1;fill-rule:nonzero;stroke:none"
             d="m 0,0 c 0,-2.992 2.675,-4.533 5.44,-4.533 2.72,0 5.395,1.541 5.395,4.533 v 17.363 c 0,2.947 -2.675,4.488 -5.395,4.488 C 2.675,21.851 0,20.31 0,17.363 Z m -2.901,17.363 c 0,4.942 4.125,7.435 8.341,7.435 4.17,0 8.341,-2.493 8.341,-7.435 L 13.781,0 c 0,-4.986 -4.171,-7.48 -8.341,-7.48 -4.216,0 -8.341,2.494 -8.341,7.48 z" /></g><g
           transform="translate(569.4092,322.8135)"
           id="g92"><path
             id="path94"
             style="fill:#0b120e;fill-opacity:1;fill-rule:nonzero;stroke:none"
             d="m 0,0 -0.68,4.216 -0.227,24.48 H 2.04 V -0.815 c 0,-1.452 -0.997,-2.222 -2.04,-2.222 -0.771,0 -1.632,0.544 -1.995,1.405 -3.355,8.296 -7.072,18.451 -10.29,26.883 l 0.589,-4.669 V -3.037 h -2.902 v 29.558 c -0.045,1.451 1.043,2.312 2.176,2.312 0.907,0 1.859,-0.544 2.086,-1.587 l -0.046,0.091 z" /></g><g
           transform="translate(381.5811,293.3887)"
           id="g96"><path
             id="path98"
             style="fill:#0b120e;fill-opacity:1;fill-rule:nonzero;stroke:none"
             d="m 0,0 h 5.712 c 1.496,0 2.584,-0.997 2.584,-2.493 v -7.889 c 0,-4.895 -4.171,-7.389 -8.342,-7.389 -4.261,0 -8.432,2.539 -8.432,7.571 V 7.162 c 0,4.987 4.081,7.481 8.342,7.481 4.125,0 8.296,-2.811 8.341,-8.296 H 5.213 c 0,3.536 -2.674,5.349 -5.349,5.349 -2.765,0 -5.44,-1.542 -5.44,-4.534 V -10.2 c 0.045,-3.037 2.765,-4.624 5.53,-4.624 2.721,0 5.35,1.541 5.396,4.442 v 7.481 H 0 Z" /></g><g
           transform="translate(399.2627,304.7217)"
           id="g100"><path
             id="path102"
             style="fill:#0b120e;fill-opacity:1;fill-rule:nonzero;stroke:none"
             d="m 0,0 v -13.555 h 5.168 c 2.357,0 5.168,1.905 5.168,4.398 v 4.85 C 10.336,-1.949 8.478,0 6.029,0 Z M 0,0 V 0.182 C -0.045,0.091 -0.091,0 -0.227,0 Z m -0.317,2.947 h 6.346 c 4.171,0 7.254,-3.083 7.254,-7.254 v -4.85 c 0,-2.222 -2.131,-5.486 -4.896,-5.848 3.037,-0.408 5.032,-3.672 5.032,-5.939 v -7.888 h -2.947 v 7.888 c 0,2.539 -2.947,4.443 -5.304,4.443 H 0 V -28.832 H -2.901 V 0.317 c 0,1.542 1.043,2.63 2.584,2.63" /></g><g
           transform="translate(421.5684,283.0977)"
           id="g104"><path
             id="path106"
             style="fill:#0b120e;fill-opacity:1;fill-rule:nonzero;stroke:none"
             d="m 0,0 c 0,-2.992 2.675,-4.533 5.44,-4.533 2.72,0 5.395,1.541 5.395,4.533 v 17.363 c 0,2.947 -2.675,4.488 -5.395,4.488 C 2.675,21.851 0,20.31 0,17.363 Z m -2.901,17.363 c 0,4.942 4.125,7.435 8.341,7.435 4.17,0 8.341,-2.493 8.341,-7.435 L 13.781,0 c 0,-4.986 -4.171,-7.48 -8.341,-7.48 -4.216,0 -8.341,2.494 -8.341,7.48 z" /></g><g
           transform="translate(458.5166,307.623)"
           id="g108"><path
             id="path110"
             style="fill:#0b120e;fill-opacity:1;fill-rule:nonzero;stroke:none"
             d="m 0,0 v -24.616 c 0,-4.987 -4.171,-7.48 -8.341,-7.48 -4.217,0 -8.342,2.493 -8.342,7.48 V 0 h 2.902 c 0,-5.395 0,-22.032 -0.045,-24.616 0.18,-2.811 2.901,-4.533 5.53,-4.533 2.72,0 5.35,1.541 5.35,4.533 l 0,24.616 z" /></g><g
           transform="translate(467.8574,291.3486)"
           id="g112"><path
             id="path114"
             style="fill:#0b120e;fill-opacity:1;fill-rule:nonzero;stroke:none"
             d="m 0,0 h 6.165 c 2.267,0 4.171,1.949 4.171,4.307 v 4.669 c 0,2.357 -1.904,4.352 -4.171,4.352 L 0,13.237 Z m 6.165,16.274 c 3.899,0 7.118,-3.445 7.118,-7.298 V 4.307 c 0,-3.808 -3.219,-7.254 -7.118,-7.254 H 0 V -15.459 H -2.901 V 13.69 c 0,1.497 1.223,2.584 2.539,2.584 z" /></g></g></g><g
       id="g116"><g
         clip-path="url(#clipPath122)"
         id="g118"><g
           id="g124"><g
             id="g126"><path
               id="path136"
               style="fill:url(#linearGradient134);stroke:none"
               d="m 212.119,350.88 133.481,-79.874 1.129,1.888 -133.48,79.874 z" /></g></g></g></g><g
       id="g138"><g
         clip-path="url(#clipPath144)"
         id="g140"><g
           id="g146"><g
             id="g148"><path
               id="path158"
               style="fill:url(#linearGradient156);stroke:none"
               d="m 212.183,350.844 133.481,-68.277 1.002,1.958 -133.481,68.279 z" /></g></g></g></g><g
       id="g160"><g
         clip-path="url(#clipPath166)"
         id="g162"><g
           id="g168"><g
             id="g170"><path
               id="path180"
               style="fill:url(#linearGradient178);stroke:none"
               d="m 212.254,350.811 133.481,-56.683 0.859,2.025 -133.48,56.683 z" /></g></g></g></g><g
       id="g182"><g
         clip-path="url(#clipPath188)"
         id="g184"><g
           id="g190"><g
             id="g192"><path
               id="path202"
               style="fill:url(#linearGradient200);stroke:none"
               d="m 212.333,350.781 133.48,-45.086 0.703,2.083 -133.481,45.088 z" /></g></g></g></g><g
       id="g204"><g
         clip-path="url(#clipPath210)"
         id="g206"><g
           id="g212"><g
             id="g214"><path
               id="path224"
               style="fill:url(#linearGradient222);stroke:none"
               d="m 212.416,350.757 133.481,-33.492 0.535,2.134 -133.48,33.492 z" /></g></g></g></g><g
       id="g226"><g
         clip-path="url(#clipPath232)"
         id="g228"><g
           id="g234"><g
             id="g236"><path
               id="path246"
               style="fill:url(#linearGradient244);stroke:none"
               d="m 212.506,350.738 133.481,-21.896 0.355,2.171 -133.48,21.896 z" /></g></g></g></g><g
       id="g248"><g
         clip-path="url(#clipPath254)"
         id="g250"><g
           id="g256"><g
             id="g258"><path
               id="path268"
               style="fill:url(#linearGradient266);stroke:none"
               d="m 212.599,350.727 133.481,-10.301 0.17,2.193 -133.481,10.302 z" /></g></g></g></g><g
       id="g270"><g
         clip-path="url(#clipPath276)"
         id="g272"><g
           id="g278"><g
             id="g280"><path
               id="path290"
               style="fill:url(#linearGradient288);stroke:none"
               d="m 212.674,352.924 0.021,-2.2 133.48,1.294 -0.021,2.2 z" /></g></g></g></g><g
       id="g292"><g
         clip-path="url(#clipPath298)"
         id="g294"><g
           id="g300"><g
             id="g302"><path
               id="path312"
               style="fill:url(#linearGradient310);stroke:none"
               d="m 212.578,352.919 0.212,-2.19 133.48,12.89 -0.211,2.189 z" /></g></g></g></g><g
       id="g314"><g
         clip-path="url(#clipPath320)"
         id="g316"><g
           id="g322"><g
             id="g324"><path
               id="path334"
               style="fill:url(#linearGradient332);stroke:none"
               d="m 212.486,352.906 0.396,-2.164 133.481,24.484 -0.397,2.165 z" /></g></g></g></g><g
       id="g336"><g
         clip-path="url(#clipPath342)"
         id="g338"><g
           id="g344"><g
             id="g346"><path
               id="path356"
               style="fill:url(#linearGradient354);stroke:none"
               d="m 212.397,352.885 0.574,-2.123 133.48,36.08 -0.574,2.124 z" /></g></g></g></g><g
       id="g358"><g
         clip-path="url(#clipPath364)"
         id="g360"><g
           id="g366"><g
             id="g368"><path
               id="path378"
               style="fill:url(#linearGradient376);stroke:none"
               d="m 212.314,352.86 0.74,-2.072 133.481,47.675 -0.741,2.073 z" /></g></g></g></g><g
       id="g380"><g
         clip-path="url(#clipPath386)"
         id="g382"><g
           id="g388"><g
             id="g390"><path
               id="path400"
               style="fill:url(#linearGradient398);stroke:none"
               d="m 212.314,352.86 -2.195,-0.784 135.481,-81.07 1.129,1.888 -131.48,78.678 c 16.962,6.053 126.249,45.06 131.291,46.894 v 0 l -0.751,2.067 C 340.355,398.557 213.594,353.317 212.314,352.86" /></g></g></g></g><g
       id="g402"><g
         clip-path="url(#clipPath408)"
         id="g404"><g
           id="g410"><g
             id="g412"><path
               id="path422"
               style="fill:url(#linearGradient420);stroke:none"
               d="m 195.621,187.566 1.088,-1.911 150,85.339 -1.088,1.912 z" /></g></g></g></g><g
       id="g424"><g
         clip-path="url(#clipPath430)"
         id="g426"><g
           id="g432"><g
             id="g434"><path
               id="path444"
               style="fill:url(#linearGradient442);stroke:none"
               d="m 345.568,284.469 -149.999,-96.935 1.193,-1.848 149.999,96.936 -0.095,1.903 z" /></g></g></g></g><g
       id="g446"><g
         clip-path="url(#clipPath452)"
         id="g448"><g
           id="g454"><g
             id="g456"><path
               id="path466"
               style="fill:url(#linearGradient464);stroke:none"
               d="m 345.52,296.033 -149.999,-108.532 1.289,-1.782 149.999,108.531 -0.215,1.903 z" /></g></g></g></g><g
       id="g468"><g
         clip-path="url(#clipPath474)"
         id="g470"><g
           id="g476"><g
             id="g478"><path
               id="path488"
               style="fill:url(#linearGradient486);stroke:none"
               d="m 345.477,307.595 -149.999,-120.126 1.375,-1.717 149.999,120.126 -0.336,1.9 z" /></g></g></g></g><g
       id="g490"><g
         clip-path="url(#clipPath496)"
         id="g492"><g
           id="g498"><g
             id="g500"><path
               id="path510"
               style="fill:url(#linearGradient508);stroke:none"
               d="m 345.439,319.159 -150,-131.722 1.452,-1.653 149.999,131.722 -0.458,1.893 z" /></g></g></g></g><g
       id="g512"><g
         clip-path="url(#clipPath518)"
         id="g514"><g
           id="g520"><g
             id="g522"><path
               id="path532"
               style="fill:url(#linearGradient530);stroke:none"
               d="m 345.405,330.723 -149.999,-143.318 1.519,-1.589 149.999,143.316 -0.582,1.881 z" /></g></g></g></g><g
       id="g534"><g
         clip-path="url(#clipPath540)"
         id="g536"><g
           id="g542"><g
             id="g544"><path
               id="path554"
               style="fill:url(#linearGradient552);stroke:none"
               d="m 345.374,342.288 -149.998,-154.912 1.58,-1.531 149.998,154.913 -0.704,1.861 z" /></g></g></g></g><g
       id="g556"><g
         clip-path="url(#clipPath562)"
         id="g558"><g
           id="g564"><g
             id="g566"><path
               id="path576"
               style="fill:url(#linearGradient574);stroke:none"
               d="m 345.347,353.855 -149.999,-166.508 1.635,-1.473 149.999,166.508 -0.828,1.836 z" /></g></g></g></g><g
       id="g578"><g
         clip-path="url(#clipPath584)"
         id="g580"><g
           id="g586"><g
             id="g588"><path
               id="path598"
               style="fill:url(#linearGradient596);stroke:none"
               d="m 345.323,365.422 -150,-178.102 1.684,-1.419 150,178.104 -0.948,1.803 z" /></g></g></g></g><g
       id="g600"><g
         clip-path="url(#clipPath606)"
         id="g602"><g
           id="g608"><g
             id="g610"><path
               id="path620"
               style="fill:url(#linearGradient618);stroke:none"
               d="m 345.301,376.991 -149.999,-189.698 1.727,-1.366 149.998,189.7 -1.061,1.764 z" /></g></g></g></g><g
       id="g622"><g
         clip-path="url(#clipPath628)"
         id="g624"><g
           id="g630"><g
             id="g632"><path
               id="path642"
               style="fill:url(#linearGradient640);stroke:none"
               d="m 345.289,388.807 -150.005,-201.539 1.764,-1.315 149.998,201.294 -0.595,1.858 z" /></g></g></g></g><g
       id="g644"><g
         clip-path="url(#clipPath650)"
         id="g646"><g
           id="g652"><g
             id="g654"><path
               id="path664"
               style="fill:url(#linearGradient662);stroke:none"
               d="M 344.556,398.361 192.414,183.21 l 154.295,87.784 0.02,1.9 -1.108,0.012 -145.703,-82.895 146.877,207.756 -0.509,1.399 z" /></g></g></g></g></g></svg>